/* XPM */
static char *add_xpm[] = {
/* columns rows colors chars-per-pixel */
"16 16 78 1",
"  c #188ace",
". c #43a0d7",
"X c #46a1d8",
"o c #49a3d8",
"O c #7fbee3",
"+ c #9c8543",
"@ c #97876c",
"# c #a48e56",
"$ c #a79243",
"% c #a4936d",
"& c #ab9971",
"* c #b9ab68",
"= c #b7a977",
"- c #c9ba71",
"; c #cbbf7f",
": c #d0c17f",
"> c #928586",
", c #928993",
"< c #8b88bb",
"1 c #928eb0",
"2 c #9c9bbb",
"3 c #a19cb9",
"4 c #adaeae",
"5 c #aeb0af",
"6 c #b4b4b4",
"7 c #b6b6bd",
"8 c #b5b8b7",
"9 c #b7b8b9",
"0 c #b8b7b7",
"q c #bcbab4",
"w c #bbbcbb",
"e c #9b9ccb",
"r c #9d9ed4",
"t c #9ca0ca",
"y c #82bfe4",
"u c #a0a2cc",
"i c #b5b7c6",
"p c #bdbec2",
"a c #bcb9ce",
"s c #9dcdea",
"d c #bfc0c1",
"f c #a3d0eb",
"g c #b5daf0",
"h c #badcf0",
"j c #c6b899",
"k c #c0b4ab",
"l c #dacb83",
"z c #dacf9a",
"x c #c4c3ba",
"c c #d1c7ab",
"v c #d3c9aa",
"b c #d7cbb8",
"n c #e5ddbc",
"m c #c2c3c2",
"M c #c6c9c9",
"N c #cdd1d0",
"B c #d5cece",
"V c #dadfde",
"C c #c5e1f2",
"Z c #c9e3f3",
"A c #dfe9e8",
"S c #d5e9f6",
"D c #d9ecf7",
"F c #deeef8",
"G c #e2dcc3",
"H c #e0deea",
"J c #ebe5da",
"K c #e1e2e1",
"L c #e4e8e8",
"P c #ece6e0",
"I c #ebeeee",
"U c #e6ebfd",
"Y c #e4f1f8",
"T c #f0eeef",
"R c #f3f0ea",
"E c #f4f6f6",
"W c #f6fbfa",
"Q c #fefefe",
/* pixels */
"mx;nnlG:zc-v=*kM",
"p2,$1@%<+3>&e#9d",
"7rajUkJHbQBTTPm9",
"7uWQQQQQQQQQQQm8",
"7tQQQQQh YQQQQm0",
"7tWQQQQh YQQQQm8",
"7tWQQQQh YQQQQm0",
"7tQQQQQg hCfhQm0",
"weWQ.       oQm0",
"7eWQOsfy hSQQQm8",
"7tWQQQQZ DQQQQm0",
"7tWQQQQZ SQQWQm0",
"7tWQQQQSXFQQQQm8",
"7eWQQQQQQWEILK69",
"wiALVNMm9965549x",
"mm0468099wdmddmm"
};
