/* XPM */
static char *commit_xpm[] = {
/* columns rows colors chars-per-pixel */
"16 16 74 1",
"  c #9e0b0e",
". c #a3191c",
"X c #a61f22",
"o c #aa2a2d",
"O c #ac3538",
"+ c #b03b3d",
"@ c #bf5e60",
"# c #b17475",
"$ c #c26668",
"% c #c46c6d",
"& c #968255",
"* c #978677",
"= c #a58f55",
"- c #a69143",
"; c #a9955a",
": c #baa95e",
"> c #b1a47c",
", c #cbbd7f",
"< c #dccb7f",
"1 c #928685",
"2 c #908898",
"3 c #918db7",
"4 c #9994ae",
"5 c #aa9f94",
"6 c #b79697",
"7 c #b2b5b4",
"8 c #b6b9b8",
"9 c #bdbdbd",
"0 c #8f8dc7",
"q c #979bcc",
"w c #9b9ecd",
"e c #9b9dd2",
"r c #a4a1c7",
"t c #aaa9d3",
"y c #bfbdd3",
"u c #bbbed8",
"i c #bfc1c1",
"p c #d6999a",
"a c #c1b294",
"s c #c4b89e",
"d c #c1b9b9",
"f c #dca6a7",
"g c #e0b1b2",
"h c #e2b7b8",
"j c #d8cb8b",
"k c #d6ca9d",
"l c #cfc3b3",
"z c #d9d1bb",
"x c #e9dc91",
"c c #c3c3c3",
"v c #c6c8c7",
"b c #c7caca",
"n c #cacaca",
"m c #cfd3d3",
"M c LightGray",
"N c #dbdcdd",
"B c #dde2e4",
"V c #e9c9ca",
"C c #e3dcc2",
"Z c #e2dcd4",
"A c #e2dddc",
"S c #ece5c8",
"D c #e7e1db",
"F c #e2e5e4",
"G c #e7ebe9",
"H c #eaebea",
"J c #e9ecf9",
"K c #eef1f0",
"L c #f2ecec",
"P c #fcfaef",
"I c #f5f5f6",
"U c #f6fbf9",
"Y c #f9f4f3",
"T c #fefefe",
/* pixels */
"TPxCS<Ckjz,ks:zT",
"Tr2-41;0&53=t*>N",
"TeyaJ9CJlYNZUAA9",
"TwTTTTTTTYTTTTH9",
"TwUTTTTTT@pTTTH9",
"TwUTTTTTTh +VTH9",
"TwUTTTTTTTo  %A9",
"TwUTp+++++.   .#",
"TwUTg%%%%%o   O6",
"TwUTTTTTTYX .pG9",
"TwUTTTTTTf $LTH9",
"TwUTTTTTT%VTTTG9",
"TwUTTTTTTTTTTTH9",
"TwUTTTTTUUUHFDv9",
"TuBBNmbc87779ibH",
"TIbivMNHLIITTTTT"
};
