/* XPM */
static char *info_xpm[] = {
/* columns rows colors chars-per-pixel */
"16 16 132 2",
"   c #002586",
".  c #002888",
"X  c #053193",
"o  c #1b2f8a",
"O  c #223a88",
"+  c #326090",
"@  c #505f85",
"#  c #4c6d9f",
"$  c #556994",
"%  c #747c9a",
"&  c #698aab",
"*  c #6a8ab1",
"=  c #7089af",
"-  c #728cb7",
";  c #7e94af",
":  c #7894b8",
">  c #7da0be",
",  c #7a9dcd",
"<  c #789bd4",
"1  c #968255",
"2  c #978677",
"3  c #a58f55",
"4  c #a69143",
"5  c #a9955a",
"6  c #baa95e",
"7  c #b1a47c",
"8  c #cbbd7f",
"9  c #dccb7f",
"0  c #928685",
"q  c #908898",
"w  c #918db7",
"e  c #9994ae",
"r  c #94a5b8",
"t  c #aa9f94",
"y  c #b2b5b4",
"u  c #b6b9b8",
"i  c #bdbdbd",
"p  c #8f8dc7",
"a  c #979bcc",
"s  c #9b9ece",
"d  c #9b9dd2",
"f  c #86a6c6",
"g  c #88aad6",
"h  c #9ea3ce",
"j  c #93aed1",
"k  c #9db3ce",
"l  c #90b0dd",
"z  c #9ab7db",
"x  c #9cb9df",
"c  c #8bb4e9",
"v  c #96b8e3",
"b  c #93beef",
"n  c #a4a1c7",
"m  c #a1a3cf",
"M  c #a3a8c3",
"N  c #a9acd2",
"B  c #a3b8cd",
"V  c #a9bbcd",
"C  c #a0b8de",
"Z  c #aeb2d5",
"A  c #b7bcc4",
"S  c #bfbdd3",
"D  c #bbbdda",
"F  c #a8bce0",
"G  c #98c1e7",
"H  c #abc2dc",
"J  c #b6c3c8",
"K  c #bec1c0",
"L  c #bcc2d0",
"P  c #bfc2de",
"I  c #bdcbd8",
"U  c #a5c2e5",
"Y  c #aac6e1",
"T  c #b8cce1",
"R  c #b7daf3",
"E  c #c1b294",
"W  c #c4b89e",
"Q  c #c1b9b9",
"!  c #d8cb8b",
"~  c #d6ca9d",
"^  c #cfc3b3",
"/  c #d9d1bb",
"(  c #e9dc91",
")  c #c3c3c3",
"_  c #c6c8c7",
"`  c #c7caca",
"'  c #cacaca",
"]  c #c2c4df",
"[  c #cfd3d3",
"{  c #ced6da",
"}  c LightGray",
"|  c #dbdcdd",
" . c #c2c3e0",
".. c #c5d4e4",
"X. c #cdd9e1",
"o. c #c4dcf3",
"O. c #d5dbe5",
"+. c #dedfe8",
"@. c #c7e5ff",
"#. c #c5eaff",
"$. c #cfe6fe",
"%. c #dde2e4",
"&. c #d3ebfe",
"*. c #d8e5f1",
"=. c #dbebf7",
"-. c #dbecfc",
";. c #daf0fd",
":. c #e3dcc2",
">. c #e2dcd4",
",. c #e0dede",
"<. c #ece5c8",
"1. c #e7e1db",
"2. c #e2e5e4",
"3. c #e5eaec",
"4. c #eaebea",
"5. c #e7edf1",
"6. c #e2edf8",
"7. c #e9eef4",
"8. c #e9ecf9",
"9. c #e3f7f7",
"0. c #e6f2fb",
"q. c #eef1f0",
"w. c #eaf4fb",
"e. c #e8f8ff",
"r. c #f0efef",
"t. c #fcfaef",
"y. c #f3f5f5",
"u. c #f5f6f9",
"i. c #f7f9f3",
"p. c #f3fbfb",
"a. c #f8f5f2",
"s. c #fdfefd",
/* pixels */
"s.t.( :.<.9 :.~ ! / 8 ~ W 6 / s.",
"s.n q 4 e 0 5 p 1 t w 3 N 2 7 +.",
"s.d S E 8.Q :.8.^ a.| >.s.>.,.i ",
"s.s s.s.s.i.s.s.s.s.s.s.s.s.4.i ",
"s.s s.s.y.i.+.M 7.q.3.y.s.s.4.i ",
"s.m p.4.y.s.Z O ..s.w.{ u.s.4.i ",
"s.] 3.7.p.u...C -.e.p.*.L s.4.i ",
"s. .O.0.w.9.- o C e.-.-.r 4.4.i ",
"s.D X.-.-.w.x . C ;.$.&.; Y 4.i ",
"s.] I o.-.;.z . v &.@.o.# g 4.i ",
"s.Z O.k o.&., X < #.R : + 6.4.i ",
"s.h p.J f U l c G G * @ A s.4.i ",
"s.s p.s.H & = j > $ % y.s.s.4.i ",
"s.a p.s.s.7.I B V { u.4.2.2._ i ",
"s.D %.%.| [ ' A u u y y i ) ' 4.",
"s.y._ ) _ } | 4.r.i.y.s.s.s.s.s."
};
