/* XPM */
static char *rapidsvn_32x32_xpm[] = {
/* columns rows colors chars-per-pixel */
"32 32 5 1",
"  c black",
". c #808080",
"X c #C0C0C0",
"o c gray100",
"O c None",
/* pixels */
"OOOOOOOOOOOOOOOOOOOOOOOOOOOOOOOO",
"OOOOOOOOOOOOOOOOOOOOOOOOOOOOOOOO",
"OOOO                    .OOOOOOO",
"OOO                    XooOOOOOO",
"OO                   .ooo. OOOOO",
"OO                 .oooX   OOOOO",
"OO               .XooX.    OOOOO",
"OO             .oooo.      OOOOO",
"OO          .Xoooo.        OOOOO",
"OOoXXXXX.XoooooX.          OOOOO",
"OOooooooooooo.       .     OOOOO",
"OOoooooooooo.      Xooo    OOOOO",
"OOoooooooooo       Xooo    OOOOO",
"OOooooooooo.        XXX    OOOOO",
"OOoooooooo.                OOOOO",
"OO oooooo.                 OOOOO",
"OO   ...                   OOOOO",
"OO                         OOOOO",
"OO                         OOOOO",
"OO        ..               OOOOO",
"OO      XoooooX            OOOOO",
"OO      oooooooo           OOOOO",
"OO      oooooooo           OOOOO",
"OO      .ooooooX           OOOOO",
"OO       .ooooo.           OOOOO",
"OOO                       OOOOOO",
"OOOO                     OOOOOOO",
"OOOOOOOOOOOOOOOOOOOOOOOOOOOOOOOO",
"OOOOOOOOOOOOOOOOOOOOOOOOOOOOOOOO",
"OOOOOOOOOOOOOOOOOOOOOOOOOOOOOOOO",
"OOOOOOOOOOOOOOOOOOOOOOOOOOOOOOOO",
"OOOOOOOOOOOOOOOOOOOOOOOOOOOOOOOO"
};
