/* XPM */
static char * rapidsvn_16x16_xpm[] = {
"16 16 66 1",
" 	c None",
".	c #000000",
"+	c #2D2D2D",
"@	c #BDBDBD",
"#	c #A3A3A3",
"$	c #222222",
"%	c #8C8C8C",
"&	c #CACACA",
"*	c #676767",
"=	c #080808",
"-	c #0E0E0E",
";	c #0C0C0C",
">	c #444444",
",	c #999999",
"'	c #C6C6C6",
")	c #828282",
"!	c #181818",
"~	c #D9D9D9",
"{	c #9F9F9F",
"]	c #727272",
"^	c #5E5E5E",
"/	c #616161",
"(	c #797979",
"_	c #A4A4A4",
":	c #CFCFCF",
"<	c #B3B3B3",
"[	c #696969",
"}	c #171717",
"|	c #090909",
"1	c #FFFFFF",
"2	c #A9A9A9",
"3	c #909090",
"4	c #DADADA",
"5	c #434343",
"6	c #F5F5F5",
"7	c #343434",
"8	c #939393",
"9	c #DEDEDE",
"0	c #454545",
"a	c #919191",
"b	c #FCFCFC",
"c	c #6F6F6F",
"d	c #0B0B0B",
"e	c #030303",
"f	c #606060",
"g	c #B4B4B4",
"h	c #CDCDCD",
"i	c #505050",
"j	c #2C2C2C",
"k	c #4E4E4E",
"l	c #464646",
"m	c #202020",
"n	c #656565",
"o	c #F4F4F4",
"p	c #EDEDED",
"q	c #7F7F7F",
"r	c #D2D2D2",
"s	c #121212",
"t	c #BBBBBB",
"u	c #8E8E8E",
"v	c #0F0F0F",
"w	c #959595",
"x	c #F1F1F1",
"y	c #D1D1D1",
"z	c #1F1F1F",
"A	c #232323",
" ...........+@# ",
"..........$%&*=.",
"-......;>,')!...",
"~{]^/(_:<[}..|..",
"11111112....345.",
"11111167....890.",
"a1111bc......d..",
"efgh<i..........",
"...e............",
".....jklm.......",
"....no11p(......",
"....q1111re.....",
"....st111u......",
".....vwxyz......",
".......As.......",
" .............. "};
