/* XPM */
static char * rapidsvn_48x48_xpm[] = {
"48 48 145 2",
"  	c None",
". 	c #000000",
"+ 	c #020202",
"@ 	c #010101",
"# 	c #414141",
"$ 	c #F9F9F9",
"% 	c #FBFBFB",
"& 	c #6D6D6D",
"* 	c #E5E5E5",
"= 	c #FFFFFF",
"- 	c #FEFEFE",
"; 	c #6E6E6E",
"> 	c #C3C3C3",
", 	c #CACACA",
"' 	c #3E3E3E",
") 	c #030303",
"! 	c #2A2A2A",
"~ 	c #A4A4A4",
"{ 	c #F1F1F1",
"] 	c #7B7B7B",
"^ 	c #050505",
"/ 	c #1F1F1F",
"( 	c #8F8F8F",
"_ 	c #F3F3F3",
": 	c #B1B1B1",
"< 	c #2C2C2C",
"[ 	c #232323",
"} 	c #8B8B8B",
"| 	c #EDEDED",
"1 	c #CBCBCB",
"2 	c #4D4D4D",
"3 	c #363636",
"4 	c #9B9B9B",
"5 	c #DADADA",
"6 	c #666666",
"7 	c #040404",
"8 	c #101010",
"9 	c #5D5D5D",
"0 	c #B8B8B8",
"a 	c #FAFAFA",
"b 	c #DBDBDB",
"c 	c #717171",
"d 	c #0D0D0D",
"e 	c #2B2B2B",
"f 	c #0E0E0E",
"g 	c #4E4E4E",
"h 	c #9A9A9A",
"i 	c #CFCFCF",
"j 	c #696969",
"k 	c #BABABA",
"l 	c #080808",
"m 	c #303030",
"n 	c #6B6B6B",
"o 	c #A7A7A7",
"p 	c #F7F7F7",
"q 	c #B3B3B3",
"r 	c #535353",
"s 	c #D7D7D7",
"t 	c #A3A3A3",
"u 	c #7A7A7A",
"v 	c #5A5A5A",
"w 	c #404040",
"x 	c #2E2E2E",
"y 	c #1E1E1E",
"z 	c #222222",
"A 	c #3B3B3B",
"B 	c #505050",
"C 	c #8E8E8E",
"D 	c #B6B6B6",
"E 	c #E3E3E3",
"F 	c #FCFCFC",
"G 	c #D1D1D1",
"H 	c #808080",
"I 	c #F8F8F8",
"J 	c #D8D8D8",
"K 	c #828282",
"L 	c #FDFDFD",
"M 	c #4C4C4C",
"N 	c #1C1C1C",
"O 	c #C8C8C8",
"P 	c #C2C2C2",
"Q 	c #7E7E7E",
"R 	c #0C0C0C",
"S 	c #171717",
"T 	c #BFBFBF",
"U 	c #090909",
"V 	c #888888",
"W 	c #747474",
"X 	c #F6F6F6",
"Y 	c #F2F2F2",
"Z 	c #787878",
"` 	c #E2E2E2",
" .	c #0B0B0B",
"..	c #D5D5D5",
"+.	c #252525",
"@.	c #9E9E9E",
"#.	c #D4D4D4",
"$.	c #D0D0D0",
"%.	c #8C8C8C",
"&.	c #141414",
"*.	c #8A8A8A",
"=.	c #373737",
"-.	c #070707",
";.	c #C0C0C0",
">.	c #5C5C5C",
",.	c #616161",
"'.	c #0A0A0A",
").	c #939393",
"!.	c #D6D6D6",
"~.	c #777777",
"{.	c #3A3A3A",
"].	c #636363",
"^.	c #858585",
"/.	c #3C3C3C",
"(.	c #060606",
"_.	c #ADADAD",
":.	c #CDCDCD",
"<.	c #DCDCDC",
"[.	c #DFDFDF",
"}.	c #C4C4C4",
"|.	c #A5A5A5",
"1.	c #3D3D3D",
"2.	c #606060",
"3.	c #E6E6E6",
"4.	c #565656",
"5.	c #969696",
"6.	c #545454",
"7.	c #949494",
"8.	c #5F5F5F",
"9.	c #626262",
"0.	c #F4F4F4",
"a.	c #1B1B1B",
"b.	c #7D7D7D",
"c.	c #484848",
"d.	c #B9B9B9",
"e.	c #313131",
"f.	c #C5C5C5",
"g.	c #E7E7E7",
"h.	c #212121",
"i.	c #757575",
"j.	c #CECECE",
"k.	c #121212",
"l.	c #555555",
"m.	c #727272",
"n.	c #4F4F4F",
"          . . . . . . . . . . . . . . . . . . . . . . . . . . . . . . . . + @ . # $ %           ",
"      . . . . . . . . . . . . . . . . . . . . . . . . . . . . . . . . @ @ . . & * $ = - ;       ",
"    . . . . . . . . . . . . . . . . . . . . . . . . . . . . . . . @ + . . # > = = = , ' . @     ",
"  . . . . . . . . . . . . . . . . . . . . . . . . . . . . . . @ ) . . ! ~ = = = { ] ^ . . . .   ",
". . . . . . . . . . . . . . . . . . . . . . . . . . . . . + + . . / ( _ = = = : < . . + . . .   ",
". . . . . . . . . . . . . . . . . . . . . . . . . . @ ) . . . [ } | = = = 1 2 . . ) . . . . . . ",
"+ . . . . . . . . . . . . . . . . . . . . . . @ ) + . . . 3 4 { = = = 5 6 ) . @ + . . . . . . . ",
". . 7 + . . . . . . . . . . . . . . . . + 7 @ . . . 8 9 0 a = = = b c d . . ) . . . . . . . . . ",
"e . . . . + 7 ) + + @ @ @ + + ) 7 ) . . . . . f g h * = = = = i j d . . ) . . . . . . . . . . . ",
"a k & ! ^ . . . . . . . . . . . . . . l m n o * = = = = p q r ) . . ) . . . . . . . . . . . . . ",
"= = = a s t u v w x [ y z ! A B ; C D E F = = = = a G H e . . . ) @ . . . @ ) . . ) @ . . . . . ",
"- F % = = = = = = % I p I a = = = = = = = $ a J K A 7 . . . ) . . . . . @ . . . . . . . . . . . ",
"- - - - L % a F - = = = = = = L % a % L L L = M . . . ) + . . . . . . . . N ( O P Q d . . . . . ",
"= = = - - = - - - - - - - - - - - = - = F - E R 7 ) . . . . . . . . @ . S 5 = = = = T U @ . . . ",
"= = = = = = = = = = = = = = = = = = - - % = V . ) . . . . . . . . . 7 . W = X % % $ = B . + . . ",
"- = - = = = = = = = = = = = = = = - = L L Y y . @ . . . . . . . . . 7 . Z = X F % $ = r . ) . . ",
"= - = - = = = = = = = = = = = = - - - a = K . + . . . . . . . . . . @ . N ` = = = = O  .. . . . ",
"L L - = - = = = = = = = = = = - = = % = ..R @ . . . . . . . . . . . . . . +.@.#.$.%.&.. @ . . . ",
"*.= $ - = - = = = = = = = = - - = F F p =.. @ . . . . . . . . . . . . . @ . . 7 ) . . . . . . . ",
"-.;.= $ - = - - = = = = - - - - % L = >.. ) . . . . . . . . . . . . . . . @ + . . ) @ . . . . . ",
". &.> = L a L - - - = - - - L a = % ,.. + . . . . . . . . . . . . . . . . . . . . . . . . . . . ",
"@ . '.).L = = = F a a a % - = = !.w . ) . . . . . . . . . . . . . . . . . . . . . . . . . . . . ",
". @ . . 3 4 * - = = = = = - J ~.d . + . . . . . . . . . . . . . . . . . . . . . . . . . . . . . ",
". . . + . . R {.].u ^.K & /.(.. . + . . . . . . . . . . . . . . . . . . . . . . . . . . . . . . ",
". . . . + + . . . . . . . . . ) @ . . . . . . . . . . . . . . . . . . . . . . . . . . . . . . . ",
". . . . . . . + 7 7 7 7 7 + . . . . . . . . . . . . . . . . . . . . . . . . . . . . . . . . . . ",
". . . . . . . . . . . . . . . . . . . . . . . . . . . . . . . . . . . . . . . . . . . . . . . . ",
". . . . . . . . . . . . . . . @ 7 @ . . . . . @ 7 + . . . . . . . . . . . . . . . . . . . . . . ",
". . . . . . . . . . . . . . + . . . + (.-.^ . . . . . ) . . . . . . . . . . . . . . . . . . . . ",
". . . . . . . . . . . . . @ . S c _.:.<.[.s }.|.u 1.+ . . . . . . . . . . . . . . . . . . . . . ",
". . . . . . . . . . . . . . 2.3.= = = = = = = = = - i >.. . . . . . . . . . . . . . . . . . . . ",
". . . . . . . . . . . + . 4.= = a % F L L L F % a - = = 5.. @ . . . . . . . . . . . . . . . . . ",
". . . . . . . . . . . . . P L $ - = - - = - - - - - % a = 6.. + . . . . . . . . . . . . . . . . ",
". . . . . . . . . . . . @ , L F = - = = = = = = - - = $ L 4 . + . . . . . . . . . . . . . . . . ",
". . . . . . . . . . . + . C = a - = = = = = = = = = - a - 7.. + . . . . . . . . . . . . . . . . ",
". . . . . . . . . . . @ . z Y L F = - = = = = = = - - F = 8.. ) . . . . . . . . . . . . . . . . ",
". . . . . . . . . . . . + . 9.= % L = - - = = = = = L - 0.a.. @ . . . . . . . . . . . . . . . . ",
". . . . . . . . . . . . . + . K = % L = - - = = - - a - : . @ . . . . . . . . . . . . . . . . . ",
". . . . . . . . . . . . . . + . b.= = % - - - - = - % = c.. ) . . . . . . . . . . . . . . . . . ",
". . . . . . . . . . . . . . . + . 8.Y = a L - - - $ = d.. @ . . . . . . . . . . . . . . . . . . ",
". . . . . . . . . . . . . . . . ) . e.f.= = F % % = g.h.. @ . . . . . . . . . . . . . . . . . . ",
". . . . . . . . . . . . . . . . . + . ) i.* = = = j.m . @ . . . . . . . . . . . . . . . . . . . ",
". . . . . . . . . . . . . . . . . . + . . k.l.m.n.^ . @ . . . . . . . . . . . . . . . . . . . . ",
"  . . . . . . . . . . . . . . . . . . . ) . . . . . + . . . . . . . . . . . . . . . . . . . .   ",
"  . . . . . . . . . . . . . . . . . . . . @ ) 7 ) . . . . . . . . . . . . . . . . . . . . . .   ",
"    . . . . . . . . . . . . . . . . . . . . . . . . . . . . . . . . . . . . . . . . . . . .     ",
"        . . . . . . . . . . . . . . . . . . . . . . . . . . . . . . . . . . . . . . . .         ",
"                                                                                                "};
