/* XPM */
static char * rapidsvn_32x32_xpm[] = {
"32 32 119 2",
"  	c None",
". 	c #000000",
"+ 	c #272727",
"@ 	c #D6D6D6",
"# 	c #FFFFFF",
"$ 	c #0D0D0D",
"% 	c #727272",
"& 	c #EAEAEA",
"* 	c #BDBDBD",
"= 	c #353535",
"- 	c #030303",
"; 	c #555555",
"> 	c #CDCDCD",
", 	c #E9E9E9",
"' 	c #6E6E6E",
") 	c #070707",
"! 	c #050505",
"~ 	c #4F4F4F",
"{ 	c #BFBFBF",
"] 	c #FCFCFC",
"^ 	c #9B9B9B",
"/ 	c #222222",
"( 	c #161616",
"_ 	c #636363",
": 	c #C8C8C8",
"< 	c #AEAEAE",
"[ 	c #393939",
"} 	c #1C1C1C",
"| 	c #0F0F0F",
"1 	c #444444",
"2 	c #959595",
"3 	c #E4E4E4",
"4 	c #FBFBFB",
"5 	c #AAAAAA",
"6 	c #3F3F3F",
"7 	c #E7E7E7",
"8 	c #A8A8A8",
"9 	c #303030",
"0 	c #111111",
"a 	c #010101",
"b 	c #0A0A0A",
"c 	c #191919",
"d 	c #3B3B3B",
"e 	c #686868",
"f 	c #A4A4A4",
"g 	c #DDDDDD",
"h 	c #DFDFDF",
"i 	c #8B8B8B",
"j 	c #2F2F2F",
"k 	c #F7F7F7",
"l 	c #E3E3E3",
"m 	c #CACACA",
"n 	c #BABABA",
"o 	c #B3B3B3",
"p 	c #B5B5B5",
"q 	c #C1C1C1",
"r 	c #D5D5D5",
"s 	c #EBEBEB",
"t 	c #EFEFEF",
"u 	c #9D9D9D",
"v 	c #505050",
"w 	c #090909",
"x 	c #797979",
"y 	c #151515",
"z 	c #9A9A9A",
"A 	c #D2D2D2",
"B 	c #B1B1B1",
"C 	c #F1F1F1",
"D 	c #262626",
"E 	c #8F8F8F",
"F 	c #C2C2C2",
"G 	c #929292",
"H 	c #C5C5C5",
"I 	c #FDFDFD",
"J 	c #E6E6E6",
"K 	c #212121",
"L 	c #A3A3A3",
"M 	c #DADADA",
"N 	c #B9B9B9",
"O 	c #343434",
"P 	c #FAFAFA",
"Q 	c #565656",
"R 	c #0C0C0C",
"S 	c #0B0B0B",
"T 	c #ACACAC",
"U 	c #F8F8F8",
"V 	c #6B6B6B",
"W 	c #7B7B7B",
"X 	c #D1D1D1",
"Y 	c #4D4D4D",
"Z 	c #1A1A1A",
"` 	c #595959",
" .	c #8D8D8D",
"..	c #ABABAB",
"+.	c #545454",
"@.	c #0E0E0E",
"#.	c #9C9C9C",
"$.	c #939393",
"%.	c #777777",
"&.	c #4A4A4A",
"*.	c #141414",
"=.	c #6D6D6D",
"-.	c #ECECEC",
";.	c #757575",
">.	c #2C2C2C",
",.	c #707070",
"'.	c #373737",
").	c #080808",
"!.	c #323232",
"~.	c #E8E8E8",
"{.	c #535353",
"].	c #424242",
"^.	c #313131",
"/.	c #C9C9C9",
"(.	c #101010",
"_.	c #878787",
":.	c #F4F4F4",
"<.	c #858585",
"[.	c #2E2E2E",
"      . . . . . . . . . . . . . . . . . . . . . . . + @ #       ",
"  . . . . . . . . . . . . . . . . . . . . . . . $ % & # * = .   ",
"  . . . . . . . . . . . . . . . . . . . . . - ; > # , ' ) . .   ",
". . . . . . . . . . . . . . . . . . . . ! ~ { # ] ^ / . . . . . ",
". . . . . . . . . . . . . . . . . . ( _ : # # < [ . . . . . . . ",
"} . . . . . . . . . . . . . . | 1 2 3 # 4 5 6 . . . . . . . . . ",
"7 8 _ 9 0 ! . . . a b c d e f g # # h i j . . . . . . . . . . . ",
"# # # k l m n o p q r s ] # # t u v 0 . . . . . . . w . . . . . ",
"# # # # # # # # # # # # # # # x . . . . . . . . y z A B j . . . ",
"# # # # # # # # # # # # # # C D . . . . . . . . E # # # F ! . . ",
"# # # # # # # # # # # # # # z . . . . . . . . . G # # # H ! . . ",
"I # # # # # # # # # # # # J K . . . . . . . . . c L M N O . . . ",
"G # # # # # # # # # # # P Q . . . . . . . . . . . . R . . . . . ",
"S T # # # # # # # # # U V . . . . . . . . . . . . . . . . . . . ",
". w W l # # # # # # X Y . . . . . . . . . . . . . . . . . . . . ",
". . . Z `  .8 ..G +.@.. . . . . . . . . . . . . . . . . . . . . ",
". . . . . . . . . . . . . . . . . . . . . . . . . . . . . . . . ",
". . . . . . . . . . . . . . . . . . . . . . . . . . . . . . . . ",
". . . . . . . . . . . . . . . . . . . . . . . . . . . . . . . . ",
". . . . . . . . . . + ' G #.$.%.&.*.. . . . . . . . . . . . . . ",
". . . . . . . . . =.-.# # # # # # h ;.! . . . . . . . . . . . . ",
". . . . . . . . >.U # # # # # # # # # ,.. . . . . . . . . . . . ",
". . . . . . . . '.I # # # # # # # # # n . . . . . . . . . . . . ",
". . . . . . . . ).q # # # # # # # # # #.. . . . . . . . . . . . ",
". . . . . . . . . !.~.# # # # # # # # {.. . . . . . . . . . . . ",
". . . . . . . . . . ].J # # # # # # M | . . . . . . . . . . . . ",
". . . . . . . . . . . ^./.# # # # # _ . . . . . . . . . . . . . ",
". . . . . . . . . . . . (._.& # :.<.- . . . . . . . . . . . . . ",
". . . . . . . . . . . . . . K &.[.. . . . . . . . . . . . . . . ",
"  . . . . . . . . . . . . . . . . . . . . . . . . . . . . . .   ",
"    . . . . . . . . . . . . . . . . . . . . . . . . . . . .     ",
"      . . . . . . . . . . . . . . . . . . . . . . . . . .       "};
