/* XPM */
static char *absent_file_xpm[] = {
/* columns rows colors chars-per-pixel */
"16 16 54 1",
"  c #010101",
". c #0d0d0d",
"X c #0f1014",
"o c #101012",
"O c #717171",
"+ c #7f7f7f",
"@ c #7f7f81",
"# c #827e56",
"$ c #867f60",
"% c #81807f",
"& c #89807b",
"* c #9f996c",
"= c #b3a17d",
"- c #818183",
"; c #958890",
": c #9d9d9d",
"> c #9da6a3",
", c #b4b19e",
"< c #a2a2a3",
"1 c #acacad",
"2 c #b4b4b5",
"3 c #bbbab1",
"4 c #bdbdbd",
"5 c #bebec0",
"6 c #d0c6a3",
"7 c #d0c4b4",
"8 c #e5d89b",
"9 c #e6d7bb",
"0 c #e8d2b2",
"q c #f0d3b1",
"w c #c3c3c3",
"e c #c5c9c4",
"r c #cbcbcc",
"t c #ccccd0",
"y c #cfd0d2",
"u c #d3d3d3",
"i c #d1d0d9",
"p c #dbd7d7",
"a c #dbdbdb",
"s c #cdcdf7",
"d c #cdcefe",
"f c #d2d2f5",
"g c #d1d1fe",
"h c #e2e2db",
"j c #fae2c2",
"k c #fbecd4",
"l c #e3e3e3",
"z c #e9e9e6",
"x c #eaeaea",
"c c #e0e0f0",
"v c #f1f1f2",
"b c #f3f6fb",
"n c #fefefd",
"m c None",
/* pixels */
"m m-nbnnnnnnnv.m",
"m m@njk9j08q6hXm",
"m m%g%=&6p#*;,Xm",
"m m%d>773b2rh2 m",
"m m-gialyuv4l2 m",
"m m-frapp5a4l2 m",
"m m-ftahwp4ul2 m",
"m m-gtawuawal2 m",
"m m-dth2xwiah2 m",
"m m@frap5z2al2 m",
"m m-gtaa5aeel2 m",
"m m-gtaaa4z5l2 m",
"m m-ftaayeuex2 m",
"m m-staleptya1 m",
"m m-ctau2l1w45Xm",
"m mOz<:<wy5plp.m"
};
