/* XPM */
static char *added_file[] = {
/* columns rows colors chars-per-pixel */
"16 16 125 2",
"   c #9B5A3D00",
".  c #FF330000",
"X  c #C25E3200",
"o  c #C45F3200",
"O  c #C55F3200",
"+  c #C5603300",
"@  c #CB623400",
"#  c #CC633400",
"$  c #CE643500",
"%  c #D1653600",
"&  c #D2663600",
"*  c #D4683700",
"=  c #D7683700",
"-  c #D86A3800",
";  c #DB6B3900",
":  c #DF6B3800",
">  c #DE6D3A00",
",  c #DF6D3B00",
"<  c #E16F3C00",
"1  c #E4723F00",
"2  c #ED723C00",
"3  c #E4734100",
"4  c #E8744000",
"5  c #EA764300",
"6  c #EB774400",
"7  c #E8794700",
"8  c #EC794600",
"9  c #EE7C4800",
"0  c #EE7D4B00",
"q  c #EF7E4B00",
"w  c #EF804F00",
"e  c #ED875900",
"r  c #F0845400",
"t  c #F3865600",
"y  c #F0885900",
"u  c #F08A5C00",
"i  c #F28A5D00",
"p  c #F4895B00",
"a  c #F48A5C00",
"s  c #F58C5F00",
"d  c #F18D6000",
"f  c #F18E6100",
"g  c #F18F6200",
"h  c #F58D6000",
"j  c #F58E6100",
"k  c #F5906400",
"l  c #F5916500",
"z  c #F5926600",
"x  c #F5936700",
"c  c #F5946800",
"v  c #F6946900",
"b  c #F6956A00",
"n  c #F6966B00",
"m  c #F6966C00",
"M  c #F6976D00",
"N  c #F6986E00",
"B  c #F6986F00",
"V  c #F7997000",
"C  c #F79A7100",
"Z  c #F79B7200",
"A  c #F79C7300",
"S  c #F79D7500",
"D  c #F89E7600",
"F  c #F89F7700",
"G  c #F8A07800",
"H  c #F8A17900",
"J  c #F8A17A00",
"K  c #F8A27B00",
"L  c #F8A27C00",
"P  c #F8A37C00",
"I  c #F8A37D00",
"U  c #F8A47D00",
"Y  c #F8A47E00",
"T  c #F8A57F00",
"R  c #F6A58100",
"E  c #F6A78400",
"W  c #F7A78500",
"Q  c #F7A98800",
"!  c #F7AB8900",
"~  c #F7AC8B00",
"^  c #F7AE8D00",
"/  c #F8A58000",
"(  c #F8A68100",
")  c #F9A78100",
"_  c #F9A78200",
"`  c #F9A88300",
"'  c #F9A98400",
"]  c #F9AA8500",
"[  c #F9AB8600",
"{  c #FAAC8800",
"}  c #FAAD8A00",
"|  c #FAAE8B00",
" . c #F8AE8E00",
".. c #FAAF8C00",
"X. c #F8B09100",
"o. c #FAB29000",
"O. c #FAB29200",
"+. c #F8B39400",
"@. c #F8B39500",
"#. c #FAB49400",
"$. c #FBB69600",
"%. c #FBB79700",
"&. c #F9B59800",
"*. c #F9B69900",
"=. c #F9B89B00",
"-. c #F9BA9D00",
";. c #F9BB9F00",
":. c #FCB99B00",
">. c #FCBA9C00",
",. c #FCBD9F00",
"<. c #FABDA100",
"1. c #FABEA200",
"2. c #FDBEA000",
"3. c #FAC1A600",
"4. c #FBC1A600",
"5. c #FDC1A500",
"6. c #FBC3AA00",
"7. c #FCCDB700",
"8. c #FDD0BB00",
"9. c #FED2BD00",
"0. c #FED4C100",
"q. c #FED7C400",
"w. c #FED9C700",
"e. c gray100",
"r. c None",
/* pixels */
"r.r.r.r.r.r.r.r.r.r.r.r.r.r.r.r.",
"r.r.g g g u y r q 0 6 7 r.r.r.r.",
"r.r.g w.w.q.0.9.9.7.2 e 3   r.r.",
"r.r.e.e.e.5.2.:.&.$.2 4.u , r.r.",
"r.r.e.. e.,.:.$.o...2 2 2 < r.r.",
"e.e.e.. e.e.e.o...' _ U <., r.r.",
"e.. . . . . e.} ' _ P G =.; r.r.",
"e.e.e.. e.e.e.' _ P F Z &.= r.r.",
"r.r.e.. e.} ` T G F Z M @.* r.r.",
"r.r.e.e.e._ T G S Z M v X.% r.r.",
"r.r.0 6._ P G A M b k h ..# r.r.",
"r.r.0 4.P S Z M v k h a ! # r.r.",
"r.r.7 <.F Z M b g a p t W O r.r.",
"r.r.5 =.=.&.o.X.X.! ! W R X r.r.",
"r.r.5 1 < , ; = % # @ O X O r.r.",
"r.r.r.r.r.r.r.r.r.r.r.r.r.r.r.r."
};
