/* XPM */
static char *added_file_xpm[] = {
/* columns rows colors chars-per-pixel */
"16 16 125 2",
"   c #010101",
".  c #0c0c0c",
"X  c #1d222b",
"o  c #1e2533",
"O  c #27261f",
"+  c #282429",
"@  c #262730",
"#  c #23273a",
"$  c #202a38",
"%  c #534e51",
"&  c #545253",
"*  c #595556",
"=  c #5b5c5c",
"-  c #5e5e79",
";  c #5f647d",
":  c #5f687e",
">  c #6d6d6c",
",  c #616379",
"<  c #6b6b75",
"1  c #717173",
"2  c #77777f",
"3  c #5e6881",
"4  c #606280",
"5  c #820000",
"6  c #890707",
"7  c #9b090e",
"8  c #950913",
"9  c #92140a",
"0  c #98152d",
"q  c #971b32",
"w  c #8c3639",
"e  c #a51928",
"r  c #ad233b",
"t  c #b23140",
"y  c #8c4b4b",
"u  c #9b6263",
"i  c #b24d54",
"p  c #af6774",
"a  c #c43d50",
"s  c #c13f5f",
"d  c #c95068",
"f  c #dd6990",
"g  c #dd7b98",
"h  c #e05e86",
"j  c #f3799c",
"k  c #e677bc",
"l  c #e37abf",
"z  c #ed73bf",
"x  c #ff76b6",
"c  c #fe75bb",
"v  c #fe7cbb",
"b  c #a8984c",
"n  c #aeaa59",
"m  c #aca260",
"M  c #cebc7b",
"N  c #979b93",
"B  c #989899",
"V  c #a78491",
"C  c #a88e94",
"Z  c #a69f93",
"A  c #be878e",
"S  c #b8a38f",
"D  c #bdb197",
"F  c #a4a4a3",
"G  c #afafaf",
"H  c #bdbdbd",
"J  c #acb0e8",
"K  c #b6a9e6",
"L  c #dc81b3",
"P  c #c6bc99",
"I  c #d5b78d",
"U  c #d1b5ba",
"Y  c #e88191",
"T  c #ff8b9e",
"R  c #ff83a6",
"E  c #fc8fa4",
"W  c #f38bb3",
"Q  c #ff8fb4",
"!  c #fb92a7",
"~  c #ff93a9",
"^  c #f39fb7",
"/  c #ff93b7",
"(  c #ff9db5",
")  c #ff99bc",
"_  c #f5aabe",
"`  c #de9ee1",
"'  c #ff91c2",
"]  c #e2accd",
"[  c #e3a9d3",
"{  c #ffaece",
"}  c #ffa6d4",
"|  c #ffacd8",
" . c #ffb4d3",
".. c #e1b1e7",
"X. c #e1baec",
"o. c #ffbee4",
"O. c #d9c59f",
"+. c #c8cbac",
"@. c #d7c5b1",
"#. c #cccccc",
"$. c #d0d0cf",
"%. c #d3d3d3",
"&. c #d9d9d9",
"*. c #fecedf",
"=. c #f1d0d7",
"-. c #e9caeb",
";. c #e2cbf3",
":. c #e4d7fd",
">. c #ffc6ea",
",. c #fdd2e0",
"<. c #ffd7eb",
"1. c #ffdeeb",
"2. c #ffdcfd",
"3. c #f2e4c6",
"4. c #e7e6e6",
"5. c #e6e6fc",
"6. c #e8e8f2",
"7. c #ffe7f7",
"8. c #ffeff6",
"9. c #ffeafc",
"0. c #f3f2f2",
"q. c #f7fdfa",
"w. c #fdfdf5",
"e. c #fdfdfd",
"r. c None",
/* pixels */
"r.  r.. X X o o o @ # + + . r.  ",
"r.  r.1 3.@.O.O.I P M S +.1 r.  ",
"r.  r.2 J n Z n N C b V D 1 r.  ",
"r.  r.; K A k g l z k c / % r.  ",
"r.  r.3 ` x v Q v x v x ' % r.  ",
"r.  r.3 ] T ! ~ r e ~ ! ( % r.  ",
"r.  r., [ R / j 8 7 h / ) * r.  ",
"r.  r.3 ..' | s a d r }  .* r.  ",
"r.  r.; ..{  .e f W 9 _ >.* r.  ",
"r.  r., -.>._ 6 0 q 5 g 2.& r.  ",
"r.  r.; ;.7.i i *.*.p w 9.* r.  ",
"r.  r.; :.<.u U 9.8.=.y 1.= r.  ",
"r.  r., 5.w.w.e.w.w.w.q.e.& r.  ",
"r.  r.- 5.e.e.e.e.e.e.q.e.% r.  ",
"r.  r.< 6.e.w.6.4.%.$.#.&.> r.  ",
"r.  r.1 $.B F G H H $.%.0.1 r.  "
};
