/* XPM */
static char *added_folder[] = {
/* columns rows colors chars-per-pixel */
"16 16 96 2",
"   c #99482400",
".  c red",
"X  c #C45D3000",
"o  c #C45E3100",
"O  c #C65E3100",
"+  c #CB613200",
"@  c #CD623300",
"#  c #CF633400",
"$  c #D2643400",
"%  c #D5653500",
"&  c #D5663600",
"*  c #D9673600",
"=  c #D9693700",
"-  c #DB693700",
";  c #DD6A3800",
":  c #E6723F00",
">  c #E8713C00",
",  c #ED713B00",
"<  c #ED723C00",
"1  c #EE743E00",
"2  c #E0724300",
"3  c #E2744300",
"4  c #EA764300",
"5  c #EE774200",
"6  c #EE7A4800",
"7  c #EC7F4F00",
"8  c #EF7D4C00",
"9  c #E2885E00",
"0  c #EF815100",
"q  c #EF825100",
"w  c #EF835400",
"e  c #EF855600",
"r  c #ED8B5D00",
"t  c #F1865600",
"y  c #F0865800",
"u  c #F1895A00",
"i  c #F2895A00",
"p  c #F0895C00",
"a  c #F48B5B00",
"s  c #FF8B5600",
"d  c #FF8B5700",
"f  c #FF8C5700",
"g  c #FF8E5A00",
"h  c #F48F6100",
"j  c #F2916600",
"k  c #F2926700",
"l  c #FF976500",
"z  c #F89D7100",
"x  c #F6A17900",
"c  c #FFA27300",
"v  c #FFA27400",
"b  c #FFA37400",
"n  c #F5A58100",
"m  c #FFAB8000",
"M  c #FFAD8200",
"N  c #FFAD8300",
"B  c #FFAE8300",
"V  c #FFB08700",
"C  c #FFB28800",
"Z  c #FFB48B00",
"A  c #FFB58C00",
"S  c #FBB69400",
"D  c #FFB69000",
"F  c #FFB79200",
"G  c #FAB79A00",
"H  c #F9BA9B00",
"J  c #F9BC9E00",
"K  c #FFBD9900",
"L  c #FFBE9A00",
"P  c #FABEA100",
"I  c #FEBEA200",
"U  c #FFBEA200",
"Y  c #FFBFA200",
"T  c #FCC3A700",
"R  c #FEC4AA00",
"E  c #FCC7AD00",
"W  c #FCC8AC00",
"Q  c #FCC9B000",
"!  c #FDCBB200",
"~  c #FFCBB200",
"^  c #FECCB300",
"/  c #FFD1B800",
"(  c #FFD1B900",
")  c #FFD1BA00",
"_  c #FDD2BD00",
"`  c #FFD5BF00",
"'  c #FED6C000",
"]  c #FFD6C100",
"[  c #FED9C500",
"{  c #FFD9C400",
"}  c #FEDAC600",
"|  c #FFDBC700",
" . c #FFDCC800",
".. c #FFE0CD00",
"X. c gray100",
"o. c None",
/* pixels */
"o.o.o.o.o.o.o.o.o.o.o.o.o.o.o.o.",
"o.o.o.o.o.o.o.o.o.o.o.o.o.o.o.o.",
"o.J k p e e u x o.o.o.o.o.o.o.o.",
"o.k P }  .} W 8 u t 0 4 7 r o.o.",
"o.p } Z V Z ) ! T W _ ! S : o.o.",
"o.y ` m m m V F D z 5 , , > 9 o.",
"o.w ) a , , , , , 1 W ....H 3 o.",
"o.0 h n '  . . . . .} K K } ; o.",
"o.7 X.X.X.m m m m V m B B ' = o.",
"o.6 X.. X.c b c b b b b b ) & o.",
"X.X.X.. X.X.X.l l l l l l ~ # o.",
"X.. . . . . X.d f f d f g R O o.",
"X.X.X.. X.X.X.I I T I I I G X o.",
"o.2 X.. X.- * % $ # @ + O X   o.",
"o.o.X.X.X.o.o.o.o.o.o.o.o.o.o.o.",
"o.o.o.o.o.o.o.o.o.o.o.o.o.o.o.o."
};
