/* XPM */
static char *added_open_folder[] = {
/* columns rows colors chars-per-pixel */
"16 16 118 2",
"   c #5D291400",
".  c #8F533600",
"X  c #90442200",
"o  c #A7522C00",
"O  c #A5583500",
"+  c #B5512700",
"@  c #BA572C00",
"#  c red",
"$  c #C25C3000",
"%  c #C15F3400",
"&  c #D15F2E00",
"*  c #C7673C00",
"=  c #D0633400",
"-  c #D6683800",
";  c #DE663200",
":  c #DA693800",
">  c #ED713B00",
",  c #ED723C00",
"<  c #D86F4000",
"1  c #D0764C00",
"2  c #D9714300",
"3  c #DC704100",
"4  c #DF794A00",
"5  c #EE764100",
"6  c #EC784500",
"7  c #EA7E4D00",
"8  c #EC7D4B00",
"9  c #E57F5100",
"0  c #E8835400",
"q  c #EF825100",
"w  c #F0835500",
"e  c #F0845400",
"r  c #F4885600",
"t  c #F68A5700",
"y  c #F1885900",
"u  c #F0885B00",
"i  c #F1895A00",
"p  c #F2895A00",
"a  c #F3895C00",
"s  c #F28B5C00",
"d  c #F38C5D00",
"f  c #F38D5E00",
"g  c #F38D5F00",
"h  c #F48A5C00",
"j  c #F48C5B00",
"k  c #F58C5F00",
"l  c #FF8B5700",
"z  c #E9916700",
"x  c #F88F6100",
"c  c #F1916500",
"v  c #F2906400",
"b  c #F2906500",
"n  c #F3926700",
"m  c #F7926200",
"M  c #F5976B00",
"N  c #F59A6F00",
"B  c #FB966600",
"V  c #FF926100",
"C  c #FF976500",
"Z  c #FF9A6A00",
"A  c #FC9E6F00",
"S  c #FF9E6F00",
"D  c #F59D7700",
"F  c #F69E7600",
"G  c #F4A07A00",
"H  c #FFA27300",
"J  c #FFA27400",
"K  c #FFA37400",
"L  c #F8A47E00",
"P  c #F8A67F00",
"I  c #FFA87D00",
"U  c #FFA87F00",
"Y  c #F9A88100",
"T  c #FFAB8200",
"R  c #F9AF8D00",
"E  c #FAAF8E00",
"W  c #FFAF8800",
"Q  c #F8B18F00",
"!  c #FFB08A00",
"~  c #FFB38E00",
"^  c #F6B09000",
"/  c #F7B39200",
"(  c #F8B19000",
")  c #F8B59500",
"_  c #F9B69600",
"`  c #FFB39100",
"'  c #FDB69200",
"]  c #FFB59000",
"[  c #FDB99900",
"{  c #FFB99800",
"}  c #FCBB9C00",
"|  c #FEBB9E00",
" . c #FFBF9F00",
".. c #FABFA200",
"X. c #FDC1A300",
"o. c #FFC1A100",
"O. c #FEC3A600",
"+. c #FFC4A400",
"@. c #FFC5A700",
"#. c #FFC4A900",
"$. c #FFC6A900",
"%. c #FDC7AC00",
"&. c #FFC8AD00",
"*. c #FEC9AF00",
"=. c #FFCBAF00",
"-. c #FFCDB300",
";. c #FFCEB500",
":. c #FFCFB700",
">. c #FCCFB800",
",. c #FDD1BA00",
"<. c #FFD0B900",
"1. c #FED1BA00",
"2. c #FFD1BA00",
"3. c #FFD2BA00",
"4. c #FFD3BC00",
"5. c #FFD3BD00",
"6. c gray100",
"7. c None",
/* pixels */
"7.7.7.7.7.7.7.7.7.7.7.7.7.7.7.7.",
"7.7.7.) ( 7.7.7.7.7.7.7.7.7.7.7.",
"7.( c y w c N s q 6 8 z 7.7.7.7.",
"7.c ) 3.' m y Y X.*.y 0 7.7.7.7.",
"7.y 3. .3.#.5.;.X.;.D 9 7.7.7.7.",
"7.v } W T ! I H A P d 7 4 : 3 7.",
"7.s R ~ Z B t 5 q G ^ X.>.^ 1 7.",
"7.k F { t , M %.4.=.@.@.3.2 . 7.",
"7.k 6.6.6.[ >.~ K K K ;.L * 7.7.",
"7.y 6.# 6.%.S C C C W O.- O 7.7.",
"6.6.6.# 6.6.6.l V U #.x % 7.7.7.",
"6.# # # # # 6.`  .R s = o 7.7.7.",
"6.6.6.# 6.6.6.b < $ @ X 7.7.7.7.",
"7.7.6.# 6.; & +   7.7.7.7.7.7.7.",
"7.7.6.6.6.7.7.7.7.7.7.7.7.7.7.7.",
"7.7.7.7.7.7.7.7.7.7.7.7.7.7.7.7."
};
