/* XPM */
static char *bookmark[] = {
/* columns rows colors chars-per-pixel */
"16 16 173 2",
"   c #4A648E00",
".  c #4A658F00",
"X  c #4C679200",
"o  c #4D699500",
"O  c #4E6A9700",
"+  c #4F6C9900",
"@  c #506E9B00",
"#  c #516F9D00",
"$  c #526F9D00",
"%  c #52709F00",
"&  c #5673A100",
"*  c #5674A300",
"=  c #5875A100",
"-  c #5A78A700",
";  c #5F7AA000",
":  c #5D7AA700",
">  c #5E7CAB00",
",  c #5C7EAF00",
"<  c #6D738E00",
"1  c #6E748F00",
"2  c #6E788F00",
"3  c #71779300",
"4  c #71779400",
"5  c #72789500",
"6  c #73799600",
"7  c #737A9600",
"8  c #747A9700",
"9  c #757B9800",
"0  c #777D9A00",
"q  c #797F9D00",
"w  c #617FAD00",
"e  c #7A819F00",
"r  c #6381AE00",
"t  c #6884AC00",
"y  c #6381B000",
"u  c #6482B000",
"i  c #6683B100",
"p  c #6885B200",
"a  c #6C88B400",
"s  c #6E8AB500",
"d  c #6F8BB600",
"f  c #7B81A000",
"g  c #7C82A100",
"h  c #7C83A200",
"j  c #7E85A400",
"k  c #7F85A500",
"l  c #708CB600",
"z  c #728DB700",
"x  c #748FB800",
"c  c #7690B900",
"v  c #7BA5D000",
"b  c #7EA7D100",
"n  c #878DAB00",
"m  c #878EAB00",
"M  c #888FAE00",
"N  c #8A90AE00",
"B  c #8B92AF00",
"V  c #8A91B000",
"C  c #8C92B000",
"Z  c #8C93B000",
"A  c #8C93B200",
"S  c #8D94B200",
"D  c #8E94B200",
"F  c #8F95B300",
"G  c #9097B400",
"H  c #9298B500",
"J  c #949AB700",
"K  c #969CB800",
"L  c #989EB900",
"P  c #8EA2BA00",
"I  c #94A7BF00",
"U  c #9BA1BB00",
"Y  c #A0A5BE00",
"T  c #81AAD300",
"R  c #83ABD400",
"E  c #86ADD600",
"W  c #88AFD700",
"Q  c #8BB1D900",
"!  c #8DB2DA00",
"~  c #94AFD000",
"^  c #97B1D100",
"/  c #90B4DC00",
"(  c #92B6DD00",
")  c #94B6D800",
"_  c #96B7D900",
"`  c #95B8DF00",
"'  c #97BAE000",
"]  c #9ABCE200",
"[  c #9CBEE300",
"{  c #A2A6C000",
"}  c #A7ADC300",
"|  c #A9AFC300",
" . c #ABC5DF00",
".. c #ACC6E000",
"X. c #B7CEE400",
"o. c #BACFE500",
"O. c #BBD0E600",
"+. c #BCD1E700",
"@. c #BFD3E800",
"#. c #BFD4E800",
"$. c #C6C9D900",
"%. c #C3D2E700",
"&. c #C4D3E700",
"*. c #C1D5EA00",
"=. c #C2D5EA00",
"-. c #C4D7EB00",
";. c #C7D6E800",
":. c #C6D9ED00",
">. c #C7D9ED00",
",. c #C9D7E900",
"<. c #C9DAEE00",
"1. c #C9DBEE00",
"2. c #CCD9EA00",
"3. c #CEDBEB00",
"4. c #CBDDF000",
"5. c #CCDDF000",
"6. c #CEDFF100",
"7. c #CFDFF200",
"8. c #D0D6E400",
"9. c #D4DBE400",
"0. c #D0DCEC00",
"q. c #D2DEED00",
"w. c #D3DEED00",
"e. c #D5DFEE00",
"r. c #D6E1EF00",
"t. c #D7E2EF00",
"y. c #DBE1E700",
"u. c #D9E1ED00",
"i. c #D8E3EF00",
"p. c #DBE3EE00",
"a. c #DDE0EA00",
"s. c #DEE5EF00",
"d. c #DAE5F000",
"f. c #DBE5F100",
"g. c #DCE4F000",
"h. c #DCE6F100",
"j. c #DFE6F000",
"k. c #DFE7F200",
"l. c #DFE8F200",
"z. c #E1E4EC00",
"x. c #E0E8F300",
"c. c #E1E9F300",
"v. c #E2E8F100",
"b. c #E2E9F300",
"n. c #E3E9F200",
"m. c #E5EAF200",
"M. c #E4EBF400",
"N. c #E5EBF400",
"B. c #E7ECF300",
"V. c #E5ECF400",
"C. c #E6ECF500",
"Z. c #E9EAF000",
"A. c #E9EDF400",
"S. c #E9EFF600",
"D. c #EBEFF500",
"F. c #EAEFF600",
"G. c #EAEFF700",
"H. c #EBF1F700",
"J. c #EDF2F800",
"K. c #EEF2F800",
"L. c #EEF3F800",
"P. c #F2F6FA00",
"I. c #F5F7FA00",
"U. c #F7F9FB00",
"Y. c #F7FAFC00",
"T. c #F8FAFC00",
"R. c #FAFBFD00",
"E. c #FBFCFD00",
"W. c #FCFDFE00",
"Q. c #FDFEFE00",
"!. c #FEFFFF00",
"~. c gray100",
"^. c None",
/* pixels */
"^.^.^.z z d p r > ^.^.^.^.^.^.^.",
"^.$.Y c 6.6.6.6.- S A V M B } ^.",
"^.{ Z.x 6.] ] 4.* ~.E.Y.I.a.m ^.",
"^.U ~.z 4.' ` <.% Y.P.J.D.D.j ^.",
"^.K ~.a 1.( ( :.# P.J.D.C.D.h ^.",
"^.K ~.a <.! Q -.+ J.D.N.x.C.h ^.",
"^.J ~.p -.W E =.+ H.N.l.h.m.q ^.",
"^.H ~.i =.R T #.O C.l.d.i.n.9 ^.",
"^.G ~.y =.b v +.O l.d.r.e.v.9 ^.",
"^.S ~.y +.) ) o.O d.r.q.q.h.8 ^.",
"^.D ~.w O... .X.X r.q.3.3.s.6 ^.",
"^.D R.: ^ , , ~ . q.3.,.;.i.4 ^.",
"^.M U.= & I P # . 3.,.&.%.e.1 ^.",
"^.B z.t y.J.H.9.; N.n.h.g.8.1 ^.",
"^.| m j g e e 9 9 6 6 3 1 1 1 ^.",
"^.^.^.^.^.^.^.^.^.^.^.^.^.^.^.^."
};
