/* XPM */
static char *computer[] = {
/* columns rows colors chars-per-pixel */
"16 16 134 2",
"   c #6C718C00",
".  c #6D728E00",
"X  c #6D738E00",
"o  c #6F759100",
"O  c #71779300",
"+  c #71779400",
"@  c #72799500",
"#  c #73799600",
"$  c #737A9600",
"%  c #747A9700",
"&  c #757E9700",
"*  c #747B9800",
"=  c #767C9800",
"-  c #767C9A00",
";  c #777D9A00",
":  c #777D9B00",
">  c #777E9B00",
",  c #787E9C00",
"<  c #797F9D00",
"1  c #4A7DD700",
"2  c #4B7ED700",
"3  c #4B7ED800",
"4  c #7A809E00",
"5  c #7B819E00",
"6  c #7B81A000",
"7  c #7D83A100",
"8  c #7D83A200",
"9  c #7D83A300",
"0  c #7E84A200",
"q  c #7D88A500",
"w  c #4E81DA00",
"e  c #5083DB00",
"r  c #5184DB00",
"t  c #5689DD00",
"y  c #588BDE00",
"u  c #5B8EE000",
"i  c #5E91E100",
"p  c #5E91E200",
"a  c #5F92E200",
"s  c #6295E300",
"d  c #6598E500",
"f  c #6699E600",
"g  c #6A9DE800",
"h  c #6C9FE900",
"j  c #6DA0E900",
"k  c #6EA1E900",
"l  c #71A4EB00",
"z  c #74A7EB00",
"x  c #75A8ED00",
"c  c #76A9ED00",
"v  c #79ACEF00",
"b  c #7AADF000",
"n  c #7DB0F100",
"m  c #7EB1F100",
"M  c #8087A400",
"N  c #8087A600",
"B  c #8288A800",
"V  c #838AAB00",
"C  c #848BA800",
"Z  c #848AAA00",
"A  c #858BAA00",
"S  c #878EAB00",
"D  c #888FAD00",
"F  c #8A90AE00",
"G  c #8A90AF00",
"H  c #8B91B000",
"J  c #8D93B100",
"K  c #8C93B200",
"L  c #8D93B200",
"P  c #8E94B200",
"I  c #8E94B300",
"U  c #8F95B300",
"Y  c #8F95B400",
"T  c #9197B400",
"R  c #9098B300",
"E  c #9198B500",
"W  c #9298B500",
"Q  c #949BB500",
"!  c #949AB700",
"~  c #959BB600",
"^  c #969CB700",
"/  c #969DB700",
"(  c #979DB900",
")  c #989DB800",
"_  c #989EB900",
"`  c #999FBA00",
"'  c #9BA1BB00",
"]  c #96ACCD00",
"[  c #81B4F300",
"{  c #84B7F500",
"}  c #85B8F500",
"|  c #88BBF700",
" . c #ABAFC500",
".. c #A5B3CE00",
"X. c #AEB3C800",
"o. c #A8BFDC00",
"O. c #B0B7CD00",
"+. c #B9BDD000",
"@. c #8DC0F900",
"#. c #B7C6DE00",
"$. c #B8C7DD00",
"%. c #BBCADF00",
"&. c #BEC8DB00",
"*. c #B5C8E100",
"=. c #BECCE100",
"-. c #BFCCE100",
";. c #C1C5D500",
":. c #C3CFE300",
">. c #C1D1E600",
",. c #C4D1E300",
"<. c #C6D3E400",
"1. c #CAD4E500",
"2. c #CFDAE800",
"3. c #CEDBEB00",
"4. c #D5DDEA00",
"5. c #DCDEE700",
"6. c #DCE2ED00",
"7. c #D9E4F000",
"8. c #DCE6F000",
"9. c #E2E3EB00",
"0. c #E1E6EF00",
"q. c #E6EAF100",
"w. c #E4EBF400",
"e. c #E7EDF500",
"r. c #EAEBF100",
"t. c #ECEFF400",
"y. c #EBF0F700",
"u. c #F0F4F900",
"i. c #F2F6FA00",
"p. c #F7F9FC00",
"a. c #FBFBFC00",
"s. c #FDFEFE00",
"d. c gray100",
"f. c None",
/* pixels */
"f.f.f.f.f.f.f.f.f.f.f.f.f.f.f.f.",
"f.+.( ( ! W Y U K K H F A B ^ f.",
"f.` r.d.d.d.d.d.p.u.y.w.8.&.8 f.",
"f.' d.1 3 3 1 2 1 1 1 1 1 1.6 f.",
"f.` d.3 @.} n x j d a t 1 <.< f.",
"f.^ d.3 | [ v l g s u r 1 :.; f.",
"f.W d.3 { n x j d a t w 1 =.$ f.",
"f.U d.1 b z h d a y e 1 1 %.O f.",
"f.K d.1 1 1 1 1 1 1 1 1 1 #.. f.",
"f.F 5.y.q.0.6.4.2.1.,.=.$...  f.",
"f. .A N 8 5 5 < ; > ; % O X & f.",
"f.f.f.f.f.X.+.d.u.O.! f.f.f.f.f.",
"f.;.^ ` ! U a.u.w.2.U 6 5 - q f.",
"f.T 9.d.d.d.u.e.7.2.>.*.*.] $ f.",
"f.D S C q 0 5 ; ; ; $ $ o o o f.",
"f.f.f.f.f.f.f.f.f.f.f.f.f.f.f.f."
};
