/* XPM */
static char *conflicted_file_xpm[] = {
/* columns rows colors chars-per-pixel */
"16 16 134 2",
"   c #010101",
".  c #0c0c0c",
"X  c #1d222b",
"o  c #1e2533",
"O  c #272720",
"+  c #282429",
"@  c #22273b",
"#  c #252831",
"$  c #202a38",
"%  c #544f51",
"&  c #55514f",
"*  c #545353",
"=  c #5c5c78",
"-  c #5e637c",
";  c #615f7e",
":  c #6c6c6c",
">  c #6a6a75",
",  c #71716f",
"<  c #717274",
"1  c #5e6782",
"2  c #5e6983",
"3  c #777780",
"4  c #fd343f",
"5  c #fd3f44",
"6  c #fe3b4d",
"7  c #ff413d",
"8  c #fe4c38",
"9  c #dd6970",
"0  c #dd7b7f",
"q  c #fe4846",
"w  c #ff4f4e",
"e  c #fb5c53",
"r  c #ff5d69",
"t  c #e5785d",
"y  c #ff725f",
"u  c #e8727c",
"i  c #ee7a73",
"p  c #ff6262",
"a  c #ff6a66",
"s  c #ff6c7a",
"d  c #ff7e62",
"f  c #fd7478",
"g  c #ff7c7c",
"h  c #d47684",
"j  c #fe7483",
"k  c #ff7f8f",
"l  c #ba8264",
"z  c #a0a356",
"x  c #adad5e",
"c  c #ada166",
"v  c #fc8737",
"b  c #febf18",
"n  c #fda33e",
"m  c #d0ba79",
"M  c #ff9167",
"N  c #ff9c6d",
"B  c #fea541",
"V  c #fdce2b",
"C  c #fded07",
"Z  c #fee218",
"A  c #feee13",
"S  c #fdf606",
"D  c #fdf50b",
"F  c #fff815",
"G  c #fefb2b",
"H  c #fefa30",
"J  c #fef93c",
"K  c #fdde52",
"L  c #fdd66e",
"P  c #fee850",
"I  c #ffec6e",
"U  c #9a959e",
"Y  c #99999a",
"T  c #94a1a0",
"R  c #9fa2a5",
"E  c #a6a097",
"W  c #baa18d",
"Q  c #a1a2a2",
"!  c #aaaaab",
"~  c #b8baa3",
"^  c #b7b7b7",
"/  c #bcbbbc",
"(  c #adaee7",
")  c #b0bdf4",
"_  c #c8b996",
"`  c #d6b58a",
"'  c #fe8c8d",
"]  c #ff8d91",
"[  c #fe928c",
"{  c #ff9599",
"}  c #e094a9",
"|  c #fd9baa",
" . c #ff9bb2",
".. c #fe99bd",
"X. c #ffad88",
"o. c #ffa59c",
"O. c #e0a0b6",
"+. c #f0aca6",
"@. c #ffaaaf",
"#. c #df9ac0",
"$. c #dfa4cb",
"%. c #dfa3d3",
"&. c #e1b7d0",
"*. c #ffb2c4",
"=. c #d9c49e",
"-. c #c9c9aa",
";. c #d7c5b0",
":. c #ffc495",
">. c #ffc4a9",
",. c #fdd8a1",
"<. c #c2c2c2",
"1. c #cccccc",
"2. c #dfc3d9",
"3. c #d4d4d4",
"4. c #dfc9e9",
"5. c #dedbf1",
"6. c #e1dfda",
"7. c #ffc6de",
"8. c #fecfd1",
"9. c #feded5",
"0. c #fddcdc",
"q. c #e1d3e4",
"w. c #fddae5",
"e. c #fed9ea",
"r. c #f2e4c7",
"t. c #e4e4ee",
"y. c #edebe6",
"u. c #ffeae8",
"i. c #f8f5e5",
"p. c #f8f5ec",
"a. c #fefdee",
"s. c #f4f4f3",
"d. c #fefef5",
"f. c None",
/* pixels */
"f.  f.. X X o # @ # @ O + . f.  ",
"f.  f.< r.;._ =.` _ m W -.< f.  ",
"f.  f.< ( c E x T Q z Q ~ < f.  ",
"f.  f.1 ) l 9 t h u h i +.% f.  ",
"f.  f.2 #.q 5 6 8 8 q 4 p % f.  ",
"f.  f.2 } w e b D A C v s * f.  ",
"f.  f.2 O.r V Z y a B n k * f.  ",
"f.  f.2 $.d S M j g j f { * f.  ",
"f.  f.1 %.N D [ ] ' [ ' @.* f.  ",
"f.  f.- &.o.S X... ...| *.* f.  ",
"f.  f.- 2.*.K F :.>.P L 7.* f.  ",
"f.  f.- 4.8.8.I H G J ,.e.* f.  ",
"f.  f.> q.9.0.e.0.9.w.w.u.* f.  ",
"f.  f.= 5.a.a.a.d.d.a.i.p.* f.  ",
"f.  f.> t.s.y.6.3.1.<./ 3.: f.  ",
"f.  f.< 3.Y Q ! ^ / 3.3.s.< f.  "
};
