/* XPM */
static char *conflicted_file[] = {
/* columns rows colors chars-per-pixel */
"16 16 132 2",
"   c #9B5A3D00",
".  c #FF330000",
"X  c #C25E3200",
"o  c #C45F3200",
"O  c #C55F3200",
"+  c #C5603300",
"@  c #CB623400",
"#  c #CC633400",
"$  c #CE643500",
"%  c #D1653600",
"&  c #D2663600",
"*  c #D4683700",
"=  c #D7683700",
"-  c #D86A3800",
";  c #DB6B3900",
":  c #DF6B3800",
">  c #DE6D3A00",
",  c #DF6D3B00",
"<  c #E16F3C00",
"1  c #E4723F00",
"2  c #ED723C00",
"3  c #E4734100",
"4  c #E8744000",
"5  c #EA764300",
"6  c #EB774400",
"7  c #E8794700",
"8  c #EE7D4B00",
"9  c #EF804F00",
"0  c #ED875900",
"q  c #F0845400",
"w  c #F3865600",
"e  c #F0885900",
"r  c #F08A5C00",
"t  c #F28A5D00",
"y  c #F4895B00",
"u  c #F48A5C00",
"i  c #F58C5F00",
"p  c #F18D6000",
"a  c #F18E6100",
"s  c #F18F6200",
"d  c #F58D6000",
"f  c #F58E6100",
"g  c #F5906400",
"h  c #F5916500",
"j  c #F5926600",
"k  c #F5936700",
"l  c #F5946800",
"z  c #F6946900",
"x  c #F6956A00",
"c  c #F6966B00",
"v  c #F6966C00",
"b  c #F6976D00",
"n  c #F6986E00",
"m  c #F6986F00",
"M  c #F7997000",
"N  c #F79A7100",
"B  c #F79B7200",
"V  c #F79C7300",
"C  c #F79D7500",
"Z  c #F89E7600",
"A  c #F89F7700",
"S  c #F8A07800",
"D  c #F8A17900",
"F  c #F8A17A00",
"G  c #F8A27B00",
"H  c #F8A27C00",
"J  c #F8A37C00",
"K  c #F8A37D00",
"L  c #F8A47D00",
"P  c #F8A47E00",
"I  c #F8A57F00",
"U  c #F6A58100",
"Y  c #F6A78400",
"T  c #F7A78500",
"R  c #F7A98800",
"E  c #F7AB8900",
"W  c #F7AC8B00",
"Q  c #F7AE8D00",
"!  c #F8A58000",
"~  c #F8A68100",
"^  c #F9A78100",
"/  c #F9A78200",
"(  c #F9A88300",
")  c #F9A98400",
"_  c #F9AA8500",
"`  c #F9AB8600",
"'  c #F9AB8700",
"]  c #FAAC8800",
"[  c #FAAC8900",
"{  c #FAAD8A00",
"}  c #FAAE8B00",
"|  c #F8AE8E00",
" . c #FAAF8C00",
".. c #FAAF8D00",
"X. c #FAB08E00",
"o. c #FAB18F00",
"O. c #F8B09100",
"+. c #FAB29000",
"@. c #FAB29200",
"#. c #F8B39400",
"$. c #F8B39500",
"%. c #FAB49300",
"&. c #FAB49400",
"*. c #FBB59400",
"=. c #FBB59500",
"-. c #FBB69600",
";. c #FBB79700",
":. c #F9B59800",
">. c #F9B69900",
",. c #F9B89B00",
"<. c #FBB89900",
"1. c #FBB99A00",
"2. c #F9BA9D00",
"3. c #F9BB9F00",
"4. c #FCB99B00",
"5. c #FCBA9C00",
"6. c #FCBC9E00",
"7. c #FCBD9F00",
"8. c #FABDA100",
"9. c #FDBEA000",
"0. c #FBC1A600",
"q. c #FDC1A400",
"w. c #FDC1A500",
"e. c #FDC4A900",
"r. c #FCCDB700",
"t. c #FDD0BB00",
"y. c #FED2BD00",
"u. c #FED4C100",
"i. c #FED7C400",
"p. c #FED9C700",
"a. c gray100",
"s. c None",
/* pixels */
"s.s.s.s.s.s.s.s.s.s.s.s.s.s.s.s.",
"s.s.s s s r e q 9 8 7 7 s.s.s.s.",
"s.s.s p.p.p.u.y.t.r.2 0 3   s.s.",
"a.a.a.a.e.q.9.4.&.&.2 0.r , s.s.",
"a.. . a.q.6.4.&.+.X.2 2 2 < s.s.",
"a.. . a.6.<.&.+. .) / L 8., s.s.",
"a.. . a.<.&.+.[ ) / J S 2.; s.s.",
"a.. . a.&.X.[ ) / S A N :.= s.s.",
"a.. . a. .[ ( I S A N v $.% s.s.",
"a.a.a.a.) / I S C N v z +.% s.s.",
"a.. . a.( K S C N z g d Q $ s.s.",
"a.. . a.K C N m z g d u E # s.s.",
"a.a.a.a.C N v z g i y q T + s.s.",
"s.s.5 2.<.:.$.O. .W E T U X s.s.",
"s.s.4 3 < , ; = % $ @ O X O s.s.",
"s.s.s.s.s.s.s.s.s.s.s.s.s.s.s.s."
};
