/* XPM */
static char *deleted_file_xpm[] = {
/* columns rows colors chars-per-pixel */
"16 16 63 1",
"  c #010101",
". c #0c0c0c",
"X c #1d222b",
"o c #1e2533",
"O c #272720",
"+ c #282429",
"@ c #252831",
"# c #21293a",
"$ c #4e4e4f",
"% c #535355",
"& c #5e5e77",
"* c #5e5e7a",
"= c #6c6c6c",
"- c #61607f",
"; c #6b6b75",
": c #6f7174",
"> c #717273",
", c #777780",
"< c #a09b4f",
"1 c #ac9a5e",
"2 c #ada55b",
"3 c #d0bb7a",
"4 c #8d8d8d",
"5 c #939191",
"6 c #9a919a",
"7 c #9c999c",
"8 c #a69a93",
"9 c #baa18e",
"0 c #b8ad96",
"q c #a2a2a1",
"w c #aaaaaa",
"e c #b5b5b5",
"r c #bdbdbe",
"t c #adade6",
"y c #b0b8ef",
"u c #bdc3a4",
"i c #c8ba98",
"p c #d6b88d",
"a c #dac59e",
"s c #c9cbac",
"d c #d9c5a0",
"f c #d7c6b1",
"g c #ded3ba",
"h c #c3c3c3",
"j c #cccccd",
"k c #d1d1cf",
"l c #d4d3d5",
"z c #d7d7d8",
"x c #ddddde",
"c c #d4dae4",
"v c #dedeed",
"b c #d7d8f9",
"n c #dcdcf4",
"m c #deddfb",
"M c #f2e4c7",
"N c #e2e2e3",
"B c #e4e4ee",
"V c #eeebe5",
"C c #ebebeb",
"Z c #e0e1f7",
"A c #f3f3f2",
"S c #fefefd",
"D c None",
/* pixels */
"D D.XXooo@#O+.D ",
"D D>Mfaapi39s>D ",
"D D>t18257<60>D ",
"D D,yulgcCxCV%D ",
"D D*mSSSSSSSS%D ",
"D D*mSSSSShAS%D ",
"D D*nSzCSlhSS%D ",
"D D,mSNeCeSSS%D ",
"D D*ZSSx4CSSS%D ",
"D D&vSSjwlSSS%D ",
"D D*bSzrSrlSS%D ",
"D D*mAeSSSNSS%D ",
"D D-nSCSSSSSS%D ",
"D D&nSSSSSSSC%D ",
"D D;BACNlhhrl=D ",
"D D>l7qwehkzA>D "
};
