/* XPM */
static char *deleted_file[] = {
/* columns rows colors chars-per-pixel */
"16 16 121 2",
"   c #9B5A3D00",
".  c #FF330000",
"X  c #C25E3200",
"o  c #C45F3200",
"O  c #C55F3200",
"+  c #C5603300",
"@  c #CB623400",
"#  c #CC633400",
"$  c #CE643500",
"%  c #D1653600",
"&  c #D2663600",
"*  c #D4683700",
"=  c #D7683700",
"-  c #D86A3800",
";  c #DB6B3900",
":  c #DF6B3800",
">  c #DE6D3A00",
",  c #DF6D3B00",
"<  c #E16F3C00",
"1  c #E4723F00",
"2  c #ED723C00",
"3  c #E4734100",
"4  c #E8744000",
"5  c #EA764300",
"6  c #EB774400",
"7  c #E8794700",
"8  c #EC794600",
"9  c #EE7C4800",
"0  c #EE7D4B00",
"q  c #EF7E4B00",
"w  c #EF804F00",
"e  c #ED875900",
"r  c #F0845400",
"t  c #F3865600",
"y  c #F0885900",
"u  c #F08A5C00",
"i  c #F28A5D00",
"p  c #F4895B00",
"a  c #F48A5C00",
"s  c #F58C5F00",
"d  c #F18D6000",
"f  c #F18E6100",
"g  c #F18F6200",
"h  c #F58D6000",
"j  c #F58E6100",
"k  c #F5906400",
"l  c #F5916500",
"z  c #F5926600",
"x  c #F5936700",
"c  c #F5946800",
"v  c #F6946900",
"b  c #F6956A00",
"n  c #F6966B00",
"m  c #F6966C00",
"M  c #F6976D00",
"N  c #F6986E00",
"B  c #F6986F00",
"V  c #F7997000",
"C  c #F79A7100",
"Z  c #F79B7200",
"A  c #F79C7300",
"S  c #F79D7500",
"D  c #F89E7600",
"F  c #F89F7700",
"G  c #F8A07800",
"H  c #F8A17900",
"J  c #F8A17A00",
"K  c #F8A27B00",
"L  c #F8A27C00",
"P  c #F8A37C00",
"I  c #F8A37D00",
"U  c #F8A47D00",
"Y  c #F6A58100",
"T  c #F6A78400",
"R  c #F7A78500",
"E  c #F7A98800",
"W  c #F7AB8900",
"Q  c #F7AC8B00",
"!  c #F7AE8D00",
"~  c #F8A58000",
"^  c #F8A68100",
"/  c #F9A78100",
"(  c #F9A78200",
")  c #F9A98400",
"_  c #F9AA8500",
"`  c #F9AB8600",
"'  c #F9AB8700",
"]  c #FAAD8A00",
"[  c #FAAE8B00",
"{  c #F8AE8E00",
"}  c #FAAF8C00",
"|  c #FAB18F00",
" . c #F8B09100",
".. c #FAB29000",
"X. c #FAB29200",
"o. c #F8B39400",
"O. c #F8B39500",
"+. c #FAB49400",
"@. c #FBB79700",
"#. c #F9B59800",
"$. c #F9B69900",
"%. c #F9B89B00",
"&. c #F9BA9D00",
"*. c #F9BB9F00",
"=. c #FCBA9C00",
"-. c #FABDA100",
";. c #FABEA200",
":. c #FAC1A600",
">. c #FBC1A600",
",. c #FBC3AA00",
"<. c #FBC6AE00",
"1. c #FDC4A900",
"2. c #FCCDB700",
"3. c #FDD0BB00",
"4. c #FED2BD00",
"5. c #FED4C100",
"6. c #FED7C400",
"7. c #FED8C600",
"8. c #FED9C700",
"9. c gray100",
"0. c None",
/* pixels */
"0.0.0.0.0.0.0.0.0.0.0.0.0.0.0.0.",
"0.0.g g g u y r w 0 5 7 0.0.0.0.",
"0.0.g 7.7.6.5.4.3.2.2 e 3   0.0.",
"0.9.9.6.1.9.9.=.@.@.2 >.u > 0.0.",
"9.. . 9.9.. . 9...| 2 2 2 < 0.0.",
"0.9.. . . . 9...] ) / U -.> 0.0.",
"0.0.9.. . 9.| ] ) / U G &.= 0.0.",
"0.9.. . . . 9.) / K D C #.= 0.0.",
"9.. . 9.9.. . 9.K D C M O.* 0.0.",
"0.9.9.<.) 9.9.G D C M v ..% 0.0.",
"0.0.0 ,.( U G A M v k h { # 0.0.",
"0.0.0 >.L G C M v k h a W # 0.0.",
"0.0.7 -.D C M v j h p r R O 0.0.",
"0.0.6 &.%.#.O...{ W W R Y X 0.0.",
"0.0.5 1 < > ; = % $ @ O X O 0.0.",
"0.0.0.0.0.0.0.0.0.0.0.0.0.0.0.0."
};
