/* XPM */
static char *deleted_open_folder[] = {
/* columns rows colors chars-per-pixel */
"16 16 112 2",
"   c #5D291400",
".  c #8F533600",
"X  c #90442200",
"o  c #A7522C00",
"O  c #A5583500",
"+  c #BA572C00",
"@  c red",
"#  c #C25C3000",
"$  c #C15F3400",
"%  c #C7673C00",
"&  c #D0633400",
"*  c #D6683800",
"=  c #DA693800",
"-  c #ED713B00",
";  c #ED723C00",
":  c #EE733D00",
">  c #D86F4000",
",  c #D0764C00",
"<  c #D9714300",
"1  c #DC704100",
"2  c #DF794A00",
"3  c #EE764100",
"4  c #EC784500",
"5  c #EA7E4D00",
"6  c #EC7D4B00",
"7  c #E57F5100",
"8  c #E8835400",
"9  c #EF825100",
"0  c #F0835500",
"q  c #F0845400",
"w  c #F4885600",
"e  c #F68A5700",
"r  c #F1885900",
"t  c #F0885B00",
"y  c #F1895A00",
"u  c #F3895C00",
"i  c #F28B5C00",
"p  c #F38C5D00",
"a  c #F38D5E00",
"s  c #F38D5F00",
"d  c #F48C5B00",
"f  c #F58C5F00",
"g  c #FF8B5700",
"h  c #E9916700",
"j  c #F88F6100",
"k  c #F1916500",
"l  c #F2906400",
"z  c #F2906500",
"x  c #F3926700",
"c  c #F7926200",
"v  c #F5976B00",
"b  c #F59A6F00",
"n  c #FB966600",
"m  c #FF926100",
"M  c #FF976500",
"N  c #FF9A6A00",
"B  c #FC9E6F00",
"V  c #F59D7700",
"C  c #F69E7600",
"Z  c #F4A07A00",
"A  c #FFA27300",
"S  c #FFA17700",
"D  c #FFA27400",
"F  c #FFA37400",
"G  c #F8A47E00",
"H  c #F8A67F00",
"J  c #FFA87D00",
"K  c #FFA87F00",
"L  c #F9A88100",
"P  c #FFAB8200",
"I  c #F9AF8D00",
"U  c #FAAF8E00",
"Y  c #FDAE8B00",
"T  c #FFAF8800",
"R  c #F8B18F00",
"E  c #FFB08A00",
"W  c #FFB38E00",
"Q  c #F6B09000",
"!  c #F7B39200",
"~  c #F8B19000",
"^  c #F8B59500",
"/  c #F9B69600",
"(  c #FFB39100",
")  c #FDB69200",
"_  c #FFB59000",
"`  c #FFB99800",
"'  c #FCBB9C00",
"]  c #FEBB9E00",
"[  c #FFBF9F00",
"{  c #FABFA200",
"}  c #FDC1A300",
"|  c #FFC1A100",
" . c #FEC3A600",
".. c #FFC4A400",
"X. c #FFC5A700",
"o. c #FFC4A900",
"O. c #FFC6A900",
"+. c #FDC7AC00",
"@. c #FEC9AF00",
"#. c #FFCBAF00",
"$. c #FFCDB300",
"%. c #FFCEB500",
"&. c #FFCFB700",
"*. c #FCCFB800",
"=. c #FDD1BA00",
"-. c #FED1BA00",
";. c #FFD1BA00",
":. c #FFD2BA00",
">. c #FFD3BC00",
",. c #FFD3BD00",
"<. c gray100",
"1. c None",
/* pixels */
"1.1.1.1.1.1.1.1.1.1.1.1.1.1.1.1.",
"1.1.1.^ ~ 1.1.1.1.1.1.1.1.1.1.1.",
"1.~ k r 0 k b i 9 4 6 h 1.1.1.1.",
"1.k ^ :.) c r L } @.r 8 1.1.1.1.",
"1.r :.[ :.o.,.%.} %.V 7 1.1.1.1.",
"1.l ' T P E J A B H p 5 2 = 1 1.",
"1.i I W N n e 3 9 Z Q } *.Q , 1.",
"1.f C ` e ; v +.>.#.X.X.:.< . 1.",
"1.<.<.T ; <.<.W F F F %.G % 1.1.",
"<.@ @ <.<.@ @ <.M M T  .* O 1.1.",
"1.<.@ @ @ @ <.g m K o.j $ 1.1.1.",
"1.1.<.@ @ <.F ( [ I i & o 1.1.1.",
"1.<.@ @ @ @ <.k > # + X 1.1.1.1.",
"<.@ @ <.<.@ @ <.  1.1.1.1.1.1.1.",
"1.<.<.1.1.<.<.1.1.1.1.1.1.1.1.1.",
"1.1.1.1.1.1.1.1.1.1.1.1.1.1.1.1."
};
