/* XPM */
static char *deleted_folder[] = {
/* columns rows colors chars-per-pixel */
"16 16 91 1",
"  c #99482400",
". c red",
"X c #C45D3000",
"o c #C45E3100",
"O c #C65E3100",
"+ c #CB613200",
"@ c #CD623300",
"# c #CF633400",
"$ c #D2643400",
"% c #D5663600",
"& c #D9693700",
"* c #DD6A3800",
"= c #E6723F00",
"- c #E8713C00",
"; c #ED713B00",
": c #ED723C00",
"> c #EE743E00",
", c #E2744300",
"< c #EA764300",
"1 c #EB764300",
"2 c #EE774200",
"3 c #EC7F4F00",
"4 c #EF7D4C00",
"5 c #E2885E00",
"6 c #EF815100",
"7 c #EF825100",
"8 c #EF835400",
"9 c #EF855600",
"0 c #ED8B5D00",
"q c #F1865600",
"w c #F0865800",
"e c #F1895A00",
"r c #F2895A00",
"t c #F0895C00",
"y c #F48B5B00",
"u c #FF8B5600",
"i c #FF8B5700",
"p c #FF8C5700",
"a c #FF8E5A00",
"s c #F48F6100",
"d c #F2916600",
"f c #F2926700",
"g c #FF976500",
"h c #F89D7100",
"j c #F6A17900",
"k c #FFA27400",
"l c #FFA37400",
"z c #F5A58100",
"x c #FFAB8000",
"c c #FFAE8300",
"v c #FFB08700",
"b c #FFB28800",
"n c #FFB28A00",
"m c #FFB48B00",
"M c #FFB58C00",
"N c #FBB69400",
"B c #FFB69000",
"V c #FFB79200",
"C c #FAB79A00",
"Z c #F9BA9B00",
"A c #F9BC9E00",
"S c #FFBD9900",
"D c #FFBE9A00",
"F c #FABEA100",
"G c #FEBEA200",
"H c #FFBEA200",
"J c #FFBFA200",
"K c #FCC3A700",
"L c #FEC4AA00",
"P c #FCC7AD00",
"I c #FCC8AC00",
"U c #FCC9B000",
"Y c #FDCBB200",
"T c #FFCBB200",
"R c #FECCB300",
"E c #FDD2BB00",
"W c #FFD1B800",
"Q c #FFD1B900",
"! c #FFD1BA00",
"~ c #FDD2BD00",
"^ c #FFD5BF00",
"/ c #FED6C000",
"( c #FFD6C100",
") c #FED9C500",
"_ c #FFD9C400",
"` c #FEDAC600",
"' c #FFDBC700",
"] c #FFDCC800",
"[ c #FFE0CD00",
"{ c gray100",
"} c None",
/* pixels */
"}}}}}}}}}}}}}}}}",
"}}}}}}}}}}}}}}}}",
"}Aft99ej}}}}}}}}",
"}fF`]`I4eq6<30}}",
"}t`mvm!YKI~YN=}}",
"}w^xxxvVBh2;;-5}",
"}8!y;;;;;>I[[Z,}",
"}6sz/]]]]]`SS`*}",
"}{{!n{{xxvxcc/&}",
"{..{{..{lllll!%}",
"}{....{ggggggT#}",
"}<{..{iippipaLO}",
"}{....{GGKGGGCX}",
"{..{{..{$#@+OX }",
"}{{}}{{}}}}}}}}}",
"}}}}}}}}}}}}}}}}"
};
