/* XPM */
static char *earth_xpm[] = {
/* columns rows colors chars-per-pixel */
"16 16 122 2",
"   c #000000",
".  c #192631",
"X  c #21271f",
"o  c #262f1a",
"O  c #2d2a18",
"+  c #332f1b",
"@  c #212c2f",
"#  c #292b2a",
"$  c #232a3c",
"%  c #303422",
"&  c #393f30",
"*  c #0b3059",
"=  c #1a2e49",
"-  c #19324f",
";  c #13345b",
":  c #143858",
">  c #1d3551",
",  c #1d3b5b",
"<  c #133861",
"1  c #143a6a",
"2  c #123d74",
"3  c #143c7a",
"4  c #202f48",
"5  c #20324b",
"6  c #213852",
"7  c #364834",
"8  c #1b466d",
"9  c #1f477b",
"0  c #184874",
"q  c #234b7c",
"w  c #28527f",
"e  c #444e34",
"r  c #584d34",
"t  c #685c32",
"y  c #7a6b3e",
"u  c #49515b",
"i  c #476a7e",
"p  c #777245",
"a  c #7b7540",
"s  c #7e785e",
"d  c #103d89",
"f  c #103f97",
"g  c #10499f",
"h  c #12539d",
"j  c #0f43a1",
"k  c #1448a8",
"l  c #124bb6",
"z  c #175caa",
"x  c #1a5ba5",
"c  c #1758ba",
"v  c #254d80",
"b  c #2264ae",
"n  c #356da2",
"m  c #3d6cb0",
"M  c #3574ae",
"N  c #3476b2",
"B  c #1757c0",
"V  c #1d5bc3",
"C  c #1c6ad8",
"Z  c #215ec5",
"A  c #2363c3",
"S  c #2b74d8",
"D  c #377ecf",
"F  c #397cd9",
"G  c #2b78e0",
"H  c #3077e6",
"J  c #337ce2",
"K  c #52768d",
"L  c #577da9",
"P  c #3f8bca",
"I  c #3480e6",
"U  c #3b89ea",
"Y  c #3496f2",
"T  c #729195",
"R  c #6387a2",
"E  c #6c9ead",
"W  c #518dd1",
"Q  c #4189e4",
"!  c #4b91e4",
"~  c #4c9eec",
"^  c #5798e2",
"/  c #5499e8",
"(  c #5a9cea",
")  c #6192d4",
"_  c #6eaded",
"`  c #a87a2b",
"'  c #8b7c49",
"]  c #877e69",
"[  c #bf992f",
"{  c #9f9246",
"}  c #9e9b68",
"|  c #b4a945",
" . c #b9a843",
".. c #afb663",
"X. c #adba67",
"o. c #b6b475",
"O. c #d2b65b",
"+. c #ddbc6d",
"@. c #dac75b",
"#. c #efca74",
"$. c #f2cf7e",
"%. c #86ac86",
"&. c #88a0af",
"*. c #80b7ee",
"=. c #b3c9bc",
"-. c #cbd0bd",
";. c #d2cda0",
":. c #e4d083",
">. c #e8d483",
",. c #edd09b",
"<. c #f6d08c",
"1. c #e2d8b9",
"2. c #eedeb6",
"3. c #f2e8bb",
"4. c #e2e3c1",
"5. c #efe8cc",
"6. c #f0edc7",
"7. c #ffeacb",
"8. c #ffebd3",
"9. c #faf0e3",
"0. c #fff5ec",
"q. c None",
/* pixels */
"q.q.q.q.q.q.q.q.q.q.q.q.q.q.q.q.",
"q.q.q.q.q.q.r r v v q.q.q.q.q.q.",
"q.q.q.q.r ` +.;.) M q * q.q.q.q.",
"q.q.q.x <.3.6.-.T X.m g ; q.q.q.",
"q.q.x =.7.0.5.:.o.| K c d < q.q.",
"q.q.0 4.0.9.2.>.O.s N V j > q.q.",
"q.v W 1.0.8.$.#.s H G Z k 6 O q.",
"q.q / &.7.,.R ] W U J A l , + q.",
"q.w ( _ &.@.%.! Q J S c f ; $ q.",
"q.w ( _ _ E ..L K n A l 3 = . q.",
"q.q.* / _ ~ Y } | ' u 2 >   q.q.",
"q.q.1 z P F C [ { y t = 4   q.q.",
"q.q.q.0 h b h p a r e #   q.q.q.",
"q.q.q.q.: ; 8 , 7 & %   q.q.q.q.",
"q.q.q.q.q.q.@ X o   q.q.q.q.q.q.",
"q.q.q.q.q.q.q.q.q.q.q.q.q.q.q.q."
};
