/* XPM */
static char *externals_folder[] = {
/* columns rows colors chars-per-pixel */
"16 16 70 1",
"  c gray36",
". c #64646400",
"X c gray40",
"o c #67676700",
"O c #68686800",
"+ c DimGray",
"@ c #6C6C6C00",
"# c #6D6D6D00",
"$ c #6F6F6F00",
"% c #71717100",
"& c #77777700",
"* c gray47",
"= c #79797900",
"- c #7B7B7B00",
"; c #7C7C7C00",
": c gray49",
"> c gray50",
", c #81818100",
"< c gray51",
"1 c #83838300",
"2 c #88888800",
"3 c #89898900",
"4 c gray54",
"5 c #8B8B8B00",
"6 c gray55",
"7 c #8E8E8E00",
"8 c gray56",
"9 c #90909000",
"0 c #92929200",
"q c #93939300",
"w c gray59",
"e c #98989800",
"r c gray60",
"t c gray61",
"y c #ACACAC00",
"u c gray68",
"i c gray70",
"p c #C0C0C000",
"a c #C1C1C100",
"s c gray76",
"d c #C3C3C300",
"f c #C5C5C500",
"g c #C6C6C600",
"h c gray78",
"j c #C8C8C800",
"k c #CACACA00",
"l c #CBCBCB00",
"z c gray80",
"x c gray81",
"c c #D0D0D000",
"v c LightGray",
"b c #D5D5D500",
"n c #D8D8D800",
"m c gray85",
"M c gainsboro",
"N c #DDDDDD00",
"B c #DFDFDF00",
"V c gray88",
"C c #E1E1E100",
"Z c #E2E2E200",
"A c gray89",
"S c gray90",
"D c #E6E6E600",
"F c #E7E7E700",
"G c gray91",
"H c #E9E9E900",
"J c #EAEAEA00",
"K c #ECECEC00",
"L c gray100",
"P c None",
/* pixels */
"PPPPPPPPPPPPPPPP",
"PPPPPPPPPPPPPPPP",
"Pdr8539uPPPPPPPP",
"PejDGDv1095-2wPP",
"P7AlkzBnxvNmd*PP",
"P6Vsssgllu>==&qP",
"P4Me*****=bKKd;P",
"P2tyZJJJJJHnnD%P",
"P1*CvccccccccF$P",
"P,*SlllllllllS@P",
"P:*ZffgggggggZ+P",
"P;*VgpppppppaN.P",
"P>*iNNNNNNNNmhoP",
"P:<&%$#@++OX.O P",
"PPPPPPPPPPPPPPPP",
"PPPPPPPPPPPPPPPP"
};
