/* XPM */
static char *externals_open_folder[] = {
/* columns rows colors chars-per-pixel */
"16 16 84 1",
"  c #37373700",
". c #56565600",
"X c gray37",
"o c #65656500",
"O c #68686800",
"+ c DimGray",
"@ c #6C6C6C00",
"# c #6F6F6F00",
"$ c #71717100",
"% c #74747400",
"& c gray46",
"* c gray47",
"= c #79797900",
"- c #7C7C7C00",
"; c #7E7E7E00",
": c gray50",
"> c gray51",
", c #83838300",
"< c gray52",
"1 c gray53",
"2 c #88888800",
"3 c gray54",
"4 c #8B8B8B00",
"5 c #8D8D8D00",
"6 c gray56",
"7 c #90909000",
"8 c #92929200",
"9 c #93939300",
"0 c #95959500",
"q c gray59",
"w c #97979700",
"e c #98989800",
"r c gray60",
"t c #9A9A9A00",
"y c #9B9B9B00",
"u c gray62",
"i c #A0A0A000",
"p c #A2A2A200",
"a c gray64",
"s c #A5A5A500",
"d c gray65",
"f c gray66",
"g c #A9A9A900",
"h c #AAAAAA00",
"j c #AEAEAE00",
"k c #B1B1B100",
"l c gray70",
"z c gray71",
"x c #B6B6B600",
"c c gray72",
"v c #B9B9B900",
"b c #BBBBBB00",
"n c #BCBCBC00",
"m c gray74",
"M c gray",
"N c gray75",
"B c #C0C0C000",
"V c #C3C3C300",
"C c #C5C5C500",
"Z c #C6C6C600",
"A c gray79",
"S c #CACACA00",
"D c #CBCBCB00",
"F c #CDCDCD00",
"G c gray81",
"H c #D0D0D000",
"J c gray82",
"K c LightGray",
"L c #D5D5D500",
"P c gray84",
"I c #D7D7D700",
"U c #D8D8D800",
"Y c gray85",
"T c #DADADA00",
"R c gray86",
"E c gainsboro",
"W c #DDDDDD00",
"Q c #DFDFDF00",
"! c gray88",
"~ c #E1E1E100",
"^ c gray89",
"/ c gray90",
"( c gray100",
") c None",
/* pixels */
"))))))))))))))))",
")))Mb)))))))))))",
")bw64ea94:<u))))",
")tBQApezGU86))))",
")5RHWLQRJEs3))))",
")qZVNVmckle2>#*)",
")9vVkg0:4fnSTx>)",
")edCy=dU/~WW!*X)",
")qem=J/KDDD^l%))",
")94ip!AZZZKR$O))",
")7>>GFBBVGQh@)))",
"));1YZFIPVr+o)))",
")),7CZje&O+.))))",
")),$*-*+ )))))))",
"))))))))))))))))",
"))))))))))))))))"
};
