/* XPM */
static char *folder_xpm[] = {
/* columns rows colors chars-per-pixel */
"16 16 132 2",
"   c black",
".  c #847139",
"X  c #947d4a",
"o  c #9c8231",
"O  c #9c865a",
"+  c #9c9252",
"@  c #948663",
"#  c #94866b",
"$  c #948673",
"%  c #9c927b",
"&  c #9c9a7b",
"*  c #a58e52",
"=  c #ad8e5a",
"-  c #a5924a",
";  c #a59252",
":  c #a59a52",
">  c #a59e6b",
",  c #b5a242",
"<  c #bda65a",
"1  c #bdba4a",
"2  c #c6aa52",
"3  c #ceb652",
"4  c #d6b65a",
"5  c #cec742",
"6  c #cec75a",
"7  c #d6c742",
"8  c #dec74a",
"9  c #d6c752",
"0  c #dec35a",
"q  c #cec76b",
"w  c #cec773",
"e  c #cec37b",
"r  c #dec763",
"t  c #decf6b",
"y  c #d6c373",
"u  c #d6cb73",
"i  c #decb73",
"p  c #dedb6b",
"a  c #dedf7b",
"s  c #e7c35a",
"d  c #f7cf5a",
"f  c #e7cf7b",
"g  c #efc773",
"h  c #e7db6b",
"j  c #e7df7b",
"k  c #f7cf7b",
"l  c #f7db63",
"z  c #ffdd63",
"x  c #ffdd73",
"c  c #efe77b",
"v  c #ffe363",
"b  c #ffe76b",
"n  c #ffeb63",
"m  c #ffeb6b",
"M  c #f7e773",
"N  c #f7e77b",
"B  c #f7eb73",
"V  c #ffe373",
"C  c #ffe37b",
"Z  c #ffef73",
"A  c #ffed7b",
"S  c #f7f77b",
"D  c #fff373",
"F  c #fff77b",
"G  c #ffff7b",
"H  c #9c9684",
"J  c #a58e8c",
"K  c #a5969c",
"L  c #bdae8c",
"P  c #b5a694",
"I  c #bdb294",
"U  c #c6ba8c",
"Y  c #decb84",
"T  c #ded38c",
"R  c #ded39c",
"E  c #d6dbad",
"W  c #ded7b5",
"Q  c #dedbb5",
"!  c #e7d784",
"~  c #e7db94",
"^  c #efdf94",
"/  c #ffdf84",
"(  c #f7df94",
")  c #e7d7b5",
"_  c #efd7b5",
"`  c #efe79c",
"'  c #ffe584",
"]  c #ffe58c",
"[  c #ffef8c",
"{  c #f7e794",
"}  c #f7e79c",
"|  c #f7ef94",
" . c #ffe794",
".. c #ffed94",
"X. c #ffef9c",
"o. c #f7ff8c",
"O. c #fffc84",
"+. c #fffc8c",
"@. c #f7f394",
"#. c #fff494",
"$. c #fff39c",
"%. c #fffd94",
"&. c #fffd9c",
"*. c #e7e3bd",
"=. c #f7e3ad",
"-. c #f7efad",
";. c #f7efbd",
":. c #ffefbd",
">. c #f7fba5",
",. c #fff7a5",
"<. c #fff7ad",
"1. c #ffffa5",
"2. c #fffcad",
"3. c #fff3b5",
"4. c #fff5bd",
"5. c #ffffb5",
"6. c #ffffbd",
"7. c #f7dfc6",
"8. c #ffe7ce",
"9. c #f7ebd6",
"0. c #fff3ce",
"q. c #fffbc6",
"w. c #fffbce",
"e. c #fff7d6",
"r. c #fff3de",
"t. c #fffdd6",
"y. c #ffffde",
"u. c #ffebe7",
"i. c #fff3ef",
"p. c #ffffe7",
"a. c #ffffef",
"s. c None",
/* pixels */
"        9.W                     ",
"s.Q q.;.4.` R     e.w p a     s.",
"r.-.| 5.&.+.@.R ! f #.t i Y U ) ",
"s.,.&.#.#.&.j ~ c ^ _ u.i.8.R s.",
"0.#.M #.( y } :.t.p.a.7.w.t.L % ",
"s.u h f =.3.4.w.y.*.t.6.1.2.> s.",
"  T %.1.4.<.5.2.1.>.6.<.&.@.+ I ",
"s.e c 2.<.1.o.o.S &.$.1.[ #.O s.",
"  5 %.[ +.1.#.X.O.&.2.#.O.b :   ",
"s.q ,.$.B +.D O.#.,.{ [ F r @ s.",
"  6  .$.A &.N ' ] ,.[ Z G 3 #   ",
"s.7 x x l / C ] z V A 8 s.s.s.s.",
"  0 ..' m z n v d 4 < ; * X &   ",
"s.9 k g s 2 , o s.s.s.s.s.s.s.s.",
"  1 - = . $ H K                 ",
"s.E P J s.s.s.s.s.s.s.s.s.s.s.s."
};
