/* XPM */
static char *folder[] = {
/* columns rows colors chars-per-pixel */
"16 16 113 2",
"   c #8F742A00",
".  c #AF8A1900",
"X  c #B08B1900",
"o  c #B08C1E00",
"O  c #B48F1A00",
"+  c #B7901A00",
"@  c #B9911A00",
"#  c #B9921A00",
"$  c #BB931B00",
"%  c #BD951B00",
"&  c #BD961B00",
"*  c #B18C2000",
"=  c #C1981B00",
"-  c #C3991C00",
";  c #C39A1C00",
":  c #C69C1C00",
">  c #C69C1D00",
",  c #D59C2600",
"<  c #CFA41F00",
"1  c #D3A61D00",
"2  c #D3A61E00",
"3  c #D3A71E00",
"4  c #D4A71F00",
"5  c #CBA12300",
"6  c #CEA42200",
"7  c #CCA72C00",
"8  c #D1A82600",
"9  c #D2A82600",
"0  c #D4A92200",
"q  c #D4AA2800",
"w  c #D6AC2800",
"e  c #D6AC2C00",
"r  c #DAA62400",
"t  c #D5A93000",
"y  c #D7AE3000",
"u  c #D7AF3100",
"i  c #D7B33A00",
"p  c #D8B03800",
"a  c #D9B23A00",
"s  c #D9B23B00",
"d  c #D9B33F00",
"f  c #DAB33D00",
"g  c #DAB53C00",
"h  c #DAB54300",
"j  c #DBB54400",
"k  c #DCB94500",
"l  c #DDBA4400",
"z  c #DEBB4700",
"x  c #D4BC5600",
"c  c #DDBF5000",
"v  c #DFBD5200",
"b  c #DFBF5400",
"n  c #E4C24D00",
"m  c #E4C45500",
"M  c #E6CB7300",
"N  c #EED56D00",
"B  c #E9D27200",
"V  c #F0D07800",
"C  c #FBDE8600",
"Z  c #FBDF8600",
"A  c #FBDF8800",
"S  c #F1DB9D00",
"D  c #FFE58600",
"F  c #FCE58F00",
"G  c #FCE68F00",
"H  c #FFE68D00",
"J  c #F5E19300",
"K  c #F1E19900",
"L  c #F0E09A00",
"P  c #F2E29E00",
"I  c #FBE19200",
"U  c #FCE69000",
"Y  c #FFE89700",
"T  c #FFEE9500",
"R  c #FFE99800",
"E  c #FDEC9900",
"W  c #FDEC9A00",
"Q  c #FFEE9800",
"!  c #FFEF9900",
"~  c #F7E7A700",
"^  c #F8EAAE00",
"/  c #F6EAB100",
"(  c #FBEEB500",
")  c #FBEFB700",
"_  c #FBE9B800",
"`  c #FBEDBF00",
"'  c #FDEBBD00",
"]  c #FFEEBA00",
"[  c #FEF3A200",
"{  c #FEF3A300",
"}  c #FEF4A300",
"|  c #FEF4A800",
" . c #F8F1B300",
".. c #FFFBB100",
"X. c #FFFBB200",
"o. c #FDEFC300",
"O. c #FBF0C000",
"+. c #FBF3C700",
"@. c #FFF2C200",
"#. c #FDF2C700",
"$. c #FFF5C000",
"%. c #FBF5C900",
"&. c #FFF7CA00",
"*. c #FEF5CC00",
"=. c #FEF9CE00",
"-. c #FDF9D000",
";. c #FEF9D100",
":. c #FFFAD100",
">. c #FFFCD400",
",. c #FFFCD500",
"<. c #FFFFD900",
"1. c gray100",
"2. c None",
/* pixels */
"2.2.2.2.2.2.2.2.2.2.2.2.2.2.2.2.",
"2.2.2.2.2.2.2.2.2.2.2.2.2.2.2.2.",
"2.L b j d p k B 2.2.2.2.2.2.2.2.",
"2.v P =.:.=./ u k k g 9 i v 2.2.",
"2.h &.! T ! $.( ~ ^ O.( J 6 2.2.",
"2.d @.D D D H R Y N w 3 3 < x 2.",
"2.p ] n 3 3 3 3 3 0  .<.<.L 7 2.",
"2.p m M %.,.,.,.,.,.,.X.X.=.: 2.",
"2.u 3 +.| { { { { { { { } :.= 2.",
"2.e 3 *.E E E R E ! E E E *.& 2.",
"2.q 3 +.F F U U U U U U U #.+ 2.",
"2.8 3 o.I C C D C C C C D ` . 2.",
"2.r 3 V ' ' ' ' ' ' ' ' _ S . 2.",
"2., t 5 : = = & $ + + O . *   2.",
"2.2.2.2.2.2.2.2.2.2.2.2.2.2.2.2.",
"2.2.2.2.2.2.2.2.2.2.2.2.2.2.2.2."
};
