/* XPM */
static char *locked_deleted_open_folder[] = {
/* columns rows colors chars-per-pixel */
"16 16 146 2",
"   c #5D291400",
".  c #8F533600",
"X  c #97771E00",
"o  c #97771F00",
"O  c #9A791F00",
"+  c #9C7B2000",
"@  c #A07E2100",
"#  c red",
"$  c #DA693800",
"%  c #ED713B00",
"&  c #ED723C00",
"*  c #EE733D00",
"=  c #D86F4000",
"-  c #D0764C00",
";  c #D9714300",
":  c #DC704100",
">  c #DF794A00",
",  c #EE764100",
"<  c #EC784500",
"1  c #EA7E4D00",
"2  c #EC7D4B00",
"3  c #E57F5100",
"4  c #A4822400",
"5  c #A5822400",
"6  c #A2842C00",
"7  c #AA872700",
"8  c #AE892500",
"9  c #AE8B2A00",
"0  c #B18B2300",
"q  c #B28C2400",
"w  c #B28D2500",
"e  c #B28D2600",
"r  c #B38E2800",
"t  c #B4913100",
"y  c #B6953500",
"u  c #B6943B00",
"i  c #B9973900",
"p  c #B9983C00",
"a  c #BB993F00",
"s  c #BC9D3D00",
"d  c #BB9B4300",
"f  c #BC9A4100",
"g  c #BD9D4400",
"h  c #BE9E4900",
"j  c #C3905900",
"k  c #C1A35000",
"l  c #C2A35100",
"z  c #C4A75900",
"x  c #CBAE5B00",
"c  c #CBB37200",
"v  c #E8835400",
"b  c #EF825100",
"n  c #F0835500",
"m  c #F0845400",
"M  c #F4885600",
"N  c #F68A5700",
"B  c #F1885900",
"V  c #F0885B00",
"C  c #F1895A00",
"Z  c #F28B5C00",
"A  c #F38C5D00",
"S  c #F38D5E00",
"D  c #F38D5F00",
"F  c #F48C5B00",
"G  c #F58C5F00",
"H  c #FF8B5700",
"J  c #E9916700",
"K  c #F1916500",
"L  c #F2906400",
"P  c #F2906500",
"I  c #F3926700",
"U  c #F7926200",
"Y  c #F5976B00",
"T  c #F59A6F00",
"R  c #FB966600",
"E  c #FF926100",
"W  c #FF976500",
"Q  c #FF9A6A00",
"!  c #FC9E6F00",
"~  c #F59D7700",
"^  c #F69E7600",
"/  c #F4A07A00",
"(  c #FFA27300",
")  c #FFA17700",
"_  c #FFA27400",
"`  c #FFA37400",
"'  c #F8A67F00",
"]  c #FFA87D00",
"[  c #FFA87F00",
"{  c #D0BB8100",
"}  c #E9B98900",
"|  c #F9A88100",
" . c #FFAB8200",
".. c #F9AF8D00",
"X. c #FDAE8B00",
"o. c #FFAF8800",
"O. c #F8B18F00",
"+. c #FFB08A00",
"@. c #FFB38E00",
"#. c #F6B09000",
"$. c #F7B39200",
"%. c #F8B19000",
"&. c #F8B59500",
"*. c #F9B69600",
"=. c #FFB39100",
"-. c #FDB69200",
";. c #FFB59000",
":. c #FFB99800",
">. c #FCBB9C00",
",. c #FEBB9E00",
"<. c #FFBF9F00",
"1. c #FABFA200",
"2. c #FDC1A300",
"3. c #FFC1A100",
"4. c #FFC4A400",
"5. c #FFC5A700",
"6. c #FFC6A900",
"7. c #FDC7AC00",
"8. c #FEC9AF00",
"9. c #FFCBAF00",
"0. c #FFCEB500",
"q. c #FFCFB700",
"w. c #FCCFB800",
"e. c #FDD1BA00",
"r. c #FED1BA00",
"t. c #FFD1BA00",
"y. c #FFD2BA00",
"u. c #FFD3BC00",
"i. c #FFD3BD00",
"p. c #F3E9A400",
"a. c #FBF5B000",
"s. c #F9F6BE00",
"d. c #FFFAB700",
"f. c #FFFFB400",
"g. c #F6EFC300",
"h. c #FFFFC900",
"j. c #F9F6D800",
"k. c #FBF9D100",
"l. c #FFFED900",
"z. c #FFFFDC00",
"x. c #F9F6E800",
"c. c #FFFFE600",
"v. c #FFFFF600",
"b. c #FFFFF900",
"n. c gray100",
"m. c None",
/* pixels */
"m.m.m.m.m.m.m.m.m.m.m.m.m.m.m.m.",
"m.m.m.&.%.m.m.m.m.m.m.m.m.m.m.m.",
"m.%.K B b K T Z b < 2 J m.m.m.m.",
"m.K &.y.;.U B | 2.8.B v m.m.m.m.",
"m.B y.<.y.6.i.0.2.0.~ 3 m.m.m.m.",
"m.D >.o. .+.] ( ! ' A 1 > $ : m.",
"m.A ..;.Q R N , b / #.2.w.#.- m.",
"m.G ^ :.N & Y 7.u.9.5.5.y.; . m.",
"m.n.n.o.& n.n.@.` ` } k f f { m.",
"n.# # n.n.# # n.W W z c a h u m.",
"m.n.# # # # n.H E [ k r j e 9 m.",
"m.m.n.# # n.` =.<.x i e e e 8 y ",
"m.n.# # # # n.K $ g k.b.c.h.a.4 ",
"n.# # n.n.# # n.  a l.v.z.f.d.+ ",
"m.n.n.m.m.n.n.m.m.t g.x.j.s.p.o ",
"m.m.m.m.m.m.m.m.m.s 7 5 + O o 6 "
};
