/* XPM */
static char *locked_conflicted_file[] = {
/* columns rows colors chars-per-pixel */
"16 16 154 2",
"   c #9B5A3D00",
".  c #97771E00",
"X  c #97771F00",
"o  c #9A791F00",
"O  c #9C7B2000",
"+  c #A07E2100",
"@  c #FF330000",
"#  c #D2663600",
"$  c #D7683700",
"%  c #D86A3800",
"&  c #DB6B3900",
"*  c #DF6B3800",
"=  c #DE6D3A00",
"-  c #DF6D3B00",
";  c #E16F3C00",
":  c #E4723F00",
">  c #ED723C00",
",  c #E4734100",
"<  c #E8744000",
"1  c #EA764300",
"2  c #EB774400",
"3  c #E8794700",
"4  c #EE7D4B00",
"5  c #A4822400",
"6  c #A5822400",
"7  c #A2842C00",
"8  c #AA872700",
"9  c #AE892500",
"0  c #AE8B2A00",
"q  c #B18B2300",
"w  c #B28C2400",
"e  c #B28D2500",
"r  c #B28D2600",
"t  c #B38E2800",
"y  c #B4913100",
"u  c #B6953500",
"i  c #B6943B00",
"p  c #B9973900",
"a  c #B9983C00",
"s  c #BB993F00",
"d  c #BC9D3D00",
"f  c #BB9B4300",
"g  c #BC9A4100",
"h  c #BD9D4400",
"j  c #BE9E4900",
"k  c #C1A35000",
"l  c #C2A35100",
"z  c #C4A75900",
"x  c #CBAD5900",
"c  c #CBB37200",
"v  c #D9AE7B00",
"b  c #EF804F00",
"n  c #ED875900",
"m  c #F0845400",
"M  c #F0885900",
"N  c #F08A5C00",
"B  c #F28A5D00",
"V  c #F18D6000",
"C  c #F18E6100",
"Z  c #F18F6200",
"A  c #F5906400",
"S  c #F5946800",
"D  c #F6946900",
"F  c #F6956A00",
"G  c #F6976D00",
"H  c #F6986E00",
"J  c #F6986F00",
"K  c #F7997000",
"L  c #F79A7100",
"P  c #F79B7200",
"I  c #F79C7300",
"U  c #F79D7500",
"Y  c #F89E7600",
"T  c #F89F7700",
"R  c #F8A07800",
"E  c #F8A17900",
"W  c #F8A17A00",
"Q  c #F8A27B00",
"!  c #F8A27C00",
"~  c #F8A37C00",
"^  c #F8A37D00",
"/  c #F8A47D00",
"(  c #F8A47E00",
")  c #F8A57F00",
"_  c #D0BB8100",
"`  c #E5B68700",
"'  c #F8A58000",
"]  c #F8A68100",
"[  c #F9A78100",
"{  c #F9A78200",
"}  c #F9A88300",
"|  c #F9A98400",
" . c #F9AA8500",
".. c #F9AB8600",
"X. c #F9AB8700",
"o. c #FAAC8800",
"O. c #FAAC8900",
"+. c #FAAD8A00",
"@. c #FAAE8B00",
"#. c #F8AE8E00",
"$. c #FAAF8C00",
"%. c #FAAF8D00",
"&. c #FAB08E00",
"*. c #FAB18F00",
"=. c #F8B09100",
"-. c #FAB29000",
";. c #FAB29200",
":. c #F8B39400",
">. c #FAB49300",
",. c #FAB49400",
"<. c #FBB59400",
"1. c #FBB59500",
"2. c #FBB69600",
"3. c #FBB79700",
"4. c #F9B59800",
"5. c #F9B69900",
"6. c #F9B89B00",
"7. c #FBB89900",
"8. c #FBB99A00",
"9. c #F9BA9D00",
"0. c #F9BB9F00",
"q. c #FCB99B00",
"w. c #FCBA9C00",
"e. c #FCBC9E00",
"r. c #FCBD9F00",
"t. c #FABDA100",
"y. c #FDBEA000",
"u. c #FBC1A600",
"i. c #FDC1A400",
"p. c #FDC1A500",
"a. c #FDC4A900",
"s. c #FCCDB700",
"d. c #FDD0BB00",
"f. c #FED2BD00",
"g. c #F3E9A400",
"h. c #FBF5B000",
"j. c #F9F6BE00",
"k. c #FFFAB700",
"l. c #FFFFB400",
"z. c #FED4C100",
"x. c #FED7C400",
"c. c #FED9C700",
"v. c #F6EFC300",
"b. c #FFFFC900",
"n. c #F9F6D800",
"m. c #FBF9D100",
"M. c #FFFED900",
"N. c #FFFFDC00",
"B. c #F9F6E800",
"V. c #FFFFE600",
"C. c #FFFFF600",
"Z. c #FFFFF900",
"A. c gray100",
"S. c None",
/* pixels */
"S.S.S.S.S.S.S.S.S.S.S.S.S.S.S.S.",
"S.S.Z Z Z N M m b 4 3 3 S.S.S.S.",
"S.S.Z c.c.c.z.f.d.s.> n ,   S.S.",
"A.A.A.A.a.i.y.q.,.,.> u.N - S.S.",
"A.@ @ A.i.e.q.,.-.&.> > > ; S.S.",
"A.@ @ A.e.7.,.-.$.| { / t.- S.S.",
"A.@ @ A.7.,.-.O.| { ~ R 9.& S.S.",
"A.@ @ A.,.&.O.| { R T L 4.$ S.S.",
"A.@ @ A.$.O.| ' R T ` l g f _ S.",
"A.A.A.A.| { ( R U L z c s j i S.",
"A.@ @ A.} ^ R U L D l t v r 0 S.",
"A.@ @ A.^ U L G D x p r r r 9 u ",
"A.A.A.A.T L G D Z h m.Z.V.b.h.5 ",
"S.S.1 9.4.4.:.-.$.a M.C.N.l.k.O ",
"S.S.< , ; - & $ # y v.B.n.j.g.X ",
"S.S.S.S.S.S.S.S.S.d 8 5 + o X 7 "
};
