/* XPM */
static char *locked_folder[] = {
/* columns rows colors chars-per-pixel */
"16 16 145 2",
"   c #97771E00",
".  c #97771F00",
"X  c #9A791F00",
"o  c #9C7B2000",
"O  c #A07E2100",
"+  c #BB931B00",
"@  c #BD951B00",
"#  c #A4822400",
"$  c #A5822400",
"%  c #A2842C00",
"&  c #AA872700",
"*  c #AE892500",
"=  c #AE8B2A00",
"-  c #B18B2300",
";  c #B28C2400",
":  c #B28D2500",
">  c #B28D2600",
",  c #B38E2800",
"<  c #B4913100",
"1  c #B6953500",
"2  c #B6943B00",
"3  c #B9973900",
"4  c #B9983C00",
"5  c #BB993F00",
"6  c #BC9D3D00",
"7  c #BB9B4400",
"8  c #BC9A4100",
"9  c #BD9D4400",
"0  c #BE9E4900",
"q  c #C1981B00",
"w  c #C39A1C00",
"e  c #C69C1C00",
"r  c #C69C1D00",
"t  c #D59C2600",
"y  c #CFA41F00",
"u  c #D3A61D00",
"i  c #D3A61E00",
"p  c #D3A71E00",
"a  c #D4A71F00",
"s  c #CBA12300",
"d  c #CEA42200",
"f  c #CCA72C00",
"g  c #D1A82600",
"h  c #D2A82600",
"j  c #D4A92200",
"k  c #D4AA2800",
"l  c #D6AC2800",
"z  c #D6AC2C00",
"x  c #DAA62400",
"c  c #D5A93000",
"v  c #D7AE3000",
"b  c #D7AF3100",
"n  c #D7B33A00",
"m  c #D8B03800",
"M  c #D9B23A00",
"N  c #D9B23B00",
"B  c #D9B33F00",
"V  c #DAB33D00",
"C  c #DAB53C00",
"Z  c #C1A35000",
"A  c #C2A35100",
"S  c #C4A75900",
"D  c #CBAE5900",
"F  c #CBB05B00",
"G  c #DAB54300",
"H  c #DBB54400",
"J  c #DCB94500",
"K  c #DDBA4400",
"L  c #DEBB4700",
"P  c #D4BC5600",
"I  c #DDBF5000",
"U  c #DFBD5200",
"Y  c #DFBF5400",
"T  c #CBB37200",
"R  c #DBC47C00",
"E  c #E4C24D00",
"W  c #E4C45500",
"Q  c #E6CB7300",
"!  c #EED56D00",
"~  c #E9D27200",
"^  c #F0D07800",
"/  c #E8D99B00",
"(  c #FBDE8600",
")  c #FBDF8600",
"_  c #FFE58600",
"`  c #FCE58F00",
"'  c #FCE68F00",
"]  c #FFE68D00",
"[  c #F5E19300",
"{  c #F1E19900",
"}  c #F0E09A00",
"|  c #F2E29E00",
" . c #FBE19200",
".. c #FCE69000",
"X. c #FFE89700",
"o. c #FFEE9500",
"O. c #FFE99800",
"+. c #FDEC9900",
"@. c #FFEE9800",
"#. c #FFEF9900",
"$. c #F7E7A700",
"%. c #F3E9A400",
"&. c #F8EAAE00",
"*. c #F6EAB100",
"=. c #FBEEB500",
"-. c #FBEFB700",
";. c #FDEBBD00",
":. c #FFEEBA00",
">. c #FEF3A200",
",. c #FEF3A300",
"<. c #FEF4A800",
"1. c #F8F1B300",
"2. c #FBF5B000",
"3. c #F9F6BE00",
"4. c #FFFBB100",
"5. c #FFFBB200",
"6. c #FFFAB700",
"7. c #FFFFB400",
"8. c #F6EFC300",
"9. c #FDEFC300",
"0. c #FBF0C000",
"q. c #FBF3C700",
"w. c #FFF2C200",
"e. c #FDF2C700",
"r. c #FFF5C000",
"t. c #FBF5C900",
"y. c #FFF7CA00",
"u. c #FEF5CC00",
"i. c #FEF9CE00",
"p. c #FFFFC900",
"a. c #F9F6D800",
"s. c #FBF9D100",
"d. c #FDF9D000",
"f. c #FFFAD100",
"g. c #FFFCD400",
"h. c #FFFCD500",
"j. c #FFFED900",
"k. c #FFFFD900",
"l. c #FFFFDC00",
"z. c #F9F6E800",
"x. c #FFFFE600",
"c. c #FFFFF600",
"v. c #FFFFF900",
"b. c gray100",
"n. c None",
/* pixels */
"n.n.n.n.n.n.n.n.n.n.n.n.n.n.n.n.",
"n.n.n.n.n.n.n.n.n.n.n.n.n.n.n.n.",
"n.} Y H B m J ~ n.n.n.n.n.n.n.n.",
"n.U | i.f.i.*.b J J C h n U n.n.",
"n.G y.#.o.#.r.=.$.&.0.=.[ d n.n.",
"n.B w._ _ _ ] O.X.! l p p y P n.",
"n.m :.E p p p p p j 1.k.k.} f n.",
"n.m W Q t.h.h.h.h.h.h.5.5.i.e n.",
"n.b p e.<.,.,.,.,.,./ Z 8 7 D n.",
"n.z p t.+.+.+.#.+.#.S T 5 0 2 n.",
"n.h p e.' ' ' ' ....Z , R > = n.",
"n.g p 9. .( ( ( ( D 2 > > > * 1 ",
"n.x p ^ ;.;.;.;.;.9 s.v.x.p.2.# ",
"n.t c s e w w + + 5 k.c.k.7.6.o ",
"n.n.n.n.n.n.n.n.n.< 8.z.a.3.%.. ",
"n.n.n.n.n.n.n.n.n.6 & $ o X . % "
};
