/* XPM */
static char *locked_replaced_open_folder[] = {
/* columns rows colors chars-per-pixel */
"16 16 130 2",
"   c #5D291400",
".  c #97771E00",
"X  c #97771F00",
"o  c #9A791F00",
"O  c #9C7B2000",
"+  c #B5512700",
"@  c #A07E2100",
"#  c red",
"$  c #DA693800",
"%  c #ED713B00",
"&  c #D86F4000",
"*  c #D0764C00",
"=  c #DC704100",
"-  c #DF794A00",
";  c #EE764100",
":  c #EC784500",
">  c #EA7E4D00",
",  c #EC7D4B00",
"<  c #E57F5100",
"1  c #A4822400",
"2  c #A5822400",
"3  c #A2842C00",
"4  c #AA872700",
"5  c #AE892500",
"6  c #AE8B2A00",
"7  c #B18B2300",
"8  c #B28C2400",
"9  c #B28D2500",
"0  c #B28D2600",
"q  c #B38E2800",
"w  c #B4913100",
"e  c #B6953500",
"r  c #B6943B00",
"t  c #B9973900",
"y  c #B9983C00",
"u  c #BB993F00",
"i  c #BC9D3D00",
"p  c #BB9B4300",
"a  c #BC9A4100",
"s  c #BD9D4400",
"d  c #BE9E4900",
"f  c #CC935900",
"g  c #C1A35000",
"h  c #C2A35100",
"j  c #C4A75900",
"k  c #CBAE5A00",
"l  c #C8AE7700",
"z  c #CBB37200",
"x  c #E8835400",
"c  c #EF825100",
"v  c #F0835500",
"b  c #F0845400",
"n  c #F4885600",
"m  c #F1885900",
"M  c #F0885B00",
"N  c #F1895A00",
"B  c #F28B5C00",
"V  c #F38C5D00",
"C  c #F38D5E00",
"Z  c #F38D5F00",
"A  c #F48C5B00",
"S  c #F58C5F00",
"D  c #E9916700",
"F  c #F1916500",
"G  c #F2906400",
"H  c #F3926700",
"J  c #F7926200",
"K  c #F5976B00",
"L  c #F59A6F00",
"P  c #FB966600",
"I  c #FF926100",
"U  c #FF976500",
"Y  c #FF9A6A00",
"T  c #FC9E6F00",
"R  c #F59D7700",
"E  c #F4A07A00",
"W  c #FFA27300",
"Q  c #FFA27400",
"!  c #FFA37400",
"~  c #F8A67F00",
"^  c #FFA87D00",
"/  c #F9A88100",
"(  c #FFAB8200",
")  c #F9AF8D00",
"_  c #FFAF8800",
"`  c #F8B18F00",
"'  c #FFB08A00",
"]  c #FFB38E00",
"[  c #F6B09000",
"{  c #F7B39200",
"}  c #F8B19000",
"|  c #F8B59500",
" . c #F9B69600",
".. c #FDB69200",
"X. c #FCBB9C00",
"o. c #FEBB9E00",
"O. c #FFBF9F00",
"+. c #FABFA200",
"@. c #E9C69B00",
"#. c #FDC1A300",
"$. c #FFC1A100",
"%. c #FFC6A900",
"&. c #FDC7AC00",
"*. c #FEC9AF00",
"=. c #FFCBAF00",
"-. c #FFCEB500",
";. c #FFCFB700",
":. c #FCCFB800",
">. c #FED1BA00",
",. c #FFD1BA00",
"<. c #FFD2BA00",
"1. c #FFD3BC00",
"2. c #FFD3BD00",
"3. c #F3E9A400",
"4. c #FBF5B000",
"5. c #F9F6BE00",
"6. c #FFFAB700",
"7. c #FFFFB400",
"8. c #F6EFC300",
"9. c #FFFFC900",
"0. c #F9F6D800",
"q. c #FBF9D100",
"w. c #FFFED900",
"e. c #FFFFDC00",
"r. c #F9F6E800",
"t. c #FFFFE600",
"y. c #FFFFF600",
"u. c #FFFFF900",
"i. c gray100",
"p. c None",
/* pixels */
"p.p.p.p.p.p.p.p.p.p.p.p.p.p.p.p.",
"p.p.p.| } p.p.p.p.p.p.p.p.p.p.p.",
"p.} F m v F L B c : , D p.p.p.p.",
"p.F | <...J A / #.*.m x p.p.p.p.",
"p.m <.O.<.%.2.-.#.-.R < p.p.p.p.",
"p.Z X._ ( ' ^ W T ~ V > - $ = p.",
"p.V ) i.Y P n ; b E [ #.:.[ * p.",
"p.S i.# i.i.K &.1.*.@.g a p l p.",
"p.i.# # # # i.] ! ! j z p d r p.",
"i.i.i.# i.# # i.U U g q f 8 6 p.",
"i.# i.i.i.i.# i.I k t 8 8 8 5 e ",
"i.# i.i.i.i.# i.O.s q.u.t.9.4.1 ",
"i.# # i.# i.i.i.& y w.y.e.7.7.O ",
"p.i.# # # # i.+   w 8.r.0.8.3.O ",
"p.p.i.i.# i.p.p.p.i 4 1 O o X 3 ",
"p.p.p.p.i.p.p.p.p.p.p.p.p.p.p.p."
};
