/* XPM */
static char *locked_deleted_file[] = {
/* columns rows colors chars-per-pixel */
"16 16 143 2",
"   c #9B5A3D00",
".  c #97771E00",
"X  c #97771F00",
"o  c #9A791F00",
"O  c #9C7B2000",
"+  c #A07E2100",
"@  c #FF330000",
"#  c #D2663600",
"$  c #D7683700",
"%  c #D86A3800",
"&  c #DB6B3900",
"*  c #DF6B3800",
"=  c #DE6D3A00",
"-  c #DF6D3B00",
";  c #E16F3C00",
":  c #E4723F00",
">  c #ED723C00",
",  c #E4734100",
"<  c #E8744000",
"1  c #EA764300",
"2  c #EB774400",
"3  c #E8794700",
"4  c #EC794600",
"5  c #EE7C4800",
"6  c #EE7D4B00",
"7  c #EF7E4B00",
"8  c #A4822400",
"9  c #A5822400",
"0  c #A2842C00",
"q  c #AA872700",
"w  c #AE892500",
"e  c #AE8B2A00",
"r  c #B18B2300",
"t  c #B28C2400",
"y  c #B28D2500",
"u  c #B28D2600",
"i  c #B38E2800",
"p  c #B4913100",
"a  c #B6953500",
"s  c #B6943B00",
"d  c #B9973900",
"f  c #B9983C00",
"g  c #BB993F00",
"h  c #BC9D3D00",
"j  c #BB9B4300",
"k  c #BC9A4100",
"l  c #BD9D4400",
"z  c #BE9E4900",
"x  c #C1A35000",
"c  c #C2A35100",
"v  c #C4A75900",
"b  c #CBAD5900",
"n  c #CBB37200",
"m  c #D9AE7B00",
"M  c #EF804F00",
"N  c #ED875900",
"B  c #F0845400",
"V  c #F0885900",
"C  c #F08A5C00",
"Z  c #F28A5D00",
"A  c #F18D6000",
"S  c #F18E6100",
"D  c #F18F6200",
"F  c #F5906400",
"G  c #F5946800",
"H  c #F6946900",
"J  c #F6956A00",
"K  c #F6976D00",
"L  c #F6986E00",
"P  c #F6986F00",
"I  c #F7997000",
"U  c #F79A7100",
"Y  c #F79B7200",
"T  c #F79C7300",
"R  c #F79D7500",
"E  c #F89E7600",
"W  c #F89F7700",
"Q  c #F8A07800",
"!  c #F8A17900",
"~  c #F8A17A00",
"^  c #F8A27B00",
"/  c #F8A27C00",
"(  c #F8A37C00",
")  c #F8A37D00",
"_  c #F8A47D00",
"`  c #D0BB8100",
"'  c #E5B68700",
"]  c #F8A58000",
"[  c #F8A68100",
"{  c #F9A78100",
"}  c #F9A78200",
"|  c #F9A98400",
" . c #F9AA8500",
".. c #F9AB8600",
"X. c #F9AB8700",
"o. c #FAAD8A00",
"O. c #FAAE8B00",
"+. c #F8AE8E00",
"@. c #FAAF8C00",
"#. c #FAB18F00",
"$. c #F8B09100",
"%. c #FAB29000",
"&. c #FAB29200",
"*. c #F8B39400",
"=. c #FAB49400",
"-. c #FBB79700",
";. c #F9B59800",
":. c #F9B69900",
">. c #F9B89B00",
",. c #F9BA9D00",
"<. c #F9BB9F00",
"1. c #FCBA9C00",
"2. c #FABDA100",
"3. c #FABEA200",
"4. c #FAC1A600",
"5. c #FBC1A600",
"6. c #FBC3AA00",
"7. c #FBC6AE00",
"8. c #FDC4A900",
"9. c #FCCDB700",
"0. c #FDD0BB00",
"q. c #FED2BD00",
"w. c #F3E9A400",
"e. c #FBF5B000",
"r. c #F9F6BE00",
"t. c #FFFAB700",
"y. c #FFFFB400",
"u. c #FED4C100",
"i. c #FED7C400",
"p. c #FED8C600",
"a. c #FED9C700",
"s. c #F6EFC300",
"d. c #FFFFC900",
"f. c #F9F6D800",
"g. c #FBF9D100",
"h. c #FFFED900",
"j. c #FFFFDC00",
"k. c #F9F6E800",
"l. c #FFFFE600",
"z. c #FFFFF600",
"x. c #FFFFF900",
"c. c gray100",
"v. c None",
/* pixels */
"v.v.v.v.v.v.v.v.v.v.v.v.v.v.v.v.",
"v.v.D D D C V B M 6 1 3 v.v.v.v.",
"v.v.D p.p.i.u.q.0.9.> N ,   v.v.",
"v.c.c.i.8.c.c.1.-.-.> 5.C = v.v.",
"c.@ @ c.c.@ @ c.%.#.> > > ; v.v.",
"v.c.@ @ @ @ c.%.o.| { _ 2.= v.v.",
"v.v.c.@ @ c.#.o.| { _ Q ,.$ v.v.",
"v.c.@ @ @ @ c.| { ^ E U ;.$ v.v.",
"c.@ @ c.c.@ @ c.^ E ' c k k ` v.",
"v.c.c.7.| c.c.Q E U v n g z s v.",
"v.v.6 6.} _ Q R K H c i m u e v.",
"v.v.6 5./ Q U K H b d u u u w a ",
"v.v.3 2.E U K H D j g.x.l.d.e.8 ",
"v.v.2 ,.;.;.*.%.+.f h.z.j.y.t.O ",
"v.v.1 : ; = & $ # p s.k.f.r.w.O ",
"v.v.v.v.v.v.v.v.v.h q 8 O O X 0 "
};
