/* XPM */
static char *locked_replaced_folder[] = {
/* columns rows colors chars-per-pixel */
"16 16 110 2",
"   c #97771E00",
".  c #97771F00",
"X  c #9A791F00",
"o  c #9C7B2000",
"O  c #A07E2100",
"+  c red",
"@  c #D2643400",
"#  c #D5653500",
"$  c #E6723F00",
"%  c #E8713C00",
"&  c #ED713B00",
"*  c #ED723C00",
"=  c #EE743E00",
"-  c #E2744300",
";  c #EA764300",
":  c #EE774200",
">  c #EC7F4F00",
",  c #EF7D4C00",
"<  c #A4822400",
"1  c #A5822400",
"2  c #A2842C00",
"3  c #AA872700",
"4  c #AE892500",
"5  c #AE8B2A00",
"6  c #B18B2300",
"7  c #B28C2400",
"8  c #B28D2500",
"9  c #B28D2600",
"0  c #B38E2800",
"q  c #B4913100",
"w  c #B6953500",
"e  c #B6943B00",
"r  c #B9973900",
"t  c #B9983C00",
"y  c #BB993F00",
"u  c #BC9D3D00",
"i  c #BB9B4400",
"p  c #BC9A4100",
"a  c #BD9D4400",
"s  c #BE9E4900",
"d  c #D59B6400",
"f  c #C1A35000",
"g  c #C2A35100",
"h  c #C4A75900",
"j  c #CBAD5900",
"k  c #CBB37200",
"l  c #DCAA7100",
"z  c #E2885E00",
"x  c #EF815100",
"c  c #EF825100",
"v  c #EF835400",
"b  c #EF855600",
"n  c #ED8B5D00",
"m  c #F1865600",
"M  c #F0865800",
"N  c #F1895A00",
"B  c #F2895A00",
"V  c #F0895C00",
"C  c #FF8B5700",
"Z  c #F2916600",
"A  c #F2926700",
"S  c #FF976500",
"D  c #F89D7100",
"F  c #F6A17900",
"G  c #FFA27400",
"H  c #FFAB8000",
"J  c #FFAE8300",
"K  c #FFB08700",
"L  c #FFB28800",
"P  c #FFB48B00",
"I  c #FFB58C00",
"U  c #FBB69400",
"Y  c #FFB69000",
"T  c #FFB79200",
"R  c #F9BA9B00",
"E  c #F9BC9E00",
"W  c #FABEA100",
"Q  c #FFBFA200",
"!  c #E9CFA900",
"~  c #FCC3A700",
"^  c #FCC7AD00",
"/  c #FCC8AC00",
"(  c #FCC9B000",
")  c #FDCBB200",
"_  c #FECCB300",
"`  c #FFD1B800",
"'  c #FFD1BA00",
"]  c #FDD2BD00",
"[  c #FFD5BF00",
"{  c #F3E9A400",
"}  c #FBF5B000",
"|  c #F9F6BE00",
" . c #FFFAB700",
".. c #FFFFB400",
"X. c #FFD9C400",
"o. c #FEDAC600",
"O. c #FFDCC800",
"+. c #F6EFC300",
"@. c #FFE0CD00",
"#. c #FFFFC900",
"$. c #F9F6D800",
"%. c #FBF9D100",
"&. c #FFFED900",
"*. c #FFFFDC00",
"=. c #F9F6E800",
"-. c #FFFFE600",
";. c #FFFFF600",
":. c #FFFFF900",
">. c gray100",
",. c None",
/* pixels */
",.,.,.,.,.,.,.,.,.,.,.,.,.,.,.,.",
",.,.,.,.,.,.,.,.,.,.,.,.,.,.,.,.",
",.E A V b v N F ,.,.,.,.,.,.,.,.",
",.A W o.O.o./ , N m x ; > n ,.,.",
",.V o.P K P ' ) ~ ^ ] _ U $ ,.,.",
",.M [ H H H K T T D : * * % z ,.",
",.v ' >.& & & & & = / @.@.R - ,.",
",.x >.+ >.>.O.O.O.O.! f p i d ,.",
",.>.+ + + + >.H H H h k p s e ,.",
">.>.>.+ >.+ + >.G G g 0 l 7 5 ,.",
">.+ >.>.>.>.+ >.S j r 7 0 7 4 w ",
">.+ >.>.>.>.+ >.C a %.:.-.#.} < ",
">.+ + >.+ >.>.>.Q t &.;.*.....o ",
",.>.+ + + + >.# @ q +.=.$.+.{ o ",
",.,.>.>.+ >.,.,.,.u 3 1 o X . 2 ",
",.,.,.,.>.,.,.,.,.,.,.,.,.,.,.,."
};
