/* XPM */
static char *locked_newer_folder[] = {
/* columns rows colors chars-per-pixel */
"16 16 148 2",
"   c #799F0400",
".  c #7AA10400",
"X  c #7CA40500",
"o  c #7EA60500",
"O  c #7FA80500",
"+  c #97771E00",
"@  c #97771F00",
"#  c #9A791F00",
"$  c #9C7B2000",
"%  c #A07E2100",
"&  c #80A80600",
"*  c #83AB0900",
"=  c #86B10800",
"-  c #87B00C00",
";  c #88B30500",
":  c #88B30600",
">  c #89B40600",
",  c #8AB50800",
"<  c #8CB80D00",
"1  c #88B21000",
"2  c #88B21100",
"3  c #8BB41000",
"4  c #8CB41000",
"5  c #8DB61200",
"6  c #8EB71600",
"7  c #90B81600",
"8  c #92BA1A00",
"9  c #92BA1B00",
"0  c #93BD1F00",
"q  c #8AAF2300",
"w  c #96BC2200",
"e  c #97BD2400",
"r  c #97BD2600",
"t  c #99BE2700",
"y  c #99BE2A00",
"u  c #A4822400",
"i  c #A5822400",
"p  c #A2842C00",
"a  c #AA872700",
"s  c #AE892500",
"d  c #AE8B2A00",
"f  c #B18B2300",
"g  c #B28C2400",
"h  c #B28D2500",
"j  c #B28D2600",
"k  c #B38E2800",
"l  c #B4913100",
"z  c #B6953500",
"x  c #B6943B00",
"c  c #B9973900",
"v  c #B9983C00",
"b  c #BB993F00",
"n  c #BC9D3D00",
"m  c #BB9B4300",
"M  c #BC9A4100",
"N  c #BD9D4400",
"B  c #BE9E4900",
"V  c #B0B25100",
"C  c #96C02000",
"Z  c #99C42600",
"A  c #9CC32B00",
"S  c #9CC02F00",
"D  c #9CC52A00",
"F  c #9DCC2A00",
"G  c #97C23100",
"H  c #9CC73000",
"J  c #A3C73B00",
"K  c #A1CC3400",
"L  c #A4C83C00",
"P  c #A6D73C00",
"I  c #A7D73C00",
"U  c #ABCF4A00",
"Y  c #ACDB4600",
"T  c #ADDE4700",
"R  c #AEDF4700",
"E  c #AEDF4800",
"W  c #AFD75000",
"Q  c #AFDB5000",
"!  c #B4D25E00",
"~  c #BCC16000",
"^  c #B4E65400",
"/  c #B5E75400",
"(  c #BAED5D00",
")  c #BBEE5F00",
"_  c #BBEE6000",
"`  c #BBEF6000",
"'  c #BCEF6000",
"]  c #BEEE6600",
"[  c #BFEF6900",
"{  c #BFF36500",
"}  c #C1A35000",
"|  c #C2A35100",
" . c #C4A75900",
".. c #C8AF5800",
"X. c #CBB37200",
"o. c #C2E67400",
"O. c #C4E57A00",
"+. c #C3EF7200",
"@. c #C1F36900",
"#. c #C1F36A00",
"$. c #C4F07400",
"%. c #C7F87500",
"&. c #C7F97700",
"*. c #CED78100",
"=. c #C5E48000",
"-. c #C8E68500",
";. c #CDEC8D00",
":. c #CEE69600",
">. c #CFE69700",
",. c #CFF28D00",
"<. c #D1EE9500",
"1. c #D3EB9E00",
"2. c #D1ED9800",
"3. c #D4F29B00",
"4. c #D5F29B00",
"5. c #D6EEA300",
"6. c #D9F2A800",
"7. c #D9F2A900",
"8. c #DAF3A900",
"9. c #DAF3AA00",
"0. c #DBF5AC00",
"q. c #DCF6AD00",
"w. c #D9F8A300",
"e. c #DEF9B100",
"r. c #DFF9B200",
"t. c #DFF9B300",
"y. c #E0F9B300",
"u. c #E0FBB300",
"i. c #E0FBB500",
"p. c #E1FBB500",
"a. c #E3FDB800",
"s. c #F3E9A400",
"d. c #FBF5B000",
"f. c #F9F6BE00",
"g. c #FFFAB700",
"h. c #FFFFB400",
"j. c #F6EFC300",
"k. c #FFFFC900",
"l. c #F9F6D800",
"z. c #FBF9D100",
"x. c #FFFED900",
"c. c #FFFFDC00",
"v. c #F9F6E800",
"b. c #FFFFE600",
"n. c #FFFFF600",
"m. c #FFFFF900",
"M. c gray100",
"N. c None",
/* pixels */
"N.N.N.N.N.N.N.N.N.N.N.N.N.N.N.N.",
"N.N.N.N.N.N.N.N.N.N.N.N.N.N.N.N.",
"N.=.L S t r A W N.N.N.N.N.N.N.N.",
"N.J -.t.i.y.2.8 D Z C < 0 H N.N.",
"N.S t.@.{ @.w.3.;.<.6.3.o.* N.N.",
"N.y q.( ( ( ] $.+.Y < > ; = G N.",
"N.r 9.F ; ; ; ; ; > ,.a.a.O.2 N.",
"N.w K ! 0.i.i.i.i.i.y.&.&.t.& N.",
"N.8 ; 9.[ ( ` ` ) ) *.| M N V N.",
"N.6 ; 9./ / / / / /  .X.b B x N.",
"N.4 ; 5.E E E E R R | h ~ g d N.",
"N.2 ; 1.Q I I I I ..c h g g s z ",
"N.6 ; U :.:.:.:.:.N z.m.b.k.d.u ",
"N.q 2 * O X X .   x x.n.c.h.g.$ ",
"N.N.N.N.N.N.N.N.N.l j.v.l.f.s.$ ",
"N.N.N.N.N.N.N.N.N.n a u $ $ $ p "
};
