/* XPM */
static char *locked_modified_folder[] = {
/* columns rows colors chars-per-pixel */
"16 16 143 2",
"   c #97771E00",
".  c #97771F00",
"X  c #9A791F00",
"o  c #9C7B2000",
"O  c #A07E2100",
"+  c #D2643400",
"@  c #D5653500",
"#  c #D9673600",
"$  c #DB693700",
"%  c #DE6A3700",
"&  c #DD6A3800",
"*  c #E26C3A00",
"=  c #E6723F00",
"-  c #E8703B00",
";  c #E8713C00",
":  c #ED713B00",
">  c #ED723C00",
",  c #EE743E00",
"<  c #E0724300",
"1  c #E2744300",
"2  c #EA764300",
"3  c #EB764300",
"4  c #EC754100",
"5  c #EE774200",
"6  c #ED784500",
"7  c #EE7A4800",
"8  c #EC7F4F00",
"9  c #EF7D4C00",
"0  c #A4822400",
"q  c #A5822400",
"w  c #A2842C00",
"e  c #AA872700",
"r  c #AE892500",
"t  c #AE8B2A00",
"y  c #B18B2300",
"u  c #B28C2400",
"i  c #B28D2500",
"p  c #B28D2600",
"a  c #B38E2800",
"s  c #B4913100",
"d  c #B6953500",
"f  c #B6943B00",
"g  c #B9973900",
"h  c #B9983C00",
"j  c #BB993F00",
"k  c #BC9D3D00",
"l  c #BB9B4300",
"z  c #BC9A4100",
"x  c #BD9D4400",
"c  c #BE9E4900",
"v  c #D49B6400",
"b  c #C1A35000",
"n  c #C2A35100",
"m  c #C4A75900",
"M  c #CBAD5900",
"N  c #CBB37200",
"B  c #DCA56B00",
"V  c #E2885E00",
"C  c #EF815100",
"Z  c #EF825100",
"A  c #EF835400",
"S  c #EF855600",
"D  c #ED8B5D00",
"F  c #F1865600",
"G  c #F0865800",
"H  c #F1895A00",
"J  c #F2895A00",
"K  c #F0895C00",
"L  c #F48B5B00",
"P  c #FF8B5600",
"I  c #FF8B5700",
"U  c #F48F6100",
"Y  c #F2916600",
"T  c #F2926700",
"R  c #F9936600",
"E  c #FF966400",
"W  c #FF976400",
"Q  c #FF976500",
"!  c #FF976700",
"~  c #F89D7100",
"^  c #F6A17900",
"/  c #FFA27300",
"(  c #FFA27400",
")  c #E9BE8F00",
"_  c #F5A58100",
"`  c #FFAB8000",
"'  c #FFAD8200",
"]  c #FFAD8300",
"[  c #FFAE8300",
"{  c #FFB08700",
"}  c #FFB28800",
"|  c #FFB28A00",
" . c #FFB48B00",
".. c #FFB58C00",
"X. c #FBB69400",
"o. c #FFB69000",
"O. c #FFB79200",
"+. c #F9BA9B00",
"@. c #F9BC9E00",
"#. c #FFBD9900",
"$. c #FFBE9A00",
"%. c #FABEA100",
"&. c #FFBEA200",
"*. c #FFBFA200",
"=. c #FFBFA300",
"-. c #FCC3A700",
";. c #FFC5AB00",
":. c #FCC7AD00",
">. c #FCC8AC00",
",. c #FCC9B000",
"<. c #FDCBB200",
"1. c #FFCAB100",
"2. c #FECCB300",
"3. c #FDD2BB00",
"4. c #FFD0B900",
"5. c #FFD1B800",
"6. c #FFD1BA00",
"7. c #FDD2BD00",
"8. c #FFD5BF00",
"9. c #F3E9A400",
"0. c #FBF5B000",
"q. c #F9F6BE00",
"w. c #FFFAB700",
"e. c #FFFFB400",
"r. c #FED6C000",
"t. c #FED9C500",
"y. c #FFD9C400",
"u. c #FEDAC600",
"i. c #FFDBC700",
"p. c #FFDCC800",
"a. c #F6EFC300",
"s. c #FFE0CD00",
"d. c #FFFFC900",
"f. c #F9F6D800",
"g. c #FBF9D100",
"h. c #FFFED900",
"j. c #FFFFDC00",
"k. c #F9F6E800",
"l. c #FFFFE600",
"z. c #FFFFF600",
"x. c #FFFFF900",
"c. c gray100",
"v. c None",
/* pixels */
"v.v.v.v.v.v.v.v.v.v.v.v.v.v.v.v.",
"v.v.v.v.v.v.v.v.v.v.v.v.v.v.v.v.",
"v.@.T K S S H ^ v.v.v.v.v.v.v.v.",
"v.T %.u.p.u.>.9 H F C 2 8 D v.v.",
"v.K u. .{  .6.<.-.:.7.<.X.= v.v.",
"v.G 8.` ` ` { O.o.~ 5 > : - V v.",
"v.A 6.L : : : : : , >.s.s.+.1 v.",
"v.C U _ r.p.p.p.p.p.u.$.$.u.& v.",
"v.8 : 6.| ` [ ` ` [ ) n l l v v.",
"v.7 : 6.( ( ( / ( ( m N j c f v.",
"v.6 : 1.E E E E Q Q n a B p t v.",
"v.2 : :.! I P P I M g p p p r d ",
"v.5 : R *.*.*.*.*.x g.x.l.d.0.0 ",
"v.< * * % $ # @ + g j.z.j.e.w.X ",
"v.v.v.v.v.v.v.v.v.s a.k.f.q.9.  ",
"v.v.v.v.v.v.v.v.v.k e 0 O X   w "
};
