/* XPM */
static char *locked_open_folder[] = {
/* columns rows colors chars-per-pixel */
"16 16 174 2",
"   c #56451900",
".  c #97771E00",
"X  c #97771F00",
"o  c #9A791F00",
"O  c #87763600",
"+  c #9C7B2000",
"@  c #A07E2100",
"#  c #A4822400",
"$  c #A5822400",
"%  c #A2842C00",
"&  c #A7862E00",
"*  c #AA872700",
"=  c #AE892500",
"-  c #AE8B2A00",
";  c #B18B2300",
":  c #B28C2400",
">  c #B28D2500",
",  c #B28D2600",
"<  c #B38E2800",
"1  c #B4913100",
"2  c #B6953500",
"3  c #B6943B00",
"4  c #B9973900",
"5  c #B9983C00",
"6  c #BB993F00",
"7  c #BC9D3D00",
"8  c #BB9B4300",
"9  c #BC9A4100",
"0  c #BD9D4400",
"q  c #BE9E4900",
"w  c #BDA25400",
"e  c #C29A1C00",
"r  c #C89E1C00",
"t  c #C29C2800",
"y  c #C59E2C00",
"u  c #C0993100",
"i  c #D3A61D00",
"p  c #D4A71F00",
"a  c #C7A22A00",
"s  c #CBA12600",
"d  c #CCA12D00",
"f  c #CCAB3800",
"g  c #D4A82100",
"h  c #D1A82C00",
"j  c #D5AA2A00",
"k  c #D6AC2800",
"l  c #D6AC2F00",
"z  c #DAA82D00",
"x  c #D9AE2C00",
"c  c #D1A43600",
"v  c #D6AF3500",
"b  c #D6B33A00",
"n  c #D9B03600",
"m  c #DBB53B00",
"M  c #DAB43C00",
"N  c #DBB53D00",
"B  c #DCB33B00",
"V  c #C1A74300",
"C  c #C1A35000",
"Z  c #C2A35100",
"A  c #C4A75900",
"S  c #CAB05B00",
"D  c #DEAE4200",
"F  c #D5B14000",
"G  c #DAB44100",
"H  c #D8B64600",
"J  c #DCB74300",
"K  c #DDB64300",
"L  c #DEBA4600",
"P  c #DFBD4A00",
"I  c #DEBB5100",
"U  c #DEBB5200",
"Y  c #CBB37200",
"T  c #E5B54200",
"R  c #E6B84600",
"E  c #E2BB4800",
"W  c #E3BB4E00",
"Q  c #E1BC4B00",
"!  c #E6BC4A00",
"~  c #E0BE5100",
"^  c #E1BF5400",
"/  c #DDC26000",
"(  c #E2C24F00",
")  c #E4C04800",
"_  c #E4C14D00",
"`  c #E9C24D00",
"'  c #E9C35700",
"]  c #EACA5A00",
"[  c #F4CE5F00",
"{  c #E5C66000",
"}  c #E5C56500",
"|  c #E6C96300",
" . c #E7CB6600",
".. c #E5CA6C00",
"X. c #E9C56400",
"o. c #E7CA7500",
"O. c #EFD67900",
"+. c #F7D66C00",
"@. c #FFD26300",
"#. c #F0D67B00",
"$. c #FFDA7100",
"%. c #FFDD7C00",
"&. c #D0BB8100",
"*. c #E9D28400",
"=. c #EDDA8A00",
"-. c #EED88800",
";. c #EDD98C00",
":. c #EEDC8F00",
">. c #E8D69800",
",. c #F1D28100",
"<. c #F9D58300",
"1. c #FBDF8600",
"2. c #FFDE8000",
"3. c #FFDD8C00",
"4. c #FFDC8F00",
"5. c #F1DB9000",
"6. c #F7DE9600",
"7. c #F0DA9D00",
"8. c #F4DA9800",
"9. c #FCDD9000",
"0. c #FFE08700",
"q. c #FBE18D00",
"w. c #FFE08800",
"e. c #FCE69000",
"r. c #FCE29E00",
"t. c #FCE59E00",
"y. c #FCE89700",
"u. c #FDEC9900",
"i. c #FDEC9A00",
"p. c #F2E4A200",
"a. c #F6E3A800",
"s. c #F3E9A400",
"d. c #FCE7A300",
"f. c #FAE9A500",
"g. c #FFEAA100",
"h. c #FFEAA400",
"j. c #F8E9AA00",
"k. c #FDEFAC00",
"l. c #FFECAC00",
"z. c #FAE7B400",
"x. c #FDE7B100",
"c. c #F9EEB700",
"v. c #FCE8B600",
"b. c #FDEFB300",
"n. c #FFEFB700",
"m. c #FDEEBA00",
"M. c #FFEFB900",
"N. c #FBF5B000",
"B. c #F8F0BD00",
"V. c #F9F6BE00",
"C. c #FFF0BB00",
"Z. c #FFF0BF00",
"A. c #FEF7BC00",
"S. c #FEF7BD00",
"D. c #FFFAB700",
"F. c #FFFFB400",
"G. c #F6EFC300",
"H. c #FBF3C500",
"J. c #FFF3C000",
"K. c #FDF2C400",
"L. c #FEF5CC00",
"P. c #FEF8C400",
"I. c #FEF9CD00",
"U. c #FFFFC900",
"Y. c #F9F6D800",
"T. c #FBF9D100",
"R. c #FFFED900",
"E. c #FFFFDC00",
"W. c #F9F6E800",
"Q. c #FFFFE600",
"!. c #FFFFF600",
"~. c #FFFFF900",
"^. c gray100",
"/. c None",
/* pixels */
"/./././././././././././././././.",
"/././.:.-./././././././././././.",
"/.-.I J M ~ | P m j v / /./././.",
"/.^ 5.J.y.] _ #.f.b.L H /./././.",
"/.G m.g.C.l.Z.n.h.m.} F /./././.",
"/.Q 6.0.%.0.%.$.+.O.( b f e a /.",
"/.E ,.4.@.[ ) k M ..;.p.B.*.V /.",
"/.! X.4.` p  .c.I.P.S.S.H.y O /.",
"/.R W <.g j.L.k.u.u.>.Z 9 9 &./.",
"/.T m ' | K.y.q.e.e.A Y 6 q 3 /.",
"/.D l x a.t.1.1.q.d.Z < w , - /.",
"/./.h n v.4.r.x.z.S 4 , , , = 2 ",
"/./.z J 8.7.o.I t 0 T.~.Q.U.N.# ",
"/./.c r s d u &   4 E.!.E.F.D.o ",
"/././././././././.1 G.W.Y.V.s.. ",
"/././././././././.7 * # @ o . % "
};
