/* XPM */
static char *locked_missing_file[] = {
/* columns rows colors chars-per-pixel */
"16 16 153 2",
"   c #4D2D1E00",
".  c #7C412600",
"X  c #944F3000",
"o  c #97771E00",
"O  c #97771F00",
"+  c #9A791F00",
"@  c #9C7B2000",
"#  c #AD5E3A00",
"$  c #A07E2100",
"%  c #955E4500",
"&  c #C0673F00",
"*  c #DF6B3800",
"=  c #ED723C00",
"-  c #C66A4000",
";  c #CD6E4300",
":  c #CB714800",
">  c #CA754F00",
",  c #D16E4200",
"<  c #D0704500",
"1  c #D6734700",
"2  c #D4754A00",
"3  c #D6744900",
"4  c #DB7C5200",
"5  c #DF7D5100",
"6  c #E17A4C00",
"7  c #E27B4D00",
"8  c #E27C4E00",
"9  c #EB774400",
"0  c #A4822400",
"q  c #A5822400",
"w  c #A2842C00",
"e  c #AA872700",
"r  c #AE892500",
"t  c #AE8B2A00",
"y  c #B18B2300",
"u  c #B28C2400",
"i  c #B28D2500",
"p  c #B28D2600",
"a  c #B38E2800",
"s  c #B4913100",
"d  c #B6953500",
"f  c #B6943B00",
"g  c #B9973900",
"h  c #B9983C00",
"j  c #BB993F00",
"k  c #BC9D3D00",
"l  c #BB9B4300",
"z  c #BC9A4100",
"x  c #BD9D4400",
"c  c #BE9E4900",
"v  c #DF865F00",
"b  c #C1A35000",
"n  c #C2A35100",
"m  c #C4A75900",
"M  c #CBAE5B00",
"N  c #CBB37200",
"B  c #D3AA7400",
"V  c #E1845A00",
"C  c #E1845B00",
"Z  c #E6865B00",
"A  c #E8875C00",
"S  c #E9895F00",
"D  c #EA8B6100",
"F  c #E98D6400",
"G  c #EC8E6400",
"H  c #E88F6900",
"J  c #ED906600",
"K  c #EB926A00",
"L  c #ED926900",
"P  c #EE956C00",
"I  c #EE976F00",
"U  c #EB997400",
"Y  c #EF987100",
"T  c #EF9E7A00",
"R  c #F09B7400",
"E  c #F09B7500",
"W  c #F29F7A00",
"Q  c #F3A07B00",
"!  c #F4A27D00",
"~  c #F8A47E00",
"^  c #D0BB8100",
"/  c #E4BC8E00",
"(  c #F3AC8D00",
")  c #F5AF8F00",
"_  c #F8A68200",
"`  c #F8A78300",
"'  c #F9A98600",
"]  c #F9AA8700",
"[  c #F9AB8700",
"{  c #F9AC8900",
"}  c #F8AC8A00",
"|  c #F9AD8A00",
" . c #F9AF8D00",
".. c #F9B08F00",
"X. c #F6B69900",
"o. c #F9B39300",
"O. c #FAB19000",
"+. c #FAB29100",
"@. c #FAB49400",
"#. c #FAB59500",
"$. c #FAB69600",
"%. c #FBB69600",
"&. c #FBB69700",
"*. c #FBB79700",
"=. c #FAB79800",
"-. c #FBB79800",
";. c #FBB89900",
":. c #FAB99A00",
">. c #FBB99A00",
",. c #FBB99B00",
"<. c #FBBA9B00",
"1. c #F8BA9F00",
"2. c #FBBC9D00",
"3. c #FBBC9E00",
"4. c #FCBD9F00",
"5. c #F9BEA200",
"6. c #FCBEA200",
"7. c #FCBFA200",
"8. c #FAC0A500",
"9. c #FCC1A500",
"0. c #FAC1A900",
"q. c #FBC3A900",
"w. c #FBC3AA00",
"e. c #FBC4AB00",
"r. c #FBC5AD00",
"t. c #FCCBB500",
"y. c #FCCDB700",
"u. c #FCCDB800",
"i. c #FCD0BA00",
"p. c #FDD1BD00",
"a. c #FDD2BD00",
"s. c #FDD2BF00",
"d. c #F3E9A400",
"f. c #FBF5B000",
"g. c #F9F6BE00",
"h. c #FFFAB700",
"j. c #FFFFB400",
"k. c #FDD4C000",
"l. c #FDD4C100",
"z. c #FED5C200",
"x. c #FED6C300",
"c. c #F6EFC300",
"v. c #FFFFC900",
"b. c #F9F6D800",
"n. c #FBF9D100",
"m. c #FFFED900",
"M. c #FFFFDC00",
"N. c #F9F6E800",
"B. c #FFFFE600",
"V. c #FFFFF600",
"C. c #FFFFF900",
"Z. c gray100",
"A. c None",
/* pixels */
"A.A.A.A.A.A.A.A.A.A.A.A.A.A.A.A.",
"A.A.Q ! W R Y I G D 9 C A.A.A.A.",
"A.A.! x.x.x.k.a.u.u.= H 4 % A.A.",
"A.A.W x.9.6.6.;.-.#.= e.K 2 A.A.",
"A.A.R x.6.2.;.-.#.+.= = = * A.A.",
"A.A.I a.2.;.-.#.+...| ' q., A.A.",
"A.A.L i.-.#.#.;.-.| ' _ 8.; A.A.",
"A.A.G y.#.;.e.q.q.' _ ~ 5.- A.A.",
"A.A.S y.q.r...S 1.} / b l l ^ A.",
"A.A.Z W X.F 7 7 ( ..m N j c f A.",
"A.A.C 5 7 2 # 1 U +.b a B p t A.",
"A.A.A.> :   A.# C M g p p p r d ",
"A.A.A.A.A.A.A.X , x n.C.B.v.f.0 ",
"A.A.A.A.A.A.A.A.. j m.V.M.j.h.@ ",
"A.A.A.A.A.A.A.A.A.s c.N.b.g.d.O ",
"A.A.A.A.A.A.A.A.A.k e q @ + O w "
};
