/* XPM */
static char * locked_replaced_file_xpm[] = {
"16 16 6 1",
" 	c None",
".	c #808080",
"+	c #FF0000",
"@	c #FFFFFF",
"#	c #000000",
"$	c #C0C0C0",
" ..........     ",
" .++++++++..    ",
" .++++++++.+.   ",
" .+@@@@@@+####  ",
" .+@@+++@@++$#  ",
" .+@@+++@@++$#  ",
" .+@@+++@@++$#  ",
" .+@@@@@@+####  ",
" .+@@@@++#++$#  ",
" .+@@+@@+#++$#  ",
" .+@@++@@#++$#  ",
" .+@@+++####### ",
" .+@@+++####### ",
" .++++++####### ",
" .$$$$$$####### ",
" ############## "};
