/* XPM */
static char *locked_modified_file[] = {
/* columns rows colors chars-per-pixel */
"16 16 171 2",
"   c #9B5A3D00",
".  c #97771E00",
"X  c #97771F00",
"o  c #9A791F00",
"O  c #9C7B2000",
"+  c #A07E2100",
"@  c #D2663600",
"#  c #D7683700",
"$  c #D86A3800",
"%  c #DB6B3900",
"&  c #DF6B3800",
"*  c #DE6D3A00",
"=  c #DF6D3B00",
"-  c #E16F3C00",
";  c #E4723F00",
":  c #ED723C00",
">  c #E4734100",
",  c #E8744000",
"<  c #EA764300",
"1  c #EB774400",
"2  c #E8794700",
"3  c #EC794600",
"4  c #EE7C4800",
"5  c #EE7D4B00",
"6  c #EF7E4B00",
"7  c #EF7F4D00",
"8  c #A4822400",
"9  c #A5822400",
"0  c #A2842C00",
"q  c #AA872700",
"w  c #AE892500",
"e  c #AE8B2A00",
"r  c #B18B2300",
"t  c #B28C2400",
"y  c #B28D2500",
"u  c #B28D2600",
"i  c #B38E2800",
"p  c #B4913100",
"a  c #B6953500",
"s  c #B6943B00",
"d  c #B9973900",
"f  c #B9983C00",
"g  c #BB993F00",
"h  c #BC9D3D00",
"j  c #BB9B4300",
"k  c #BC9A4100",
"l  c #BD9D4400",
"z  c #BE9E4900",
"x  c #C1A35000",
"c  c #C2A35100",
"v  c #C4A75900",
"b  c #CBAD5900",
"n  c #CBB37200",
"m  c #D9AE7B00",
"M  c #EF804F00",
"N  c #EF815000",
"B  c #ED875900",
"V  c #F0835200",
"C  c #F0845400",
"Z  c #F0855600",
"A  c #F0875900",
"S  c #F0885900",
"D  c #F08A5C00",
"F  c #F28A5D00",
"G  c #F18D6000",
"H  c #F18E6100",
"J  c #F18F6200",
"K  c #F5906400",
"L  c #F5946800",
"P  c #F6946900",
"I  c #F6956A00",
"U  c #F6976D00",
"Y  c #F6986E00",
"T  c #F6986F00",
"R  c #F7997000",
"E  c #F79A7100",
"W  c #F79B7200",
"Q  c #F79C7300",
"!  c #F79D7500",
"~  c #F89E7600",
"^  c #F89F7700",
"/  c #F8A07800",
"(  c #F8A17900",
")  c #F8A17A00",
"_  c #F8A27B00",
"`  c #F8A27C00",
"'  c #F8A37C00",
"]  c #F8A37D00",
"[  c #F8A47D00",
"{  c #F8A47E00",
"}  c #F8A57F00",
"|  c #D0BB8100",
" . c #E5B68700",
".. c #F8A58000",
"X. c #F8A68100",
"o. c #F9A78100",
"O. c #F9A78200",
"+. c #F9A88300",
"@. c #F9A98400",
"#. c #F9AA8500",
"$. c #F9AB8600",
"%. c #F9AB8700",
"&. c #FAAC8800",
"*. c #FAAC8900",
"=. c #FAAD8A00",
"-. c #FAAE8B00",
";. c #F8AE8E00",
":. c #FAAF8C00",
">. c #FAAF8D00",
",. c #FAB08E00",
"<. c #FAB18F00",
"1. c #F8B09100",
"2. c #FAB29000",
"3. c #FAB29200",
"4. c #F8B39400",
"5. c #FAB49300",
"6. c #FAB49400",
"7. c #FBB59400",
"8. c #FBB59500",
"9. c #FBB69600",
"0. c #FBB79700",
"q. c #F9B59800",
"w. c #F9B69900",
"e. c #F9B89B00",
"r. c #FBB89900",
"t. c #FBB99A00",
"y. c #F9BA9D00",
"u. c #F9BB9F00",
"i. c #FCB99B00",
"p. c #FCBA9C00",
"a. c #FCBC9E00",
"s. c #FCBD9F00",
"d. c #FABDA100",
"f. c #FABEA200",
"g. c #FDBEA000",
"h. c #FAC1A600",
"j. c #FBC1A600",
"k. c #FDC1A400",
"l. c #FDC1A500",
"z. c #FBC3AA00",
"x. c #FBC6AE00",
"c. c #FDC4A900",
"v. c #FBCAB200",
"b. c #FCCCB700",
"n. c #FCCDB700",
"m. c #FDCFBA00",
"M. c #FDD0BB00",
"N. c #FED2BD00",
"B. c #FED3BE00",
"V. c #F3E9A400",
"C. c #FBF5B000",
"Z. c #F9F6BE00",
"A. c #FFFAB700",
"S. c #FFFFB400",
"D. c #FED4C100",
"F. c #FED6C200",
"G. c #FED7C400",
"H. c #FED8C600",
"J. c #FED9C700",
"K. c #F6EFC300",
"L. c #FFFFC900",
"P. c #F9F6D800",
"I. c #FBF9D100",
"U. c #FFFED900",
"Y. c #FFFFDC00",
"T. c #F9F6E800",
"R. c #FFFFE600",
"E. c #FFFFF600",
"W. c #FFFFF900",
"Q. c gray100",
"!. c None",
/* pixels */
"!.!.!.!.!.!.!.!.!.!.!.!.!.!.!.!.",
"!.!.J J J D S Z M 5 1 2 !.!.!.!.",
"!.!.J H.J.G.F.N.M.m.: B >   !.!.",
"!.!.J G.c.k.g.i.6.6.: j.D = !.!.",
"!.!.D F.k.a.i.6.2.,.: : : - !.!.",
"!.!.A N.a.r.6.2.:.@.O.[ d.= !.!.",
"!.!.Z m.r.6.2.*.@.O.' / y.% !.!.",
"!.!.V b.6.,.*.@.O./ ^ E q.# !.!.",
"!.!.N v.:.*.@.../ ^  .c k j | !.",
"!.!.M x.@.O.{ / ! E v n g z s !.",
"!.!.5 z.+.] / ! E P c i m u e !.",
"!.!.5 j.] ! E U P b d u u u w a ",
"!.!.2 d.^ E U P J l I.W.R.L.C.8 ",
"!.!.< y.q.q.4.2.:.f U.E.Y.S.A.O ",
"!.!.< ; - = % # @ p K.T.P.Z.V.X ",
"!.!.!.!.!.!.!.!.!.h q 8 + o X 0 "
};
