/* XPM */
static char *locked_replaced_file[] = {
/* columns rows colors chars-per-pixel */
"16 16 132 2",
"   c #9B5A3D00",
".  c #97771E00",
"X  c #97771F00",
"o  c #9A791F00",
"O  c #9C7B2000",
"+  c #A07E2100",
"@  c #FF330000",
"#  c #D2663600",
"$  c #D7683700",
"%  c #D86A3800",
"&  c #DB6B3900",
"*  c #DF6B3800",
"=  c #DE6D3A00",
"-  c #DF6D3B00",
";  c #E16F3C00",
":  c #E4723F00",
">  c #ED723C00",
",  c #E4734100",
"<  c #E8744000",
"1  c #EA764300",
"2  c #EB774400",
"3  c #E8794700",
"4  c #EC794600",
"5  c #EE7C4800",
"6  c #EE7D4B00",
"7  c #A4822400",
"8  c #A5822400",
"9  c #A2842C00",
"0  c #AA872700",
"q  c #AE892500",
"w  c #AE8B2A00",
"e  c #B18B2300",
"r  c #B28C2400",
"t  c #B28D2500",
"y  c #B28D2600",
"u  c #B38E2800",
"i  c #B4913100",
"p  c #B6953500",
"a  c #B6943B00",
"s  c #B9973900",
"d  c #B9983C00",
"f  c #BB993F00",
"g  c #BC9D3D00",
"h  c #BB9B4300",
"j  c #BC9A4100",
"k  c #BD9D4400",
"l  c #BE9E4900",
"z  c #C1A35000",
"x  c #C2A35100",
"c  c #C4A75900",
"v  c #CBAD5900",
"b  c #CBB37200",
"n  c #D9AE7B00",
"m  c #EF804F00",
"M  c #ED875900",
"N  c #F0845400",
"B  c #F0885900",
"V  c #F08A5C00",
"C  c #F28A5D00",
"Z  c #F18D6000",
"A  c #F18E6100",
"S  c #F18F6200",
"D  c #F5906400",
"F  c #F5946800",
"G  c #F6946900",
"H  c #F6956A00",
"J  c #F6976D00",
"K  c #F6986E00",
"L  c #F6986F00",
"P  c #F7997000",
"I  c #F79A7100",
"U  c #F79B7200",
"Y  c #F79C7300",
"T  c #F79D7500",
"R  c #F89E7600",
"E  c #F89F7700",
"W  c #F8A07800",
"Q  c #F8A17900",
"!  c #F8A17A00",
"~  c #F8A27B00",
"^  c #F8A37C00",
"/  c #F8A47D00",
"(  c #D0BB8100",
")  c #E5B68700",
"_  c #F8A58000",
"`  c #F8A68100",
"'  c #F9A78200",
"]  c #F9AA8500",
"[  c #F9AB8600",
"{  c #FAAE8B00",
"}  c #F8AE8E00",
"|  c #FAAF8C00",
" . c #F8B09100",
".. c #FAB29200",
"X. c #F8B39400",
"o. c #FAB49400",
"O. c #FBB69600",
"+. c #FBB79700",
"@. c #F9B59800",
"#. c #F9B69900",
"$. c #F9B89B00",
"%. c #F9BA9D00",
"&. c #F9BB9F00",
"*. c #FCBA9C00",
"=. c #FABDA100",
"-. c #FABEA200",
";. c #FDBEA000",
":. c #FAC1A600",
">. c #FBC1A600",
",. c #FCCDB700",
"<. c #FDD0BB00",
"1. c #FED2BD00",
"2. c #F3E9A400",
"3. c #FBF5B000",
"4. c #F9F6BE00",
"5. c #FFFAB700",
"6. c #FFFFB400",
"7. c #FED4C100",
"8. c #FED7C400",
"9. c #FED9C700",
"0. c #F6EFC300",
"q. c #FFFFC900",
"w. c #F9F6D800",
"e. c #FBF9D100",
"r. c #FFFED900",
"t. c #FFFFDC00",
"y. c #F9F6E800",
"u. c #FFFFE600",
"i. c #FFFFF600",
"p. c #FFFFF900",
"a. c gray100",
"s. c None",
/* pixels */
"s.s.s.s.s.s.s.s.s.s.s.s.s.s.s.s.",
"s.s.S S S V B N 6 6 2 3 s.s.s.s.",
"s.s.S a.9.8.7.1.1.,.> M ,   s.s.",
"s.s.a.@ a.a.;.*.@.O.> >.V - s.s.",
"s.a.@ @ @ @ a.O...| > > > ; s.s.",
"a.a.a.@ a.@ @ a.{ [ ' / =.- s.s.",
"a.@ a.a.a.a.@ a.[ ' ^ W $.& s.s.",
"a.@ a.a.a.a.@ a.' W E U @.$ s.s.",
"a.@ @ a.@ a.a.a.W E ) x j h ( s.",
"s.a.@ @ @ @ a.W T U c b f l a s.",
"s.s.a.a.@ a.E U J G x u n y w s.",
"s.s.6 >.a.E U J G v s y y y q p ",
"s.s.4 =.E U J G S k e.p.u.q.3.7 ",
"s.s.2 $.@.@.X. .| d r.i.t.6.5.O ",
"s.s.< , ; - & $ # i 0.y.w.4.2.X ",
"s.s.s.s.s.s.s.s.s.g 0 7 + o X 9 "
};
