/* XPM */
static char *locked_file[] = {
/* columns rows colors chars-per-pixel */
"16 16 138 2",
"   c #666F7C00",
".  c #74829800",
"X  c #78869D00",
"o  c #7A889F00",
"O  c #7B8AA100",
"+  c #7D8CA300",
"@  c #7E8DA300",
"#  c #7F8EA600",
"$  c #97771E00",
"%  c #97771F00",
"&  c #9A791F00",
"*  c #9C7B2000",
"=  c #A07E2100",
"-  c #A4822400",
";  c #A5822400",
":  c #A2842C00",
">  c #AA872700",
",  c #AE892500",
"<  c #AE8B2A00",
"1  c #B18B2300",
"2  c #B28C2400",
"3  c #B28D2500",
"4  c #B28D2600",
"5  c #B38E2800",
"6  c #B4913100",
"7  c #B6953500",
"8  c #B6943B00",
"9  c #B9973900",
"0  c #B9983C00",
"q  c #BB993F00",
"w  c #BC9D3D00",
"e  c #BB9B4300",
"r  c #BC9A4100",
"t  c #BD9D4400",
"y  c #BE9E4900",
"u  c #C1A35100",
"i  c #C2A35100",
"p  c #C4A75A00",
"a  c #CAB05F00",
"s  c #CBB37200",
"d  c #8190A700",
"f  c #8392A800",
"g  c #8494AA00",
"h  c #8897AE00",
"j  c #8998AF00",
"k  c #8B9AB100",
"l  c #8E9DB400",
"z  c #919EB300",
"x  c #919FB500",
"c  c #91A0B700",
"v  c #95A3BA00",
"b  c #97A5BB00",
"n  c #97A5BC00",
"m  c #9AA7BD00",
"M  c #9AA8BE00",
"N  c #9BA9BF00",
"B  c #9CA9BF00",
"V  c #9DAABF00",
"C  c #9FACC100",
"Z  c #9FACC200",
"A  c #A1AEC300",
"S  c #A2AFC400",
"D  c #A4B1C500",
"F  c #A5B0C400",
"G  c #A4B1C600",
"H  c #A8B5C800",
"J  c #A9B5C800",
"K  c #AAB6C900",
"L  c #ABB7C900",
"P  c #D0BB8100",
"I  c #D2C6A500",
"U  c #DED6BD00",
"Y  c #F3E9A400",
"T  c #FBF5B000",
"R  c #F9F6BE00",
"E  c #FFFAB700",
"W  c #FFFFB400",
"Q  c #DEE6F800",
"!  c #F6EFC300",
"~  c #FFFFC900",
"^  c #F9F6D800",
"/  c #FBF9D100",
"(  c #FFFED900",
")  c #FFFFDC00",
"_  c #E0E8F800",
"`  c #E1E8F900",
"'  c #E2E9F900",
"]  c #E3EAF900",
"[  c #E4EBF900",
"{  c #E5EBF900",
"}  c #E5ECF900",
"|  c #E6ECFA00",
" . c #E6EDFA00",
".. c #E7EDFA00",
"X. c #E8EDFA00",
"o. c #E8EEFA00",
"O. c #E9EEFA00",
"+. c #E9EEFB00",
"@. c #E9EFFB00",
"#. c #EAEFFB00",
"$. c #EBF0FB00",
"%. c #ECF1FB00",
"&. c #EDF1FB00",
"*. c #EDF2FB00",
"=. c #EEF3F900",
"-. c #EEF2FB00",
";. c #EFF3FB00",
":. c #EEF2FC00",
">. c #EEF3FC00",
",. c #EFF3FC00",
"<. c #F9F6E800",
"1. c #FFFFE600",
"2. c #F0F4FC00",
"3. c #F1F4FC00",
"4. c #F2F5FC00",
"5. c #F2F6FC00",
"6. c #F3F6FC00",
"7. c #F3F6FD00",
"8. c #F4F7FD00",
"9. c #F5F8FD00",
"0. c #F6F8FD00",
"q. c #F6F9FD00",
"w. c #F7F9FE00",
"e. c #FFFFF600",
"r. c #F8F9FD00",
"t. c #F8F9FE00",
"y. c #F8FAFD00",
"u. c #F9FAFE00",
"i. c #F9FBFE00",
"p. c #FAFBFE00",
"a. c #FBFCFE00",
"s. c #FFFFF900",
"d. c #FCFDFE00",
"f. c #FDFEFE00",
"g. c #FEFEFE00",
"h. c #FEFFFF00",
"j. c gray100",
"k. c None",
/* pixels */
"k.k.k.k.k.k.k.k.k.k.k.k.k.k.k.k.",
"k.k.K K H S S Z N n V x k.k.k.k.",
"k.k.K j.j.j.j.a.i.i.m F j   k.k.",
"k.k.K j.j.i.i.q.4.4.N %.L d k.k.",
"k.k.D j.i.i.q.8.2.2.N N N z k.k.",
"k.k.A a.q.q.4.4.2.%.$.O.%.d k.k.",
"k.k.C i.8.4.4.:.%.%.O. .%.+ k.k.",
"k.k.N q.4.4.:.%.%.O. .[ $.o k.k.",
"k.k.m q.2.2.#.O.O. .U i r e P k.",
"k.k.m 8.%.#.O.X. .' p s q y 8 k.",
"k.k.v 4.#.O.O.[ ' _ i 5 I 2 < k.",
"k.k.x 2.O.O.[ [ ' a 9 2 2 2 , 7 ",
"k.k.l %. .[ ' _ Q t / s.1.~ T - ",
"k.k.k %.%.O.O.O.[ 8 ( e.) W E * ",
"k.k.h g d + O X . 6 ! <.^ R Y * ",
"k.k.k.k.k.k.k.k.k.w > - * * * : "
};
