/* XPM */
static char *locked_newer_file[] = {
/* columns rows colors chars-per-pixel */
"16 16 170 2",
"   c #667F1B00",
".  c #73980000",
"X  c #779E0000",
"o  c #79A10000",
"O  c #7AA20000",
"+  c #7DA60000",
"@  c #7FAA0000",
"#  c #97771E00",
"$  c #97771F00",
"%  c #9A791F00",
"&  c #9C7B2000",
"*  c #A07E2100",
"=  c #80AA0200",
"-  c #83AE0100",
";  c #84AE0400",
":  c #88B30500",
">  c #8AB60600",
",  c #8BB60800",
"<  c #8EBA0B00",
"1  c #91BE0D00",
"2  c #92BD0D00",
"3  c #91B22E00",
"4  c #9ABD3100",
"5  c #9DBE3A00",
"6  c #A4822400",
"7  c #A5822400",
"8  c #A2842C00",
"9  c #AA872700",
"0  c #AE892500",
"q  c #AE8B2A00",
"w  c #B18B2300",
"e  c #B28C2400",
"r  c #B28D2500",
"t  c #B28D2600",
"y  c #B38E2800",
"u  c #B4913100",
"i  c #B6953500",
"p  c #B6943B00",
"a  c #B9973900",
"s  c #B9983C00",
"d  c #BB993F00",
"f  c #BC9D3D00",
"g  c #BB9B4300",
"h  c #BC9A4100",
"j  c #BD9D4400",
"k  c #BE9E4900",
"l  c #95C11000",
"z  c #97C41200",
"x  c #98C61000",
"c  c #9AC51600",
"v  c #9CC91500",
"b  c #9DC91900",
"n  c #9DC92100",
"m  c #9FCB2500",
"M  c #A0CB1E00",
"N  c #A1CC1C00",
"B  c #A3CE2200",
"V  c #A4CE2100",
"C  c #A5D02500",
"Z  c #A6D12500",
"A  c #A9D32C00",
"S  c #AAD52B00",
"D  c #AAD42C00",
"F  c #ABD52E00",
"G  c #ABDE2C00",
"H  c #ADE03000",
"J  c #ADE13100",
"K  c #ADE13200",
"L  c #AEE23500",
"P  c #AFE33600",
"I  c #AFE33700",
"U  c #B0E43900",
"Y  c #B1E53A00",
"T  c #B1E53B00",
"R  c #B1E53C00",
"E  c #B2E63E00",
"W  c #B2E63F00",
"Q  c #B3E74000",
"!  c #B3E74100",
"~  c #B4E84200",
"^  c #B4E84300",
"/  c #B5E94400",
"(  c #B5E94500",
")  c #B5E94600",
"_  c #B6EA4600",
"`  c #B6EA4700",
"'  c #B6EA4800",
"]  c #B7EB4900",
"[  c #B7EB4A00",
"{  c #B7EC4A00",
"}  c #B7EC4B00",
"|  c #B8ED4C00",
" . c #B8ED4D00",
".. c #B9ED4F00",
"X. c #B9EE5000",
"o. c #BAEE5100",
"O. c #BAEF5300",
"+. c #BBEF5400",
"@. c #BBEF5500",
"#. c #BCF05600",
"$. c #BDF15700",
"%. c #BDF15800",
"&. c #BEF25A00",
"*. c #BEF25B00",
"=. c #BFF35C00",
"-. c #BFF45D00",
";. c #BFF45E00",
":. c #C1A35000",
">. c #C2A35100",
",. c #C4A75900",
"<. c #C8B05700",
"1. c #CBB37200",
"2. c #C4C46B00",
"3. c #CAD37200",
"4. c #C0F35E00",
"5. c #C0F55F00",
"6. c #C2E66700",
"7. c #C3E86A00",
"8. c #C5E96D00",
"9. c #C6EB7000",
"0. c #C7EB7200",
"q. c #C8EC7400",
"w. c #C8ED7600",
"e. c #C9EE7800",
"r. c #CAEE7A00",
"t. c #CAEF7B00",
"y. c #C0F56000",
"u. c #C1F66200",
"i. c #C1F66300",
"p. c #C2F66400",
"a. c #C2F76500",
"s. c #C3F86700",
"d. c #C4F86900",
"f. c #C4F96A00",
"g. c #C5FA6E00",
"h. c #C6FB6F00",
"j. c #C7FC7300",
"k. c #CBF17F00",
"l. c #CCF17F00",
"z. c #D0BB8100",
"x. c #CEF38300",
"c. c #D0F48800",
"v. c #D1F68C00",
"b. c #D3F89000",
"n. c #D4F89100",
"m. c #D5F99400",
"M. c #D6FB9800",
"N. c #D6FB9900",
"B. c #D7FC9B00",
"V. c #D8FD9C00",
"C. c #D9FE9E00",
"Z. c #D9FEA000",
"A. c #DAFFA100",
"S. c #F3E9A400",
"D. c #FBF5B000",
"F. c #F9F6BE00",
"G. c #FFFAB700",
"H. c #FFFFB400",
"J. c #F6EFC300",
"K. c #FFFFC900",
"L. c #F9F6D800",
"P. c #FBF9D100",
"I. c #FFFED900",
"U. c #FFFFDC00",
"Y. c #F9F6E800",
"T. c #FFFFE600",
"R. c #FFFFF600",
"E. c #FFFFF900",
"W. c gray100",
"Q. c None",
/* pixels */
"Q.Q.Q.Q.Q.Q.Q.Q.Q.Q.Q.Q.Q.Q.Q.Q.",
"Q.Q.S F F C V N v x 5 2 Q.Q.Q.Q.",
"Q.Q.F A.A.V.B.N.m.n.4 n >   Q.Q.",
"Q.Q.A A.j.g.d.p.i.4.4 k.m - Q.Q.",
"Q.Q.C V.g.d.p.i.%.$.4 4 4 3 Q.Q.",
"Q.Q.B N.s.i.-.%.+.O.} ( r.@ Q.Q.",
"Q.Q.M m.i.-.%.+. .[ ( Q w.+ Q.Q.",
"Q.Q.b b.=.$.O. .[ ( Q T 0.o Q.Q.",
"Q.Q.c v.$.O. .( ^ W 3.>.h g z.Q.",
"Q.Q.z c. .} ( ^ W T ,.1.d k p Q.",
"Q.Q.l x.} ( Q T P J >.y 2.t q Q.",
"Q.Q.2 l.( Q T P J <.a t t t 0 i ",
"Q.Q.< r.W T P H G j P.E.T.K.D.6 ",
"Q.Q., r.q.0.8.7.6.a U.R.U.H.G.% ",
"Q.Q.: ; = + o X . u J.Y.L.F.S.# ",
"Q.Q.Q.Q.Q.Q.Q.Q.Q.f 9 6 * % # 8 "
};
