/* XPM */
static char *locked_deleted_folder[] = {
/* columns rows colors chars-per-pixel */
"16 16 123 2",
"   c #97771E00",
".  c #97771F00",
"X  c #9A791F00",
"o  c #9C7B2000",
"O  c #A07E2100",
"+  c red",
"@  c #D2643400",
"#  c #DD6A3800",
"$  c #E6723F00",
"%  c #E8713C00",
"&  c #ED713B00",
"*  c #ED723C00",
"=  c #EE743E00",
"-  c #E2744300",
";  c #EA764300",
":  c #EB764300",
">  c #EE774200",
",  c #EC7F4F00",
"<  c #EF7D4C00",
"1  c #A4822400",
"2  c #A5822400",
"3  c #A2842C00",
"4  c #AA872700",
"5  c #AE892500",
"6  c #AE8B2A00",
"7  c #B18B2300",
"8  c #B28C2400",
"9  c #B28D2500",
"0  c #B28D2600",
"q  c #B38E2800",
"w  c #B4913100",
"e  c #B6953500",
"r  c #B6943B00",
"t  c #B9973900",
"y  c #B9983C00",
"u  c #BB993F00",
"i  c #BC9D3D00",
"p  c #BB9B4300",
"a  c #BC9A4100",
"s  c #BD9D4400",
"d  c #BE9E4900",
"f  c #D49B6400",
"g  c #C1A35000",
"h  c #C2A35100",
"j  c #C4A75900",
"k  c #CBAD5900",
"l  c #CBB37200",
"z  c #DCA56B00",
"x  c #E2885E00",
"c  c #EF815100",
"v  c #EF825100",
"b  c #EF835400",
"n  c #EF855600",
"m  c #ED8B5D00",
"M  c #F1865600",
"N  c #F0865800",
"B  c #F1895A00",
"V  c #F2895A00",
"C  c #F0895C00",
"Z  c #F48B5B00",
"A  c #FF8B5600",
"S  c #FF8B5700",
"D  c #F48F6100",
"F  c #F2916600",
"G  c #F2926700",
"H  c #FF976500",
"J  c #F89D7100",
"K  c #F6A17900",
"L  c #FFA27400",
"P  c #E9BE8F00",
"I  c #F5A58100",
"U  c #FFAB8000",
"Y  c #FFAE8300",
"T  c #FFB08700",
"R  c #FFB28800",
"E  c #FFB28A00",
"W  c #FFB48B00",
"Q  c #FFB58C00",
"!  c #FBB69400",
"~  c #FFB69000",
"^  c #FFB79200",
"/  c #F9BA9B00",
"(  c #F9BC9E00",
")  c #FFBD9900",
"_  c #FFBE9A00",
"`  c #FABEA100",
"'  c #FFBEA200",
"]  c #FFBFA200",
"[  c #FCC3A700",
"{  c #FCC7AD00",
"}  c #FCC8AC00",
"|  c #FCC9B000",
" . c #FDCBB200",
".. c #FECCB300",
"X. c #FDD2BB00",
"o. c #FFD1B800",
"O. c #FFD1BA00",
"+. c #FDD2BD00",
"@. c #FFD5BF00",
"#. c #F3E9A400",
"$. c #FBF5B000",
"%. c #F9F6BE00",
"&. c #FFFAB700",
"*. c #FFFFB400",
"=. c #FED6C000",
"-. c #FED9C500",
";. c #FFD9C400",
":. c #FEDAC600",
">. c #FFDBC700",
",. c #FFDCC800",
"<. c #F6EFC300",
"1. c #FFE0CD00",
"2. c #FFFFC900",
"3. c #F9F6D800",
"4. c #FBF9D100",
"5. c #FFFED900",
"6. c #FFFFDC00",
"7. c #F9F6E800",
"8. c #FFFFE600",
"9. c #FFFFF600",
"0. c #FFFFF900",
"q. c gray100",
"w. c None",
/* pixels */
"w.w.w.w.w.w.w.w.w.w.w.w.w.w.w.w.",
"w.w.w.w.w.w.w.w.w.w.w.w.w.w.w.w.",
"w.( G C n n B K w.w.w.w.w.w.w.w.",
"w.G ` :.,.:.} < B M c ; , m w.w.",
"w.C :.W T W O. .[ } +. .! $ w.w.",
"w.N @.U U U T ^ ~ J > & & % x w.",
"w.b O.Z & & & & & = } 1.1./ - w.",
"w.c D I =.,.,.,.,.,.:.) ) :.# w.",
"w.q.q.O.E q.q.U U T P h a p f w.",
"q.+ + q.q.+ + q.L L j l u d r w.",
"w.q.+ + + + q.H H H h q z 0 6 w.",
"w.; q.+ + q.A A S k t 0 0 0 5 e ",
"w.q.+ + + + q.] ] s 4.0.8.2.$.1 ",
"q.+ + q.q.+ + q.@ t 6.9.6.*.&.X ",
"w.q.q.w.w.q.q.w.w.w <.7.3.%.#.  ",
"w.w.w.w.w.w.w.w.w.i 4 1 O X   3 "
};
