/* XPM */
static char *locked_merged_file[] = {
/* columns rows colors chars-per-pixel */
"16 16 135 2",
"   c #9B5A3D00",
".  c #97771E00",
"X  c #97771F00",
"o  c #9A791F00",
"O  c #9C7B2000",
"+  c #A07E2100",
"@  c #FF330000",
"#  c #D2663600",
"$  c #D7683700",
"%  c #D86A3800",
"&  c #DB6B3900",
"*  c #DF6B3800",
"=  c #DE6D3A00",
"-  c #DF6D3B00",
";  c #E16F3C00",
":  c #E4723F00",
">  c #ED723C00",
",  c #E4734100",
"<  c #E8744000",
"1  c #EA764300",
"2  c #EB774400",
"3  c #E8794700",
"4  c #EC794600",
"5  c #EE7D4B00",
"6  c #A4822400",
"7  c #A5822400",
"8  c #A2842C00",
"9  c #AA872700",
"0  c #AE892500",
"q  c #AE8B2A00",
"w  c #B18B2300",
"e  c #B28C2400",
"r  c #B28D2500",
"t  c #B28D2600",
"y  c #B38E2800",
"u  c #B4913100",
"i  c #B6953500",
"p  c #B6943B00",
"a  c #B9973900",
"s  c #B9983C00",
"d  c #BB993F00",
"f  c #BC9D3D00",
"g  c #BB9B4300",
"h  c #BC9A4100",
"j  c #BD9D4400",
"k  c #BE9E4900",
"l  c #C1A35000",
"z  c #C2A35100",
"x  c #C4A75900",
"c  c #CBAD5900",
"v  c #CBB37200",
"b  c #D9AE7B00",
"n  c #EF804F00",
"m  c #ED875900",
"M  c #F0845400",
"N  c #F0885900",
"B  c #F08A5C00",
"V  c #F28A5D00",
"C  c #F18D6000",
"Z  c #F18E6100",
"A  c #F18F6200",
"S  c #F5906400",
"D  c #F5946800",
"F  c #F6946900",
"G  c #F6956A00",
"H  c #F6976D00",
"J  c #F6986E00",
"K  c #F6986F00",
"L  c #F7997000",
"P  c #F79A7100",
"I  c #F79B7200",
"U  c #F79C7300",
"Y  c #F79D7500",
"T  c #F89E7600",
"R  c #F89F7700",
"E  c #F8A07800",
"W  c #F8A17900",
"Q  c #F8A17A00",
"!  c #F8A27B00",
"~  c #F8A37C00",
"^  c #F8A47D00",
"/  c #F8A57F00",
"(  c #D0BB8100",
")  c #E5B68700",
"_  c #F8A58000",
"`  c #F8A68100",
"'  c #F9A78200",
"]  c #F9A98400",
"[  c #F9AA8500",
"{  c #F9AB8600",
"}  c #FAAC8900",
"|  c #FAAD8A00",
" . c #FAAE8B00",
".. c #F8AE8E00",
"X. c #FAAF8C00",
"o. c #F8B09100",
"O. c #FAB29000",
"+. c #FAB29200",
"@. c #F8B39400",
"#. c #FAB49400",
"$. c #FBB69600",
"%. c #FBB79700",
"&. c #F9B59800",
"*. c #F9B69900",
"=. c #F9B89B00",
"-. c #F9BA9D00",
";. c #F9BB9F00",
":. c #FCBA9C00",
">. c #FABDA100",
",. c #FBC1A600",
"<. c #FCCDB700",
"1. c #FDD0BB00",
"2. c #FED2BD00",
"3. c #F3E9A400",
"4. c #FBF5B000",
"5. c #F9F6BE00",
"6. c #FFFAB700",
"7. c #FFFFB400",
"8. c #FED4C100",
"9. c #FED6C200",
"0. c #FED7C400",
"q. c #FED8C600",
"w. c #FED9C700",
"e. c #F6EFC300",
"r. c #FFFFC900",
"t. c #F9F6D800",
"y. c #FBF9D100",
"u. c #FFFED900",
"i. c #FFFFDC00",
"p. c #F9F6E800",
"a. c #FFFFE600",
"s. c #FFFFF600",
"d. c #FFFFF900",
"f. c gray100",
"g. c None",
/* pixels */
"g.g.g.g.g.g.g.g.g.g.g.g.g.g.g.g.",
"g.g.A A A B N M 5 5 2 3 g.g.g.g.",
"g.g.A q.q.0.9.2.2.<.> m ,   g.g.",
"f.f.f.0.f.f.f.:.&.$.> ,.B - g.g.",
"f.@ f.9.f.@ f.$.O.X.> > > ; g.g.",
"f.@ f.f.f.@ f.O.X.] ' ^ >.- g.g.",
"f.@ @ f.@ @ f.} ] ' ~ E =.& g.g.",
"g.f.@ @ @ f.} ] ' ~ R I &.$ g.g.",
"f.f.f.@ f.f.f.' E R ) z h g ( g.",
"f.@ @ @ @ @ f.E Y I x v d k p g.",
"g.f.@ @ @ f.R I H F z y b t q g.",
"g.g.f.@ f.R I H F c a t t t 0 i ",
"g.g.4 f.R I H F A j y.d.a.r.4.6 ",
"g.g.2 =.&.&.@.o.X.s u.s.i.7.6.O ",
"g.g.< , ; - & $ # u e.p.t.5.3.X ",
"g.g.g.g.g.g.g.g.g.f 9 6 + o X 8 "
};
