/* XPM */
static char *locked_newer_open_folder[] = {
/* columns rows colors chars-per-pixel */
"16 16 175 2",
"   c #35460600",
".  c #5D791C00",
"X  c #68880A00",
"o  c #789D0B00",
"O  c #7DA50600",
"+  c #97771E00",
"@  c #97771F00",
"#  c #9A791F00",
"$  c #9C7B2000",
"%  c #A07E2100",
"&  c #82AA0600",
"*  c #81A90800",
"=  c #80A80A00",
"-  c #82A71300",
";  c #83AA1200",
":  c #84A91500",
">  c #84AC1100",
",  c #88B30500",
"<  c #89B40600",
"1  c #8AB50800",
"2  c #8CB80D00",
"3  c #8DB80E00",
"4  c #8AB21000",
"5  c #8AB41100",
"6  c #8EB61300",
"7  c #8AB41B00",
"8  c #91B91A00",
"9  c #91BB1A00",
"0  c #91BD1B00",
"q  c #94BB1E00",
"w  c #85AD2200",
"e  c #92BC2500",
"r  c #96BF2200",
"t  c #97BF2500",
"y  c #98BF2700",
"u  c #99BF2800",
"i  c #9BBF2D00",
"p  c #9BBE3B00",
"a  c #A4822400",
"s  c #A5822400",
"d  c #A2842C00",
"f  c #AA872700",
"g  c #AE892500",
"h  c #AE8B2A00",
"j  c #B18B2300",
"k  c #B28C2400",
"l  c #B28D2500",
"z  c #B28D2600",
"x  c #B38E2800",
"c  c #B4913100",
"v  c #B6953500",
"b  c #B6943B00",
"n  c #B9973900",
"m  c #B9983C00",
"M  c #BB993F00",
"N  c #BC9D3D00",
"B  c #BB9B4300",
"V  c #BC9A4100",
"C  c #BD9D4400",
"Z  c #BE9E4900",
"A  c #A5A44A00",
"S  c #96C02800",
"D  c #98C02400",
"F  c #9BC12B00",
"G  c #9CC52D00",
"H  c #9EC72F00",
"J  c #9BCA2700",
"K  c #9ECB2E00",
"L  c #9FCB2E00",
"P  c #9ECC2C00",
"I  c #9FC63600",
"U  c #A0C63400",
"Y  c #A0C73500",
"T  c #A0C73600",
"R  c #A2C43C00",
"E  c #A3C53C00",
"W  c #A3C73D00",
"Q  c #A1C93700",
"!  c #A2C83900",
"~  c #A3CB3900",
"^  c #A0C93E00",
"/  c #A4C93D00",
"(  c #A5CB3F00",
")  c #A4D43700",
"_  c #A7D73C00",
"`  c #ADCF5100",
"'  c #A8D14300",
"]  c #AAD14600",
"[  c #ADD54F00",
"{  c #A9DA4000",
"}  c #ACD94700",
"|  c #AEDF4800",
" . c #AFD15300",
".. c #AFD15400",
"X. c #B3D05E00",
"o. c #B4DC5A00",
"O. c #B7DD5E00",
"+. c #B8DB6600",
"@. c #B9DF6300",
"#. c #BDDF6E00",
"$. c #BEDE6F00",
"%. c #BCD87000",
"&. c #BED97600",
"*. c #BEDC7100",
"=. c #BEDD7300",
"-. c #AFE04A00",
";. c #B0E14C00",
":. c #B3E15400",
">. c #B4E65400",
",. c #B5E75400",
"<. c #B5E75500",
"1. c #BCE16B00",
"2. c #BAE86000",
"3. c #BCE96500",
"4. c #BFEA6D00",
"5. c #C1A35000",
"6. c #C2A35100",
"7. c #C4A75900",
"8. c #C9B05A00",
"9. c #CBB37200",
"0. c #CBD47D00",
"q. c #C0EA6F00",
"w. c #C0E07400",
"e. c #C0E17400",
"r. c #C2E17900",
"t. c #C3EB7400",
"y. c #C3ED7300",
"u. c #C5E97B00",
"i. c #D0BB8100",
"p. c #C6DC8700",
"a. c #C6E28400",
"s. c #C7E88000",
"d. c #C8E28600",
"f. c #C8E68400",
"g. c #C8E78500",
"h. c #CBE48E00",
"j. c #C8E88500",
"k. c #CCEE8800",
"l. c #CBE49000",
"z. c #CCF08600",
"x. c #CDF18900",
"c. c #CEF38A00",
"v. c #CFF48E00",
"b. c #D1EE9500",
"n. c #D4EE9D00",
"m. c #D1F29300",
"M. c #D3F29800",
"N. c #D4F59900",
"B. c #D6F1A100",
"V. c #D7F4A100",
"C. c #D8F2A700",
"Z. c #D8F4A400",
"A. c #DAF7A600",
"S. c #DAF2A800",
"D. c #DAF3A900",
"F. c #DAF4A800",
"G. c #DBF6A900",
"H. c #DCF5AC00",
"J. c #F3E9A400",
"K. c #FBF5B000",
"L. c #F9F6BE00",
"P. c #FFFAB700",
"I. c #FFFFB400",
"U. c #F6EFC300",
"Y. c #FFFFC900",
"T. c #F9F6D800",
"R. c #FBF9D100",
"E. c #FFFED900",
"W. c #FFFFDC00",
"Q. c #F9F6E800",
"!. c #FFFFE600",
"~. c #FFFFF600",
"^. c #FFFFF900",
"/. c gray100",
"(. c None",
/* pixels */
"(.(.(.(.(.(.(.(.(.(.(.(.(.(.(.(.",
"(.(.(.w.$.(.(.(.(.(.(.(.(.(.(.(.",
"(.$.E F t ! ] H r 6 9 I (.(.(.(.",
"(./ r.A.y.) L O.k.M.H t (.(.(.(.",
"(.i S.z.F.m.H.V.c.Z.` e (.(.(.(.",
"(.Y f.4.3.q.2.>.| o.L 0 7 O > (.",
"(.Y *.u.;.{ J 2 D ..*.g.B.%.w (.",
"(.Q ..j.P < ' b.F.N.c.v.C.: . (.",
"(.I E =.1 s.S.y.<.<.0.5.V V i.(.",
"(.I F ! / n.:.-.-.-.7.9.M Z b (.",
"(.p 9 3 d.1._ _ } 1.5.x A z h (.",
"(.(.1 q h.[ +.a.l.8.n z z z g v ",
"(.(.5 t &.p.X.E - C R.^.!.Y.K.a ",
"(.(.; & * O o X   M E.~.W.I.P.$ ",
"(.(.(.(.(.(.(.(.(.c U.Q.T.L.J.@ ",
"(.(.(.(.(.(.(.(.(.N f s $ # @ d "
};
