/* XPM */
static char *locked_modified_newer_file[] = {
/* columns rows colors chars-per-pixel */
"16 16 171 2",
"   c #97771E00",
".  c #97771F00",
"X  c #9A791F00",
"o  c #9C7B2000",
"O  c #A07E2100",
"+  c #D2663600",
"@  c #D7683700",
"#  c #D86A3800",
"$  c #DB6B3900",
"%  c #DF6B3800",
"&  c #DE6D3A00",
"*  c #E16F3C00",
"=  c #E4723F00",
"-  c #95812500",
";  c #8BB90000",
":  c #8CBB0000",
">  c #8EBD0000",
",  c #8FBF0000",
"<  c #9ABD3100",
"1  c #AD9F1800",
"2  c #A4822400",
"3  c #A5822400",
"4  c #A2842C00",
"5  c #AA872700",
"6  c #AE892500",
"7  c #AE8B2A00",
"8  c #B18B2300",
"9  c #B28C2400",
"0  c #B28D2500",
"q  c #B28D2600",
"w  c #B38E2800",
"e  c #B4913100",
"r  c #B6953500",
"t  c #B6943B00",
"y  c #B9973900",
"u  c #B9983C00",
"i  c #BB993F00",
"p  c #BC9D3D00",
"a  c #A0AE0D00",
"s  c #A8AC1300",
"d  c #B8A23500",
"f  c #BDB33900",
"g  c #BB9B4300",
"h  c #BC9A4100",
"j  c #BD9D4400",
"k  c #BE9E4900",
"l  c #90C00000",
"z  c #92C30000",
"x  c #93C40000",
"c  c #95C60000",
"v  c #96C70000",
"b  c #96C80000",
"n  c #97C90000",
"m  c #97CA0000",
"M  c #98CB0000",
"N  c #99CC0000",
"B  c #9ECB1E00",
"V  c #B7EC4A00",
"C  c #B7EC4B00",
"Z  c #B8ED4C00",
"A  c #B8ED4D00",
"S  c #B9ED4F00",
"D  c #B9EE5000",
"F  c #BAEE5100",
"G  c #BAEF5300",
"H  c #BBEF5400",
"J  c #BBEF5500",
"K  c #BCF05600",
"L  c #BDF15700",
"P  c #BDF15800",
"I  c #BEF25A00",
"U  c #BEF25B00",
"Y  c #BFF35C00",
"T  c #BFF45D00",
"R  c #BFF45E00",
"E  c #CA802C00",
"W  c #CE862F00",
"Q  c #D7863900",
"!  c #C1A35000",
"~  c #C2A35100",
"^  c #C4A75900",
"/  c #CBAD5900",
"(  c #CBB37200",
")  c #D9AE7B00",
"_  c #F5906400",
"`  c #F5946800",
"'  c #F6946900",
"]  c #F6956A00",
"[  c #F6976D00",
"{  c #F6986E00",
"}  c #F6986F00",
"|  c #F7997000",
" . c #F79A7100",
".. c #F79B7200",
"X. c #F79C7300",
"o. c #F79D7500",
"O. c #F89E7600",
"+. c #F89F7700",
"@. c #E5B16700",
"#. c #E5B26800",
"$. c #E5B36900",
"%. c #E6B46A00",
"&. c #E6B46B00",
"*. c #E6B56C00",
"=. c #E6B66D00",
"-. c #E6B76E00",
";. c #F8A07800",
":. c #CDCF5900",
">. c #CDCF5A00",
",. c #CED05B00",
"<. c #CED15C00",
"1. c #CFD15D00",
"2. c #CFD25E00",
"3. c #CFD35F00",
"4. c #C0F35E00",
"5. c #C0F55F00",
"6. c #C0F56000",
"7. c #C1F66200",
"8. c #C1F66300",
"9. c #C2F66400",
"0. c #C2F76500",
"q. c #C3F86700",
"w. c #C4F86900",
"e. c #C4F96A00",
"r. c #C5FA6E00",
"t. c #C6FB6F00",
"y. c #C7FC7300",
"u. c #CBF17F00",
"i. c #CCF17F00",
"p. c #D0BB8100",
"a. c #E5B68700",
"s. c #F8AE8E00",
"d. c #F8B09100",
"f. c #F8B39400",
"g. c #F9B59800",
"h. c #F9B69900",
"j. c #F9B89B00",
"k. c #F9BA9D00",
"l. c #FABDA100",
"z. c #DCDD8900",
"x. c #CEF38300",
"c. c #D0F48800",
"v. c #D1F68C00",
"b. c #D3F89000",
"n. c #D4F89100",
"m. c #D5F99400",
"M. c #D6FB9800",
"N. c #D6FB9900",
"B. c #D7FC9B00",
"V. c #D8FD9C00",
"C. c #D9FE9E00",
"Z. c #D9FEA000",
"A. c #DAFFA100",
"S. c #ECC99400",
"D. c #F3E9A400",
"F. c #FBF5B000",
"G. c #F9F6BE00",
"H. c #FFFAB700",
"J. c #FFFFB400",
"K. c #F6EFC300",
"L. c #FFFFC900",
"P. c #F9F6D800",
"I. c #FBF9D100",
"U. c #FFFED900",
"Y. c #FFFFDC00",
"T. c #F9F6E800",
"R. c #FFFFE600",
"E. c #FFFFF600",
"W. c #FFFFF900",
"Q. c gray100",
"!. c None",
/* pixels */
"!.!.!.!.!.!.!.!.!.!.!.!.!.!.!.!.",
"!.!.N N M m c c z z < s !.!.!.!.",
"!.!.N A.A.V.N.N.m.b.< B a - !.!.",
"!.!.m A.y.y.w.0.8.4.< u.f # !.!.",
"!.!.m V.r.w.0.8.P L < d Q % !.!.",
"!.!.c N.0.8.Y P K G 3.-.S.& !.!.",
"!.!.x m.8.Y P H A 2.*.;.k.$ !.!.",
"!.!.z b.Y L G A 2.*.;. .g.# !.!.",
"!.!.z v.L G Z <.&.O.a.~ h g p.!.",
"!.!.> c.A V <.&.o. .^ ( i k t !.",
"!.!.> x.V <.#.X.} ' ~ w ) q 7 !.",
"!.!.: i.:.@. .} ' / y q q q 6 r ",
"!.!.; z.@. .[ _ _ j I.W.R.L.F.2 ",
"!.!.1 S.j.g.f.f.s.y Y.E.Y.J.H.X ",
"!.!.W = * & $ @ + e K.T.P.G.D.  ",
"!.!.!.!.!.!.!.!.!.p 5 2 O X   4 "
};
