/* XPM */
static char *locked_modified_open_folder[] = {
/* columns rows colors chars-per-pixel */
"16 16 175 2",
"   c #5D291400",
".  c #8F533600",
"X  c #97771E00",
"o  c #97771F00",
"O  c #9A791F00",
"+  c #9C7B2000",
"@  c #B5512700",
"#  c #A07E2100",
"$  c #D15F2E00",
"%  c #DE663200",
"&  c #DA693800",
"*  c #E0673400",
"=  c #E0693500",
"-  c #E16C3900",
";  c #EB6F3A00",
":  c #E8733F00",
">  c #ED713B00",
",  c #ED723C00",
"<  c #EE733D00",
"1  c #D86F4000",
"2  c #D0764C00",
"3  c #D9714300",
"4  c #DC704100",
"5  c #DF794A00",
"6  c #EF754000",
"7  c #EE764100",
"8  c #EC784500",
"9  c #EA7E4D00",
"0  c #EC7C4A00",
"q  c #EC7D4B00",
"w  c #E57F5100",
"e  c #F07F4D00",
"r  c #A4822400",
"t  c #A5822400",
"y  c #A2842C00",
"u  c #AA872700",
"i  c #AE892500",
"p  c #AE8B2A00",
"a  c #B18B2300",
"s  c #B28C2400",
"d  c #B28D2500",
"f  c #B28D2600",
"g  c #B38E2800",
"h  c #B4913100",
"j  c #B6953500",
"k  c #B6943B00",
"l  c #B9973900",
"z  c #B9983C00",
"x  c #BB993F00",
"c  c #BC9D3D00",
"v  c #BB9B4300",
"b  c #BC9A4100",
"n  c #BD9D4400",
"m  c #BE9E4900",
"M  c #C3905900",
"N  c #C1A35000",
"B  c #C2A35100",
"V  c #C4A75900",
"C  c #CBAE5B00",
"Z  c #CBB37200",
"A  c #E8835400",
"S  c #EF825100",
"D  c #E9855A00",
"F  c #F1825300",
"G  c #F0835500",
"H  c #F0845400",
"J  c #F1855500",
"K  c #F4885600",
"L  c #F68A5700",
"P  c #F1885900",
"I  c #F0885B00",
"U  c #F1895A00",
"Y  c #F2895A00",
"T  c #F28B5C00",
"R  c #F38C5D00",
"E  c #F38D5E00",
"W  c #F38D5F00",
"Q  c #F48A5C00",
"!  c #F48C5B00",
"~  c #F58C5F00",
"^  c #F68D5F00",
"/  c #FF8B5700",
"(  c #E9916700",
")  c #F1916500",
"_  c #F2906400",
"`  c #F2906500",
"'  c #F3926700",
"]  c #F7926200",
"[  c #F4906500",
"{  c #F5916500",
"}  c #F5976B00",
"|  c #F59A6F00",
" . c #FB966600",
".. c #FF926100",
"X. c #FF926200",
"o. c #FF976500",
"O. c #FF9A6A00",
"+. c #FC9E6F00",
"@. c #FF9E6F00",
"#. c #F59D7700",
"$. c #F69E7600",
"%. c #F4A07A00",
"&. c #F6A27D00",
"*. c #FFA27300",
"=. c #FFA17700",
"-. c #FFA27400",
";. c #FFA37400",
":. c #F8A67F00",
">. c #FFA27800",
",. c #FFA87D00",
"<. c #FFA87F00",
"1. c #D0BB8100",
"2. c #E9B98900",
"3. c #F9A88100",
"4. c #FFAB8200",
"5. c #FBAC8900",
"6. c #F9AF8D00",
"7. c #FDAE8B00",
"8. c #FFAF8800",
"9. c #F8B18F00",
"0. c #FFB08A00",
"q. c #FFB38E00",
"w. c #F6B09000",
"e. c #F7B39200",
"r. c #F8B19000",
"t. c #F8B59500",
"y. c #F9B69600",
"u. c #FFB39100",
"i. c #FDB69200",
"p. c #FFB59000",
"a. c #F9B89B00",
"s. c #FDB99900",
"d. c #FCB89A00",
"f. c #FFB99800",
"g. c #FEB99B00",
"h. c #FCBB9C00",
"j. c #FEBB9E00",
"k. c #FFBF9F00",
"l. c #FABFA200",
"z. c #FDC1A300",
"x. c #FFC1A100",
"c. c #FFC4A400",
"v. c #FFC5A700",
"b. c #FFC6A900",
"n. c #FDC7AC00",
"m. c #FFC8AD00",
"M. c #FEC9AF00",
"N. c #FFCBAF00",
"B. c #FFCEB500",
"V. c #FFCFB700",
"C. c #FCCFB800",
"Z. c #FDD1BA00",
"A. c #FFD0B900",
"S. c #FED1BA00",
"D. c #FFD1BA00",
"F. c #FFD2BA00",
"G. c #FFD3BC00",
"H. c #FFD3BD00",
"J. c #F3E9A400",
"K. c #FBF5B000",
"L. c #F9F6BE00",
"P. c #FFFAB700",
"I. c #FFFFB400",
"U. c #F6EFC300",
"Y. c #FFFFC900",
"T. c #F9F6D800",
"R. c #FBF9D100",
"E. c #FFFED900",
"W. c #FFFFDC00",
"Q. c #F9F6E800",
"!. c #FFFFE600",
"~. c #FFFFF600",
"^. c #FFFFF900",
"/. c gray100",
"(. c None",
/* pixels */
"(.(.(.(.(.(.(.(.(.(.(.(.(.(.(.(.",
"(.(.(.t.r.(.(.(.(.(.(.(.(.(.(.(.",
"(.r.) P S ) | T S 8 q ( (.(.(.(.",
"(.) t.F.p.] P 3.z.M.P A (.(.(.(.",
"(.P F.k.F.b.H.B.z.B.#.w (.(.(.(.",
"(.W h.8.4.0.,.*.+.:.R 9 5 & 4 (.",
"(.R 6.p.O. .L 7 S %.w.z.C.w.2 (.",
"(.~ $.f.L , } n.G.N.v.v.F.3 . (.",
"(.~ [ 5., f.F.q.;.;.2.N b b 1.(.",
"(.P G ~ { n.@.o.o.o.V Z x m k (.",
"(.D 0 6 h.>./ / ..<.N g M f p (.",
"(.(.7 e h...>.p.k.C l f f f i j ",
"(.(.; F 5.a.&.) & n R.^.!.Y.K.r ",
"(.(.* - % % $ @   x E.~.W.I.P.+ ",
"(.(.(.(.(.(.(.(.(.h U.Q.T.L.J.o ",
"(.(.(.(.(.(.(.(.(.c u t + O o y "
};
