/* XPM */
static char *locked_missing_folder[] = {
/* columns rows colors chars-per-pixel */
"16 16 147 2",
"   c #97771E00",
".  c #97771F00",
"X  c #9A791F00",
"o  c #9C7B2000",
"O  c #A07E2100",
"+  c #E2744300",
"@  c #E2744400",
"#  c #E2754400",
"$  c #E3764500",
"%  c #E5774600",
"&  c #E3794A00",
"*  c #E4794900",
"=  c #E5794900",
"-  c #E57A4B00",
";  c #E57B4B00",
":  c #E67B4A00",
">  c #E57C4C00",
",  c #E57D4D00",
"<  c #E67D4D00",
"1  c #E77D4D00",
"2  c #E97B4A00",
"3  c #E97C4B00",
"4  c #E87D4C00",
"5  c #E87D4D00",
"6  c #E97F4E00",
"7  c #E67E5000",
"8  c #A4822400",
"9  c #A5822400",
"0  c #A2842C00",
"q  c #AA872700",
"w  c #AE892500",
"e  c #AE8B2A00",
"r  c #B18B2300",
"t  c #B28C2400",
"y  c #B28D2500",
"u  c #B28D2600",
"i  c #B38E2800",
"p  c #B4913100",
"a  c #B6953500",
"s  c #B6943B00",
"d  c #B9973900",
"f  c #B9983C00",
"g  c #BB993F00",
"h  c #BC9D3D00",
"j  c #BB9B4400",
"k  c #BC9A4100",
"l  c #BD9D4400",
"z  c #BE9E4900",
"x  c #C1A35000",
"c  c #C2A35100",
"v  c #C4A75900",
"b  c #CAAD5900",
"n  c #CBB37200",
"m  c #D6A46D00",
"M  c #EE804E00",
"N  c #E7805100",
"B  c #E7825500",
"V  c #EA825200",
"C  c #E8825400",
"Z  c #E9835500",
"A  c #E9845500",
"S  c #E9855700",
"D  c #EA855700",
"F  c #EA865800",
"G  c #EF885800",
"H  c #EF8A5B00",
"J  c #ED8B5D00",
"K  c #EC8C5F00",
"L  c #ED8C5F00",
"P  c #F0824F00",
"I  c #F0855400",
"U  c #ED8E6100",
"Y  c #EF906300",
"T  c #EF906400",
"R  c #EE926600",
"E  c #ED926900",
"W  c #EF956A00",
"Q  c #EC956C00",
"!  c #ED9C7700",
"~  c #F08D6000",
"^  c #F1976C00",
"/  c #F29A6F00",
"(  c #F59A6E00",
")  c #F19C7400",
"_  c #FF9F7000",
"`  c #F6A17600",
"'  c #F7A07800",
"]  c #FDA37600",
"[  c #F9A87F00",
"{  c #D8BA8800",
"}  c #ECA38100",
"|  c #EDA58400",
" . c #EEA78800",
".. c #EEA88800",
"X. c #E2BE9200",
"o. c #FFB28900",
"O. c #FFB48C00",
"+. c #FFB68F00",
"@. c #F0B19600",
"#. c #F2B99F00",
"$. c #F5BA9C00",
"%. c #FFB59100",
"&. c #FFB79100",
"*. c #FEB89400",
"=. c #FEBD9A00",
"-. c #F3BFA700",
";. c #F8BFA400",
":. c #FFC09F00",
">. c #F7C2A800",
",. c #FFC1A100",
"<. c #F9C4AB00",
"1. c #F7C8B100",
"2. c #F9CAB300",
"3. c #FECAB100",
"4. c #FFCBB200",
"5. c #FFCBB300",
"6. c #FFCEB700",
"7. c #F9CEB900",
"8. c #F9CFBB00",
"9. c #FFD1BB00",
"0. c #FED2BB00",
"q. c #FCD3BE00",
"w. c #F3E9A400",
"e. c #FBF5B000",
"r. c #F9F6BE00",
"t. c #FFFAB700",
"y. c #FFFFB400",
"u. c #FDD6C200",
"i. c #FFD5C000",
"p. c #FFD6C100",
"a. c #FFD8C300",
"s. c #FED9C500",
"d. c #FEDBC800",
"f. c #FFDCC900",
"g. c #FEDECB00",
"h. c #F6EFC300",
"j. c #FFFFC900",
"k. c #F9F6D800",
"l. c #FBF9D100",
"z. c #FFFED900",
"x. c #FFFFDC00",
"c. c #F9F6E800",
"v. c #FFFFE600",
"b. c #FFFFF600",
"n. c #FFFFF900",
"m. c gray100",
"M. c None",
/* pixels */
"M.M.M.M.M.M.M.M.M.M.M.M.M.M.M.M.",
"M.M.M.M.M.M.M.M.M.M.M.M.M.M.M.M.",
"M.W < # # # < T M.M.M.M.M.M.M.M.",
"M.< 1.d.d.d.2.& D ^ N # B K M.M.",
"M.# s.&.+.,.p.B U F A [ ` # M.M.",
"M.# a.o.+.0.! D K ; / & # + T M.",
"M.# p.U + + 7 T & ( } 8.d.$.< M.",
"M.# E  .7.< Y < L >.@.=.,.d.+ M.",
"M.# @ q. .J V : ] -.X.x k j m M.",
"M.# @ p.$.Q H 6 # ) v n g z s M.",
"M.@ @ 6.*.>.| Z G 3 x i { u e M.",
"M.+ @ 6._ &.4.Z 6 b d u u u w a ",
"M.3 + <.4.4.` % I l l.n.v.j.e.8 ",
"M.M 2 : + + + M M d x.b.x.y.t.X ",
"M.M.M.M.M.M.M.M.M.p h.c.k.r.w.  ",
"M.M.M.M.M.M.M.M.M.h q 8 O X   0 "
};
