/* XPM */
static char *merged_file_xpm[] = {
/* columns rows colors chars-per-pixel */
"16 16 125 2",
"   c #010101",
".  c #0c0c0c",
"X  c #1d222b",
"o  c #1e2533",
"O  c #262720",
"+  c #282429",
"@  c #22273b",
"#  c #252831",
"$  c #202a38",
"%  c #087158",
"&  c #277c5e",
"*  c #2b795e",
"=  c #257e63",
"-  c #4e5151",
";  c #504f53",
":  c #525354",
">  c #5e5d76",
",  c #5e5e79",
"<  c #437665",
"1  c #487b6b",
"2  c #605f7c",
"3  c #6c6c6c",
"4  c #62607d",
"5  c #6b6b75",
"6  c #71716f",
"7  c #717274",
"8  c #626080",
"9  c #777780",
"0  c #238162",
"q  c #3a916d",
"w  c #379170",
"e  c #48816f",
"r  c #478d71",
"t  c #4c8672",
"y  c #4d8976",
"u  c #4a9073",
"i  c #57a37d",
"p  c #549694",
"a  c #509c98",
"s  c #59a183",
"d  c #64a087",
"f  c #61a887",
"g  c #62ae89",
"h  c #6eb695",
"j  c #7ab28f",
"k  c #7bb396",
"l  c #a39d52",
"z  c #ae9c60",
"x  c #afa65b",
"c  c #cfbb7a",
"v  c #989496",
"b  c #9c929c",
"n  c #99999a",
"m  c #8cbaac",
"M  c #96b8a3",
"N  c #9abba6",
"B  c #a89a94",
"V  c #a19ba0",
"C  c #a6b68e",
"Z  c #baa18d",
"A  c #bdb09b",
"S  c #a1a1a1",
"D  c #aaaaaa",
"F  c #b7b7b7",
"G  c #bbbcbe",
"H  c #aeade6",
"J  c #b2b9f1",
"K  c #9ac7b7",
"L  c #b8c396",
"P  c #a5c1a9",
"I  c #a9c8ba",
"U  c #b0c1b6",
"Y  c #b5c7bb",
"T  c #b5cab6",
"R  c #b3c8b9",
"E  c #bfe1bf",
"W  c #a8c8cb",
"Q  c #b1c9c2",
"!  c #bfced6",
"~  c #bdd3c3",
"^  c #c7ba98",
"/  c #d5b88c",
"(  c #d9c59f",
")  c #c8cbab",
"_  c #c2d5bd",
"`  c #c2dbbd",
"'  c #d6c6b1",
"]  c #c2c2c2",
"[  c #c7c8c9",
"{  c #cfcfcf",
"}  c #c3ddc1",
"|  c #ced9c7",
" . c #c0d0d9",
".. c #d0d3cd",
"X. c #d4ddcb",
"o. c #d3d4d4",
"O. c #c4d0e9",
"+. c #cfd2ec",
"@. c #d3d4f5",
"#. c #d8d5f7",
"$. c #deddf2",
"%. c #c5e1c5",
"&. c #cde4cd",
"*. c #cfe9cf",
"=. c #d1e3c9",
"-. c #d4e8d5",
";. c #dcecd3",
":. c #dee5f6",
">. c #e3e8d2",
",. c #e0efda",
"<. c #f2e5c7",
"1. c #e0e0e0",
"2. c #e4e4ee",
"3. c #e5e9ed",
"4. c #eceded",
"5. c #e9f5e4",
"6. c #f2f1ea",
"7. c #f8f6ef",
"8. c #f8ffe5",
"9. c #fbf9ed",
"0. c #f5f4f3",
"q. c #f9f7f1",
"w. c #fdfcf4",
"e. c #fefefd",
"r. c None",
/* pixels */
"r.  r.. X X # o o # @ O + . r.  ",
"r.  r.7 <.' ( ( / ^ c Z ) 7 r.  ",
"r.  r.7 H z B x n V l b A 7 r.  ",
"r.  r.8 J C U L Q ~ R _ X.: r.  ",
"r.  r.8 O.E } =.} ` =.%.&.: r.  ",
"r.  r.4  .` T u < 1 r P *.- r.  ",
"r.  r.8  .` * q N M w s ,.: r.  ",
"r.  r.8 +.j 0 | &.>.>.E -.: r.  ",
"r.  r., :.i y ,.R p a K 5.: r.  ",
"r.  r.> 3.k e 8.E h 0 g e.: r.  ",
"r.  r., #...% m 6.e.d s e.: r.  ",
"r.  r., @.7.W = e t & I e.: r.  ",
"r.  r.4 $.9.w.6.} &.6.q.e.: r.  ",
"r.  r.> $.e.w.e.e.e.e.q.q.: r.  ",
"r.  r.5 2.0.4.1.o.[ ] G o.3 r.  ",
"r.  r.6 o.n S D F ] o.o.0.7 r.  "
};
