/* XPM */
static char *merged_file[] = {
/* columns rows colors chars-per-pixel */
"16 16 113 2",
"   c #9B5A3D00",
".  c #FF330000",
"X  c #C25E3200",
"o  c #C45F3200",
"O  c #C55F3200",
"+  c #C5603300",
"@  c #CB623400",
"#  c #CC633400",
"$  c #CE643500",
"%  c #D1653600",
"&  c #D2663600",
"*  c #D4683700",
"=  c #D7683700",
"-  c #D86A3800",
";  c #DB6B3900",
":  c #DF6B3800",
">  c #DE6D3A00",
",  c #DF6D3B00",
"<  c #E16F3C00",
"1  c #E4723F00",
"2  c #ED723C00",
"3  c #E4734100",
"4  c #E8744000",
"5  c #EA764300",
"6  c #EB774400",
"7  c #E8794700",
"8  c #EC794600",
"9  c #EE7D4B00",
"0  c #EF804F00",
"q  c #ED875900",
"w  c #F0845400",
"e  c #F3865600",
"r  c #F0885900",
"t  c #F08A5C00",
"y  c #F28A5D00",
"u  c #F4895B00",
"i  c #F48A5C00",
"p  c #F58C5F00",
"a  c #F18D6000",
"s  c #F18E6100",
"d  c #F18F6200",
"f  c #F58D6000",
"g  c #F58E6100",
"h  c #F5906400",
"j  c #F5916500",
"k  c #F5926600",
"l  c #F5936700",
"z  c #F5946800",
"x  c #F6946900",
"c  c #F6956A00",
"v  c #F6966B00",
"b  c #F6966C00",
"n  c #F6976D00",
"m  c #F6986E00",
"M  c #F6986F00",
"N  c #F7997000",
"B  c #F79A7100",
"V  c #F79B7200",
"C  c #F79C7300",
"Z  c #F79D7500",
"A  c #F89E7600",
"S  c #F89F7700",
"D  c #F8A07800",
"F  c #F8A17900",
"G  c #F8A17A00",
"H  c #F8A27B00",
"J  c #F8A37C00",
"K  c #F8A47D00",
"L  c #F8A57F00",
"P  c #F6A58100",
"I  c #F6A78400",
"U  c #F7A78500",
"Y  c #F7A98800",
"T  c #F7AB8900",
"R  c #F7AC8B00",
"E  c #F7AE8D00",
"W  c #F8A58000",
"Q  c #F8A68100",
"!  c #F9A78200",
"~  c #F9A98400",
"^  c #F9AA8500",
"/  c #F9AB8600",
"(  c #FAAC8900",
")  c #FAAD8A00",
"_  c #FAAE8B00",
"`  c #F8AE8E00",
"'  c #FAAF8C00",
"]  c #F8B09100",
"[  c #FAB29000",
"{  c #FAB29200",
"}  c #F8B39400",
"|  c #F8B39500",
" . c #FAB49400",
".. c #FBB69600",
"X. c #FBB79700",
"o. c #F9B59800",
"O. c #F9B69900",
"+. c #F9B89B00",
"@. c #F9BA9D00",
"#. c #F9BB9F00",
"$. c #FCBA9C00",
"%. c #FABDA100",
"&. c #FBC1A600",
"*. c #FCCDB700",
"=. c #FDD0BB00",
"-. c #FED2BD00",
";. c #FED4C100",
":. c #FED6C200",
">. c #FED7C400",
",. c #FED8C600",
"<. c #FED9C700",
"1. c gray100",
"2. c None",
/* pixels */
"2.2.2.2.2.2.2.2.2.2.2.2.2.2.2.2.",
"2.2.d d d t r w 9 9 6 7 2.2.2.2.",
"2.2.d ,.,.>.:.-.-.*.2 q 3   2.2.",
"1.1.1.>.1.1.1.$.o...2 &.t , 2.2.",
"1.. 1.:.1.. 1...[ ' 2 2 2 < 2.2.",
"1.. 1.1.1.. 1.[ ' ~ ! K %., 2.2.",
"1.. . 1.. . 1.( ~ ! J D +.; 2.2.",
"2.1.. . . 1.( ~ ! J S V o.= 2.2.",
"1.1.1.. 1.1.1.L D S V n | * 2.2.",
"1.. . . . . 1.D Z V n x ] % 2.2.",
"2.1.. . . 1.D C n c h f ' # 2.2.",
"2.2.1.. 1.Z V n x h f i T # 2.2.",
"2.2.7 1.S V n c d i u e U O 2.2.",
"2.2.6 +.+.o.[ ] ] T T U P X 2.2.",
"2.2.4 3 < , ; = % # @ O X O 2.2.",
"2.2.2.2.2.2.2.2.2.2.2.2.2.2.2.2."
};
