/* XPM */
static char *missing_folder[] = {
/* columns rows colors chars-per-pixel */
"16 16 119 2",
"   c #E2744300",
".  c #E2744400",
"X  c #E2754400",
"o  c #E3764500",
"O  c #E4764500",
"+  c #E5774600",
"@  c #E5784600",
"#  c #E5784700",
"$  c #E3794A00",
"%  c #E4794900",
"&  c #E5794900",
"*  c #E57A4B00",
"=  c #E57B4B00",
"-  c #E67B4A00",
";  c #E57C4C00",
":  c #E57D4D00",
">  c #E67D4D00",
",  c #E77D4D00",
"<  c #E97B4900",
"1  c #E97B4A00",
"2  c #E97C4B00",
"3  c #E87D4C00",
"4  c #E87D4D00",
"5  c #E97F4E00",
"6  c #E67E5000",
"7  c #EE804E00",
"8  c #E7805100",
"9  c #E7825500",
"0  c #EB815000",
"q  c #EA825200",
"w  c #E8825400",
"e  c #E9835500",
"r  c #E9845500",
"t  c #E9855700",
"y  c #EA855700",
"u  c #EF825000",
"i  c #EE835200",
"p  c #EA865800",
"a  c #EC875900",
"s  c #EF885800",
"d  c #EF8A5B00",
"f  c #ED8B5D00",
"g  c #EC8C5F00",
"h  c #ED8C5F00",
"j  c #F0824F00",
"k  c #F0855400",
"l  c #ED8E6100",
"z  c #EF906300",
"x  c #EF906400",
"c  c #EE926600",
"v  c #E8906800",
"b  c #EA916900",
"n  c #ED926900",
"m  c #EF956A00",
"M  c #EC956C00",
"N  c #ED9C7700",
"B  c #F08D6000",
"V  c #F1976C00",
"C  c #F29A6F00",
"Z  c #F59A6E00",
"A  c #F19C7400",
"S  c #FF9F7000",
"D  c #F6A17600",
"F  c #F7A07800",
"G  c #FDA37600",
"H  c #F9A87F00",
"J  c #ECA38100",
"K  c #EDA58400",
"L  c #EEA78800",
"P  c #EEA88800",
"I  c #F2AA8900",
"U  c #FFB18900",
"Y  c #FFB28900",
"T  c #FFB48C00",
"R  c #FFB48E00",
"E  c #FFB68F00",
"W  c #F0B19600",
"Q  c #F2B99F00",
"!  c #F5BA9C00",
"~  c #FFB59100",
"^  c #FFB79100",
"/  c #FEB89400",
"(  c #FEBD9A00",
")  c #F3BFA700",
"_  c #F6BDA300",
"`  c #F8BFA400",
"'  c #FFC09F00",
"]  c #F7C2A800",
"[  c #FBC0A400",
"{  c #FFC1A100",
"}  c #F9C4AB00",
"|  c #F9C5AC00",
" . c #F7C8B100",
".. c #F9CAB300",
"X. c #FECAB100",
"o. c #FECBB200",
"O. c #FFCBB200",
"+. c #FFCBB300",
"@. c #FECEB700",
"#. c #FFCEB600",
"$. c #FFCEB700",
"%. c #F9CEB900",
"&. c #F9CFBB00",
"*. c #FFD1BA00",
"=. c #FFD1BB00",
"-. c #FED2BB00",
";. c #FCD3BE00",
":. c #FFD2BC00",
">. c #FDD6C200",
",. c #FFD5C000",
"<. c #FFD6C100",
"1. c #FFD8C300",
"2. c #FED9C500",
"3. c #FFD9C500",
"4. c #FEDBC800",
"5. c #FFDCC900",
"6. c #FEDECB00",
"7. c gray100",
"8. c None",
/* pixels */
"8.8.8.8.8.8.8.8.8.8.8.8.8.8.8.8.",
"8.8.8.8.8.8.8.8.8.8.8.8.8.8.8.8.",
"8.m > X X X > x 8.8.8.8.8.8.8.8.",
"8.>  .4.4.4...$ y V 8 X 9 g 8.8.",
"8.X 2.^ E { <.9 l p r H D X 8.8.",
"8.X 1.Y E -.N y g = C $ X   x 8.",
"8.X <.l     6 x $ Z J &.4.! > 8.",
"8.X n L %.> z > l [ W ( { 4.  8.",
"8.X . =.P f 0 - G ) I E T 2.. 8.",
"8.X . <._ M d 5 X A ! [ Y <.  8.",
"8..   $./ ] K e s > a L -.=.  8.",
"8..   @.S ^ X.e 5 i 0 v @.@.  8.",
"8.2   } X.X.F + k # v } X._ + 8.",
"8.7 < -     X 7 7 <       + i 8.",
"8.8.8.8.8.8.8.8.8.8.8.8.8.8.8.8.",
"8.8.8.8.8.8.8.8.8.8.8.8.8.8.8.8."
};
