/* XPM */
static char *missing_file[] = {
/* columns rows colors chars-per-pixel */
"16 16 124 2",
"   c #2E170E00",
".  c #4D2D1E00",
"X  c #5E301C00",
"o  c #7C412600",
"O  c #88452800",
"+  c #944F3000",
"@  c #A3543100",
"#  c #AF5A3500",
"$  c #AD5E3A00",
"%  c #BA613900",
"&  c #BD633B00",
"*  c #955E4500",
"=  c #C1653D00",
"-  c #C0673F00",
";  c #DF6B3800",
":  c #ED723C00",
">  c #C66A4000",
",  c #C76F4700",
"<  c #CD6E4300",
"1  c #CB714800",
"2  c #CA754F00",
"3  c #D16E4200",
"4  c #D0704500",
"5  c #D6734700",
"6  c #D4754A00",
"7  c #D6744900",
"8  c #DB7C5200",
"9  c #DF7D5100",
"0  c #E17A4C00",
"q  c #E27B4D00",
"w  c #E27C4E00",
"e  c #EB774400",
"r  c #DF865F00",
"t  c #E3835900",
"y  c #E1845A00",
"u  c #E1845B00",
"i  c #E6865B00",
"p  c #E8875C00",
"a  c #E9895F00",
"s  c #EA8B6100",
"d  c #E98D6400",
"f  c #EC8E6400",
"g  c #E88F6900",
"h  c #ED906600",
"j  c #EB926A00",
"k  c #ED926900",
"l  c #EE956C00",
"z  c #EE976F00",
"x  c #EB997400",
"c  c #EF987100",
"v  c #EF9E7A00",
"b  c #F09B7400",
"n  c #F09B7500",
"m  c #F29F7A00",
"M  c #F3A07B00",
"N  c #F0A27F00",
"B  c #F7A07900",
"V  c #F7A17A00",
"C  c #F4A27D00",
"Z  c #F7A37E00",
"A  c #F8A47D00",
"S  c #F8A47E00",
"D  c #F3A78600",
"F  c #F3AC8D00",
"G  c #F5AF8F00",
"H  c #F8A68200",
"J  c #F8A78300",
"K  c #F9A98600",
"L  c #F9AA8700",
"P  c #F9AB8700",
"I  c #F9AC8900",
"U  c #F8AC8A00",
"Y  c #F9AD8A00",
"T  c #F9AF8D00",
"R  c #F7B08F00",
"E  c #F9B08F00",
"W  c #F6B69900",
"Q  c #F9B39300",
"!  c #FAB19000",
"~  c #FAB29100",
"^  c #F8B49500",
"/  c #FAB49400",
"(  c #FAB59500",
")  c #FAB69600",
"_  c #FBB69600",
"`  c #FBB69700",
"'  c #FBB79700",
"]  c #FAB79800",
"[  c #FBB79800",
"{  c #FBB89900",
"}  c #FAB99A00",
"|  c #FBB99A00",
" . c #FBB99B00",
".. c #FBBA9B00",
"X. c #F9B99C00",
"o. c #F9BA9D00",
"O. c #F8BA9F00",
"+. c #FBBC9D00",
"@. c #FBBC9E00",
"#. c #FCBD9F00",
"$. c #F9BCA000",
"%. c #F9BEA200",
"&. c #FCBEA200",
"*. c #FCBFA200",
"=. c #FAC0A500",
"-. c #FCC1A500",
";. c #FAC1A900",
":. c #FBC3A900",
">. c #FBC3AA00",
",. c #FBC4AB00",
"<. c #FBC5AD00",
"1. c #FCCBB500",
"2. c #FCCDB700",
"3. c #FCCDB800",
"4. c #FCD0BA00",
"5. c #FDD1BD00",
"6. c #FDD2BD00",
"7. c #FDD2BF00",
"8. c #FDD4C000",
"9. c #FDD4C100",
"0. c #FED5C200",
"q. c #FED6C300",
"w. c gray100",
"e. c None",
/* pixels */
"e.e.e.e.e.e.e.e.e.e.e.e.e.e.e.e.",
"e.e.M C m b c z f s e u e.e.e.e.",
"e.e.C q.q.q.8.6.3.3.: g 8 * e.e.",
"e.e.m q.-.&.&.{ [ ( : ,.j 6 e.e.",
"e.e.b q.&.+.{ [ ( ~ : : : ; e.e.",
"e.e.z 6.+.{ [ ( ~ E Y K :.3 e.e.",
"e.e.k 4.[ ( ( { [ Y K H =.< e.e.",
"e.e.f 2.( { ,.:.,.K H Z %.> e.e.",
"e.e.s 1.:.<.G p O.U Z B %.& e.e.",
"e.e.i m W d 0 0 F E B C +.% e.e.",
"e.e.u 9 w 6 $ 6 x Q B ^ N @ e.e.",
"e.e.e.2 1 . e.& u { ^ R &   e.e.",
"e.e.e.e.e.e.e.+ 3 t D , X e.e.e.",
"e.e.e.e.e.e.e.e.o @ # O e.e.e.e.",
"e.e.e.e.e.e.e.e.e.e.e.e.e.e.e.e.",
"e.e.e.e.e.e.e.e.e.e.e.e.e.e.e.e."
};
