/* XPM */
static char *modified_file_xpm[] = {
/* columns rows colors chars-per-pixel */
"16 16 140 2",
"   c #010101",
".  c #0c0c0c",
"X  c #1d222b",
"o  c #1e2533",
"O  c #272720",
"+  c #282429",
"@  c #22273b",
"#  c #252831",
"$  c #202a38",
"%  c #470d00",
"&  c #480d03",
"*  c #5d000d",
"=  c #62130d",
"-  c #6d170f",
";  c #554c4e",
":  c #534f51",
">  c #525152",
",  c #5c5f7a",
"<  c #5c637b",
"1  c #615f7e",
"2  c #6c6c6d",
"3  c #6a6a75",
"4  c #71716f",
"5  c #717274",
"6  c #5c6680",
"7  c #5d6a84",
"8  c #5e6c8a",
"9  c #777780",
"0  c #882d07",
"q  c #8f2124",
"w  c #963727",
"e  c #ad3432",
"r  c #af3839",
"t  c #b3242c",
"y  c #b2313f",
"u  c #bd3637",
"i  c #954439",
"p  c #9d4737",
"a  c #aa452f",
"s  c #a04636",
"d  c #a5493c",
"f  c #bc442b",
"g  c #ba4a37",
"h  c #bc5c3c",
"j  c #bd5751",
"k  c #b26d4e",
"l  c #bd604d",
"z  c #bf6255",
"x  c #b87a5c",
"c  c #c02b3a",
"v  c #d02b2a",
"b  c #d23c2d",
"n  c #ff211d",
"m  c #fe2425",
"M  c #ff2826",
"N  c #fd2929",
"B  c #fe3533",
"V  c #c2413b",
"C  c #c24c35",
"Z  c #c25035",
"A  c #c85e4b",
"S  c #dd5159",
"D  c #d4636c",
"F  c #dc686b",
"G  c #e55e45",
"H  c #f34646",
"J  c #f94445",
"K  c #fd4a4c",
"L  c #ff504d",
"P  c #ee625d",
"I  c #e86367",
"U  c #e8716d",
"Y  c #ff6a6a",
"T  c #ff6d74",
"R  c #ff7777",
"E  c #a0a65a",
"W  c #adaf5e",
"Q  c #ada266",
"!  c #d0b978",
"~  c #e9807e",
"^  c #99999b",
"/  c #9a99a2",
"(  c #94a3a4",
")  c #9fa5a9",
"_  c #a6a198",
"`  c #baa08d",
"'  c #a1a3a4",
"]  c #aaacac",
"[  c #b8bca5",
"{  c #b7b7b8",
"}  c #bbbab7",
"|  c #adaee7",
" . c #afbcf3",
".. c #c18b99",
"X. c #de89af",
"o. c #c8b896",
"O. c #d6b58a",
"+. c #ddb3bb",
"@. c #d9b8b9",
"#. c #e1849a",
"$. c #ff928f",
"%. c #e998b0",
"&. c #e89cbf",
"*. c #ff99a0",
"=. c #f0a09a",
"-. c #f5aaa4",
";. c #f7a9af",
":. c #ffaaae",
">. c #ffadb7",
",. c #ebaad1",
"<. c #ecb2cf",
"1. c #ffbcc5",
"2. c #d9c49d",
"3. c #c9c8a9",
"4. c #c2c2bf",
"5. c #d7c4b0",
"6. c #ffc3bf",
"7. c #c0c0c1",
"8. c #c9c9c6",
"9. c #cfcfd0",
"0. c #d4d4d2",
"q. c #decde7",
"w. c #e1d6d0",
"e. c #ffc0ca",
"r. c #fdcbc6",
"t. c #fdcfc9",
"y. c #f5dfdb",
"u. c #ffd5d8",
"i. c #faddd9",
"p. c #e4cee8",
"a. c #ecc1e9",
"s. c #ecc7f6",
"d. c #fedbe7",
"f. c #eae1db",
"g. c #f2e4c7",
"h. c #ffe2d7",
"j. c #e4e4ec",
"k. c #fee2e5",
"l. c #f4f4f2",
"z. c None",
/* pixels */
"z.  z.. X X o o $ # @ O + . z.  ",
"z.  z.5 g.5.2.2.O.o.! ` 3.5 z.  ",
"z.. z.5 | Q _ Q ( ' E / [ 5 z.  ",
"z.  z.6  .x S G D I F P =.> z.  ",
"z.  z.8 X.n m m m m B M K : z.  ",
"z.  z.7 #.B H J K K K J Y > z.  ",
"z.  z.7 %.v & u L J = t R : z.  ",
"z.  z.7 &.b - q T g * y $.: z.  ",
"z.  z.6 ,.f a w V e e u *.: z.  ",
"z.  z.< <.Z C U % j A r >.> z.  ",
"z.  z.< a.h d :.0 ~ z p e.> z.  ",
"z.  z.< s.l i 1.-.6.k p u.> z.  ",
"z.  z.< p.;...t.r.u.@.+.k.> z.  ",
"z.  z.< q.h.k.d.k.k.k.i.y.> z.  ",
"z.  z.3 j.l.f.w.0.8.7.} 0.2 z.  ",
"z.  z.5 0.^ ' ] } 7.0.0.l.5 z.  "
};
