/* XPM */
static char *modified_folder[] = {
/* columns rows colors chars-per-pixel */
"16 16 111 2",
"   c #99482400",
".  c #C45D3000",
"X  c #C45E3100",
"o  c #C65E3100",
"O  c #CB613200",
"+  c #CD623300",
"@  c #CF633400",
"#  c #D2643400",
"$  c #D5653500",
"%  c #D5663600",
"&  c #D9673600",
"*  c #D9693700",
"=  c #DB693700",
"-  c #DE6A3700",
";  c #DD6A3800",
":  c #E26C3A00",
">  c #E6723F00",
",  c #E8703B00",
"<  c #E8713C00",
"1  c #ED713B00",
"2  c #ED723C00",
"3  c #EE743E00",
"4  c #E0724300",
"5  c #E2744300",
"6  c #EA764300",
"7  c #EB764300",
"8  c #EC754100",
"9  c #EE774200",
"0  c #ED784500",
"q  c #EE7A4800",
"w  c #EC7F4F00",
"e  c #EF7D4C00",
"r  c #E2885E00",
"t  c #EF815100",
"y  c #EF825100",
"u  c #EF835400",
"i  c #EF855600",
"p  c #ED8B5D00",
"a  c #F1865600",
"s  c #F0865800",
"d  c #F1895A00",
"f  c #F2895A00",
"g  c #F0895C00",
"h  c #F48B5B00",
"j  c #FF8B5600",
"k  c #FF8B5700",
"l  c #FF8C5700",
"z  c #FF8E5A00",
"x  c #F48F6100",
"c  c #F2916600",
"v  c #F2926700",
"b  c #F9936600",
"n  c #FF966400",
"m  c #FF976400",
"M  c #FF976500",
"N  c #FF976700",
"B  c #F89D7100",
"V  c #F6A17900",
"C  c #FFA27300",
"Z  c #FFA27400",
"A  c #FFA37400",
"S  c #F5A58100",
"D  c #FFAB8000",
"F  c #FFAD8200",
"G  c #FFAD8300",
"H  c #FFAE8300",
"J  c #FFB08700",
"K  c #FFB28800",
"L  c #FFB28A00",
"P  c #FFB48B00",
"I  c #FFB58C00",
"U  c #FBB69400",
"Y  c #FFB69000",
"T  c #FFB79200",
"R  c #FAB79A00",
"E  c #F9BA9B00",
"W  c #F9BC9E00",
"Q  c #FFBD9900",
"!  c #FFBE9A00",
"~  c #FABEA100",
"^  c #FEBEA200",
"/  c #FFBEA200",
"(  c #FFBFA200",
")  c #FFBFA300",
"_  c #FCC3A700",
"`  c #FEC4AA00",
"'  c #FFC5AB00",
"]  c #FCC7AD00",
"[  c #FCC8AC00",
"{  c #FCC9B000",
"}  c #FDCBB200",
"|  c #FFCAB100",
" . c #FFCBB200",
".. c #FECCB300",
"X. c #FDD2BB00",
"o. c #FFD0B900",
"O. c #FFD1B800",
"+. c #FFD1B900",
"@. c #FFD1BA00",
"#. c #FDD2BD00",
"$. c #FFD5BF00",
"%. c #FED6C000",
"&. c #FFD6C100",
"*. c #FED9C500",
"=. c #FFD9C400",
"-. c #FEDAC600",
";. c #FFDBC700",
":. c #FFDCC800",
">. c #FFE0CD00",
",. c gray100",
"<. c None",
/* pixels */
"<.<.<.<.<.<.<.<.<.<.<.<.<.<.<.<.",
"<.<.<.<.<.<.<.<.<.<.<.<.<.<.<.<.",
"<.W v g i i d V <.<.<.<.<.<.<.<.",
"<.v ~ -.:.-.[ e d a t 6 w p <.<.",
"<.g -.P J P @.} _ ] #.} U > <.<.",
"<.s $.D D D J T Y B 9 2 1 , r <.",
"<.u @.h 1 1 1 1 1 3 [ >.>.E 5 <.",
"<.t x S %.:.:.:.:.:.-.! ! -.; <.",
"<.w 1 @.P D D D D H D H H %.* <.",
"<.q 1 @.A C A C A A A A A @.% <.",
"<.0 1  .M M m m M M M M M  .@ <.",
"<.6 2 ` M j j j k k k z z ` o <.",
"<.9 1 b ^ ^ ^ ^ ^ _ ^ ^ ^ R . <.",
"<.4 : : - = & $ # @ + O o .   <.",
"<.<.<.<.<.<.<.<.<.<.<.<.<.<.<.<.",
"<.<.<.<.<.<.<.<.<.<.<.<.<.<.<.<."
};
