/* XPM */
static char *modified_newer_file[] = {
/* columns rows colors chars-per-pixel */
"16 16 149 2",
"   c #C25E3200",
".  c #C45F3200",
"X  c #C55F3200",
"o  c #C5603300",
"O  c #CB623400",
"+  c #CC633400",
"@  c #CE643500",
"#  c #D1653600",
"$  c #D2663600",
"%  c #D4683700",
"&  c #D7683700",
"*  c #D86A3800",
"=  c #DB6B3900",
"-  c #DF6B3800",
";  c #DE6D3A00",
":  c #E16F3C00",
">  c #E4723F00",
",  c #95812500",
"<  c #8BB90000",
"1  c #8CBB0000",
"2  c #8EBD0000",
"3  c #8FBF0000",
"4  c #9ABD3100",
"5  c #AD9F1800",
"6  c #A0AE0D00",
"7  c #A8AC1300",
"8  c #B8A23500",
"9  c #BDB33900",
"0  c #90C00000",
"q  c #92C30000",
"w  c #93C40000",
"e  c #95C60000",
"r  c #96C70000",
"t  c #96C80000",
"y  c #97C90000",
"u  c #97CA0000",
"i  c #98CB0000",
"p  c #99CC0000",
"a  c #9ECB1E00",
"s  c #B7EC4A00",
"d  c #B7EC4B00",
"f  c #B8ED4C00",
"g  c #B8ED4D00",
"h  c #B9ED4F00",
"j  c #B9EE5000",
"k  c #BAEE5100",
"l  c #BAEF5300",
"z  c #BBEF5400",
"x  c #BBEF5500",
"c  c #BCF05600",
"v  c #BDF15700",
"b  c #BDF15800",
"n  c #BEF25A00",
"m  c #BEF25B00",
"M  c #BFF35C00",
"N  c #BFF45D00",
"B  c #BFF45E00",
"V  c #CA802C00",
"C  c #CE862F00",
"Z  c #D7863900",
"A  c #F3865600",
"S  c #F4895B00",
"D  c #F48A5C00",
"F  c #F58C5F00",
"G  c #F58D6000",
"H  c #F58E6100",
"J  c #F5906400",
"K  c #F5916500",
"L  c #F5926600",
"P  c #F5936700",
"I  c #F5946800",
"U  c #F6946900",
"Y  c #F6956A00",
"T  c #F6966B00",
"R  c #F6966C00",
"E  c #F6976D00",
"W  c #F6986E00",
"Q  c #F6986F00",
"!  c #F7997000",
"~  c #F79A7100",
"^  c #F79B7200",
"/  c #F79C7300",
"(  c #F79D7500",
")  c #F89E7600",
"_  c #F89F7700",
"`  c #E5B16700",
"'  c #E5B26800",
"]  c #E5B36900",
"[  c #E6B46A00",
"{  c #E6B46B00",
"}  c #E6B56C00",
"|  c #E6B66D00",
" . c #E6B76E00",
".. c #F8A07800",
"X. c #CDCF5900",
"o. c #CDCF5A00",
"O. c #CED05B00",
"+. c #CED15C00",
"@. c #CFD15D00",
"#. c #CFD25E00",
"$. c #CFD35F00",
"%. c #C0F35E00",
"&. c #C0F55F00",
"*. c #C0F56000",
"=. c #C1F66200",
"-. c #C1F66300",
";. c #C2F66400",
":. c #C2F76500",
">. c #C3F86700",
",. c #C4F86900",
"<. c #C4F96A00",
"1. c #C5FA6E00",
"2. c #C6FB6F00",
"3. c #C7FC7300",
"4. c #CBF17F00",
"5. c #CCF17F00",
"6. c #F6A58100",
"7. c #F6A78400",
"8. c #F7A78500",
"9. c #F7A98800",
"0. c #F7AB8900",
"q. c #F7AC8B00",
"w. c #F7AE8D00",
"e. c #F8AE8E00",
"r. c #F8B09100",
"t. c #F8B39400",
"y. c #F8B39500",
"u. c #F9B59800",
"i. c #F9B69900",
"p. c #F9B89B00",
"a. c #F9BA9D00",
"s. c #FABDA100",
"d. c #DCDD8900",
"f. c #CEF38300",
"g. c #D0F48800",
"h. c #D1F68C00",
"j. c #D3F89000",
"k. c #D4F89100",
"l. c #D5F99400",
"z. c #D6FB9800",
"x. c #D6FB9900",
"c. c #D7FC9B00",
"v. c #D8FD9C00",
"b. c #D9FE9E00",
"n. c #D9FEA000",
"m. c #DAFFA100",
"M. c #ECC99400",
"N. c gray100",
"B. c None",
/* pixels */
"B.B.B.B.B.B.B.B.B.B.B.B.B.B.B.B.",
"B.B.p p i u e e q q 4 7 B.B.B.B.",
"B.B.p m.m.v.x.x.l.j.4 a 6 , B.B.",
"B.B.u m.3.3.,.:.-.%.4 4.9 % B.B.",
"B.B.u v.1.,.:.-.b v 4 8 Z : B.B.",
"B.B.e x.:.-.M b c l $. .M.; B.B.",
"B.B.w l.-.M b z g #.} ..a.= B.B.",
"B.B.q j.M v l g #.} ..~ u.* B.B.",
"B.B.q h.v l f #.{ ) ~ R y.% B.B.",
"B.B.2 g.g s O.{ ( ~ R K r.# B.B.",
"B.B.2 f.s X.] / Q U K G w.@ B.B.",
"B.B.1 5.X.` ~ Q U K G D 0.+ B.B.",
"B.B.< d.` ~ R U K F S A 8.o B.B.",
"B.B.5 M.p.u.t.r.w.0.0.8.6.  B.B.",
"B.B.C > : ; = & # @ O X   X B.B.",
"B.B.B.B.B.B.B.B.B.B.B.B.B.B.B.B."
};
