/* XPM */
static char *modified_open_folder[] = {
/* columns rows colors chars-per-pixel */
"16 16 141 2",
"   c #5D291400",
".  c #8F533600",
"X  c #90442200",
"o  c #A7522C00",
"O  c #A5583500",
"+  c #B5512700",
"@  c #BA572C00",
"#  c #C25C3000",
"$  c #C15F3400",
"%  c #D15F2E00",
"&  c #C7673C00",
"*  c #D0633400",
"=  c #D6683800",
"-  c #DE663200",
";  c #DA693800",
":  c #E0673400",
">  c #E0693500",
",  c #E16C3900",
"<  c #EB6F3A00",
"1  c #E8733F00",
"2  c #ED713B00",
"3  c #ED723C00",
"4  c #EE733D00",
"5  c #D86F4000",
"6  c #D0764C00",
"7  c #D9714300",
"8  c #DC704100",
"9  c #DF794A00",
"0  c #EF754000",
"q  c #EE764100",
"w  c #EC784500",
"e  c #EA7E4D00",
"r  c #EC7C4A00",
"t  c #EC7D4B00",
"y  c #E57F5100",
"u  c #F07F4D00",
"i  c #E8835400",
"p  c #EF825100",
"a  c #E9855A00",
"s  c #F1825300",
"d  c #F0835500",
"f  c #F0845400",
"g  c #F1855500",
"h  c #F4885600",
"j  c #F68A5700",
"k  c #F1885900",
"l  c #F0885B00",
"z  c #F1895A00",
"x  c #F2895A00",
"c  c #F3895C00",
"v  c #F28B5C00",
"b  c #F38C5D00",
"n  c #F38D5E00",
"m  c #F38D5F00",
"M  c #F48A5C00",
"N  c #F48C5B00",
"B  c #F58C5F00",
"V  c #F68D5F00",
"C  c #FF8B5700",
"Z  c #E9916700",
"A  c #F88F6100",
"S  c #F1916500",
"D  c #F2906400",
"F  c #F2906500",
"G  c #F3926700",
"H  c #F7926200",
"J  c #F4906500",
"K  c #F5916500",
"L  c #F5976B00",
"P  c #F59A6F00",
"I  c #FB966600",
"U  c #FF926100",
"Y  c #FF926200",
"T  c #FF976500",
"R  c #FF9A6A00",
"E  c #FC9E6F00",
"W  c #FF9E6F00",
"Q  c #F59D7700",
"!  c #F69E7600",
"~  c #F4A07A00",
"^  c #F6A27D00",
"/  c #FFA27300",
"(  c #FFA17700",
")  c #FFA27400",
"_  c #FFA37400",
"`  c #F8A47E00",
"'  c #F8A67F00",
"]  c #FFA27800",
"[  c #FFA87D00",
"{  c #FFA87F00",
"}  c #F9A88100",
"|  c #FFAB8200",
" . c #FBAC8900",
".. c #F9AF8D00",
"X. c #FAAF8E00",
"o. c #FDAE8B00",
"O. c #FFAF8800",
"+. c #F8B18F00",
"@. c #FFB08A00",
"#. c #FFB38E00",
"$. c #F6B09000",
"%. c #F7B39200",
"&. c #F8B19000",
"*. c #F8B59500",
"=. c #F9B69600",
"-. c #FFB39100",
";. c #FDB69200",
":. c #FFB59000",
">. c #F9B89B00",
",. c #FDB99900",
"<. c #FCB89A00",
"1. c #FFB99800",
"2. c #FEB99B00",
"3. c #FCBB9C00",
"4. c #FEBB9E00",
"5. c #FFBF9F00",
"6. c #FABFA200",
"7. c #FDC1A300",
"8. c #FFC1A100",
"9. c #FEC3A600",
"0. c #FFC4A400",
"q. c #FFC5A700",
"w. c #FFC4A900",
"e. c #FFC6A900",
"r. c #FDC7AC00",
"t. c #FFC8AD00",
"y. c #FEC9AF00",
"u. c #FFCBAF00",
"i. c #FFCDB300",
"p. c #FFCEB500",
"a. c #FFCFB700",
"s. c #FCCFB800",
"d. c #FDD1BA00",
"f. c #FFD0B900",
"g. c #FED1BA00",
"h. c #FFD1BA00",
"j. c #FFD2BA00",
"k. c #FFD3BC00",
"l. c #FFD3BD00",
"z. c gray100",
"x. c None",
/* pixels */
"x.x.x.x.x.x.x.x.x.x.x.x.x.x.x.x.",
"x.x.x.*.&.x.x.x.x.x.x.x.x.x.x.x.",
"x.&.S k d S P v p w t Z x.x.x.x.",
"x.S *.j.;.H k } 7.y.k i x.x.x.x.",
"x.k j.5.j.w.l.p.7.p.Q y x.x.x.x.",
"x.D 3.O.| @.[ / E ' b e 9 ; 8 x.",
"x.v ..#.R I j q p ~ $.7.s.$.6 x.",
"x.B ! 1.j 3 L r.k.u.q.q.j.7 . x.",
"x.B F O.3 2.s.#._ _ _ p.^ & x.x.",
"x.k d B K r.W T T T O.9.= O x.x.",
"x.a r 0 2.] C C U { w.A $ x.x.x.",
"x.x.q u 3.U _ -.5...v * o x.x.x.",
"x.x.< s  .>.^ S 5 # @ X x.x.x.x.",
"x.x.: , > - % +   x.x.x.x.x.x.x.",
"x.x.x.x.x.x.x.x.x.x.x.x.x.x.x.x.",
"x.x.x.x.x.x.x.x.x.x.x.x.x.x.x.x."
};
