/* XPM */
static char *modified_file[] = {
/* columns rows colors chars-per-pixel */
"16 16 149 2",
"   c #9B5A3D00",
".  c #C25E3200",
"X  c #C45F3200",
"o  c #C55F3200",
"O  c #C5603300",
"+  c #CB623400",
"@  c #CC633400",
"#  c #CE643500",
"$  c #D1653600",
"%  c #D2663600",
"&  c #D4683700",
"*  c #D7683700",
"=  c #D86A3800",
"-  c #DB6B3900",
";  c #DF6B3800",
":  c #DE6D3A00",
">  c #DF6D3B00",
",  c #E16F3C00",
"<  c #E4723F00",
"1  c #ED723C00",
"2  c #E4734100",
"3  c #E8744000",
"4  c #EA764300",
"5  c #EB774400",
"6  c #E8794700",
"7  c #EC794600",
"8  c #EE7C4800",
"9  c #EE7D4B00",
"0  c #EF7E4B00",
"q  c #EF7F4D00",
"w  c #EF804F00",
"e  c #EF815000",
"r  c #ED875900",
"t  c #F0835200",
"y  c #F0845400",
"u  c #F0855600",
"i  c #F3865600",
"p  c #F0875900",
"a  c #F0885900",
"s  c #F08A5C00",
"d  c #F28A5D00",
"f  c #F4895B00",
"g  c #F48A5C00",
"h  c #F58C5F00",
"j  c #F18D6000",
"k  c #F18E6100",
"l  c #F18F6200",
"z  c #F58D6000",
"x  c #F58E6100",
"c  c #F5906400",
"v  c #F5916500",
"b  c #F5926600",
"n  c #F5936700",
"m  c #F5946800",
"M  c #F6946900",
"N  c #F6956A00",
"B  c #F6966B00",
"V  c #F6966C00",
"C  c #F6976D00",
"Z  c #F6986E00",
"A  c #F6986F00",
"S  c #F7997000",
"D  c #F79A7100",
"F  c #F79B7200",
"G  c #F79C7300",
"H  c #F79D7500",
"J  c #F89E7600",
"K  c #F89F7700",
"L  c #F8A07800",
"P  c #F8A17900",
"I  c #F8A17A00",
"U  c #F8A27B00",
"Y  c #F8A27C00",
"T  c #F8A37C00",
"R  c #F8A37D00",
"E  c #F8A47D00",
"W  c #F8A47E00",
"Q  c #F8A57F00",
"!  c #F6A58100",
"~  c #F6A78400",
"^  c #F7A78500",
"/  c #F7A98800",
"(  c #F7AB8900",
")  c #F7AC8B00",
"_  c #F7AE8D00",
"`  c #F8A58000",
"'  c #F8A68100",
"]  c #F9A78100",
"[  c #F9A78200",
"{  c #F9A88300",
"}  c #F9A98400",
"|  c #F9AA8500",
" . c #F9AB8600",
".. c #F9AB8700",
"X. c #FAAC8800",
"o. c #FAAC8900",
"O. c #FAAD8A00",
"+. c #FAAE8B00",
"@. c #F8AE8E00",
"#. c #FAAF8C00",
"$. c #FAAF8D00",
"%. c #FAB08E00",
"&. c #FAB18F00",
"*. c #F8B09100",
"=. c #FAB29000",
"-. c #FAB29200",
";. c #F8B39400",
":. c #F8B39500",
">. c #FAB49300",
",. c #FAB49400",
"<. c #FBB59400",
"1. c #FBB59500",
"2. c #FBB69600",
"3. c #FBB79700",
"4. c #F9B59800",
"5. c #F9B69900",
"6. c #F9B89B00",
"7. c #FBB89900",
"8. c #FBB99A00",
"9. c #F9BA9D00",
"0. c #F9BB9F00",
"q. c #FCB99B00",
"w. c #FCBA9C00",
"e. c #FCBC9E00",
"r. c #FCBD9F00",
"t. c #FABDA100",
"y. c #FABEA200",
"u. c #FDBEA000",
"i. c #FAC1A600",
"p. c #FBC1A600",
"a. c #FDC1A400",
"s. c #FDC1A500",
"d. c #FBC3AA00",
"f. c #FBC6AE00",
"g. c #FDC4A900",
"h. c #FBCAB200",
"j. c #FCCCB700",
"k. c #FCCDB700",
"l. c #FDCFBA00",
"z. c #FDD0BB00",
"x. c #FED2BD00",
"c. c #FED3BE00",
"v. c #FED4C100",
"b. c #FED6C200",
"n. c #FED7C400",
"m. c #FED8C600",
"M. c #FED9C700",
"N. c gray100",
"B. c None",
/* pixels */
"B.B.B.B.B.B.B.B.B.B.B.B.B.B.B.B.",
"B.B.l l l s a u w 9 5 6 B.B.B.B.",
"B.B.l m.M.n.b.x.z.l.1 r 2   B.B.",
"B.B.l n.g.a.u.q.,.,.1 p.s > B.B.",
"B.B.s b.a.e.q.,.=.%.1 1 1 , B.B.",
"B.B.p x.e.7.,.=.#.} [ E t.> B.B.",
"B.B.u l.7.,.=.o.} [ T L 9.- B.B.",
"B.B.t j.,.%.o.} [ L K D 4.* B.B.",
"B.B.e h.#.o.{ Q L K D V :.$ B.B.",
"B.B.w f.} [ Q L H D V M =.$ B.B.",
"B.B.9 d.{ R L H D M c z _ # B.B.",
"B.B.9 p.R H D A M c z g ( @ B.B.",
"B.B.6 t.H D V M c h f u ^ O B.B.",
"B.B.4 9.7.4.:.*.#.) ( ^ ! . B.B.",
"B.B.4 < , > - * $ # + o . o B.B.",
"B.B.B.B.B.B.B.B.B.B.B.B.B.B.B.B."
};
