/* XPM */
static char *newer_folder[] = {
/* columns rows colors chars-per-pixel */
"16 16 118 2",
"   c #5A750C00",
".  c #71940400",
"X  c #71940700",
"o  c #72950700",
"O  c #72960500",
"+  c #74990400",
"@  c #769B0400",
"#  c #779D0400",
"$  c #779D0500",
"%  c #799F0400",
"&  c #7AA10400",
"*  c #7BA20500",
"=  c #7CA40500",
"-  c #7EA50600",
";  c #7EA60500",
":  c #7FA80500",
">  c #80A80600",
",  c #83AB0900",
"<  c #86B10800",
"1  c #87B00C00",
"2  c #88B30500",
"3  c #88B30600",
"4  c #89B40600",
"5  c #8AB50800",
"6  c #8CB80D00",
"7  c #88B21000",
"8  c #88B21100",
"9  c #8BB41000",
"0  c #8CB41000",
"q  c #8DB61200",
"w  c #8EB71600",
"e  c #90B81600",
"r  c #92BA1A00",
"t  c #92BA1B00",
"y  c #93BD1F00",
"u  c #8AAF2300",
"i  c #96BC2200",
"p  c #97BD2400",
"a  c #97BD2600",
"s  c #99BE2700",
"d  c #99BE2A00",
"f  c #96C02000",
"g  c #99C42600",
"h  c #9CC32B00",
"j  c #9CC02F00",
"k  c #9CC52A00",
"l  c #9DCC2A00",
"z  c #97C23100",
"x  c #9CC73000",
"c  c #A3C73B00",
"v  c #A1CC3400",
"b  c #A4C83C00",
"n  c #A6D73C00",
"m  c #A7D73C00",
"M  c #A7D73D00",
"N  c #ABCF4A00",
"B  c #A8D84000",
"V  c #ACDB4600",
"C  c #ADDE4700",
"Z  c #AEDF4700",
"A  c #AEDF4800",
"S  c #AFD75000",
"D  c #AFDB5000",
"F  c #B4D25E00",
"G  c #B4E65400",
"H  c #B5E75400",
"J  c #B5E75500",
"K  c #BAED5D00",
"L  c #BBEE5F00",
"P  c #BBEE6000",
"I  c #BBEF6000",
"U  c #BCEF6000",
"Y  c #BEEE6600",
"T  c #BFEF6900",
"R  c #BFF36500",
"E  c #C2E67400",
"W  c #C4E57A00",
"Q  c #C3EF7200",
"!  c #C1F36900",
"~  c #C1F36A00",
"^  c #C4F07400",
"/  c #C7F87500",
"(  c #C7F97700",
")  c #C5DD8400",
"_  c #C5E48000",
"`  c #C8E68500",
"'  c #CDEC8D00",
"]  c #CEE59400",
"[  c #CEE69600",
"{  c #CFE69600",
"}  c #CFE69700",
"|  c #CFF28D00",
" . c #D1EE9500",
".. c #D2EA9C00",
"X. c #D3EB9E00",
"o. c #D1ED9800",
"O. c #D4F29B00",
"+. c #D5F29B00",
"@. c #D6EEA300",
"#. c #D6EFA300",
"$. c #D9F2A800",
"%. c #D9F2A900",
"&. c #DAF3A900",
"*. c #DAF3AA00",
"=. c #DBF5AC00",
"-. c #DCF6AD00",
";. c #DDF7AF00",
":. c #D9F8A300",
">. c #DEF9B100",
",. c #DFF9B200",
"<. c #DFF9B300",
"1. c #E0F9B300",
"2. c #E0FBB300",
"3. c #E0FBB500",
"4. c #E1FBB500",
"5. c #E3FDB800",
"6. c gray100",
"7. c None",
/* pixels */
"7.7.7.7.7.7.7.7.7.7.7.7.7.7.7.7.",
"7.7.7.7.7.7.7.7.7.7.7.7.7.7.7.7.",
"7._ b j s a h S 7.7.7.7.7.7.7.7.",
"7.c ` <.3.1.o.r k g f 6 y x 7.7.",
"7.j <.! R ! :.O.'  .$.O.E , 7.7.",
"7.d -.K K K Y ^ Q V 6 4 2 < z 7.",
"7.a *.l 2 2 2 2 2 4 | 5.5.W 8 7.",
"7.i v F =.3.3.3.3.3.1.( ( <.> 7.",
"7.r 3 *.T I I I L L R L L -.> 7.",
"7.w 3 *.G G G H H H H H H &.* 7.",
"7.q 3 @.A A A A Z Z Z A A @.% 7.",
"7.6 3 ..D M M M m m m m B ... 7.",
"7.w 3 N ] ] } ] } ] ] ] ] ) X 7.",
"7.u 7 , : ; ; & % % + + . .   7.",
"7.7.7.7.7.7.7.7.7.7.7.7.7.7.7.7.",
"7.7.7.7.7.7.7.7.7.7.7.7.7.7.7.7."
};
