/* XPM */
static char *newer_file[] = {
/* columns rows colors chars-per-pixel */
"16 16 150 2",
"   c #667F1B00",
".  c #66880000",
"X  c #67880000",
"o  c #67890000",
"O  c #688B0000",
"+  c #6A8C0000",
"@  c #6D900000",
"#  c #6E920000",
"$  c #6F940000",
"%  c #70960000",
"&  c #73980000",
"*  c #749A0000",
"=  c #769D0000",
"-  c #779E0000",
";  c #79A10000",
":  c #7AA20000",
">  c #7DA60000",
",  c #7FAA0000",
"<  c #80AA0200",
"1  c #83AE0100",
"2  c #84AE0400",
"3  c #88B30500",
"4  c #8AB60600",
"5  c #8BB60800",
"6  c #8EBA0B00",
"7  c #91BE0D00",
"8  c #92BD0D00",
"9  c #91B22E00",
"0  c #9ABD3100",
"q  c #9DBE3A00",
"w  c #95C11000",
"e  c #97C41200",
"r  c #98C61000",
"t  c #9AC51600",
"y  c #9CC91500",
"u  c #9DC91900",
"i  c #9DC92100",
"p  c #9FCB2500",
"a  c #A0CB1E00",
"s  c #A1CC1C00",
"d  c #A5D91E00",
"f  c #A3CE2200",
"g  c #A4CE2100",
"h  c #A5D02500",
"j  c #A6D12500",
"k  c #A7DA2300",
"l  c #A9D32C00",
"z  c #AAD52B00",
"x  c #AAD42C00",
"c  c #ABD52E00",
"v  c #A8DB2400",
"b  c #A9DD2700",
"n  c #A9DD2800",
"m  c #AADD2900",
"M  c #ABDE2C00",
"N  c #ABDF2D00",
"B  c #ACDF2E00",
"V  c #ACDF2F00",
"C  c #ADE03000",
"Z  c #ADE13100",
"A  c #ADE13200",
"S  c #AEE23300",
"D  c #AEE23500",
"F  c #AFE33600",
"G  c #AFE33700",
"H  c #B0E43900",
"J  c #B1E53A00",
"K  c #B1E53B00",
"L  c #B1E53C00",
"P  c #B2E63E00",
"I  c #B2E63F00",
"U  c #B3E74000",
"Y  c #B3E74100",
"T  c #B4E84200",
"R  c #B4E84300",
"E  c #B5E94400",
"W  c #B5E94500",
"Q  c #B5E94600",
"!  c #B6EA4600",
"~  c #B6EA4700",
"^  c #B6EA4800",
"/  c #B7EB4900",
"(  c #B7EB4A00",
")  c #B7EC4A00",
"_  c #B7EC4B00",
"`  c #B8ED4C00",
"'  c #B8ED4D00",
"]  c #B9ED4F00",
"[  c #BDE15A00",
"{  c #BEE25D00",
"}  c #BEE35E00",
"|  c #B9EE5000",
" . c #BAEE5100",
".. c #BAEF5300",
"X. c #BBEF5400",
"o. c #BBEF5500",
"O. c #BCF05600",
"+. c #BDF15700",
"@. c #BDF15800",
"#. c #BEF25A00",
"$. c #BEF25B00",
"%. c #BFF35C00",
"&. c #BFF45D00",
"*. c #BFF45E00",
"=. c #BFE46000",
"-. c #C0F35E00",
";. c #C0F55F00",
":. c #C1E46200",
">. c #C1E56400",
",. c #C2E66600",
"<. c #C2E66700",
"1. c #C3E86900",
"2. c #C3E86A00",
"3. c #C5E96D00",
"4. c #C5E96E00",
"5. c #C6EB7000",
"6. c #C7EB7200",
"7. c #C8EC7400",
"8. c #C8ED7600",
"9. c #C9EE7800",
"0. c #CAEE7A00",
"q. c #CAEF7B00",
"w. c #C0F56000",
"e. c #C1F66200",
"r. c #C1F66300",
"t. c #C2F66400",
"y. c #C2F76500",
"u. c #C3F86700",
"i. c #C4F86900",
"p. c #C4F96A00",
"a. c #C5FA6E00",
"s. c #C6FB6F00",
"d. c #C7FC7300",
"f. c #CBF17F00",
"g. c #CCF17F00",
"h. c #CEF38300",
"j. c #D0F48800",
"k. c #D1F68C00",
"l. c #D3F89000",
"z. c #D4F89100",
"x. c #D5F99400",
"c. c #D6FB9800",
"v. c #D6FB9900",
"b. c #D7FC9B00",
"n. c #D8FD9C00",
"m. c #D9FE9E00",
"M. c #D9FEA000",
"N. c #DAFFA100",
"B. c gray100",
"V. c None",
/* pixels */
"V.V.V.V.V.V.V.V.V.V.V.V.V.V.V.V.",
"V.V.z c c h g s y r q 8 V.V.V.V.",
"V.V.c N.N.n.b.v.x.z.0 i 4   V.V.",
"V.V.l N.d.a.i.t.r.-.0 f.p 1 V.V.",
"V.V.h n.a.i.t.r.@.+.0 0 0 9 V.V.",
"V.V.f v.u.r.&.@.X..._ W 0., V.V.",
"V.V.a x.r.&.@.X.' ( W U 8.> V.V.",
"V.V.u l.%.+...' ( W U K 6.; V.V.",
"V.V.t k.+...' W R I K F 3.= V.V.",
"V.V.e j.' _ W R I K F B 1.* V.V.",
"V.V.w h._ W U K F Z B n ,.% V.V.",
"V.V.8 g.W U K F Z N n v :.# V.V.",
"V.V.6 0.I K F C N b k d } + V.V.",
"V.V.5 0.7.6.3.1.,.:.:.} [ o V.V.",
"V.V.3 2 < > ; = & $ + O o o V.V.",
"V.V.V.V.V.V.V.V.V.V.V.V.V.V.V.V."
};
