/* XPM */
static char *newer_open_folder[] = {
/* columns rows colors chars-per-pixel */
"16 16 142 2",
"   c #35460600",
".  c #556F0B00",
"X  c #5D791C00",
"o  c #68880A00",
"O  c #6C8D0B00",
"+  c #64831000",
"@  c #67861800",
"#  c #70930800",
"$  c #72950E00",
"%  c #779E0500",
"&  c #789D0B00",
"*  c #7A9F1500",
"=  c #7DA50600",
"-  c #7DA40A00",
";  c #82AA0600",
":  c #81A90800",
">  c #80A80A00",
",  c #82A71300",
"<  c #83AA1200",
"1  c #84A91500",
"2  c #84AC1100",
"3  c #88B30500",
"4  c #89B40600",
"5  c #8AB50800",
"6  c #8CB80D00",
"7  c #8DB80E00",
"8  c #8AB21000",
"9  c #8AB41100",
"0  c #8EB61300",
"q  c #8AB41B00",
"w  c #91B91A00",
"e  c #91BB1A00",
"r  c #91BD1B00",
"t  c #94BB1E00",
"y  c #85AD2200",
"u  c #92BC2500",
"i  c #96BF2200",
"p  c #97BF2500",
"a  c #98BF2700",
"s  c #99BF2800",
"d  c #9BBF2D00",
"f  c #9BBE3B00",
"g  c #96C02800",
"h  c #98C02400",
"j  c #9BC12B00",
"k  c #9CC52D00",
"l  c #9EC72F00",
"z  c #9BCA2700",
"x  c #9ECB2E00",
"c  c #9FCB2E00",
"v  c #9ECC2C00",
"b  c #9FC43400",
"n  c #9FC63600",
"m  c #A0C63400",
"M  c #A0C73500",
"N  c #A0C73600",
"B  c #A2C43C00",
"V  c #A3C53C00",
"C  c #A3C73D00",
"Z  c #A1C93700",
"A  c #A2C83900",
"S  c #A3CB3900",
"D  c #A0C93E00",
"F  c #A4C93D00",
"G  c #A5CB3F00",
"H  c #A5CD3F00",
"J  c #A4D43700",
"K  c #A7D73C00",
"L  c #ADCF5100",
"P  c #A8D14300",
"I  c #AAD14600",
"U  c #ADD54F00",
"Y  c #A9DA4000",
"T  c #ACD94700",
"R  c #AEDF4800",
"E  c #AFD15300",
"W  c #AFD15400",
"Q  c #B3D05E00",
"!  c #B4D75D00",
"~  c #B4DC5A00",
"^  c #B7DD5E00",
"/  c #B8DB6600",
"(  c #B9DF6300",
")  c #BDDF6E00",
"_  c #BEDE6F00",
"`  c #BCD87000",
"'  c #BED97600",
"]  c #BEDC7100",
"[  c #BEDD7300",
"{  c #AFE04A00",
"}  c #B0E14C00",
"|  c #B3E15400",
" . c #B4E65400",
".. c #B5E75400",
"X. c #B5E75500",
"o. c #BCE16B00",
"O. c #BAE86000",
"+. c #BCE96500",
"@. c #BFEA6D00",
"#. c #C0DB7800",
"$. c #C0EA6F00",
"%. c #C0E07400",
"&. c #C0E17400",
"*. c #C2E77400",
"=. c #C2E17900",
"-. c #C3EB7400",
";. c #C3ED7300",
":. c #C5E97B00",
">. c #C6DC8700",
",. c #C6E28400",
"<. c #C7E88000",
"1. c #C8E28600",
"2. c #C8E68400",
"3. c #C8E78500",
"4. c #CBE48E00",
"5. c #C8E88500",
"6. c #CCEE8800",
"7. c #CBE49000",
"8. c #CCF08600",
"9. c #CDF18900",
"0. c #CEF38A00",
"q. c #CFF48E00",
"w. c #D0EB9400",
"e. c #D1EE9500",
"r. c #D2EA9B00",
"t. c #D4EE9D00",
"y. c #D1F29300",
"u. c #D3F29800",
"i. c #D4F59900",
"p. c #D6F1A100",
"a. c #D7F2A200",
"s. c #D7F4A100",
"d. c #D8F2A700",
"f. c #D8F4A400",
"g. c #DAF7A600",
"h. c #DAF2A800",
"j. c #DAF3A900",
"k. c #DAF4A800",
"l. c #DBF6A900",
"z. c #DCF5AC00",
"x. c gray100",
"c. c None",
/* pixels */
"c.c.c.c.c.c.c.c.c.c.c.c.c.c.c.c.",
"c.c.c.%._ c.c.c.c.c.c.c.c.c.c.c.",
"c._ V j p A I l i 0 e n c.c.c.c.",
"c.F =.g.;.J c ^ 6.u.l p c.c.c.c.",
"c.d h.8.k.y.z.s.0.f.L u c.c.c.c.",
"c.M 2.@.+.$.O. .R ~ c r q = 2 c.",
"c.M ] :.} Y z 6 h W ] 3.p.` y c.",
"c.Z W 5.v 4 P e.k.i.0.q.d.1 X c.",
"c.n V [ 5 <.h.;.X.X. .p.! * c.c.",
"c.b j A F t.| { { { -.w.- @ c.c.",
"c.f e 7 1.o.K K T o.r.H $ c.c.c.",
"c.c.5 t 4.U / ,.7.' b % + c.c.c.",
"c.c.9 p ' >.Q V , # O . c.c.c.c.",
"c.c.< ; : - & o   c.c.c.c.c.c.c.",
"c.c.c.c.c.c.c.c.c.c.c.c.c.c.c.c.",
"c.c.c.c.c.c.c.c.c.c.c.c.c.c.c.c."
};
