/* XPM */
static char *nonsvn_file_xpm[] = {
/* columns rows colors chars-per-pixel */
"16 16 58 1",
"  c #000001",
". c #0d0d0c",
"X c #141414",
"o c #5e5e76",
"O c #5e5e7a",
"+ c #61607f",
"@ c #6b6b75",
"# c #727270",
"$ c #73737f",
"% c #7e7e7f",
"& c #7f8185",
"* c #979249",
"= c #9d927b",
"- c #a39154",
"; c #a49c56",
": c #8a8887",
"> c #948c96",
", c #9d918b",
"< c #969195",
"1 c #99999a",
"2 c #a2a2a1",
"3 c #aaaaaa",
"4 c #b7b7b7",
"5 c #a3a3dd",
"6 c #bfbfc0",
"7 c #b2b9f0",
"8 c #bdc4a5",
"9 c #dec5b2",
"0 c #dfd4bb",
"q c #daddbe",
"w c #efdb9a",
"e c #e8dab8",
"r c #f6d8ad",
"t c #f9e5bf",
"y c #c4c4c5",
"u c #c5c5c8",
"i c #cccccc",
"p c #d1d1cf",
"a c #d5d5d5",
"s c #d4d1d8",
"d c #ddd9d4",
"f c #dcdcdc",
"g c #d4dbe5",
"h c #dedfe0",
"j c #dfdffe",
"k c #f7e6d1",
"l c #e2e2e2",
"z c #e4e4ee",
"x c #ececec",
"c c #e1e1f5",
"v c #e1e1f9",
"b c #efeff0",
"n c #f0efe7",
"m c #ffffe9",
"M c #f1f1f2",
"N c #fefef4",
"B c #fefefe",
"V c None",
/* pixels */
"V V:BNBBBBBNBM.V",
"V V%mkttrew9qM.V",
"V V$5-,;:<*>=hXV",
"V V+78s0gzfndyXV",
"V VOjBBBBBBBMyXV",
"V VocBBBBBBBbyXV",
"V.VovBBBBBBBMyXV",
"V VOjBBBBBBBMyXV",
"V VOjBBBBBBBMyXV",
"V VocBBBBBBBMyXV",
"V VOjBBBBBBBMyXV",
"V VOjBBBBBBBMyXV",
"V V+vBBBBBBBMiXV",
"V VOvBBBBBBBh4XV",
"V V@zMxlauy44fXV",
"V V#p12444ifxa.V"
};
