/* XPM */
static char *nonsvn_file[] = {
/* columns rows colors chars-per-pixel */
"16 16 96 2",
"   c #666F7C00",
".  c #4C478F00",
"X  c #68758B00",
"o  c #68768B00",
"O  c #69768C00",
"+  c #6A778D00",
"@  c #6A798D00",
"#  c #6E7C9200",
"$  c #6F7D9300",
"%  c #717F9600",
"&  c #71809600",
"*  c #74829800",
"=  c #74839900",
"-  c #77859C00",
";  c #78869D00",
":  c #7A889F00",
">  c #7B8AA100",
",  c #7D8CA300",
"<  c #7E8DA300",
"1  c #7F8EA600",
"2  c #8190A700",
"3  c #8392A800",
"4  c #8494AA00",
"5  c #8897AE00",
"6  c #8998AF00",
"7  c #8B9AB100",
"8  c #8E9DB400",
"9  c #919EB300",
"0  c #919FB500",
"q  c #91A0B700",
"w  c #95A3BA00",
"e  c #97A5BB00",
"r  c #97A5BC00",
"t  c #9AA7BD00",
"y  c #9AA8BE00",
"u  c #9BA9BF00",
"i  c #9CA9BF00",
"p  c #9DAABF00",
"a  c #9FACC100",
"s  c #9FACC200",
"d  c #A1AEC300",
"f  c #A2AFC400",
"g  c #A4B1C500",
"h  c #A5B0C400",
"j  c #A4B1C600",
"k  c #A8B5C800",
"l  c #A9B5C800",
"z  c #AAB6C900",
"x  c #ABB7C900",
"c  c #D8E2F700",
"v  c #DAE3F700",
"b  c #DBE4F700",
"n  c #DDE5F800",
"m  c #DFE7F800",
"M  c #E1E8F900",
"N  c #E2E9F900",
"B  c #E3EAF900",
"V  c #E4EBF900",
"C  c #E5EBF900",
"Z  c #E6ECF900",
"A  c #E6ECFA00",
"S  c #E6EDFA00",
"D  c #E7EDFA00",
"F  c #E8EDFA00",
"G  c #E9EEFA00",
"H  c #E9EEFB00",
"J  c #E9EFFA00",
"K  c #E9EFFB00",
"L  c #EAEFFB00",
"P  c #EBF0FB00",
"I  c #EDF1FB00",
"U  c #EDF2FB00",
"Y  c #EEF3F900",
"T  c #EEF2FB00",
"R  c #EFF3FB00",
"E  c #F0F4FC00",
"W  c #F1F4FC00",
"Q  c #F2F5FC00",
"!  c #F2F6FC00",
"~  c #F3F6FC00",
"^  c #F4F7FD00",
"/  c #F6F8FD00",
"(  c #F6F9FD00",
")  c #F7F9FE00",
"_  c #F8F9FE00",
"`  c #F8FAFD00",
"'  c #F9FAFE00",
"]  c #F9FBFE00",
"[  c #FAFBFE00",
"{  c #FBFCFE00",
"}  c #FCFDFE00",
"|  c #FDFEFE00",
" . c #FEFEFE00",
".. c #FEFFFF00",
"X. c gray100",
"o. c None",
/* pixels */
"o.o.o.o.o.o.o.o.o.o.o.o.o.o.o.o.",
"o.o.z z k j f a u r i 0 o.o.o.o.",
"o.o.z X.X.X.{ { ] ( u g 6   o.o.",
"o.o.z X.{ { ] ( ~ ~ u Y z 3 o.o.",
"o.o.g X.] ] ( ~ ~ R u u u 9 o.o.",
"o.o.d { X.X.X.X.X.X.X.L Y 1 o.o.",
"o.o.a ] X.. . . . . X.D Y , o.o.",
"o.o.u ( X.. X.X.X.. X.V L : o.o.",
"o.o.t ^ X.X.X.X.. X.D N L - o.o.",
"o.o.r ~ Y L X.. X.N N n L * o.o.",
"o.o.w ~ L L X.X.X.N n n D & o.o.",
"o.o.0 R L D X.. X.n n b N $ o.o.",
"o.o.8 Y D V X.X.X.n v c N @ o.o.",
"o.o.7 R P P L L D V N N N o o.o.",
"o.o.5 4 2 , > ; * % $ O o O o.o.",
"o.o.o.o.o.o.o.o.o.o.o.o.o.o.o.o."
};
