/* XPM */
static char *nonsvn_open_folder[] = {
/* columns rows colors chars-per-pixel */
"16 16 109 2",
"   c #4C478F00",
".  c #866D2700",
"X  c #87763600",
"o  c #9C802F00",
"O  c #9A833600",
"+  c #BA931B00",
"@  c #AB882900",
"#  c #AF8E2900",
"$  c #B7973200",
"%  c #C29A1C00",
"&  c #C89E1C00",
"*  c #C09A2200",
"=  c #C59E2C00",
"-  c #C0993100",
";  c #D3A61D00",
":  c #C7A22A00",
">  c #CBA12600",
",  c #CCA12D00",
"<  c #CCAB3800",
"1  c #D4A82100",
"2  c #D1A82C00",
"3  c #D5AA2A00",
"4  c #D6AC2F00",
"5  c #DAA82D00",
"6  c #D9AE2C00",
"7  c #D1A43600",
"8  c #D6AF3500",
"9  c #D6B33A00",
"0  c #D9B03600",
"q  c #DBB53B00",
"w  c #DAB43C00",
"e  c #DCB33B00",
"r  c #C1A74300",
"t  c #DEAE4200",
"y  c #D5B14000",
"u  c #DAB44100",
"i  c #D8B64600",
"p  c #DCB74300",
"a  c #DDB64300",
"s  c #DEBA4600",
"d  c #DFBD4A00",
"f  c #DEBB5100",
"g  c #E5B54200",
"h  c #E6B84600",
"j  c #E2BB4800",
"k  c #E3BB4E00",
"l  c #E1BC4B00",
"z  c #E6BC4A00",
"x  c #E0BE5100",
"c  c #E1BE5200",
"v  c #E1BF5400",
"b  c #DDC26000",
"n  c #E2C24F00",
"m  c #E4C14D00",
"M  c #E9C24D00",
"N  c #E9C35700",
"B  c #EACA5A00",
"V  c #E5C66000",
"C  c #E5C56500",
"Z  c #E6C96300",
"A  c #E9C56400",
"S  c #EBCB6A00",
"D  c #E7CA7500",
"F  c #ECD27D00",
"G  c #EFD67900",
"H  c #F7D66C00",
"J  c #FFD26300",
"K  c #F0D67B00",
"L  c #FFDA7100",
"P  c #FFDD7C00",
"I  c #E9D28400",
"U  c #EDDA8A00",
"Y  c #EED88800",
"T  c #EEDC8F00",
"R  c #F1D28100",
"E  c #F9D58300",
"W  c #FBDF8600",
"Q  c #FFDE8000",
"!  c #FFDD8C00",
"~  c #FFDC8F00",
"^  c #F1DB9000",
"/  c #F7DE9600",
"(  c #F0DA9D00",
")  c #F4DA9800",
"_  c #FCDD9000",
"`  c #FFE08700",
"'  c #FFE08800",
"]  c #FCE29E00",
"[  c #FCE59E00",
"{  c #FCE89700",
"}  c #F6E3A800",
"|  c #FAE9A500",
" . c #FFEAA100",
".. c #FFEAA400",
"X. c #FFECAC00",
"o. c #FCE8B600",
"O. c #FDEFB300",
"+. c #FFEFB700",
"@. c #FCEEBB00",
"#. c #FDEEBA00",
"$. c #FFEFB900",
"%. c #F8F0BD00",
"&. c #FFF0BB00",
"*. c #FFF0BF00",
"=. c #FDEFC100",
"-. c #FBF3C500",
";. c #FFF3C000",
":. c gray100",
">. c None",
/* pixels */
">.>.>.>.>.>.>.>.>.>.>.>.>.>.>.>.",
">.>.>.T Y >.>.>.>.>.>.>.>.>.>.>.",
">.Y f p w x Z d q 3 8 b >.>.>.>.",
">.v ^ ;.{ B m K | O.s i >.>.>.>.",
">.u #. .&.X.*.+...#.C y >.>.>.>.",
">.l / ` P ` P L H G n 9 < % : >.",
">.j R ~ J :.:.:.:.:.:.:.%.I r >.",
">.z A ~ M :.          :.-.= X >.",
">.h k E 1 :.  :.:.:.  :.F $ >.>.",
">.g e N V :.:.:.:.  :.#.* O >.>.",
">.t 4 6 } [ W :.  :.=.S # >.>.>.",
">.>.2 0 o._ ] :.:.:.x + o >.>.>.",
">.>.5 p ) ( D :.  :.@ . >.>.>.>.",
">.>.7 & > , - :.:.:.>.>.>.>.>.>.",
">.>.>.>.>.>.>.>.>.>.>.>.>.>.>.>.",
">.>.>.>.>.>.>.>.>.>.>.>.>.>.>.>."
};
