/* XPM */
static char *nonsvn_folder[] = {
/* columns rows colors chars-per-pixel */
"16 16 104 2",
"   c #4C478F00",
".  c #8F742A00",
"X  c #AF8A1900",
"o  c #B08B1900",
"O  c #B08C1E00",
"+  c #B48F1A00",
"@  c #B7901A00",
"#  c #B9921A00",
"$  c #BD961B00",
"%  c #B18C2000",
"&  c #C1981B00",
"*  c #C3991C00",
"=  c #C39A1C00",
"-  c #C69C1C00",
";  c #C69C1D00",
":  c #D59C2600",
">  c #CFA41F00",
",  c #D3A61D00",
"<  c #D3A61E00",
"1  c #D3A71E00",
"2  c #D4A71F00",
"3  c #CBA12300",
"4  c #CEA42200",
"5  c #CCA72C00",
"6  c #D1A82600",
"7  c #D2A82600",
"8  c #D4AA2800",
"9  c #D6AC2800",
"0  c #D6AC2C00",
"q  c #DAA62400",
"w  c #D5A93000",
"e  c #D7AE3000",
"r  c #D7AF3100",
"t  c #D7B33A00",
"y  c #D8B03800",
"u  c #D9B23A00",
"i  c #D9B23B00",
"p  c #D9B33F00",
"a  c #DAB33D00",
"s  c #DAB53C00",
"d  c #DAB54300",
"f  c #DBB54400",
"g  c #DCB94500",
"h  c #DDBA4400",
"j  c #DEBB4700",
"k  c #D4BC5600",
"l  c #DDBF5000",
"z  c #DFBD5200",
"x  c #DFBF5400",
"c  c #E4C24D00",
"v  c #E4C45500",
"b  c #E6CB7300",
"n  c #EED56D00",
"m  c #E9D27200",
"M  c #F0D07800",
"N  c #FBDE8600",
"B  c #FBDF8600",
"V  c #FBDF8800",
"C  c #F1DB9D00",
"Z  c #FFE58600",
"A  c #FCE58F00",
"S  c #FCE68F00",
"D  c #FFE68D00",
"F  c #F5E19300",
"G  c #F1E19900",
"H  c #F0E09A00",
"J  c #F2E29E00",
"K  c #FBE19200",
"L  c #FCE69000",
"P  c #FFE89700",
"I  c #FFEE9500",
"U  c #FFE99800",
"Y  c #FDEC9900",
"T  c #FDEC9A00",
"R  c #FFEE9800",
"E  c #FFEF9900",
"W  c #F7E7A700",
"Q  c #F8EAAE00",
"!  c #F6EAB100",
"~  c #FBEEB500",
"^  c #FBEFB700",
"/  c #FBE9B800",
"(  c #FBEDBF00",
")  c #FDEBBD00",
"_  c #FFEEBA00",
"`  c #FEF4A300",
"'  c #FEF4A800",
"]  c #FFFBB200",
"[  c #FDEFC300",
"{  c #FBF0C000",
"}  c #FBF3C700",
"|  c #FFF2C200",
" . c #FDF2C700",
".. c #FFF5C000",
"X. c #FBF5C900",
"o. c #FFF7CA00",
"O. c #FEF5CC00",
"+. c #FEF9CE00",
"@. c #FDF9D000",
"#. c #FEF9D100",
"$. c #FFFAD100",
"%. c #FFFFD900",
"&. c gray100",
"*. c None",
/* pixels */
"*.*.*.*.*.*.*.*.*.*.*.*.*.*.*.*.",
"*.*.*.*.*.*.*.*.*.*.*.*.*.*.*.*.",
"*.H x f p y g m *.*.*.*.*.*.*.*.",
"*.z J +.$.+.! r g g s 7 t z *.*.",
"*.d o.E I E ..~ W Q { ~ F 4 *.*.",
"*.p | Z Z Z D U U n 9 1 1 > k *.",
"*.y _ c 1 &.&.&.&.&.&.&.%.H 5 *.",
"*.y v b X.&.          &.] +.- *.",
"*.r 1 } ' &.  &.&.&.  &.` $.& *.",
"*.0 1 O.E &.&.&.&.  &.E T O.$ *.",
"*.7 1  .A A L &.  &.L L L  .@ *.",
"*.7 1 [ K B B &.&.&.B B V ( X *.",
"*.q 1 M ) ) ) &.  &.) ) / C X *.",
"*.: w 3 - & & &.&.&.@ + X % . *.",
"*.*.*.*.*.*.*.*.*.*.*.*.*.*.*.*.",
"*.*.*.*.*.*.*.*.*.*.*.*.*.*.*.*."
};
