/* XPM */
static char *normal_file[] = {
/* columns rows colors chars-per-pixel */
"16 16 106 2",
"   c #666F7C00",
".  c #68758B00",
"X  c #68768B00",
"o  c #69768C00",
"O  c #6A778D00",
"+  c #6A798D00",
"@  c #6E7C9200",
"#  c #6F7D9300",
"$  c #717F9600",
"%  c #71809600",
"&  c #74829800",
"*  c #74839900",
"=  c #77859C00",
"-  c #78869D00",
";  c #7A889F00",
":  c #7B8AA100",
">  c #7D8CA300",
",  c #7E8DA300",
"<  c #7F8EA600",
"1  c #8190A700",
"2  c #8392A800",
"3  c #8494AA00",
"4  c #8897AE00",
"5  c #8998AF00",
"6  c #8B9AB100",
"7  c #8E9DB400",
"8  c #919EB300",
"9  c #919FB500",
"0  c #91A0B700",
"q  c #95A3BA00",
"w  c #97A5BB00",
"e  c #97A5BC00",
"r  c #9AA7BD00",
"t  c #9AA8BE00",
"y  c #9BA9BF00",
"u  c #9CA9BF00",
"i  c #9DAABF00",
"p  c #9FACC100",
"a  c #9FACC200",
"s  c #A1AEC300",
"d  c #A2AFC400",
"f  c #A4B1C500",
"g  c #A5B0C400",
"h  c #A4B1C600",
"j  c #A8B5C800",
"k  c #A9B5C800",
"l  c #AAB6C900",
"z  c #ABB7C900",
"x  c #D8E2F700",
"c  c #DAE3F700",
"v  c #DBE4F700",
"b  c #DDE5F800",
"n  c #DEE6F800",
"m  c #DFE7F800",
"M  c #E0E8F800",
"N  c #E1E8F900",
"B  c #E2E9F900",
"V  c #E3EAF900",
"C  c #E4EBF900",
"Z  c #E5EBF900",
"A  c #E5ECF900",
"S  c #E6ECF900",
"D  c #E6ECFA00",
"F  c #E6EDFA00",
"G  c #E7EDFA00",
"H  c #E8EDFA00",
"J  c #E8EEFA00",
"K  c #E9EEFA00",
"L  c #E9EEFB00",
"P  c #E9EFFA00",
"I  c #E9EFFB00",
"U  c #EAEFFB00",
"Y  c #EBF0FB00",
"T  c #ECF1FB00",
"R  c #EDF1FB00",
"E  c #EDF2FB00",
"W  c #EEF3F900",
"Q  c #EEF2FB00",
"!  c #EFF3FB00",
"~  c #EEF2FC00",
"^  c #EEF3FC00",
"/  c #EFF3FC00",
"(  c #F0F4FC00",
")  c #F1F4FC00",
"_  c #F2F5FC00",
"`  c #F2F6FC00",
"'  c #F3F6FC00",
"]  c #F3F6FD00",
"[  c #F4F7FD00",
"{  c #F5F8FD00",
"}  c #F6F8FD00",
"|  c #F6F9FD00",
" . c #F7F9FE00",
".. c #F8F9FD00",
"X. c #F8F9FE00",
"o. c #F8FAFD00",
"O. c #F9FAFE00",
"+. c #F9FBFE00",
"@. c #FAFBFE00",
"#. c #FBFCFE00",
"$. c #FCFDFE00",
"%. c #FDFEFE00",
"&. c #FEFEFE00",
"*. c #FEFFFF00",
"=. c gray100",
"-. c None",
/* pixels */
"-.-.-.-.-.-.-.-.-.-.-.-.-.-.-.-.",
"-.-.l l j d d a y e i 9 -.-.-.-.",
"-.-.l =.=.=.=.#.+.+.r g 5   -.-.",
"-.-.l =.=.+.+.| _ _ y T z 1 -.-.",
"-.-.f =.+.+.| [ _ _ y y y 8 -.-.",
"-.-.s #.| | _ _ ~ T Y K T 1 -.-.",
"-.-.p +.[ _ _ ~ T Y K S T > -.-.",
"-.-.y | _ _ ~ T Y K S C Y ; -.-.",
"-.-.r | _ ~ T K K S V V K = -.-.",
"-.-.e [ T Y K K S V V n S & -.-.",
"-.-.q _ Y K S C V V n n S % -.-.",
"-.-.0 _ I S V V V n n c C # -.-.",
"-.-.7 T S C V V n n x x V + -.-.",
"-.-.6 T Y Y K K S C V V V . -.-.",
"-.-.5 3 1 > : - & $ @ . . . -.-.",
"-.-.-.-.-.-.-.-.-.-.-.-.-.-.-.-."
};
