/* XPM */
static char *normal_file_xpm[] = {
/* columns rows colors chars-per-pixel */
"16 16 65 1",
"  c #000001",
". c #0d0d0c",
"X c #141414",
"o c #5d5d76",
"O c #5e5e7a",
"+ c #62607f",
"@ c #6a6a75",
"# c #727270",
"$ c #73737f",
"% c #7e7e7f",
"& c #7f8185",
"* c #979249",
"= c #9d927b",
"- c #a19053",
"; c #a39c56",
": c #8a8887",
"> c #9b8e89",
", c #948c96",
"< c #959395",
"1 c #969698",
"2 c #9b9b9c",
"3 c #9e9ea0",
"4 c #a5a5a6",
"5 c #acacac",
"6 c #b6b6b5",
"7 c #bbbbba",
"8 c #a3a3dd",
"9 c #bfbfc0",
"0 c #b1b9f1",
"q c #c3c9a9",
"w c #c0c0bc",
"e c #dec5b2",
"r c #daddbe",
"t c #efdb9a",
"y c #e1d7be",
"u c #e8dab8",
"i c #f6d8ad",
"p c #f9e5bf",
"a c #c4c4c5",
"s c #c6c6c8",
"d c #cecec7",
"f c #cbcbca",
"g c #d1d1cd",
"h c #d6d6d6",
"j c #ddd9d4",
"k c #dcdcdc",
"l c #d4dbe5",
"z c #dedfe0",
"x c #dfdff7",
"c c #dcdbfa",
"v c #f7e6d0",
"b c #e4e4e3",
"n c #e5e6ee",
"m c #ededed",
"M c #e2e1f4",
"N c #e2e2fd",
"B c #efeff0",
"V c #f0efe7",
"C c #f5f4ef",
"Z c #ffffe9",
"A c #f3f3f4",
"S c #f8f7f6",
"D c #fbfbf5",
"F c #fefefd",
"G c None",
/* pixels */
"G G:FDFDFFFDFA.G",
"G G%ZvpviuterA.G",
"G G$8->;:1*,=z.G",
"G G+0qkylbzVjsXG",
"G GOck6nFFFFAsXG",
"G GoNw1kFDFFmsXG",
"G.GoMbkSFFFFAaXG",
"G GOxSbhfs7mAaXG",
"G GONd24444BAsXG",
"G GoMf45544BAsXG",
"G GOca457afDAaXG",
"G GOcCADFFFFBaXG",
"G.GoMg3aACFFAsXG",
"G Gocd<sFSFFkaXG",
"G G@nChhhsa9akXG",
"G G#h2446afhbh.G"
};
