/* XPM */
static char * open_externals_folder_xpm[] = {
"16 16 5 1",
" 	c None",
".	c #808080",
"+	c #FFFFFF",
"@	c #C0C0C0",
"#	c #000000",
"                ",
"   .....        ",
"  .+++++.       ",
" .++@+@++...... ",
" .+@+@+@++++++.#",
" .++@+@+@+@+@+.#",
".............+.#",
".++++++++++..@.#",
".++@+@+@+@++#..#",
" .++@+@+@+@+@#.#",
" .+@+@+@+@+@+#.#",
"  .+@+@+@+@++.##",
"  .............#",
"   #############",
"                ",
"                "};
