/* XPM */
static char *open_folder[] = {
/* columns rows colors chars-per-pixel */
"16 16 141 2",
"   c #56451900",
".  c #866D2700",
"X  c #87763600",
"o  c #9C802F00",
"O  c #9A833600",
"+  c #BA931B00",
"@  c #A7862E00",
"#  c #AF8C2200",
"$  c #AB882900",
"%  c #AF8E2900",
"&  c #B7973200",
"*  c #C29A1C00",
"=  c #C89E1C00",
"-  c #C09A2200",
";  c #C29C2800",
":  c #C59E2C00",
">  c #C0993100",
",  c #D3A61D00",
"<  c #D4A71F00",
"1  c #C7A22A00",
"2  c #CBA12600",
"3  c #CCA12D00",
"4  c #CCAB3800",
"5  c #D4A82100",
"6  c #D1A82C00",
"7  c #D5AA2A00",
"8  c #D6AC2800",
"9  c #D6AC2F00",
"0  c #DAA82D00",
"q  c #D9AE2C00",
"w  c #D1A43600",
"e  c #D6AF3500",
"r  c #D6B33A00",
"t  c #D9B03600",
"y  c #DBB53B00",
"u  c #DAB43C00",
"i  c #DBB53D00",
"p  c #DCB33B00",
"a  c #C1A74300",
"s  c #DEAE4200",
"d  c #D5B14000",
"f  c #DAB44100",
"g  c #D8B64600",
"h  c #DCB74300",
"j  c #DDB64300",
"k  c #DEBA4600",
"l  c #DFBD4A00",
"z  c #DEBB5100",
"x  c #DEBB5200",
"c  c #E5B54200",
"v  c #E6B84600",
"b  c #E2BB4800",
"n  c #E3BB4E00",
"m  c #E1BC4B00",
"M  c #E6BC4A00",
"N  c #E0BE5100",
"B  c #E1BE5200",
"V  c #E1BF5400",
"C  c #DDC26000",
"Z  c #E2C24F00",
"A  c #E4C04800",
"S  c #E4C14D00",
"D  c #E9C24D00",
"F  c #E9C35700",
"G  c #EACA5A00",
"H  c #F4CE5F00",
"J  c #E5C66000",
"K  c #E5C56500",
"L  c #E6C96300",
"P  c #E7CB6600",
"I  c #E5CA6C00",
"U  c #E9C56400",
"Y  c #EBCB6A00",
"T  c #E7CA7500",
"R  c #ECD27D00",
"E  c #EFD67900",
"W  c #F7D66C00",
"Q  c #FFD26300",
"!  c #F0D67B00",
"~  c #FFDA7100",
"^  c #FFDD7C00",
"/  c #E9D28400",
"(  c #EDDA8A00",
")  c #EED88800",
"_  c #EDD98C00",
"`  c #EEDC8F00",
"'  c #F1D28100",
"]  c #F9D58300",
"[  c #FBDF8600",
"{  c #FFDE8000",
"}  c #FFDD8C00",
"|  c #FFDC8F00",
" . c #F1DB9000",
".. c #F2DA9700",
"X. c #F7DE9600",
"o. c #F0DA9D00",
"O. c #F4DA9800",
"+. c #FCDD9000",
"@. c #FFE08700",
"#. c #FBE18D00",
"$. c #FFE08800",
"%. c #FCE69000",
"&. c #FCE29E00",
"*. c #FCE59E00",
"=. c #FCE89700",
"-. c #FDEC9900",
";. c #FDEC9A00",
":. c #F2E4A200",
">. c #F6E3A800",
",. c #FCE7A300",
"<. c #FAE9A500",
"1. c #FFEAA100",
"2. c #FFEAA400",
"3. c #F8E9AA00",
"4. c #FDECAB00",
"5. c #FDEFAC00",
"6. c #FFECAC00",
"7. c #FAE7B400",
"8. c #FDE7B100",
"9. c #F9EEB700",
"0. c #FCE8B600",
"q. c #FDEFB300",
"w. c #FFEFB700",
"e. c #FCEEBB00",
"r. c #FDEEBA00",
"t. c #FFEFB900",
"y. c #F8F0BD00",
"u. c #FFF0BB00",
"i. c #FFF0BF00",
"p. c #FEF7BC00",
"a. c #FEF7BD00",
"s. c #FDEFC100",
"d. c #FBF3C500",
"f. c #FFF3C000",
"g. c #FDF2C400",
"h. c #FEF5C800",
"j. c #FEF5CC00",
"k. c #FEF8C400",
"l. c #FEF9CD00",
"z. c gray100",
"x. c None",
/* pixels */
"x.x.x.x.x.x.x.x.x.x.x.x.x.x.x.x.",
"x.x.x.` ) x.x.x.x.x.x.x.x.x.x.x.",
"x.) z h u N L l y 7 e C x.x.x.x.",
"x.V  .f.=.G S ! <.q.k g x.x.x.x.",
"x.f r.1.u.6.i.w.2.r.K d x.x.x.x.",
"x.m X.@.^ @.^ ~ W E Z r 4 * 1 x.",
"x.b ' | Q H A 8 u I _ :.y./ a x.",
"x.M U | D < P 9.l.k.a.a.d.: X x.",
"x.v n ] 5 3.j.5.-.-.-.h.R & x.x.",
"x.c p F J g.=.%.%.%.6.r.- O x.x.",
"x.s 9 q >.*.[ [ #.,.s.Y % x.x.x.",
"x.x.6 t 0.+.&.8.7...N + o x.x.x.",
"x.x.0 h O.o.T z ; # $ . x.x.x.x.",
"x.x.w = 2 3 > @   x.x.x.x.x.x.x.",
"x.x.x.x.x.x.x.x.x.x.x.x.x.x.x.x.",
"x.x.x.x.x.x.x.x.x.x.x.x.x.x.x.x."
};
