/* XPM */
static char * project_remove_xpm[] = {
"16 16 8 1",
" 	c None",
".	c #808080",
"+	c #C0C0C0",
"@	c #000000",
"#	c #FFFFFF",
"$	c #7F0000",
"%	c #008080",
"&	c #FF0000",
"    ........... ",
"   .++++++++++.@",
"   .#########..@",
"   .#@@@@@@@+..@",
"$$$$$$$$$$$%+..@",
"$&&&&&&&&&$%+..@",
"$$$$$$$$$$$%+..@",
"   .#@%%%%%%+..@",
"   .#++++++++.@@",
"   ..........@.@",
"   ...........+@",
"   .++++++++++.@",
"  .@.@.@.@.@...@",
" .@+@+@+@+@+@.@ ",
".+#+++++++++.@  ",
"............@   "};
