/* XPM */
static char * project_add_xpm[] = {
"16 16 8 1",
" 	c None",
".	c #007F00",
"+	c #808080",
"@	c #00FF00",
"#	c #C0C0C0",
"$	c #000000",
"%	c #FFFFFF",
"&	c #008080",
"    ...++++++++ ",
"   +.@.#######+$",
"   +.@.%%%%%%++$",
"   +.@.$$$$$#++$",
".....@.....&#++$",
".@@@@@@@@@.&#++$",
".....@.....&#++$",
"   +.@.&&&&&#++$",
"   +.@.######+$$",
"   +.@.++++++$+$",
"   +...+++++++#$",
"   +##########+$",
"  +$+$+$+$+$+++$",
" +$#$#$#$#$#$+$ ",
"+#%#########+$  ",
"++++++++++++$   "};
