/* XPM */
static char * rapidsvn_16x16_xpm[] = {
"16 16 5 1",
" 	g None",
".	g #000000",
"+	g #C0C0C0",
"@	g #808080",
"#	g #FFFFFF",
"                ",
"  ..........+   ",
" ..........@#@  ",
" .........##@.  ",
" @.....@##@...  ",
" #######@.....  ",
" ######...+#@.  ",
" @####.....+..  ",
" .+++@........  ",
" .............  ",
" ....@@@......  ",
" ...@###@.....  ",
" ...@###@.....  ",
" ....@++......  ",
"  ...........   ",
"                "};
