/* XPM */
static char *rapidsvn_48x48_xpm[] = {
/* columns rows colors chars-per-pixel */
"48 48 5 1",
"  c black",
". c #808080",
"X c #C0C0C0",
"o c gray100",
"O c None",
/* pixels */
"OO                                   .oooooo. OO",
"O                                  .XooooooX   O",
"                                  Xooooooo.     ",
"                                .oooooooX       ",
"                               XooooooX.        ",
"                              ooooooo.          ",
"                            XooooooX            ",
"                         .Xooooooo.             ",
"                       .XooooooX.               ",
"                   ..oooooooooX                 ",
"oXX...        ..Xoooooooooooo.                  ",
"ooooooooooooooooooooooooooo.                    ",
"ooooooooooooooooooooooooX                       ",
"ooooooooooooooooooooooX                         ",
"ooooooooooooooooooooo.              .XX.        ",
"ooooooooooooooooooooX              Xooooo.      ",
"oooooooooooooooooooo.              ooooooX      ",
"oooooooooooooooooooX              .ooooooX      ",
"ooooooooooooooooooo.               Xooooo.      ",
"oooooooooooooooooo.                 .XoX.       ",
"oooooooooooooooooX                              ",
"ooooooooooooooooX                               ",
"XooooooooooooooX                                ",
"..oooooooooooX.                                 ",
"   ..XXoooXX.                                   ",
"                                                ",
"                                                ",
"                                                ",
"                                                ",
"                                                ",
"                                                ",
"                                                ",
"              .XXoooXX.                         ",
"            .oooooooooooX                       ",
"           .oooooooooooooo.                     ",
"           Xooooooooooooooo                     ",
"           oooooooooooooooo.                    ",
"           Xooooooooooooooo.                    ",
"           .ooooooooooooooo                     ",
"            .oooooooooooooX                     ",
"             Xoooooooooooo.                     ",
"              Xooooooooooo                      ",
"               XoooooooooX                      ",
"                .oooooooX                       ",
"                  XooooX                        ",
"                                                ",
"O                                              O",
"OO                                            OO"
};
