/* XPM */
static char *refresh_gray_xpm[] = {
/* columns rows colors chars-per-pixel */
"16 16 46 1",
"  c gray50",
". c #808080",
"X c #818181",
"o c gray51",
"O c #838383",
"+ c #848484",
"@ c #868686",
"# c #888888",
"$ c gray54",
"% c #8b8b8b",
"& c #8d8d8d",
"* c gray57",
"= c #929292",
"- c #959595",
"; c gray59",
": c #979797",
"> c gray60",
", c #9a9a9a",
"< c #9b9b9b",
"1 c gray61",
"2 c #9d9d9d",
"3 c gray62",
"4 c #a0a0a0",
"5 c gray63",
"6 c #a2a2a2",
"7 c #a7a7a7",
"8 c gray66",
"9 c DarkGray",
"0 c #afafaf",
"q c #b1b1b1",
"w c #b2b2b2",
"e c gray70",
"r c gray71",
"t c #b6b6b6",
"y c #b7b7b7",
"u c #b9b9b9",
"i c gray73",
"p c #bbbbbb",
"a c #bcbcbc",
"s c gray74",
"d c gray",
"f c gray75",
"g c #c0c0c0",
"h c gray77",
"j c #c6c6c6",
"k c gray86",
/* pixels */
"fffffffffufffffu",
"ffffffffffffffff",
"ffff0fjfurffffff",
"ffff<u::3$<fffff",
"fff<f<f3+3:&ufff",
"f09f.fffj.<$ffff",
"f3q$ffffff.<.fff",
"ff3ufffffu&< fff",
"f<f$uff <:<:33.$",
"fr3uffff <33<..f",
"fufu&ffff <<..ff",
"fffquqqf3f +.fff",
"fffuq397k7f ffff",
"ffffrq3q3fffffff",
"ffffffufffffffff",
"ffffffffffffffff"
};
