/* XPM */
static char *rep_locked_file[] = {
/* columns rows colors chars-per-pixel */
"16 16 139 2",
"   c #616C7D00",
".  c #616D7E00",
"X  c #666F7C00",
"o  c #636F8000",
"O  c #646F8100",
"+  c #66718200",
"@  c #67738500",
"#  c #6A768800",
"$  c #6B778900",
"%  c #6F7B8E00",
"&  c #717D9100",
"*  c #727F9300",
"=  c #73809400",
"-  c #74819300",
";  c #76819200",
":  c #74819400",
">  c #74819500",
",  c #76829400",
"<  c #77839500",
"1  c #77839600",
"2  c #74829800",
"3  c #78849600",
"4  c #79859700",
"5  c #78869D00",
"6  c #7A889F00",
"7  c #7B8AA100",
"8  c #7D8CA300",
"9  c #7E8DA300",
"0  c #7F8EA600",
"q  c #808C9E00",
"w  c #818C9E00",
"e  c #828C9C00",
"r  c #8190A700",
"t  c #8691A000",
"y  c #8692A300",
"u  c #8392A800",
"i  c #8494AA00",
"p  c #8892A100",
"a  c #8993A200",
"s  c #8C96A500",
"d  c #8897AE00",
"f  c #8998AF00",
"g  c #8B9AB100",
"h  c #8E9DB400",
"j  c #929BAA00",
"k  c #909BAC00",
"l  c #919EB300",
"z  c #919FB500",
"x  c #97A0AD00",
"c  c #91A0B700",
"v  c #95A3BA00",
"b  c #97A5BB00",
"n  c #97A5BC00",
"m  c #9AA7BD00",
"M  c #9AA8BE00",
"N  c #9BA9BF00",
"B  c #9CA9BF00",
"V  c #9DAABF00",
"C  c #A5ADB800",
"Z  c #9FACC100",
"A  c #9FACC200",
"S  c #A1AEC300",
"D  c #A2AFC400",
"F  c #A4B1C500",
"G  c #A5B0C400",
"H  c #A4B1C600",
"J  c #AFB6C000",
"K  c #A8B5C800",
"L  c #A9B5C800",
"P  c #AAB6C900",
"I  c #ABB7C900",
"U  c #BCC3CE00",
"Y  c #BEC5D000",
"T  c #C4CBD400",
"R  c #C5CBD500",
"E  c #C9CFD900",
"W  c #CAD0D900",
"Q  c #CCD3DE00",
"!  c #CED4DC00",
"~  c #D0D6DE00",
"^  c #D6DAE200",
"/  c #DDE2E700",
"(  c #DEE6F800",
")  c #E7E9ED00",
"_  c #EAECEF00",
"`  c #E0E8F800",
"'  c #E1E8F900",
"]  c #E2E9F900",
"[  c #E3EAF900",
"{  c #E4EBF900",
"}  c #E5EBF900",
"|  c #E5ECF900",
" . c #E6ECFA00",
".. c #E6EDFA00",
"X. c #E7EDFA00",
"o. c #EBEDF100",
"O. c #E8EDFA00",
"+. c #E8EEFA00",
"@. c #E9EEFA00",
"#. c #E9EEFB00",
"$. c #E9EFFB00",
"%. c #EAEFFB00",
"&. c #EFF1F300",
"*. c #EBF0FB00",
"=. c #ECF1FB00",
"-. c #EDF1FB00",
";. c #EDF2FB00",
":. c #EEF3F900",
">. c #EEF2FB00",
",. c #EFF3FB00",
"<. c #EEF2FC00",
"1. c #EEF3FC00",
"2. c #EFF3FC00",
"3. c #F1F2F500",
"4. c #F4F5F700",
"5. c #F0F4FC00",
"6. c #F1F4FC00",
"7. c #F2F5FC00",
"8. c #F2F6FC00",
"9. c #F3F6FC00",
"0. c #F3F6FD00",
"q. c #F4F7FD00",
"w. c #F5F8FD00",
"e. c #F6F8FD00",
"r. c #F6F9FD00",
"t. c #F7F9FE00",
"y. c #F8F9FD00",
"u. c #F8F9FE00",
"i. c #F8FAFD00",
"p. c #F9FAFE00",
"a. c #F9FBFE00",
"s. c #FAFBFE00",
"d. c #FBFCFE00",
"f. c #FCFDFE00",
"g. c #FDFEFE00",
"h. c #FEFEFE00",
"j. c #FEFFFF00",
"k. c gray100",
"l. c None",
/* pixels */
"l.l.l.l.l.l.l.l.l.l.l.l.l.l.l.l.",
"l.l.P P K D D A N n V z l.l.l.l.",
"l.l.P k.k.k.k.d.a.a.m G f X l.l.",
"l.l.P k.k.a.a.r.7.7.N =.I r l.l.",
"l.l.F k.a.a.r.q.5.5.N N N l l.l.",
"l.l.S d.r.r.7.7.5.=.*.@.=.r l.l.",
"l.l.Z a.q.7.7.<.=.=.@...=.8 l.l.",
"l.l.N r.7.7.<.=.=.@...{ *.6 l.l.",
"l.l.m r.5.5.%.@.@...! j a a J l.",
"l.l.m q.=.%.@.O...] j C a s e l.",
"l.l.v 7.%.@.@.{ ] ` k 3 U : ; l.",
"l.l.z 5.@.@.{ { ] k w : ; * * ; ",
"l.l.h =...{ ] ` ( y E 4.3./ R # ",
"l.l.g =.=.@.@.@.{ w ! &.o.~ E O ",
"l.l.d i r 8 7 5 2 4 R _ ) ^ Y   ",
"l.l.l.l.l.l.l.l.l.3 % # @ o   + "
};
