/* XPM */
static char *rep_locked_missing_file[] = {
/* columns rows colors chars-per-pixel */
"16 16 154 2",
"   c #4D2D1E00",
".  c #7C412600",
"X  c #616C7D00",
"o  c #616D7E00",
"O  c #636F8000",
"+  c #646F8100",
"@  c #66718200",
"#  c #67738500",
"$  c #6A768800",
"%  c #6B778900",
"&  c #6F7B8E00",
"*  c #717D9100",
"=  c #727F9300",
"-  c #73809400",
";  c #74819300",
":  c #76819200",
">  c #74819400",
",  c #74819500",
"<  c #76829400",
"1  c #77839500",
"2  c #77839600",
"3  c #78849600",
"4  c #79859700",
"5  c #944F3000",
"6  c #AD5E3A00",
"7  c #955E4500",
"8  c #C0673F00",
"9  c #DF6B3800",
"0  c #ED723C00",
"q  c #C66A4000",
"w  c #CD6E4300",
"e  c #CB714800",
"r  c #CA754F00",
"t  c #D16E4200",
"y  c #D0704500",
"u  c #D6734700",
"i  c #D4754A00",
"p  c #D6744900",
"a  c #DB7C5200",
"s  c #DF7D5100",
"d  c #E17A4C00",
"f  c #E27B4D00",
"g  c #E27C4E00",
"h  c #EB774400",
"j  c #DF865F00",
"k  c #E1845A00",
"l  c #E1845B00",
"z  c #E6865B00",
"x  c #E8875C00",
"c  c #E9895F00",
"v  c #EA8B6100",
"b  c #E98D6400",
"n  c #EC8E6400",
"m  c #E88F6900",
"M  c #ED906600",
"N  c #EB926A00",
"B  c #ED926900",
"V  c #EE956C00",
"C  c #EE976F00",
"Z  c #EB997400",
"A  c #EF987100",
"S  c #EF9E7A00",
"D  c #F09B7400",
"F  c #F09B7500",
"G  c #F29F7A00",
"H  c #F3A07B00",
"J  c #F4A27D00",
"K  c #F8A47E00",
"L  c #808C9E00",
"P  c #818C9E00",
"I  c #828C9C00",
"U  c #8691A000",
"Y  c #8692A300",
"T  c #8892A100",
"R  c #8993A200",
"E  c #8C96A500",
"W  c #9099A900",
"Q  c #929BAA00",
"!  c #97A0AD00",
"~  c #A5ADB800",
"^  c #BBA6A200",
"/  c #AFB6C000",
"(  c #BEC5D000",
")  c #D0B9B200",
"_  c #F3AC8D00",
"`  c #F5AF8F00",
"'  c #F8A68200",
"]  c #F8A78300",
"[  c #F9A98600",
"{  c #F9AA8700",
"}  c #F9AB8700",
"|  c #F9AC8900",
" . c #F8AC8A00",
".. c #F9AD8A00",
"X. c #F9AF8D00",
"o. c #F9B08F00",
"O. c #F6B69900",
"+. c #F9B39300",
"@. c #FAB19000",
"#. c #FAB29100",
"$. c #FAB49400",
"%. c #FAB59500",
"&. c #FAB69600",
"*. c #FBB69600",
"=. c #FBB69700",
"-. c #FBB79700",
";. c #FAB79800",
":. c #FBB79800",
">. c #FBB89900",
",. c #FAB99A00",
"<. c #FBB99A00",
"1. c #FBB99B00",
"2. c #FBBA9B00",
"3. c #F8BA9F00",
"4. c #FBBC9D00",
"5. c #FBBC9E00",
"6. c #FCBD9F00",
"7. c #F9BEA200",
"8. c #FCBEA200",
"9. c #FCBFA200",
"0. c #FAC0A500",
"q. c #FCC1A500",
"w. c #FAC1A900",
"e. c #FBC3A900",
"r. c #FBC3AA00",
"t. c #FBC4AB00",
"y. c #FBC5AD00",
"u. c #FCCBB500",
"i. c #FCCDB700",
"p. c #FCCDB800",
"a. c #FCD0BA00",
"s. c #FDD1BD00",
"d. c #FDD2BD00",
"f. c #FDD2BF00",
"g. c #C4CBD400",
"h. c #C5CBD500",
"j. c #C9CFD900",
"k. c #CAD0D900",
"l. c #CED4DC00",
"z. c #D0D6DE00",
"x. c #D6DAE200",
"c. c #DDE2E700",
"v. c #FDD4C000",
"b. c #FDD4C100",
"n. c #FED5C200",
"m. c #FED6C300",
"M. c #E7E9ED00",
"N. c #EAECEF00",
"B. c #EBEDF100",
"V. c #EFF1F300",
"C. c #F1F2F500",
"Z. c #F4F5F700",
"A. c gray100",
"S. c None",
/* pixels */
"S.S.S.S.S.S.S.S.S.S.S.S.S.S.S.S.",
"S.S.H J G D A C n v h l S.S.S.S.",
"S.S.J m.m.m.v.d.p.p.0 m a 7 S.S.",
"S.S.G m.q.8.8.>.:.%.0 t.N i S.S.",
"S.S.D m.8.4.>.:.%.#.0 0 0 9 S.S.",
"S.S.C d.4.>.:.%.#.o...[ e.t S.S.",
"S.S.B a.:.%.%.>.:...[ ' 0.w S.S.",
"S.S.n i.%.>.t.e.e.[ ' K 7.q S.S.",
"S.S.c u.e.y.` x 3. .) Q R R / S.",
"S.S.z S O.b d d _ o.! ~ Y E I S.",
"S.S.j s g i 6 u Z #.Q 4 ^ 2 : S.",
"S.S.S.r e   S.8 l W 4 2 ; = = ; ",
"S.S.S.S.S.S.S.5 t Y k.Z.C.c.h.$ ",
"S.S.S.S.S.S.S.S.. I l.V.B.l.j.@ ",
"S.S.S.S.S.S.S.S.S.4 g.N.M.x.( X ",
"S.S.S.S.S.S.S.S.S.2 & $ # O X @ "
};
