/* XPM */
static char *rep_locked_newer_file[] = {
/* columns rows colors chars-per-pixel */
"16 16 171 2",
"   c #667F1B00",
".  c #616C7D00",
"X  c #616D7E00",
"o  c #636F8000",
"O  c #646F8100",
"+  c #66718200",
"@  c #67738500",
"#  c #6A768800",
"$  c #6B778900",
"%  c #6F7B8E00",
"&  c #717D9100",
"*  c #727F9300",
"=  c #73980000",
"-  c #779E0000",
";  c #79A10000",
":  c #7AA20000",
">  c #7DA60000",
",  c #7FAA0000",
"<  c #73809400",
"1  c #74819300",
"2  c #76819200",
"3  c #74819400",
"4  c #74819500",
"5  c #76829400",
"6  c #77839500",
"7  c #77839600",
"8  c #78849600",
"9  c #79859700",
"0  c #80AA0200",
"q  c #83AE0100",
"w  c #84AE0400",
"e  c #88B30500",
"r  c #8AB60600",
"t  c #8BB60800",
"y  c #8EBA0B00",
"u  c #91BE0D00",
"i  c #92BD0D00",
"p  c #91B22E00",
"a  c #9ABD3100",
"s  c #9DBE3A00",
"d  c #95C11000",
"f  c #97C41200",
"g  c #98C61000",
"h  c #9AC51600",
"j  c #9CC91500",
"k  c #9DC91900",
"l  c #9DC92100",
"z  c #9FCB2500",
"x  c #A0CB1E00",
"c  c #A1CC1C00",
"v  c #A3CE2200",
"b  c #A4CE2100",
"n  c #A5D02500",
"m  c #A6D12500",
"M  c #A9D32C00",
"N  c #AAD52B00",
"B  c #AAD42C00",
"V  c #ABD52E00",
"C  c #ABDE2C00",
"Z  c #ADE03000",
"A  c #ADE13100",
"S  c #ADE13200",
"D  c #AEE23500",
"F  c #AFE33600",
"G  c #AFE33700",
"H  c #B0E43900",
"J  c #B1E53A00",
"K  c #B1E53B00",
"L  c #B1E53C00",
"P  c #B2E63E00",
"I  c #B2E63F00",
"U  c #B3E74000",
"Y  c #B3E74100",
"T  c #B4E84200",
"R  c #B4E84300",
"E  c #B5E94400",
"W  c #B5E94500",
"Q  c #B5E94600",
"!  c #B6EA4600",
"~  c #B6EA4700",
"^  c #B6EA4800",
"/  c #B7EB4900",
"(  c #B7EB4A00",
")  c #B7EC4A00",
"_  c #B7EC4B00",
"`  c #B8ED4C00",
"'  c #B8ED4D00",
"]  c #B9ED4F00",
"[  c #B9EE5000",
"{  c #BAEE5100",
"}  c #BAEF5300",
"|  c #BBEF5400",
" . c #BBEF5500",
".. c #BCF05600",
"X. c #BDF15700",
"o. c #BDF15800",
"O. c #BEF25A00",
"+. c #BEF25B00",
"@. c #BFF35C00",
"#. c #BFF45D00",
"$. c #BFF45E00",
"%. c #C0F35E00",
"&. c #C0F55F00",
"*. c #C2E66700",
"=. c #C3E86A00",
"-. c #C5E96D00",
";. c #C6EB7000",
":. c #C7EB7200",
">. c #C8EC7400",
",. c #C8ED7600",
"<. c #C9EE7800",
"1. c #CAEE7A00",
"2. c #CAEF7B00",
"3. c #C0F56000",
"4. c #C1F66200",
"5. c #C1F66300",
"6. c #C2F66400",
"7. c #C2F76500",
"8. c #C3F86700",
"9. c #C4F86900",
"0. c #C4F96A00",
"q. c #C5FA6E00",
"w. c #C6FB6F00",
"e. c #C7FC7300",
"r. c #CBF17F00",
"t. c #CCF17F00",
"y. c #808C9E00",
"u. c #818C9E00",
"i. c #828C9C00",
"p. c #8691A000",
"a. c #8692A300",
"s. c #8892A100",
"d. c #8993A100",
"f. c #8C96A500",
"g. c #8E9BA500",
"h. c #929BAA00",
"j. c #97A0AD00",
"k. c #A5ADB800",
"l. c #AFB6C000",
"z. c #AEC09500",
"x. c #B8D09300",
"c. c #BEC5D000",
"v. c #CEF38300",
"b. c #D0F48800",
"n. c #D1F68C00",
"m. c #D3F89000",
"M. c #D4F89100",
"N. c #D5F99400",
"B. c #D6FB9800",
"V. c #D6FB9900",
"C. c #D7FC9B00",
"Z. c #D8FD9C00",
"A. c #D9FE9E00",
"S. c #D9FEA000",
"D. c #DAFFA100",
"F. c #C4CBD400",
"G. c #C5CBD500",
"H. c #C9CFD900",
"J. c #CAD0D900",
"K. c #CED4DC00",
"L. c #D0D6DE00",
"P. c #D6DAE200",
"I. c #DDE2E700",
"U. c #E7E9ED00",
"Y. c #EAECEF00",
"T. c #EBEDF100",
"R. c #EFF1F300",
"E. c #F1F2F500",
"W. c #F4F5F700",
"Q. c gray100",
"!. c None",
/* pixels */
"!.!.!.!.!.!.!.!.!.!.!.!.!.!.!.!.",
"!.!.N V V n b c j g s i !.!.!.!.",
"!.!.V D.D.Z.C.V.N.M.a l r   !.!.",
"!.!.M D.e.q.9.6.5.%.a r.z q !.!.",
"!.!.n Z.q.9.6.5.o.X.a a a p !.!.",
"!.!.v V.8.5.#.o.| } _ W 1., !.!.",
"!.!.x N.5.#.o.| ' ( W U ,.> !.!.",
"!.!.k m.@.X.} ' ( W U K :.; !.!.",
"!.!.h n.X.} ' W R I x.h.s.s.l.!.",
"!.!.f b.' _ W R I K j.k.p.f.i.!.",
"!.!.d v._ W U K F A h.8 z.4 2 !.",
"!.!.i t.W U K F A g.y.4 4 1 & 2 ",
"!.!.y 1.I K F Z C p.J.W.E.I.G.# ",
"!.!.t 1.>.:.-.=.*.y.K.E.T.L.H.O ",
"!.!.e w 0 > ; - = 8 G.Y.U.P.c.. ",
"!.!.!.!.!.!.!.!.!.4 % $ @ O . + "
};
