/* XPM */
static char *rep_locked_deleted_file[] = {
/* columns rows colors chars-per-pixel */
"16 16 144 2",
"   c #616C7D00",
".  c #616D7E00",
"X  c #636F8000",
"o  c #646F8100",
"O  c #66718200",
"+  c #67738500",
"@  c #6A768800",
"#  c #6B778900",
"$  c #6F7B8E00",
"%  c #717D9100",
"&  c #727F9300",
"*  c #73809400",
"=  c #74819300",
"-  c #76819200",
";  c #74819400",
":  c #74819500",
">  c #76829400",
",  c #77839500",
"<  c #77839600",
"1  c #78849600",
"2  c #79859700",
"3  c #9B5A3D00",
"4  c #FF330000",
"5  c #D2663600",
"6  c #D7683700",
"7  c #D86A3800",
"8  c #DB6B3900",
"9  c #DF6B3800",
"0  c #DE6D3A00",
"q  c #DF6D3B00",
"w  c #E16F3C00",
"e  c #E4723F00",
"r  c #ED723C00",
"t  c #E4734100",
"y  c #E8744000",
"u  c #EA764300",
"i  c #EB774400",
"p  c #E8794700",
"a  c #EC794600",
"s  c #EE7C4800",
"d  c #EE7D4B00",
"f  c #EF7E4B00",
"g  c #EF804F00",
"h  c #ED875900",
"j  c #F0845400",
"k  c #F0885900",
"l  c #F08A5C00",
"z  c #F28A5D00",
"x  c #F18D6000",
"c  c #F18E6100",
"v  c #F18F6200",
"b  c #F5906400",
"n  c #F5946800",
"m  c #F6946900",
"M  c #F6956A00",
"N  c #F6976D00",
"B  c #F6986E00",
"V  c #F6986F00",
"C  c #F7997000",
"Z  c #F79A7100",
"A  c #F79B7200",
"S  c #F79C7300",
"D  c #F79D7500",
"F  c #F89E7600",
"G  c #F89F7700",
"H  c #F8A07800",
"J  c #F8A17900",
"K  c #F8A17A00",
"L  c #F8A27B00",
"P  c #F8A27C00",
"I  c #F8A37C00",
"U  c #F8A37D00",
"Y  c #F8A47D00",
"T  c #808C9E00",
"R  c #818C9E00",
"E  c #828C9C00",
"W  c #8691A000",
"Q  c #8692A300",
"!  c #8892A100",
"~  c #8993A200",
"^  c #8C96A500",
"/  c #9198A700",
"(  c #929BAA00",
")  c #97A0AD00",
"_  c #A5ADB800",
"`  c #AFB6C000",
"'  c #BEC5D000",
"]  c #C3AAA400",
"[  c #D4B3A800",
"{  c #F8A58000",
"}  c #F8A68100",
"|  c #F9A78100",
" . c #F9A78200",
".. c #F9A98400",
"X. c #F9AA8500",
"o. c #F9AB8600",
"O. c #F9AB8700",
"+. c #FAAD8A00",
"@. c #FAAE8B00",
"#. c #F8AE8E00",
"$. c #FAAF8C00",
"%. c #FAB18F00",
"&. c #F8B09100",
"*. c #FAB29000",
"=. c #FAB29200",
"-. c #F8B39400",
";. c #FAB49400",
":. c #FBB79700",
">. c #F9B59800",
",. c #F9B69900",
"<. c #F9B89B00",
"1. c #F9BA9D00",
"2. c #F9BB9F00",
"3. c #FCBA9C00",
"4. c #FABDA100",
"5. c #FABEA200",
"6. c #FAC1A600",
"7. c #FBC1A600",
"8. c #FBC3AA00",
"9. c #FBC6AE00",
"0. c #FDC4A900",
"q. c #FCCDB700",
"w. c #FDD0BB00",
"e. c #FED2BD00",
"r. c #C4CBD400",
"t. c #C5CBD500",
"y. c #C9CFD900",
"u. c #CAD0D900",
"i. c #CED4DC00",
"p. c #D0D6DE00",
"a. c #D6DAE200",
"s. c #DDE2E700",
"d. c #FED4C100",
"f. c #FED7C400",
"g. c #FED8C600",
"h. c #FED9C700",
"j. c #E7E9ED00",
"k. c #EAECEF00",
"l. c #EBEDF100",
"z. c #EFF1F300",
"x. c #F1F2F500",
"c. c #F4F5F700",
"v. c gray100",
"b. c None",
/* pixels */
"b.b.b.b.b.b.b.b.b.b.b.b.b.b.b.b.",
"b.b.v v v l k j g d u p b.b.b.b.",
"b.b.v g.g.f.d.e.w.q.r h t 3 b.b.",
"b.v.v.f.0.v.v.3.:.:.r 7.l 0 b.b.",
"v.4 4 v.v.4 4 v.*.%.r r r w b.b.",
"b.v.4 4 4 4 v.*.+...| Y 4.0 b.b.",
"b.b.v.4 4 v.%.+...| Y H 1.6 b.b.",
"b.v.4 4 4 4 v...| L F Z >.6 b.b.",
"v.4 4 v.v.4 4 v.L F [ ( ~ ~ ` b.",
"b.v.v.9...v.v.H F Z ( _ ~ ^ E b.",
"b.b.d 8. .Y H S N m ( 1 ] : - b.",
"b.b.d 7.P H Z N m / R : - & & - ",
"b.b.p 4.F Z N m b Q u.c.x.s.t.@ ",
"b.b.i 1.<.>.-.*.#.R i.z.l.p.y.o ",
"b.b.u e w 0 8 6 5 2 t.k.j.a.'   ",
"b.b.b.b.b.b.b.b.b.: $ @ + X   O "
};
