/* XPM */
static char *rep_locked_modified_newer_file[] = {
/* columns rows colors chars-per-pixel */
"16 16 172 2",
"   c #616C7D00",
".  c #616D7E00",
"X  c #636F8000",
"o  c #646F8100",
"O  c #66718200",
"+  c #67738500",
"@  c #6A768800",
"#  c #6B778900",
"$  c #6F7B8E00",
"%  c #717D9100",
"&  c #727F9300",
"*  c #73809400",
"=  c #74819300",
"-  c #76819200",
";  c #74819400",
":  c #74819500",
">  c #76829400",
",  c #77839500",
"<  c #77839600",
"1  c #78849600",
"2  c #79859700",
"3  c #D2663600",
"4  c #D7683700",
"5  c #D86A3800",
"6  c #DB6B3900",
"7  c #DF6B3800",
"8  c #DE6D3A00",
"9  c #E16F3C00",
"0  c #E4723F00",
"q  c #95812500",
"w  c #8BB90000",
"e  c #8CBB0000",
"r  c #8EBD0000",
"t  c #8FBF0000",
"y  c #9ABD3100",
"u  c #AD9F1800",
"i  c #A0AE0D00",
"p  c #A8AC1300",
"a  c #B8A23500",
"s  c #BDB33900",
"d  c #90C00000",
"f  c #92C30000",
"g  c #93C40000",
"h  c #95C60000",
"j  c #96C70000",
"k  c #96C80000",
"l  c #97C90000",
"z  c #97CA0000",
"x  c #98CB0000",
"c  c #99CC0000",
"v  c #9ECB1E00",
"b  c #B7EC4A00",
"n  c #B7EC4B00",
"m  c #B8ED4C00",
"M  c #B8ED4D00",
"N  c #B9ED4F00",
"B  c #B9EE5000",
"V  c #BAEE5100",
"C  c #BAEF5300",
"Z  c #BBEF5400",
"A  c #BBEF5500",
"S  c #BCF05600",
"D  c #BDF15700",
"F  c #BDF15800",
"G  c #BEF25A00",
"H  c #BEF25B00",
"J  c #BFF35C00",
"K  c #BFF45D00",
"L  c #BFF45E00",
"P  c #CA802C00",
"I  c #CE862F00",
"U  c #D7863900",
"Y  c #F5906400",
"T  c #F5946800",
"R  c #F6946900",
"E  c #F6956A00",
"W  c #F6976D00",
"Q  c #F6986E00",
"!  c #F6986F00",
"~  c #F7997000",
"^  c #F79A7100",
"/  c #F79B7200",
"(  c #F79C7300",
")  c #F79D7500",
"_  c #F89E7600",
"`  c #F89F7700",
"'  c #E5B16700",
"]  c #E5B26800",
"[  c #E5B36900",
"{  c #E6B46A00",
"}  c #E6B46B00",
"|  c #E6B56C00",
" . c #E6B66D00",
".. c #E6B76E00",
"X. c #F8A07800",
"o. c #CDCF5900",
"O. c #CDCF5A00",
"+. c #CED05B00",
"@. c #CED15C00",
"#. c #CFD15D00",
"$. c #CFD25E00",
"%. c #CFD35F00",
"&. c #C0F35E00",
"*. c #C0F55F00",
"=. c #C0F56000",
"-. c #C1F66200",
";. c #C1F66300",
":. c #C2F66400",
">. c #C2F76500",
",. c #C3F86700",
"<. c #C4F86900",
"1. c #C4F96A00",
"2. c #C5FA6E00",
"3. c #C6FB6F00",
"4. c #C7FC7300",
"5. c #CBF17F00",
"6. c #CCF17F00",
"7. c #808C9E00",
"8. c #818C9E00",
"9. c #828C9C00",
"0. c #8691A000",
"q. c #8692A300",
"w. c #8892A100",
"e. c #8993A200",
"r. c #8C96A500",
"t. c #9198A700",
"y. c #929BAA00",
"u. c #97A0AD00",
"i. c #A5ADB800",
"p. c #AFB6C000",
"a. c #BEC5D000",
"s. c #C3AAA400",
"d. c #D4B3A800",
"f. c #F8AE8E00",
"g. c #F8B09100",
"h. c #F8B39400",
"j. c #F9B59800",
"k. c #F9B69900",
"l. c #F9B89B00",
"z. c #F9BA9D00",
"x. c #FABDA100",
"c. c #DCDD8900",
"v. c #CEF38300",
"b. c #D0F48800",
"n. c #D1F68C00",
"m. c #D3F89000",
"M. c #D4F89100",
"N. c #D5F99400",
"B. c #D6FB9800",
"V. c #D6FB9900",
"C. c #D7FC9B00",
"Z. c #D8FD9C00",
"A. c #D9FE9E00",
"S. c #D9FEA000",
"D. c #DAFFA100",
"F. c #ECC99400",
"G. c #C4CBD400",
"H. c #C5CBD500",
"J. c #C9CFD900",
"K. c #CAD0D900",
"L. c #CED4DC00",
"P. c #D0D6DE00",
"I. c #D6DAE200",
"U. c #DDE2E700",
"Y. c #E7E9ED00",
"T. c #EAECEF00",
"R. c #EBEDF100",
"E. c #EFF1F300",
"W. c #F1F2F500",
"Q. c #F4F5F700",
"!. c gray100",
"~. c None",
/* pixels */
"~.~.~.~.~.~.~.~.~.~.~.~.~.~.~.~.",
"~.~.c c x z h h f f y p ~.~.~.~.",
"~.~.c D.D.Z.V.V.N.m.y v i q ~.~.",
"~.~.z D.4.4.<.>.;.&.y 5.s 5 ~.~.",
"~.~.z Z.2.<.>.;.F D y a U 7 ~.~.",
"~.~.h V.>.;.J F S C %...F.8 ~.~.",
"~.~.g N.;.J F Z M $.| X.z.6 ~.~.",
"~.~.f m.J D C M $.| X.^ j.5 ~.~.",
"~.~.f n.D C m $.} _ d.y.w.w.p.~.",
"~.~.r b.M b +.} ) ^ u.i.0.r.7.~.",
"~.~.r v.b o.[ ( ! R y.1 s., - ~.",
"~.~.e 6.o.' ^ ! R t.7.: = = % = ",
"~.~.w c.' ^ W R Y 0.K.Q.W.U.H.@ ",
"~.~.u F.l.j.h.g.f.7.L.W.R.P.J.o ",
"~.~.I 0 9 8 6 5 3 1 G.T.Y.I.a.  ",
"~.~.~.~.~.~.~.~.~.: $ # @ .   O "
};
