/* XPM */
static char *rep_locked_modified_file[] = {
/* columns rows colors chars-per-pixel */
"16 16 172 2",
"   c #616C7D00",
".  c #616D7E00",
"X  c #636F8000",
"o  c #646F8100",
"O  c #66718200",
"+  c #67738500",
"@  c #6A768800",
"#  c #6B778900",
"$  c #6F7B8E00",
"%  c #717D9100",
"&  c #727F9300",
"*  c #73809400",
"=  c #74819300",
"-  c #76819200",
";  c #74819400",
":  c #74819500",
">  c #76829400",
",  c #77839500",
"<  c #77839600",
"1  c #78849600",
"2  c #79859700",
"3  c #9B5A3D00",
"4  c #D2663600",
"5  c #D7683700",
"6  c #D86A3800",
"7  c #DB6B3900",
"8  c #DF6B3800",
"9  c #DE6D3A00",
"0  c #DF6D3B00",
"q  c #E16F3C00",
"w  c #E4723F00",
"e  c #ED723C00",
"r  c #E4734100",
"t  c #E8744000",
"y  c #EA764300",
"u  c #EB774400",
"i  c #E8794700",
"p  c #EC794600",
"a  c #EE7C4800",
"s  c #EE7D4B00",
"d  c #EF7E4B00",
"f  c #EF7F4D00",
"g  c #EF804F00",
"h  c #EF815000",
"j  c #ED875900",
"k  c #F0835200",
"l  c #F0845400",
"z  c #F0855600",
"x  c #F0875900",
"c  c #F0885900",
"v  c #F08A5C00",
"b  c #F28A5D00",
"n  c #F18D6000",
"m  c #F18E6100",
"M  c #F18F6200",
"N  c #F5906400",
"B  c #F5946800",
"V  c #F6946900",
"C  c #F6956A00",
"Z  c #F6976D00",
"A  c #F6986E00",
"S  c #F6986F00",
"D  c #F7997000",
"F  c #F79A7100",
"G  c #F79B7200",
"H  c #F79C7300",
"J  c #F79D7500",
"K  c #F89E7600",
"L  c #F89F7700",
"P  c #F8A07800",
"I  c #F8A17900",
"U  c #F8A17A00",
"Y  c #F8A27B00",
"T  c #F8A27C00",
"R  c #F8A37C00",
"E  c #F8A37D00",
"W  c #F8A47D00",
"Q  c #F8A47E00",
"!  c #F8A57F00",
"~  c #808C9E00",
"^  c #818C9E00",
"/  c #828C9C00",
"(  c #8691A000",
")  c #8692A300",
"_  c #8892A100",
"`  c #8993A200",
"'  c #8C96A500",
"]  c #9198A700",
"[  c #929BAA00",
"{  c #97A0AD00",
"}  c #A5ADB800",
"|  c #AFB6C000",
" . c #BEC5D000",
".. c #C3AAA400",
"X. c #D4B3A800",
"o. c #F8A58000",
"O. c #F8A68100",
"+. c #F9A78100",
"@. c #F9A78200",
"#. c #F9A88300",
"$. c #F9A98400",
"%. c #F9AA8500",
"&. c #F9AB8600",
"*. c #F9AB8700",
"=. c #FAAC8800",
"-. c #FAAC8900",
";. c #FAAD8A00",
":. c #FAAE8B00",
">. c #F8AE8E00",
",. c #FAAF8C00",
"<. c #FAAF8D00",
"1. c #FAB08E00",
"2. c #FAB18F00",
"3. c #F8B09100",
"4. c #FAB29000",
"5. c #FAB29200",
"6. c #F8B39400",
"7. c #FAB49300",
"8. c #FAB49400",
"9. c #FBB59400",
"0. c #FBB59500",
"q. c #FBB69600",
"w. c #FBB79700",
"e. c #F9B59800",
"r. c #F9B69900",
"t. c #F9B89B00",
"y. c #FBB89900",
"u. c #FBB99A00",
"i. c #F9BA9D00",
"p. c #F9BB9F00",
"a. c #FCB99B00",
"s. c #FCBA9C00",
"d. c #FCBC9E00",
"f. c #FCBD9F00",
"g. c #FABDA100",
"h. c #FABEA200",
"j. c #FDBEA000",
"k. c #FAC1A600",
"l. c #FBC1A600",
"z. c #FDC1A400",
"x. c #FDC1A500",
"c. c #FBC3AA00",
"v. c #FBC6AE00",
"b. c #FDC4A900",
"n. c #FBCAB200",
"m. c #FCCCB700",
"M. c #FCCDB700",
"N. c #FDCFBA00",
"B. c #FDD0BB00",
"V. c #FED2BD00",
"C. c #FED3BE00",
"Z. c #C4CBD400",
"A. c #C5CBD500",
"S. c #C9CFD900",
"D. c #CAD0D900",
"F. c #CED4DC00",
"G. c #D0D6DE00",
"H. c #D6DAE200",
"J. c #DDE2E700",
"K. c #FED4C100",
"L. c #FED6C200",
"P. c #FED7C400",
"I. c #FED8C600",
"U. c #FED9C700",
"Y. c #E7E9ED00",
"T. c #EAECEF00",
"R. c #EBEDF100",
"E. c #EFF1F300",
"W. c #F1F2F500",
"Q. c #F4F5F700",
"!. c gray100",
"~. c None",
/* pixels */
"~.~.~.~.~.~.~.~.~.~.~.~.~.~.~.~.",
"~.~.M M M v c z g s u i ~.~.~.~.",
"~.~.M I.U.P.L.V.B.N.e j r 3 ~.~.",
"~.~.M P.b.z.j.a.8.8.e l.v 0 ~.~.",
"~.~.v L.z.d.a.8.4.1.e e e q ~.~.",
"~.~.x V.d.y.8.4.,.$.@.W g.0 ~.~.",
"~.~.z N.y.8.4.-.$.@.R P i.7 ~.~.",
"~.~.k m.8.1.-.$.@.P L F e.5 ~.~.",
"~.~.h n.,.-.#.! P L X.[ ` ` | ~.",
"~.~.g v.$.@.! P J F [ } ` ' / ~.",
"~.~.s c.#.E P J F V [ < ..: - ~.",
"~.~.s l.E J F S V ] ~ : - & & - ",
"~.~.i g.J F Z V N ) D.Q.W.J.A.@ ",
"~.~.y i.y.e.6.3.,.^ F.E.R.G.S.o ",
"~.~.y w q 0 7 5 4 2 A.T.Y.H. .  ",
"~.~.~.~.~.~.~.~.~.: $ @ + X   O "
};
