/* XPM */
static char *rep_locked_merged_file[] = {
/* columns rows colors chars-per-pixel */
"16 16 136 2",
"   c #616C7D00",
".  c #616D7E00",
"X  c #636F8000",
"o  c #646F8100",
"O  c #66718200",
"+  c #67738500",
"@  c #6A768800",
"#  c #6B778900",
"$  c #6F7B8E00",
"%  c #717D9100",
"&  c #727F9300",
"*  c #73809400",
"=  c #74819300",
"-  c #76819200",
";  c #74819400",
":  c #74819500",
">  c #76829400",
",  c #77839500",
"<  c #77839600",
"1  c #78849600",
"2  c #79859700",
"3  c #9B5A3D00",
"4  c #FF330000",
"5  c #D2663600",
"6  c #D7683700",
"7  c #D86A3800",
"8  c #DB6B3900",
"9  c #DF6B3800",
"0  c #DE6D3A00",
"q  c #DF6D3B00",
"w  c #E16F3C00",
"e  c #E4723F00",
"r  c #ED723C00",
"t  c #E4734100",
"y  c #E8744000",
"u  c #EA764300",
"i  c #EB774400",
"p  c #E8794700",
"a  c #EC794600",
"s  c #EE7D4B00",
"d  c #EF804F00",
"f  c #ED875900",
"g  c #F0845400",
"h  c #F0885900",
"j  c #F08A5C00",
"k  c #F28A5D00",
"l  c #F18D6000",
"z  c #F18E6100",
"x  c #F18F6200",
"c  c #F5906400",
"v  c #F5946800",
"b  c #F6946900",
"n  c #F6956A00",
"m  c #F6976D00",
"M  c #F6986E00",
"N  c #F6986F00",
"B  c #F7997000",
"V  c #F79A7100",
"C  c #F79B7200",
"Z  c #F79C7300",
"A  c #F79D7500",
"S  c #F89E7600",
"D  c #F89F7700",
"F  c #F8A07800",
"G  c #F8A17900",
"H  c #F8A17A00",
"J  c #F8A27B00",
"K  c #F8A37C00",
"L  c #F8A47D00",
"P  c #F8A57F00",
"I  c #808C9E00",
"U  c #818C9E00",
"Y  c #828C9C00",
"T  c #8691A000",
"R  c #8692A300",
"E  c #8892A100",
"W  c #8993A200",
"Q  c #8C96A500",
"!  c #9198A700",
"~  c #929BAA00",
"^  c #97A0AD00",
"/  c #A5ADB800",
"(  c #AFB6C000",
")  c #BEC5D000",
"_  c #C3AAA400",
"`  c #D4B3A800",
"'  c #F8A58000",
"]  c #F8A68100",
"[  c #F9A78200",
"{  c #F9A98400",
"}  c #F9AA8500",
"|  c #F9AB8600",
" . c #FAAC8900",
".. c #FAAD8A00",
"X. c #FAAE8B00",
"o. c #F8AE8E00",
"O. c #FAAF8C00",
"+. c #F8B09100",
"@. c #FAB29000",
"#. c #FAB29200",
"$. c #F8B39400",
"%. c #FAB49400",
"&. c #FBB69600",
"*. c #FBB79700",
"=. c #F9B59800",
"-. c #F9B69900",
";. c #F9B89B00",
":. c #F9BA9D00",
">. c #F9BB9F00",
",. c #FCBA9C00",
"<. c #FABDA100",
"1. c #FBC1A600",
"2. c #FCCDB700",
"3. c #FDD0BB00",
"4. c #FED2BD00",
"5. c #C4CBD400",
"6. c #C5CBD500",
"7. c #C9CFD900",
"8. c #CAD0D900",
"9. c #CED4DC00",
"0. c #D0D6DE00",
"q. c #D6DAE200",
"w. c #DDE2E700",
"e. c #FED4C100",
"r. c #FED6C200",
"t. c #FED7C400",
"y. c #FED8C600",
"u. c #FED9C700",
"i. c #E7E9ED00",
"p. c #EAECEF00",
"a. c #EBEDF100",
"s. c #EFF1F300",
"d. c #F1F2F500",
"f. c #F4F5F700",
"g. c gray100",
"h. c None",
/* pixels */
"h.h.h.h.h.h.h.h.h.h.h.h.h.h.h.h.",
"h.h.x x x j h g s s i p h.h.h.h.",
"h.h.x y.y.t.r.4.4.2.r f t 3 h.h.",
"g.g.g.t.g.g.g.,.=.&.r 1.j q h.h.",
"g.4 g.r.g.4 g.&.@.O.r r r w h.h.",
"g.4 g.g.g.4 g.@.O.{ [ L <.q h.h.",
"g.4 4 g.4 4 g. .{ [ K F ;.8 h.h.",
"h.g.4 4 4 g. .{ [ K D C =.6 h.h.",
"g.g.g.4 g.g.g.P F D ` ~ W W ( h.",
"g.4 4 4 4 4 g.F A C ~ / W Q Y h.",
"h.g.4 4 4 g.F Z m b ~ < _ : - h.",
"h.h.g.4 g.A C M b ! I : - & & - ",
"h.h.p g.D C m b c R 8.f.d.w.6.@ ",
"h.h.i ;.;.=.@.+.O.U 9.s.a.0.7.o ",
"h.h.y t w q 8 6 5 2 6.p.i.q.)   ",
"h.h.h.h.h.h.h.h.h.: $ @ + X   O "
};
