/* XPM */
static char *rep_locked_conflicted_file[] = {
/* columns rows colors chars-per-pixel */
"16 16 155 2",
"   c #616C7D00",
".  c #616D7E00",
"X  c #636F8000",
"o  c #646F8100",
"O  c #66718200",
"+  c #67738500",
"@  c #6A768800",
"#  c #6B778900",
"$  c #6F7B8E00",
"%  c #717D9100",
"&  c #727F9300",
"*  c #73809400",
"=  c #74819300",
"-  c #76819200",
";  c #74819400",
":  c #74819500",
">  c #76829400",
",  c #77839500",
"<  c #77839600",
"1  c #78849600",
"2  c #79859700",
"3  c #9B5A3D00",
"4  c #FF330000",
"5  c #D2663600",
"6  c #D7683700",
"7  c #D86A3800",
"8  c #DB6B3900",
"9  c #DF6B3800",
"0  c #DE6D3A00",
"q  c #DF6D3B00",
"w  c #E16F3C00",
"e  c #E4723F00",
"r  c #ED723C00",
"t  c #E4734100",
"y  c #E8744000",
"u  c #EA764300",
"i  c #EB774400",
"p  c #E8794700",
"a  c #EE7D4B00",
"s  c #EF804F00",
"d  c #ED875900",
"f  c #F0845400",
"g  c #F0885900",
"h  c #F08A5C00",
"j  c #F28A5D00",
"k  c #F18D6000",
"l  c #F18E6100",
"z  c #F18F6200",
"x  c #F5906400",
"c  c #F5946800",
"v  c #F6946900",
"b  c #F6956A00",
"n  c #F6976D00",
"m  c #F6986E00",
"M  c #F6986F00",
"N  c #F7997000",
"B  c #F79A7100",
"V  c #F79B7200",
"C  c #F79C7300",
"Z  c #F79D7500",
"A  c #F89E7600",
"S  c #F89F7700",
"D  c #F8A07800",
"F  c #F8A17900",
"G  c #F8A17A00",
"H  c #F8A27B00",
"J  c #F8A27C00",
"K  c #F8A37C00",
"L  c #F8A37D00",
"P  c #F8A47D00",
"I  c #F8A47E00",
"U  c #F8A57F00",
"Y  c #808C9E00",
"T  c #818C9E00",
"R  c #828C9C00",
"E  c #8691A000",
"W  c #8692A300",
"Q  c #8892A100",
"!  c #8993A200",
"~  c #8C96A500",
"^  c #9198A700",
"/  c #929BAA00",
"(  c #97A0AD00",
")  c #A5ADB800",
"_  c #AFB6C000",
"`  c #BEC5D000",
"'  c #C3AAA400",
"]  c #D4B3A800",
"[  c #F8A58000",
"{  c #F8A68100",
"}  c #F9A78100",
"|  c #F9A78200",
" . c #F9A88300",
".. c #F9A98400",
"X. c #F9AA8500",
"o. c #F9AB8600",
"O. c #F9AB8700",
"+. c #FAAC8800",
"@. c #FAAC8900",
"#. c #FAAD8A00",
"$. c #FAAE8B00",
"%. c #F8AE8E00",
"&. c #FAAF8C00",
"*. c #FAAF8D00",
"=. c #FAB08E00",
"-. c #FAB18F00",
";. c #F8B09100",
":. c #FAB29000",
">. c #FAB29200",
",. c #F8B39400",
"<. c #FAB49300",
"1. c #FAB49400",
"2. c #FBB59400",
"3. c #FBB59500",
"4. c #FBB69600",
"5. c #FBB79700",
"6. c #F9B59800",
"7. c #F9B69900",
"8. c #F9B89B00",
"9. c #FBB89900",
"0. c #FBB99A00",
"q. c #F9BA9D00",
"w. c #F9BB9F00",
"e. c #FCB99B00",
"r. c #FCBA9C00",
"t. c #FCBC9E00",
"y. c #FCBD9F00",
"u. c #FABDA100",
"i. c #FDBEA000",
"p. c #FBC1A600",
"a. c #FDC1A400",
"s. c #FDC1A500",
"d. c #FDC4A900",
"f. c #FCCDB700",
"g. c #FDD0BB00",
"h. c #FED2BD00",
"j. c #C4CBD400",
"k. c #C5CBD500",
"l. c #C9CFD900",
"z. c #CAD0D900",
"x. c #CED4DC00",
"c. c #D0D6DE00",
"v. c #D6DAE200",
"b. c #DDE2E700",
"n. c #FED4C100",
"m. c #FED7C400",
"M. c #FED9C700",
"N. c #E7E9ED00",
"B. c #EAECEF00",
"V. c #EBEDF100",
"C. c #EFF1F300",
"Z. c #F1F2F500",
"A. c #F4F5F700",
"S. c gray100",
"D. c None",
/* pixels */
"D.D.D.D.D.D.D.D.D.D.D.D.D.D.D.D.",
"D.D.z z z h g f s a p p D.D.D.D.",
"D.D.z M.M.M.n.h.g.f.r d t 3 D.D.",
"S.S.S.S.d.a.i.e.1.1.r p.h q D.D.",
"S.4 4 S.a.t.e.1.:.=.r r r w D.D.",
"S.4 4 S.t.9.1.:.&...| P u.q D.D.",
"S.4 4 S.9.1.:.@...| K D q.8 D.D.",
"S.4 4 S.1.=.@...| D S B 6.6 D.D.",
"S.4 4 S.&.@. .U D S ] / ! ! _ D.",
"S.S.S.S...| U D Z B / ) ! ~ R D.",
"S.4 4 S. .L D Z B v / < ' : - D.",
"S.4 4 S.L Z B M v ^ Y : - & & - ",
"S.S.S.S.Z B n v x W z.A.Z.b.k.@ ",
"D.D.u q.9.6.,.;.&.T x.C.V.c.l.o ",
"D.D.y t w q 8 6 5 2 k.B.N.v.`   ",
"D.D.D.D.D.D.D.D.D.: $ @ + X   O "
};
