/* XPM */
static char *rep_locked_replaced_file[] = {
/* columns rows colors chars-per-pixel */
"16 16 133 2",
"   c #616C7D00",
".  c #616D7E00",
"X  c #636F8000",
"o  c #646F8100",
"O  c #66718200",
"+  c #67738500",
"@  c #6A768800",
"#  c #6B778900",
"$  c #6F7B8E00",
"%  c #717D9100",
"&  c #727F9300",
"*  c #73809400",
"=  c #74819300",
"-  c #76819200",
";  c #74819400",
":  c #74819500",
">  c #76829400",
",  c #77839500",
"<  c #77839600",
"1  c #78849600",
"2  c #79859700",
"3  c #9B5A3D00",
"4  c #FF330000",
"5  c #D2663600",
"6  c #D7683700",
"7  c #D86A3800",
"8  c #DB6B3900",
"9  c #DF6B3800",
"0  c #DE6D3A00",
"q  c #DF6D3B00",
"w  c #E16F3C00",
"e  c #E4723F00",
"r  c #ED723C00",
"t  c #E4734100",
"y  c #E8744000",
"u  c #EA764300",
"i  c #EB774400",
"p  c #E8794700",
"a  c #EC794600",
"s  c #EE7C4800",
"d  c #EE7D4B00",
"f  c #EF804F00",
"g  c #ED875900",
"h  c #F0845400",
"j  c #F0885900",
"k  c #F08A5C00",
"l  c #F28A5D00",
"z  c #F18D6000",
"x  c #F18E6100",
"c  c #F18F6200",
"v  c #F5906400",
"b  c #F5946800",
"n  c #F6946900",
"m  c #F6956A00",
"M  c #F6976D00",
"N  c #F6986E00",
"B  c #F6986F00",
"V  c #F7997000",
"C  c #F79A7100",
"Z  c #F79B7200",
"A  c #F79C7300",
"S  c #F79D7500",
"D  c #F89E7600",
"F  c #F89F7700",
"G  c #F8A07800",
"H  c #F8A17900",
"J  c #F8A17A00",
"K  c #F8A27B00",
"L  c #F8A37C00",
"P  c #F8A47D00",
"I  c #808C9E00",
"U  c #818C9E00",
"Y  c #828C9C00",
"T  c #8691A000",
"R  c #8692A300",
"E  c #8892A100",
"W  c #8993A200",
"Q  c #8C96A500",
"!  c #9198A700",
"~  c #929BAA00",
"^  c #97A0AD00",
"/  c #A5ADB800",
"(  c #AFB6C000",
")  c #BEC5D000",
"_  c #C3AAA400",
"`  c #D4B3A800",
"'  c #F8A58000",
"]  c #F8A68100",
"[  c #F9A78200",
"{  c #F9AA8500",
"}  c #F9AB8600",
"|  c #FAAE8B00",
" . c #F8AE8E00",
".. c #FAAF8C00",
"X. c #F8B09100",
"o. c #FAB29200",
"O. c #F8B39400",
"+. c #FAB49400",
"@. c #FBB69600",
"#. c #FBB79700",
"$. c #F9B59800",
"%. c #F9B69900",
"&. c #F9B89B00",
"*. c #F9BA9D00",
"=. c #F9BB9F00",
"-. c #FCBA9C00",
";. c #FABDA100",
":. c #FABEA200",
">. c #FDBEA000",
",. c #FAC1A600",
"<. c #FBC1A600",
"1. c #FCCDB700",
"2. c #FDD0BB00",
"3. c #FED2BD00",
"4. c #C4CBD400",
"5. c #C5CBD500",
"6. c #C9CFD900",
"7. c #CAD0D900",
"8. c #CED4DC00",
"9. c #D0D6DE00",
"0. c #D6DAE200",
"q. c #DDE2E700",
"w. c #FED4C100",
"e. c #FED7C400",
"r. c #FED9C700",
"t. c #E7E9ED00",
"y. c #EAECEF00",
"u. c #EBEDF100",
"i. c #EFF1F300",
"p. c #F1F2F500",
"a. c #F4F5F700",
"s. c gray100",
"d. c None",
/* pixels */
"d.d.d.d.d.d.d.d.d.d.d.d.d.d.d.d.",
"d.d.c c c k j h d d i p d.d.d.d.",
"d.d.c s.r.e.w.3.3.1.r g t 3 d.d.",
"d.d.s.4 s.s.>.-.$.@.r <.k q d.d.",
"d.s.4 4 4 4 s.@.o...r r r w d.d.",
"s.s.s.4 s.4 4 s.| } [ P ;.q d.d.",
"s.4 s.s.s.s.4 s.} [ L G &.8 d.d.",
"s.4 s.s.s.s.4 s.[ G F Z $.6 d.d.",
"s.4 4 s.4 s.s.s.G F ` ~ W W ( d.",
"d.s.4 4 4 4 s.G S Z ~ / W Q Y d.",
"d.d.s.s.4 s.G A M n ~ < _ : - d.",
"d.d.d <.s.S Z N n ! I : - & & - ",
"d.d.p ;.F Z M n v R 7.a.p.q.5.@ ",
"d.d.i &.&.$.o.X...U 8.i.u.9.6.o ",
"d.d.y t w q 8 6 5 2 5.y.t.0.)   ",
"d.d.d.d.d.d.d.d.d.: $ @ + X   O "
};
