/* XPM */
static char * replock_newer_file_xpm[] = {
"16 16 6 1",
" 	c None",
".	c #808080",
"+	c #FFFFFF",
"@	c #00FF00",
"#	c #000000",
"$	c #C0C0C0",
" ..........     ",
" .+@+@+@+@..    ",
" .@+@+@+@+.+.   ",
" .+@+@+@+@####  ",
" .@+@+@+@+@+$#  ",
" .+@......+@$#  ",
" .@+@+@+@+@+$#  ",
" .+@......####  ",
" .@+@+@+@#@+$#  ",
" .+@.....#+@$#  ",
" .@+@+@+@#@+$#  ",
" .+@....####### ",
" .@+@+@+#+++++# ",
" .+@+@+@#+++++# ",
" .$$$$$$#+++++# ",
" ############## "};
