/* XPM */
static char *replaced_open_folder[] = {
/* columns rows colors chars-per-pixel */
"16 16 102 2",
"   c #5D291400",
".  c #8F533600",
"X  c #90442200",
"o  c #A7522C00",
"O  c #A5583500",
"+  c #B5512700",
"@  c #BA572C00",
"#  c red",
"$  c #C25C3000",
"%  c #C15F3400",
"&  c #C7673C00",
"*  c #D0633400",
"=  c #D6683800",
"-  c #DA693800",
";  c #ED713B00",
":  c #D86F4000",
">  c #D0764C00",
",  c #D9714300",
"<  c #DC704100",
"1  c #DF794A00",
"2  c #EE764100",
"3  c #EC784500",
"4  c #EA7E4D00",
"5  c #EC7D4B00",
"6  c #E57F5100",
"7  c #E8835400",
"8  c #EF825100",
"9  c #F0835500",
"0  c #F0845400",
"q  c #F4885600",
"w  c #F1885900",
"e  c #F0885B00",
"r  c #F1895A00",
"t  c #F3895C00",
"y  c #F28B5C00",
"u  c #F38C5D00",
"i  c #F38D5E00",
"p  c #F38D5F00",
"a  c #F48C5B00",
"s  c #F58C5F00",
"d  c #E9916700",
"f  c #F88F6100",
"g  c #F1916500",
"h  c #F2906400",
"j  c #F3926700",
"k  c #F7926200",
"l  c #F5976B00",
"z  c #F59A6F00",
"x  c #FB966600",
"c  c #FF926100",
"v  c #FF976500",
"b  c #FF9A6A00",
"n  c #FC9E6F00",
"m  c #F59D7700",
"M  c #F4A07A00",
"N  c #FFA27300",
"B  c #FFA27400",
"V  c #FFA37400",
"C  c #F8A47E00",
"Z  c #F8A67F00",
"A  c #FFA87D00",
"S  c #FFA87F00",
"D  c #F9A88100",
"F  c #FFAB8200",
"G  c #F9AF8D00",
"H  c #FAAF8E00",
"J  c #FFAF8800",
"K  c #F8B18F00",
"L  c #FFB08A00",
"P  c #FFB38E00",
"I  c #F6B09000",
"U  c #F7B39200",
"Y  c #F8B19000",
"T  c #F8B59500",
"R  c #F9B69600",
"E  c #FDB69200",
"W  c #FCBB9C00",
"Q  c #FEBB9E00",
"!  c #FFBF9F00",
"~  c #FABFA200",
"^  c #FDC1A300",
"/  c #FFC1A100",
"(  c #FEC3A600",
")  c #FFC4A400",
"_  c #FFC5A700",
"`  c #FFC4A900",
"'  c #FFC6A900",
"]  c #FDC7AC00",
"[  c #FEC9AF00",
"{  c #FFCBAF00",
"}  c #FFCDB300",
"|  c #FFCEB500",
" . c #FFCFB700",
".. c #FCCFB800",
"X. c #FDD1BA00",
"o. c #FED1BA00",
"O. c #FFD1BA00",
"+. c #FFD2BA00",
"@. c #FFD3BC00",
"#. c #FFD3BD00",
"$. c gray100",
"%. c None",
/* pixels */
"%.%.%.%.%.%.%.%.%.%.%.%.%.%.%.%.",
"%.%.%.T Y %.%.%.%.%.%.%.%.%.%.%.",
"%.Y g w 9 g z y 8 3 5 d %.%.%.%.",
"%.g T +.E k a D ^ [ w 7 %.%.%.%.",
"%.w +.! +.` #.| ^ | m 6 %.%.%.%.",
"%.h W J F J A N n Z u 4 1 - < %.",
"%.y G $.b x q 2 8 M I ^ ..I > %.",
"%.s $.# $.$.l ] @.{ _ _ +., . %.",
"%.$.# # # # $.P V V V | C & %.%.",
"$.$.$.# $.# # $.v v J ( = O %.%.",
"$.# $.$.$.$.# $.c A ` f % %.%.%.",
"$.# $.$.$.$.# $.! G y * o %.%.%.",
"$.# # $.# $.$.$.: $ @ X %.%.%.%.",
"%.$.# # # # $.+   %.%.%.%.%.%.%.",
"%.%.$.$.# $.%.%.%.%.%.%.%.%.%.%.",
"%.%.%.%.$.%.%.%.%.%.%.%.%.%.%.%."
};
