/* XPM */
static char *replaced_file[] = {
/* columns rows colors chars-per-pixel */
"16 16 110 2",
"   c #9B5A3D00",
".  c #FF330000",
"X  c #C25E3200",
"o  c #C45F3200",
"O  c #C55F3200",
"+  c #C5603300",
"@  c #CB623400",
"#  c #CC633400",
"$  c #CE643500",
"%  c #D1653600",
"&  c #D2663600",
"*  c #D4683700",
"=  c #D7683700",
"-  c #D86A3800",
";  c #DB6B3900",
":  c #DF6B3800",
">  c #DE6D3A00",
",  c #DF6D3B00",
"<  c #E16F3C00",
"1  c #E4723F00",
"2  c #ED723C00",
"3  c #E4734100",
"4  c #E8744000",
"5  c #EA764300",
"6  c #EB774400",
"7  c #E8794700",
"8  c #EC794600",
"9  c #EE7C4800",
"0  c #EE7D4B00",
"q  c #EF804F00",
"w  c #ED875900",
"e  c #F0845400",
"r  c #F3865600",
"t  c #F0885900",
"y  c #F08A5C00",
"u  c #F28A5D00",
"i  c #F4895B00",
"p  c #F48A5C00",
"a  c #F58C5F00",
"s  c #F18D6000",
"d  c #F18E6100",
"f  c #F18F6200",
"g  c #F58D6000",
"h  c #F58E6100",
"j  c #F5906400",
"k  c #F5916500",
"l  c #F5926600",
"z  c #F5936700",
"x  c #F5946800",
"c  c #F6946900",
"v  c #F6956A00",
"b  c #F6966B00",
"n  c #F6966C00",
"m  c #F6976D00",
"M  c #F6986E00",
"N  c #F6986F00",
"B  c #F7997000",
"V  c #F79A7100",
"C  c #F79B7200",
"Z  c #F79C7300",
"A  c #F79D7500",
"S  c #F89E7600",
"D  c #F89F7700",
"F  c #F8A07800",
"G  c #F8A17900",
"H  c #F8A17A00",
"J  c #F8A27B00",
"K  c #F8A37C00",
"L  c #F8A47D00",
"P  c #F6A58100",
"I  c #F6A78400",
"U  c #F7A78500",
"Y  c #F7A98800",
"T  c #F7AB8900",
"R  c #F7AC8B00",
"E  c #F7AE8D00",
"W  c #F8A58000",
"Q  c #F8A68100",
"!  c #F9A78200",
"~  c #F9AA8500",
"^  c #F9AB8600",
"/  c #FAAE8B00",
"(  c #F8AE8E00",
")  c #FAAF8C00",
"_  c #F8B09100",
"`  c #FAB29200",
"'  c #F8B39400",
"]  c #F8B39500",
"[  c #FAB49400",
"{  c #FBB69600",
"}  c #FBB79700",
"|  c #F9B59800",
" . c #F9B69900",
".. c #F9B89B00",
"X. c #F9BA9D00",
"o. c #F9BB9F00",
"O. c #FCBA9C00",
"+. c #FABDA100",
"@. c #FABEA200",
"#. c #FDBEA000",
"$. c #FAC1A600",
"%. c #FBC1A600",
"&. c #FCCDB700",
"*. c #FDD0BB00",
"=. c #FED2BD00",
"-. c #FED4C100",
";. c #FED7C400",
":. c #FED9C700",
">. c gray100",
",. c None",
/* pixels */
",.,.,.,.,.,.,.,.,.,.,.,.,.,.,.,.",
",.,.f f f y t e 0 0 6 7 ,.,.,.,.",
",.,.f >.:.;.-.=.=.&.2 w 3   ,.,.",
",.,.>.. >.>.#.O.| { 2 %.y , ,.,.",
",.>.. . . . >.{ ` ) 2 2 2 < ,.,.",
">.>.>.. >.. . >./ ^ ! L +., ,.,.",
">.. >.>.>.>.. >.^ ! K F ..; ,.,.",
">.. >.>.>.>.. >.! F D C | = ,.,.",
">.. . >.. >.>.>.F D C m ] * ,.,.",
",.>.. . . . >.F A C m c _ % ,.,.",
",.,.>.>.. >.F Z m c j g ) # ,.,.",
",.,.0 %.>.A C M c j g p T # ,.,.",
",.,.7 +.D C m c f p i r U O ,.,.",
",.,.6 ....| ` _ _ T T U P X ,.,.",
",.,.4 3 < , ; = % # @ O X O ,.,.",
",.,.,.,.,.,.,.,.,.,.,.,.,.,.,.,."
};
