/* XPM */
static char * replock_deleted_file_xpm[] = {
"16 16 7 1",
" 	c None",
".	c #808080",
"+	c #FFFFFF",
"@	c #FF0000",
"#	c #000000",
"$	c #C0C0C0",
"%	c #00DB00",
" ..........     ",
" .++++++++..    ",
" .++++++++@@.   ",
" .+@@++++@@###  ",
" .++@#++@@#+$#  ",
" .++@@.@@#++$#  ",
" .+++@@@#+++$#  ",
" .++.@@@..####  ",
" .++@@@@##++$#  ",
" .+@@@@@@#++$#  ",
" .+@@#+@@##+$#  ",
" .@@#...####### ",
" .@#++++#%%%%%# ",
" .++++++#%%%%%# ",
" .$$$$$$#%%%%%# ",
" ############## "};
