/* XPM */
static char *replaced_folder[] = {
/* columns rows colors chars-per-pixel */
"16 16 83 1",
"  c #99482400",
". c red",
"X c #C45D3000",
"o c #C45E3100",
"O c #C65E3100",
"+ c #CB613200",
"@ c #CD623300",
"# c #CF633400",
"$ c #D2643400",
"% c #D5653500",
"& c #D5663600",
"* c #D9693700",
"= c #DD6A3800",
"- c #E6723F00",
"; c #E8713C00",
": c #ED713B00",
"> c #ED723C00",
", c #EE743E00",
"< c #E2744300",
"1 c #EA764300",
"2 c #EE774200",
"3 c #EC7F4F00",
"4 c #EF7D4C00",
"5 c #E2885E00",
"6 c #EF815100",
"7 c #EF825100",
"8 c #EF835400",
"9 c #EF855600",
"0 c #ED8B5D00",
"q c #F1865600",
"w c #F0865800",
"e c #F1895A00",
"r c #F2895A00",
"t c #F0895C00",
"y c #FF8B5700",
"u c #FF8C5700",
"i c #FF8E5A00",
"p c #F2916600",
"a c #F2926700",
"s c #FF976500",
"d c #F89D7100",
"f c #F6A17900",
"g c #FFA27400",
"h c #FFA37400",
"j c #FFAB8000",
"k c #FFAE8300",
"l c #FFB08700",
"z c #FFB28800",
"x c #FFB48B00",
"c c #FFB58C00",
"v c #FBB69400",
"b c #FFB69000",
"n c #FFB79200",
"m c #FAB79A00",
"M c #F9BA9B00",
"N c #F9BC9E00",
"B c #FFBD9900",
"V c #FFBE9A00",
"C c #FABEA100",
"Z c #FEBEA200",
"A c #FFBFA200",
"S c #FCC3A700",
"D c #FEC4AA00",
"F c #FCC7AD00",
"G c #FCC8AC00",
"H c #FCC9B000",
"J c #FDCBB200",
"K c #FFCBB200",
"L c #FECCB300",
"P c #FFD1B800",
"I c #FFD1B900",
"U c #FFD1BA00",
"Y c #FDD2BD00",
"T c #FFD5BF00",
"R c #FFD6C100",
"E c #FED9C500",
"W c #FFD9C400",
"Q c #FEDAC600",
"! c #FFDBC700",
"~ c #FFDCC800",
"^ c #FFE0CD00",
"/ c gray100",
"( c None",
/* pixels */
"((((((((((((((((",
"((((((((((((((((",
"(Nat98ef((((((((",
"(aCQ~QG4eq6130((",
"(tQxlxUJSFYLv-((",
"(wTjjjlnnd2>>;5(",
"(8U/:::::,G^^M<(",
"(6/.//~~!!QVVQ=(",
"(/..../jjkjkkR*(",
"///./../hhhhhU&(",
"/.////./sssssJ#(",
"/.////./iyyuiDO(",
"/.././//ZSZZZmo(",
"(/..../&$#@+OO (",
"((//./((((((((((",
"((((/((((((((((("
};
