/* XPM */
static char *replaced_file_xpm[] = {
/* columns rows colors chars-per-pixel */
"16 16 119 2",
"   c #010101",
".  c #0c0c0c",
"X  c #1d222b",
"o  c #1e2533",
"O  c #272720",
"+  c #282429",
"@  c #252831",
"#  c #21293a",
"$  c #4f4f50",
"%  c #4f5156",
"&  c #525356",
"*  c #565658",
"=  c #5d5d77",
"-  c #5f5f7a",
";  c #615f7c",
":  c #6c6c6c",
">  c #626176",
",  c #61617a",
"<  c #6a6a75",
"1  c #727273",
"2  c #777780",
"3  c #7c7e80",
"4  c #7d858f",
"5  c #79829c",
"6  c #a39e4f",
"7  c #ad9b5d",
"8  c #afa65b",
"9  c #cfbb7a",
"0  c #84868a",
"q  c #91919a",
"w  c #999693",
"e  c #9e949b",
"r  c #9a999a",
"t  c #8a94b0",
"y  c #8f99b0",
"u  c #9396ad",
"i  c #9198a4",
"p  c #9c9aa1",
"a  c #949db5",
"s  c #a09b9d",
"d  c #a89b92",
"f  c #b9a18e",
"g  c #bdb096",
"h  c #a1a1a1",
"j  c #a0afa3",
"k  c #aca9a6",
"l  c #aaaaaa",
"z  c #a1a6b8",
"x  c #a8a7ba",
"c  c #a9b6b5",
"v  c #b6b6b7",
"b  c #b1b9bd",
"n  c #bdbdbd",
"m  c #a0b5da",
"M  c #a7bbdf",
"N  c #abb1d3",
"B  c #b1b4d8",
"V  c #b1b9d9",
"C  c #adade6",
"Z  c #a4b4ee",
"A  c #a7b9e6",
"S  c #a6bcf4",
"D  c #b3baef",
"F  c #b7c2cc",
"G  c #b7c0d3",
"H  c #b4c0dd",
"J  c #acc4fc",
"K  c #aecbfa",
"L  c #b2c3e5",
"P  c #becee2",
"I  c #b3c6f3",
"U  c #b4c7fd",
"Y  c #b3cbfd",
"T  c #b4d0fe",
"R  c #c7ba98",
"E  c #d5b78d",
"W  c #d9c59f",
"Q  c #c8caac",
"!  c #d6c6b1",
"~  c #c3c3c3",
"^  c #c1c9cf",
"/  c #cecece",
"(  c #c0ccde",
")  c #d1d1cf",
"_  c #d4d4d4",
"`  c #dbdbdc",
"'  c #c1c8ee",
"]  c #c7ccf8",
"[  c #c8ccfe",
"{  c #c2d3ff",
"}  c #cad2f4",
"|  c #ccd5fe",
" . c #d0d5e3",
".. c #d5d7f9",
"X. c #d7d8f5",
"o. c #d1dafd",
"O. c #ddddf5",
"+. c #dddcfd",
"@. c #cde0ec",
"#. c #d6ecff",
"$. c #d9e3ff",
"%. c #dce9ff",
"&. c #d7f2ff",
"*. c #dbf0ff",
"=. c #f2e4c7",
"-. c #e4e4e3",
";. c #ededee",
":. c #e6e6f1",
">. c #e4e5ff",
",. c #e5eaf1",
"<. c #eeeff4",
"1. c #e2f8ff",
"2. c #e8f2f6",
"3. c #eafbfd",
"4. c #f3f3f3",
"5. c #f3f9ff",
"6. c #fefbf6",
"7. c #fefdfd",
"8. c None",
/* pixels */
"8.  8.. X X # o # @ # O + . 8.  ",
"8.  8.1 =.! W W E R 9 f Q 1 8.  ",
"8.  8.1 C 7 d 8 w s 6 s g 1 8.  ",
"8.  8.2 D j m c M L V P  .& 8.  ",
"8.  8.- | U U T T T U J { % 8.  ",
"8.  8.= ] Y S a y a S U | % 8.  ",
"8.  8.= ] T Z 3 x u 4 I $.& 8.  ",
"8.  8.2 [ +.B t >.X.3 ' >.& 8.  ",
"8.  8.> | $.V 0 N p i o.%.& 8.  ",
"8.  8.> } %.G 0 x 1 ( #.*.& 8.  ",
"8.  8.; | #.F w 1.b 4 @.3.& 8.  ",
"8.  8.- X.3.^ r 2.5.k q 5.* 8.  ",
"8.  8., O.6.2.,.7.7.6.-.7.& 8.  ",
"8.  8.= +.7.7.7.7.7.7.7.4.& 8.  ",
"8.  8.< :.7.;.` ` / ~ n _ : 8.  ",
"8.  8.: ) r h l v n ) _ 4.1 8.  "
};
