/* XPM */
static char *repository[] = {
/* columns rows colors chars-per-pixel */
"16 16 142 2",
"   c #5F677200",
".  c #68707E00",
"X  c #6A738000",
"o  c #69748400",
"O  c #6C798B00",
"+  c #6F7A8C00",
"@  c #6F7C8F00",
"#  c #747F8E00",
"$  c #717E9000",
"%  c #717F9200",
"&  c #727F9300",
"*  c #74809200",
"=  c #74819500",
"-  c #74829600",
";  c #7B879800",
":  c #7C899D00",
">  c #7D8A9D00",
",  c #7F8B9F00",
"<  c #7E8DA300",
"1  c #7F8DA300",
"2  c #7F8EA300",
"3  c #808EA200",
"4  c #8190A500",
"5  c #8793A300",
"6  c #8493A700",
"7  c #8592A600",
"8  c #8793A500",
"9  c #8693A600",
"0  c #8593A800",
"q  c #8594A900",
"w  c #8795A900",
"e  c #8896AA00",
"r  c #8997AB00",
"t  c #8B97AA00",
"y  c #8B98AC00",
"u  c #8B99AD00",
"i  c #8F99A900",
"p  c #8C99AD00",
"a  c #8E9AAE00",
"s  c #8E9BAF00",
"d  c #8F9CAF00",
"f  c #909AAA00",
"g  c #919EB100",
"h  c #929FB100",
"j  c #929EB200",
"k  c #93A0B200",
"l  c #94A0B300",
"z  c #95A2B300",
"x  c #96A2B400",
"c  c #9AA6B700",
"v  c #9CA7B800",
"b  c #9FA8B700",
"n  c #9DA8B900",
"m  c #9FAAB900",
"M  c #A0ABBB00",
"N  c #A3AEBD00",
"B  c #A4AEBE00",
"V  c #A5AFBE00",
"C  c #A7B1BF00",
"Z  c #AAB4C200",
"A  c #ABB5C400",
"S  c #B3BCC900",
"D  c #B4BDCA00",
"F  c #B6BFCB00",
"G  c #B9C1CD00",
"H  c #BBC3CF00",
"J  c #BCC4CF00",
"K  c #BDC5D000",
"L  c #BFC6D100",
"P  c #BFC7D200",
"I  c #C0C7D200",
"U  c #C0C7D300",
"Y  c #C0C8D300",
"T  c #C1C8D200",
"R  c #C1C8D300",
"E  c #C2C9D300",
"W  c #C2C9D400",
"Q  c #C3C9D400",
"!  c #C2CAD400",
"~  c #C3CAD400",
"^  c #C4CAD500",
"/  c #C4CBD500",
"(  c #C5CCD600",
")  c #C6CDD700",
"_  c #C8CFD900",
"`  c #C9CED800",
"'  c #C9CFD900",
"]  c #CBD1DA00",
"[  c #CCD1DA00",
"{  c #CCD2DB00",
"}  c #CDD2DB00",
"|  c #CCD3DC00",
" . c #CED5DD00",
".. c #CFD4DD00",
"X. c #CFD5DD00",
"o. c #D0D5DE00",
"O. c #D1D6DE00",
"+. c #D1D6DF00",
"@. c #D1D7DF00",
"#. c #D2D7DF00",
"$. c #D2D7E000",
"%. c #D3D8E000",
"&. c #D4D9E000",
"*. c #D4D9E100",
"=. c #D5DAE100",
"-. c #D5DAE200",
";. c #D6DBE200",
":. c #D7DCE200",
">. c #D8DCE300",
",. c #D9DDE300",
"<. c #D9DDE400",
"1. c #D9DEE400",
"2. c #D9DEE500",
"3. c #DADDE400",
"4. c #DADFE500",
"5. c #DBDFE500",
"6. c #DBDFE600",
"7. c #DCDFE600",
"8. c #DBE0E600",
"9. c #DCE0E600",
"0. c #DDE0E600",
"q. c #DEE1E700",
"w. c #DEE2E800",
"e. c #DFE2E800",
"r. c #DFE3E800",
"t. c #E0E3E900",
"y. c #E0E4E900",
"u. c #E1E4E900",
"i. c #E3E6EB00",
"p. c #E5E8ED00",
"a. c #E6E9ED00",
"s. c #E8EAEE00",
"d. c #E8EAEF00",
"f. c #EAEDF000",
"g. c #EBEDF000",
"h. c #ECEEF100",
"j. c #EDEFF200",
"k. c #EEF0F300",
"l. c #EEF1F300",
"z. c #EFF1F400",
"x. c gray100",
"c. c None",
/* pixels */
"c.c.c.c.c.c.c.c.c.c.c.c.c.c.c.c.",
"c.c.c.c.E Z v d s g x n c.c.c.c.",
"c.c.' B B / t.f.d.>.H l 7 i c.c.",
"c.E l #.k.d.i.:.$.;.>.q.E 3 5 c.",
"c.M #.j.p.e.6.%...' ^ ! #.E : c.",
"c.n ;.k.i.8.;.#.| / E L #.E : c.",
"c.N 0 [ j.p.6.$.| ..;.;.J 7 : c.",
"c.s #.y g H ;.e.e...D k q L = c.",
"c.y k.q.J c r < 1 q g A ! e.% c.",
"c.q k.6.:.;.#...| ' / ! U e.@ c.",
"c.7 j.q.;.#...[ ' ) ! U ! q.O c.",
"c.s E p.;...[ ` ) ^ ! ^ 6.D + c.",
"c.C 4 U i.q.#.] ` ] ;.6.S # o c.",
"c.c.b 7 t H ..q.6.] S ; o   c.c.",
"c.c.c.c.f 7 : = % % # . c.c.c.c.",
"c.c.c.c.c.c.c.c.c.c.c.c.c.c.c.c."
};
