/* XPM */
static char *repository_bookmark[] = {
/* columns rows colors chars-per-pixel */
"16 16 166 2",
"   c #5F677200",
".  c #68707E00",
"X  c #4A648E00",
"o  c #4A658F00",
"O  c #4C679200",
"+  c #4D699500",
"@  c #4E6A9700",
"#  c #4F6C9900",
"$  c #506E9B00",
"%  c #516F9D00",
"&  c #526F9D00",
"*  c #52709F00",
"=  c #5673A100",
"-  c #5674A300",
";  c #5875A100",
":  c #5A78A700",
">  c #5F7AA000",
",  c #5D7AA700",
"<  c #5E7CAB00",
"1  c #5C7EAF00",
"2  c #6A738000",
"3  c #69748400",
"4  c #6C798B00",
"5  c #6F7A8C00",
"6  c #6F7C8F00",
"7  c #747F8E00",
"8  c #717E9000",
"9  c #717F9200",
"0  c #727F9300",
"q  c #617FAD00",
"w  c #74809200",
"e  c #74819500",
"r  c #74829600",
"t  c #7B879800",
"y  c #7C899D00",
"u  c #7D8A9D00",
"i  c #7F8B9F00",
"p  c #6381AE00",
"a  c #6884AC00",
"s  c #6381B000",
"d  c #6482B000",
"f  c #6683B100",
"g  c #6885B200",
"h  c #6C88B400",
"j  c #6E8AB500",
"k  c #6F8BB600",
"l  c #7E8DA300",
"z  c #708CB600",
"x  c #728DB700",
"c  c #748FB800",
"v  c #7690B900",
"b  c #7BA5D000",
"n  c #7EA7D100",
"m  c #808EA200",
"M  c #8190A500",
"N  c #8793A300",
"B  c #8493A700",
"V  c #8592A600",
"C  c #8793A500",
"Z  c #8593A800",
"A  c #8594A900",
"S  c #8795A900",
"D  c #8896AA00",
"F  c #8B97AA00",
"G  c #8B99AD00",
"H  c #8F99A900",
"J  c #8E9AAE00",
"K  c #8E9BAF00",
"L  c #909AAA00",
"P  c #929FB100",
"I  c #929EB200",
"U  c #8EA2BA00",
"Y  c #93A0B200",
"T  c #94A0B300",
"R  c #95A2B300",
"E  c #96A2B400",
"W  c #94A7BF00",
"Q  c #9FA8B700",
"!  c #9DA8B900",
"~  c #9FAAB900",
"^  c #A0ABBB00",
"/  c #A3AEBD00",
"(  c #A7B1BF00",
")  c #81AAD300",
"_  c #83ABD400",
"`  c #86ADD600",
"'  c #88AFD700",
"]  c #8BB1D900",
"[  c #8DB2DA00",
"{  c #94AFD000",
"}  c #97B1D100",
"|  c #90B4DC00",
" . c #92B6DD00",
".. c #94B6D800",
"X. c #96B7D900",
"o. c #95B8DF00",
"O. c #97BAE000",
"+. c #9ABCE200",
"@. c #9CBEE300",
"#. c #ABB5C400",
"$. c #B3BCC900",
"%. c #B4BDCA00",
"&. c #B6BFCB00",
"*. c #ABC5DF00",
"=. c #B9C1CD00",
"-. c #BCC4CF00",
";. c #BFC6D100",
":. c #BFC7D200",
">. c #ACC6E000",
",. c #B7CEE400",
"<. c #BACFE500",
"1. c #BBD0E600",
"2. c #BCD1E700",
"3. c #BFD3E800",
"4. c #BFD4E800",
"5. c #C0C7D200",
"6. c #C0C8D300",
"7. c #C1C8D200",
"8. c #C1C8D300",
"9. c #C2C9D300",
"0. c #C2C9D400",
"q. c #C3C9D400",
"w. c #C2CAD400",
"e. c #C3CAD400",
"r. c #C4CAD500",
"t. c #C5CCD600",
"y. c #C6CDD700",
"u. c #C8CFD900",
"i. c #C9CFD900",
"p. c #CBD1DA00",
"a. c #CDD2DB00",
"s. c #CED5DD00",
"d. c #CFD4DD00",
"f. c #CFD5DD00",
"g. c #D1D6DE00",
"h. c #D1D7DF00",
"j. c #D2D7DF00",
"k. c #C1D5EA00",
"l. c #C2D5EA00",
"z. c #C4D7EB00",
"x. c #C6D9ED00",
"c. c #C7D9ED00",
"v. c #C9DAEE00",
"b. c #C9DBEE00",
"n. c #CBDDF000",
"m. c #CCDDF000",
"M. c #CEDFF100",
"N. c #CFDFF200",
"B. c #D4D9E000",
"V. c #D4D9E100",
"C. c #D6DBE200",
"Z. c #D8DCE300",
"A. c #D9DDE300",
"S. c #D9DDE400",
"D. c #D9DEE500",
"F. c #DADDE400",
"G. c #DBDFE500",
"H. c #DCE0E600",
"J. c #DEE1E700",
"K. c #DEE2E800",
"L. c #DFE3E800",
"P. c #ECEEF100",
"I. c #EEF0F300",
"U. c #EFF1F400",
"Y. c gray100",
"T. c None",
/* pixels */
"T.T.T.x x k g p < T.T.T.T.T.T.T.",
"T.T.T.v M.M.M.M.: P E ! T.T.T.T.",
"T.T.i.c M.+.+.n.- Z.-.R V H T.T.",
"T.9.Y x n.O.o.v.* C.Z.J.9.m N T.",
"T.^ j.h b. . .c.% i.r.w.j.9.y T.",
"T.! C.h c.[ ] z.$ y.9.;.j.9.y T.",
"T./ Z g z.' ` l.# d.C.C.-.V y T.",
"T.K j.f l._ ) 4.@ d.%.Y A ;.e T.",
"T.G U.f l.n b 2.@ A P #.9.L.9 T.",
"T.A I.p 2.....<.@ i.y.9.;.J.6 T.",
"T.Z P.q 1.*.*.<.O y.9.;.w.J.4 T.",
"T.K 9., } 1 1 { X r.9.y.F.%.5 T.",
"T.( M ; = W U % X a.C.F.$.9 . T.",
"T.T.Q a F =.j.G.> p.%.t 3   T.T.",
"T.T.T.T.L V y e 9 w 7 . T.T.T.T.",
"T.T.T.T.T.T.T.T.T.T.T.T.T.T.T.T."
};
