/* XPM */
static char *resolve_xpm[] = {
/* columns rows colors chars-per-pixel */
"16 16 90 1",
"  c #e66806",
". c #e8761b",
"X c #e97926",
"o c #9c8543",
"O c #95856a",
"+ c #a48f41",
"@ c #a28c55",
"# c #a4936d",
"$ c #ab9a71",
"% c #b7a877",
"& c #bfb06b",
"* c #e88233",
"= c #ea8638",
"- c #c9ba71",
"; c #ec8c42",
": c #eb944f",
"> c #eb9351",
", c #ee9957",
"< c #ec9f60",
"1 c #efa66b",
"2 c #eda86d",
"3 c #edaa72",
"4 c #eaac79",
"5 c #d0c17f",
"6 c #8f858f",
"7 c #928586",
"8 c #8b87bb",
"9 c #928eb0",
"0 c #a09cbc",
"q c #a5a6a6",
"w c #aaabab",
"e c #afb0b0",
"r c #b1b3b3",
"t c #b5b5bd",
"y c #bcb9b4",
"u c #bbbbbb",
"i c #969ac9",
"p c #9a9dcb",
"a c #9799d1",
"s c #9d9cd0",
"d c #bebec1",
"f c #b5b8d3",
"g c #bfc0c1",
"h c #bfc7c8",
"j c #f1b382",
"k c #f0b78a",
"l c #f0be94",
"z c #dacc84",
"x c #dacf9a",
"c c #c2c1bf",
"v c #cdcbbf",
"b c #d1c7ab",
"n c #d5c9a9",
"m c #d1c6b6",
"M c #d8ccb9",
"N c #f2c39b",
"B c #e6debd",
"V c #fbcaa2",
"C c #f4d4b9",
"Z c #e7e0bd",
"A c #c1c1c2",
"S c #c6c8c6",
"D c #c7c8c9",
"F c #c8c7c7",
"G c #c9cac9",
"H c #cfcddd",
"J c #ccd2d3",
"K c #c8d3d8",
"L c #d4cfcf",
"P c #dadedd",
"I c #dde7e8",
"U c #e2dcc3",
"Y c #f6dcc5",
"T c #f9dfc6",
"R c #e1dfeb",
"E c #ece7db",
"W c #f7ebdc",
"Q c #f9e9da",
"! c #e2e5e5",
"~ c #ece6e0",
"^ c #eaeded",
"/ c #eaedfd",
"( c #f8eee3",
") c #f2f1eb",
"_ c #f9f5ee",
"` c #f4f7f4",
"' c #f6fcfa",
"] c #fcf7f1",
"[ c #fbf8f2",
"{ c #fefefe",
/* pixels */
"AFzZBzU5xb-n%&cc",
"d06+9O#8o07$p@yD",
"taHn/mERM'L)~~AA",
"tp{{{{{{{{{YY{Dc",
"tp'{{{{{{]l4Q{DA",
"tp{{{{{{[33({{Sc",
"tp'{{{{{j;_{{{Fd",
"tp'_{{{YXY{{{{SA",
"tp`NC{':<'{{{{DA",
"tp'Y:(Y.C{{{{{FA",
"di'{1,3=[{{{{{SA",
"di'{Q*.2{{{{{{FA",
"ti'{{k l{{{{{{Sc",
"ti'{{_VQ''`^!PeF",
"dfI!PJKhurwrueuG",
"ADrqweuFLDcADFAu"
};
