/* XPM */
static char *sort_down[] = {
/* columns rows colors chars-per-pixel */
"16 16 4 1",
"  c black",
". c #80808000",
"X c #8080FF00",
"o c None",
/* pixels */
"oooooooooooooooo",
"oooooooooooooooo",
"oooooooooooooooo",
"oooooooooooooooo",
"oooooooooooooooo",
"oooooooooooooooo",
"oooooooooooooooo",
"oooooo.X.X.X.X.X",
"oooooo.X.X.X.X.X",
"oooooooo.X.X.X.X",
"oooooooooo.X.X.X",
"oooooooooooo.X.X",
"oooooooooooooo.X",
"oooooooooooooooo",
"oooooooooooooooo",
"oooooooooooooooo"
};
