/* XPM */
static char *status_xpm[] = {
/* columns rows colors chars-per-pixel */
"16 16 95 2",
"   c #266bb0",
".  c #296db2",
"X  c #3474b5",
"o  c #3777b8",
"O  c #3778b7",
"+  c #3d79b6",
"@  c #3a7ab9",
"#  c #4481be",
"$  c #4a89c4",
"%  c #528bc4",
"&  c #518dc9",
"*  c #598ec2",
"=  c #5f92c6",
"-  c #6197ce",
";  c #6599c8",
":  c #6c9ccc",
">  c #76a8d8",
",  c #7aa9d8",
"<  c #9f8845",
"1  c #98886c",
"2  c #a48e56",
"3  c #a99445",
"4  c #a89771",
"5  c #af9d75",
"6  c #baab69",
"7  c #b4a674",
"8  c #c9ba70",
"9  c #d2c37e",
"0  c #928586",
"q  c #928993",
"w  c #8b88bb",
"e  c #9692b4",
"r  c #9c9bbb",
"t  c #a49ebc",
"y  c #b8ad8f",
"u  c #adaeae",
"i  c #aeb0af",
"p  c #b4b4b4",
"a  c #b6b6bd",
"s  c #b5b8b7",
"d  c #b7b8b9",
"f  c #b8b7b7",
"g  c #bcbab4",
"h  c #bbbcbb",
"j  c #9b9ccb",
"k  c #9d9ed4",
"l  c #86aed5",
"z  c #83b0dd",
"x  c #8cb3d9",
"c  c #9ca0ca",
"v  c #92b5d8",
"b  c #95b8da",
"n  c #99badb",
"m  c #96bfe4",
"M  c #99bde1",
"N  c #a0a2cc",
"B  c #b5b7c6",
"V  c #bdbec2",
"C  c #bcb9ce",
"Z  c #95c0e3",
"A  c #bfc0c1",
"S  c #a2c5e7",
"D  c #aec9e4",
"F  c #c9bd88",
"G  c #c0b59a",
"H  c #c6bb9b",
"J  c #c0b4ab",
"K  c #cdc281",
"L  c #c7c1a8",
"P  c #c4c3ba",
"I  c #d4cdab",
"U  c #d7cbb8",
"Y  c #c2c3c2",
"T  c #c6c9c9",
"R  c #cdd1d0",
"E  c #d5cece",
"W  c #dadfde",
"Q  c #c5d9ec",
"!  c #cce0f3",
"~  c #d0e0ef",
"^  c #dfe9e8",
"/  c #ddeef6",
"(  c #e0deea",
")  c #ebe5da",
"_  c #e1e2e1",
"`  c #e4e8e8",
"'  c #ece6e0",
"]  c #ebeeee",
"[  c #e6ebfd",
"{  c #f0eeef",
"}  c #f3f0ea",
"|  c #f4f6f6",
" . c #f2f6fa",
".. c #f5fafa",
"X. c #fdfefe",
/* pixels */
"Y P K I H 9 L 9 F y 8 y 7 6 J T ",
"V r q 3 e 1 5 w < N 0 5 j 2 g A ",
"a k C G [ J ) ( U X.E { { ' Y d ",
"a c X.X.X.X.X.X.X.X.X.X.X.X.Y d ",
"a c X.X.X.X.~ n v Q X.X.X.X.Y f ",
"a c ..X.X.D , & # X l X.X.X.Y p ",
"a c ..X.Q Z ! m & @ . D X.X.Y f ",
"a c X.X.n S / Z $ O . : X.X.Y f ",
"a c ..X.x > z - # #   : X.X.Y f ",
"a c ..X.D $ $ # # # + n X.X.Y p ",
"a c ..X...: X O + + ; | X.X.Y f ",
"a c | X.X. .b ; # n | X...X.Y f ",
"a c | X.X.X.X.X.X.X.X.X.X.X.Y p ",
"a c ..X.X.X.X.X.....| ] ` _ p h ",
"V B ^ ` W R T Y h s a i i i f Y ",
"A Y s u p p s f h h J Y Y A A A "
};
