/* XPM */
static char * versioned_folder_xpm[] = {
"25 24 257 2",
"  	c None",
". 	c #800027",
"+ 	c #3A6484",
"@ 	c #427694",
"# 	c #4A7994",
"$ 	c #326E9C",
"% 	c #426794",
"& 	c #5B859B",
"* 	c #53739B",
"= 	c #648194",
"- 	c #6B8795",
"; 	c #6B8D9D",
"> 	c #738D95",
", 	c #7B909D",
"' 	c #7B889D",
") 	c #5383A5",
"! 	c #5A93AE",
"~ 	c #4B7AA5",
"{ 	c #537FA5",
"] 	c #5378A5",
"^ 	c #6B85A5",
"/ 	c #7389A5",
"( 	c #437BB5",
"_ 	c #5A90BE",
": 	c #4A73BE",
"< 	c #5194C7",
"[ 	c #5292CE",
"} 	c #5AA0D6",
"| 	c #4277CE",
"1 	c #5A86CE",
"2 	c #4281D6",
"3 	c #4A90DE",
"4 	c #528AD6",
"5 	c #5A9EDE",
"6 	c #6B93CF",
"7 	c #7398CF",
"8 	c #7BA1CF",
"9 	c #63A0DF",
"0 	c #6B9FDF",
"a 	c #73A7D7",
"b 	c #739DD7",
"c 	c #73A8DF",
"d 	c #6B94DF",
"e 	c #7B9ADF",
"f 	c #5AAAE8",
"g 	c #5BB3F7",
"h 	c #7AB6E8",
"i 	c #72C2F0",
"j 	c #6A9FE8",
"k 	c #7AB0E8",
"l 	c #7AA6E8",
"m 	c #7ACAF8",
"n 	c #63B0F7",
"o 	c #6AB0F8",
"p 	c #63B8FF",
"q 	c #63B4FF",
"r 	c #73C2FF",
"s 	c #73BFFF",
"t 	c #7AA6F0",
"u 	c #63B0FF",
"v 	c #6BB1FF",
"w 	c #63A9FF",
"x 	c #6BADFF",
"y 	c #73AEF7",
"z 	c #7AB2F8",
"A 	c #73A8F7",
"B 	c #73BBFF",
"C 	c #7BC3FF",
"D 	c #73AEFF",
"E 	c #7BB9FF",
"F 	c #7BB6FF",
"G 	c #7AA1F8",
"H 	c #73ABFF",
"I 	c #7BADFF",
"J 	c #7BA3FF",
"K 	c #8A9585",
"L 	c #83929D",
"M 	c #8C9B9C",
"N 	c #8CA6A0",
"O 	c #96A69B",
"P 	c #8CACBE",
"Q 	c #94AEB6",
"R 	c #94ADBE",
"S 	c #8BAAC7",
"T 	c #84B3DE",
"U 	c #9BBDD7",
"V 	c #9BC0DF",
"W 	c #8CB1DE",
"X 	c #9BBDDF",
"Y 	c #ADB7DB",
"Z 	c #B5CADF",
"` 	c #B5C6DF",
" .	c #84B3E8",
"..	c #94BCE8",
"+.	c #94C2F0",
"@.	c #85CDFF",
"#.	c #94CDF8",
"$.	c #ACD8E8",
"%.	c #B5D5E7",
"&.	c #B5DFEF",
"*.	c #9CC0F0",
"=.	c #85C7FF",
"-.	c #85C4FF",
";.	c #8DCDFF",
">.	c #8DC8FF",
",.	c #8DC0FF",
"'.	c #94C3F8",
").	c #9CCAF8",
"!.	c #94BCF8",
"~.	c #95CEFF",
"{.	c #95C9FF",
"].	c #95C7FF",
"^.	c #9DCBFF",
"/.	c #8DA8FF",
"(.	c #8DBDFF",
"_.	c #85B0FF",
":.	c #85AAFF",
"<.	c #8DB5FF",
"[.	c #8DB0FF",
"}.	c #94B7F8",
"|.	c #95C2FF",
"1.	c #95BFFF",
"2.	c #9DC9FF",
"3.	c #95BAFF",
"4.	c #95B5FF",
"5.	c #9DC0FF",
"6.	c #9DBBFF",
"7.	c #BDCFE7",
"8.	c #ACD9F8",
"9.	c #ACCCF8",
"0.	c #A5D2FF",
"a.	c #BCD7F8",
"b.	c #BDE2FF",
"c.	c #A5BBFB",
"d.	c #A5C9FF",
"e.	c #ADD0FF",
"f.	c #A5C1FF",
"g.	c #ADCCFF",
"h.	c #ADC6FF",
"i.	c #B5D8FF",
"j.	c #BDDEFF",
"k.	c #BDDBFF",
"l.	c #B5CCFF",
"m.	c #BDD1FF",
"n.	c #C6EEF8",
"o.	c #CFF5FF",
"p.	c #D6EDF8",
"q.	c #CFEAFF",
"r.	c #C7DCFF",
"s.	c #CFE2FF",
"t.	c #D7ECFF",
"u.	c #DFF5FF",
"v.	c #D7E8FF",
"w.	c #D7E3FF",
"x.	c #DFE9FF",
"y.	c #E7FFFB",
"z.	c #EFFFFE",
"A.	c #E7EEFF",
"B.	c #EFF4FF",
"C.	c #FFFFFF",
"D.	c #BD12EE",
"E.	c #000000",
"F.	c #29F9AD",
"G.	c #00DE97",
"H.	c #4CFE3E",
"I.	c #000000",
"J.	c #9904EE",
"K.	c #06DE15",
"L.	c #EE128E",
"M.	c #9DFBD2",
"N.	c #29F990",
"O.	c #FFFFFF",
"P.	c #EE127F",
"Q.	c #B5FDBD",
"R.	c #0BDD6E",
"S.	c #55FE3E",
"T.	c #A90111",
"U.	c #55FE3E",
"V.	c #040300",
"W.	c #000000",
"X.	c #000000",
"Y.	c #040300",
"Z.	c #EBFEEA",
"`.	c #000000",
" +	c #000000",
".+	c #000000",
"++	c #EE1260",
"@+	c #3CD8AE",
"#+	c #442D00",
"$+	c #EBFEEA",
"%+	c #040300",
"&+	c #C412F0",
"*+	c #040300",
"=+	c #A90111",
"-+	c #442D00",
";+	c #040300",
">+	c #EE1293",
",+	c #3C2800",
"'+	c #000000",
")+	c #00DE97",
"!+	c #1A1200",
"~+	c #00D8B2",
"{+	c #030C00",
"]+	c #D46D62",
"^+	c #9301EF",
"/+	c #020A00",
"(+	c #CC12EE",
"_+	c #F012C9",
":+	c #9300F0",
"<+	c #9DFBD2",
"[+	c #26F84E",
"}+	c #FFFFFF",
"|+	c #A910F0",
"1+	c #5C2D00",
"2+	c #00DE97",
"3+	c #000000",
"4+	c #55FE3E",
"5+	c #A90111",
"6+	c #55FE3E",
"7+	c #040300",
"8+	c #FFFFFF",
"9+	c #9B09EF",
"0+	c #64A1B2",
"a+	c #55FE3E",
"b+	c #55FE3E",
"c+	c #A912F0",
"d+	c #F012C9",
"e+	c #FF0196",
"f+	c #510903",
"g+	c #FFFFFF",
"h+	c #55FE3E",
"i+	c #39B144",
"j+	c #55FE3E",
"k+	c #D55645",
"l+	c #55FE3E",
"m+	c #83A01C",
"n+	c #83A01C",
"o+	c #ABB505",
"p+	c #000201",
"q+	c #A90111",
"r+	c #B50370",
"s+	c #000000",
"t+	c #000000",
"u+	c #1DBD4E",
"v+	c #1DBD4E",
"w+	c #1DBD4E",
"x+	c #1DBD4E",
"y+	c #F012C9",
"z+	c #33D822",
"A+	c #F012DE",
"B+	c #22D82B",
"C+	c #F012DE",
"D+	c #BDB1BB",
"E+	c #B50370",
"F+	c #B50370",
"G+	c #10B277",
"H+	c #020100",
"C.C.C.C.C.C.C.C.C.C.C.C.C.C.C.C.C.C.C.C.C.C.C.C.C.",
"C.C.C.C.C.C.C.C.C.C.C.C.C.C.C.C.C.C.C.C.C.C.C.C.C.",
"C.C.C.C.C.C.C.C.C.C.C.C.C.C.C.C.C.C.C.C.C.C.C.C.C.",
"C.C.C.C.C.C.C.C.C.C.C.C.C.C.C.C.C.C.C.C.C.C.C.C.C.",
"C.C.C.C.G+G+G+G+p.Z G+G+G+G+G+G+G+G+G+G+C.C.C.C.C.",
"C.C.C.C.G+` r.a.j.*.X G+G+t.7 d e G+G+G+C.C.C.C.C.",
"C.C.C.C.u.9.!.l.5.<.}.X  .k |.0 c T S %.C.C.C.C.C.",
"C.C.C.C.U d.6.|.1.6.l ..t +.&.y.z.o.V % C.C.C.C.C.",
"C.C.C.C.q.|.y ].#.a ).b.v.A.B.n.s.w.P , C.C.C.C.C.",
"C.C.C.C.$.b j h 8.i.k.s.x.7.w.m.f.h.^ L C.C.C.C.C.",
"C.C.C.C.G+W 4.f.k.e.l.g.f.c.m.g.5.}.* R C.C.C.C.C.",
"C.C.C.C.G+8 t h.g.f././.G 6.2.f.(.].& G+C.C.C.C.C.",
"C.C.C.C.G+| 3.(.[.f.1.^.:.6.g.1._.o ] G+C.C.C.C.C.",
"C.C.C.C.G+6 0.2.A <.H _.|.d.'.(.I 9 = G+C.C.C.C.C.",
"C.C.C.C.G+1 ~.2.F 5.z =.>.d.,.D J [ - G+C.C.C.C.C.",
"C.C.C.C.G+2 s r n @.C ;.p B E 3 v ( / G+C.C.C.C.C.",
"C.C.C.C.G+5 {.-.x q w u g } _ { ) # ' G+C.C.C.C.C.",
"C.C.C.C.G+4 m i f < ( $ @ ; M K G+G+G+G+C.C.C.C.C.",
"C.C.C.C.G+: ~ ! + > L O G+G+G+G+G+G+G+G+C.C.C.C.C.",
"C.C.C.C.G+Y Q N G+G+G+G+G+G+G+G+G+G+G+G+C.C.C.C.C.",
"C.C.C.C.C.C.C.C.C.C.C.C.C.C.C.C.C.C.C.C.C.C.C.C.C.",
"C.C.C.C.C.C.C.C.C.C.C.C.C.C.C.C.C.C.C.C.C.C.C.C.C.",
"C.C.C.C.C.C.C.C.C.C.C.C.C.C.C.C.C.C.C.C.C.C.C.C.C.",
"C.C.C.C.C.C.C.C.C.C.C.C.C.C.C.C.C.C.C.C.C.C.C.C.C."};
