/* XPM */
static char *aalogo_xpm[] = {
/* columns rows colors chars-per-pixel */
"32 32 6 1",
"  c black",
". c blue",
"X c #00bf00",
"o c red",
"O c yellow",
"+ c white",
/* pixels */
"                                ",
" oooooo +++++++++++++++++++++++ ",
" oooooo +++++++++++++++++++++++ ",
" oooooo +++++++++++++++++++++++ ",
" oooooo +++++++++++++++++++++++ ",
" oooooo +++++++++++++++++++++++ ",
" oooooo +++++++++++++++++++++++ ",
" oooooo +++++++++++++++++++++++ ",
"                                ",
" ++++++ ++++++++++++++++++ .... ",
" ++++++ ++++++++++++++++++ .... ",
" ++++++ ++++++++++++++++++ .... ",
" ++++++ ++++++++++++++++++ .... ",
" ++++++ ++++++++++++++++++ .... ",
" ++++++ ++++++++++++++++++      ",
" ++++++ ++++++++++++++++++ ++++ ",
" ++++++ ++++++++++++++++++ ++++ ",
" ++++++ ++++++++++++++++++ ++++ ",
" ++++++ ++++++++++++++++++ ++++ ",
" ++++++ ++++++++++++++++++ ++++ ",
" ++++++ ++++++++++++++++++ ++++ ",
" ++++++ ++++++++++++++++++ ++++ ",
" ++++++ ++++++++++++++++++ ++++ ",
" ++++++ ++++++++++++++++++ ++++ ",
" ++++++                    ++++ ",
" ++++++ OOOOOOOOOOOO XXXXX ++++ ",
" ++++++ OOOOOOOOOOOO XXXXX ++++ ",
" ++++++ OOOOOOOOOOOO XXXXX ++++ ",
" ++++++ OOOOOOOOOOOO XXXXX ++++ ",
" ++++++ OOOOOOOOOOOO XXXXX ++++ ",
" ++++++ OOOOOOOOOOOO XXXXX ++++ ",
"                                "
};
