/* XPM */
static char *folderup_xpm[] = {
/* columns rows colors chars-per-pixel */
"16 16 114 2",
"   c #0e167d",
".  c #10187e",
"X  c #141e81",
"o  c #162286",
"O  c #1a2485",
"+  c #1d2989",
"@  c #202a88",
"#  c #20308f",
"$  c #486ec0",
"%  c #6393d9",
"&  c #6e93d6",
"*  c #7597cd",
"=  c #7bb1df",
"-  c #65a7ee",
";  c #6ca7e6",
":  c #6eabf1",
">  c #72a9ec",
",  c #79ace5",
"<  c #7eacea",
"1  c #7fb1e4",
"2  c #73b0f2",
"3  c #79b5f0",
"4  c #9ea7af",
"5  c #a4a5a7",
"6  c #adb4bf",
"7  c #b0b4b8",
"8  c #b5b9ba",
"9  c #bdbebb",
"0  c #85aad5",
"q  c #8aabd8",
"w  c #93aacb",
"e  c #9caac1",
"r  c #92aed7",
"t  c #91b6dc",
"y  c #9eb5d2",
"u  c #85afea",
"i  c #85b0e3",
"p  c #84bee6",
"a  c #8ab4e7",
"s  c #8cb4eb",
"d  c #89bdef",
"f  c #93b6e8",
"g  c #95baee",
"h  c #9ebde1",
"j  c #9abced",
"k  c #9abdf0",
"l  c #a5b6d2",
"z  c #bbbec2",
"x  c #b8bec9",
"c  c #b7bfd0",
"v  c #a0beea",
"b  c #84c0f7",
"n  c #8fc6f6",
"m  c #8bc9fb",
"M  c #94c6e4",
"N  c #9fc1ec",
"B  c #95c0f2",
"V  c #92cdfc",
"C  c #9cc1f2",
"Z  c #9ecdf6",
"A  c #9ccaf9",
"S  c #9dd3fc",
"D  c #acc5d6",
"F  c #abd4df",
"G  c #b3c5ca",
"H  c #b9c0c3",
"J  c #b1c0d3",
"K  c #b5d8dc",
"L  c #bbd3da",
"P  c #a6c4e4",
"I  c #a2cee4",
"U  c #a4c6f2",
"Y  c #a4caf4",
"T  c #a2cef9",
"R  c #abcdf5",
"E  c #add3fa",
"W  c #aedafc",
"Q  c #b1d6eb",
"!  c #b4d6fa",
"~  c #afe2ff",
"^  c #b2e3fc",
"/  c #bce2fc",
"(  c #bfebfb",
")  c #c4c3c3",
"_  c #c5c7c9",
"`  c #c0cdce",
"'  c #cbcbcb",
"]  c #c0c7d4",
"[  c #cecfd1",
"{  c #c0d0d2",
"}  c #cfd1d5",
"|  c #d1cfd0",
" . c #d0d0ce",
".. c #d3d3d3",
"X. c #d5d5d9",
"o. c #d8d7d7",
"O. c #d8d7d9",
"+. c #dbdbdb",
"@. c #cddbea",
"#. c #d2dfeb",
"$. c #c2ecfd",
"%. c #c8e8fd",
"&. c #cbf7ff",
"*. c #dee0e1",
"=. c #dbe3ea",
"-. c #dde8e9",
";. c #d2f4fd",
":. c #ddf5f7",
">. c #d9f8fd",
",. c #e2e2e3",
"<. c #eaeaea",
"1. c #eaf2f3",
"2. c #e9ffff",
"3. c #f5ffff",
/* pixels */
"........o...o. .........' o... .",
"....+.+.*.*.<.,.+.o.o.o. .) ..+.",
"..,.,.<.<.,.*.O.o.' H 6 e w h @.",
"....<.+. .) z z G J P U g k R =.",
"..,...8 _ ..-.:.;./ R v f f Y =.",
"O.+.z 1.3.O 2.>.%.! U k f s Y ,.",
"+.| ` 2.O . O ;.%.! U g a a T ,.",
"+.' { @ @   + + / E C s u i R #.",
"*.) K + O . . O ! E B s < < A *.",
"+.) K &.;.. Q ( W A & + + : Z *.",
"+.9 F ( $.. t * + o o o $ - Z +.",
"+.9 I ^ ^ @   O # % 2 2 : ; P O.",
"+.8 M S S S B V b 3 , 0 y ] *...",
"+.7 p m V m b i r D } o.........",
"..4 = = q l H ' o.....|  ...| ..",
"O.5 c X.+.......| ..........| .."
};
