/* XPM */
static char * folder_xpm[] = {
"16 16 7 1",
" 	c None",
".	c #808080",
"+	c #FFFF00",
"@	c #C0C0C0",
"#	c #FFFFFF",
"$	c #0000FF",
"%	c #000000",
"                ",
"   .....        ",
"  .+@+@+.       ",
" .+@+@+@+...... ",
" .####$$$$####.%",
" .#+@$$+@$$+@+.%",
" .#@+$$@+$$@+@.%",
" .#+@+@+@$$+@+.%",
" .#@+@+@$$+@+@.%",
" .#+@+@$$+@+@+.%",
" .#@+@+@+@+@+@.%",
" .#+@+@$$+@+@+.%",
" ......$$......%",
"  %%%%%%%%%%%%%%",
"                ",
"                "};
