/* XPM */
static char *log_xpm[] = {
/* columns rows colors chars-per-pixel */
"16 16 68 1",
"  c #9f8845",
". c #98886c",
"X c #a48e56",
"o c #a99445",
"O c #a89771",
"+ c #af9d75",
"@ c #baab69",
"# c #b4a674",
"$ c #c9ba70",
"% c #d2c37e",
"& c #928586",
"* c #928993",
"= c #969999",
"- c #9f9f9f",
"; c #8b88bb",
": c #9692b4",
"> c #9c9bbb",
", c #9ba09f",
"< c #9ca1a0",
"1 c #a49ebc",
"2 c #b8ad8f",
"3 c #a4a6a6",
"4 c #aaabab",
"5 c #aeb0af",
"6 c #aeb1b1",
"7 c #b4b4b4",
"8 c #b6b6bd",
"9 c #b5b8b7",
"0 c #b7b8b9",
"q c #b8b7b7",
"w c #bcbab4",
"e c #bbbcbc",
"r c #9b9ccb",
"t c #9d9ed4",
"y c #9ca0ca",
"u c #a0a2cc",
"i c #b5b7c6",
"p c #bdbec2",
"a c #bdc0bf",
"s c #bfc0c0",
"d c #c9bd88",
"f c #c0b59a",
"g c #c7bf9e",
"h c #cdc281",
"j c #c7c1a8",
"k c #c4c3ba",
"l c #d4cdab",
"z c #c2c3c2",
"x c #c1c8c7",
"c c #c5cbca",
"v c #cbcccc",
"b c #ccd1d1",
"n c #ced8d7",
"m c #d2d1d1",
"M c #dadcdc",
"N c #dce2e1",
"B c #dfe9e8",
"V c #e1e2e1",
"C c #e1e8e7",
"Z c #e4ebea",
"A c #ece6e0",
"S c #eceded",
"D c #e8f0ef",
"F c #eef3f3",
"G c #f2f4f4",
"H c #f1f8f7",
"J c #f4faf9",
"K c #fdfefe",
/* pixels */
"zkhlg%j%d2$2#@sz",
"p>*o:.O; u&+rXws",
"8tMczmKKKKKKKAz7",
"8uvMMSKKKKKKKKz7",
"8yczaSKKKKKKKKz7",
"8yJKKKKKKKKJKKc7",
"8yCcze74443-MKz7",
"8ub7vczaz77zSKc7",
"iyc9vVJSGSSJGKz7",
"0us<,=663447SKc7",
"iyBNSHHHJKKKKKz7",
"0yBnccDJHHHJJKz7",
"iyccNVHJHHHJJKz7",
"8rn560SJHHGGJV7e",
"piBCMbcse77474wz",
"ake4770weeszszze"
};
