/* XPM */
static char * nonsvn_file_xpm[] = {
"16 16 6 1",
" 	c None",
".	c #808080",
"+	c #FFFFFF",
"@	c #000000",
"#	c #0000FF",
"$	c #C0C0C0",
" ..........     ",
" .++++++++..    ",
" .++++++++.+.   ",
" .++++++++@@@@  ",
" .+++####+++$@  ",
" .++##++##++$@  ",
" .++##++##++$@  ",
" .++++++##++$@  ",
" .+++++##+++$@  ",
" .++++##++++$@  ",
" .++++++++++$@  ",
" .++++##++++$@  ",
" .++++##++++$@  ",
" .++++++++++$@  ",
" .$$$$$$$$$$$@  ",
" @@@@@@@@@@@@@  "};
