/* XPM */
static char *update_xpm[] = {
/* columns rows colors chars-per-pixel */
"16 16 79 1",
"  c #36ab57",
". c #38ac59",
"X c #42b061",
"o c #4bb469",
"O c #59ba75",
"+ c #67c080",
"@ c #6cc284",
"# c #74c58b",
"$ c #968255",
"% c #978677",
"& c #a58f55",
"* c #a69143",
"= c #a9955a",
"- c #baa95e",
"; c #b1a47c",
": c #cbbd7f",
"> c #dccb7f",
", c #928685",
"< c #908898",
"1 c #918db7",
"2 c #9994ae",
"3 c #87a0b5",
"4 c #aa9f94",
"5 c #b2b5b4",
"6 c #b6b9b8",
"7 c #bdbdbd",
"8 c #8f8dc7",
"9 c #979bcc",
"0 c #9b9ecd",
"q c #9b9dd2",
"w c #a4a1c7",
"e c #aaa9d3",
"r c #bfbdd3",
"t c #bbbed8",
"y c #82cb96",
"u c #8bcf9e",
"i c #acdcba",
"p c #bfc1c1",
"a c #b6e0c2",
"s c #b8e1c4",
"d c #c1b294",
"f c #c4b89e",
"g c #c1b9b9",
"h c #d8cb8b",
"j c #d6ca9d",
"k c #cfc3b3",
"l c #d9d1bb",
"z c #e9dc91",
"x c #c3c3c3",
"c c #c6c8c7",
"v c #c7caca",
"b c #cacaca",
"n c #cfd3d3",
"m c LightGray",
"M c #dbdcdd",
"N c #c6e7d0",
"B c #cfead7",
"V c #d4eddb",
"C c #d9efdf",
"Z c #dde2e4",
"A c #daefe1",
"S c #e3dcc2",
"D c #e2dcd4",
"F c #e0dede",
"G c #ece5c8",
"H c #e7e1db",
"J c #e2e5e4",
"K c #e7ebe9",
"L c #eaebea",
"P c #e9ecf9",
"I c #eef1f0",
"U c #eef8f1",
"Y c #f0efef",
"T c #fcfaef",
"R c #f5f5f6",
"E c #f5faf6",
"W c #f5fbf9",
"Q c #f8f5f2",
"! c #fefefe",
/* pixels */
"!TzSG>Sjhl:jf-l!",
"!w<*2,=8$41&e%;Z",
"!qrdP7SPkQMDRFF7",
"!0!!!!!!!!!!!!L7",
"!0!!aE!!!!!!!!L7",
"!0W!ios!!!!!!!L7",
"!0W!EX.+A!!W!!L7",
"C3VVV#  .uE!!!L7",
".  .      @!!!L7",
"A3VVV#  Xi!!!!L7",
"!0E!WX yU!!!!!L7",
"!0W!iOB!!!!!!!L7",
"!0W!N!!!!!!!!!L7",
"!9W!!!!!!WWLJZc7",
"!tZZMnvp65557xvL",
"!RcpcmMLLRR!!!!!"
};
