/* XPM */
static char * bookmark_xpm[] = {
"16 16 4 1",
"  s None c None",
". c #008080",
"# c #323232",
"a c #00ffff",
"                ",
"          a     ",
"         a#     ",
"        a.#     ",
"       a..#aa#  ",
"      a.....#   ",
"     a.....#    ",
"    a.....#     ",
"   a.....#      ",
"  a.....#       ",
" a.....#        ",
"a.....#######   ",
"a....######     ",
"a...####        ",
" ####           ",
"                "};
