/* XPM */
static char *computer_xpm[] = {
  "16 16 7 1",
  "     s None    c None",
  ".    c #808080",
  "X    c #c0c0c0",
  "o    c Black",
  "O    c Gray100",
  "+    c #008080",
  "@    c Blue",
  "    ........... ",
  "   .XXXXXXXXXX.o",
  "   .OOOOOOOOO..o",
  "   .OoooooooX..o",
  "   .Oo+...@+X..o",
  "   .Oo+XXX.+X..o",
  "   .Oo+....+X..o",
  "   .Oo++++++X..o",
  "   .OXXXXXXXX.oo",
  "   ..........o.o",
  "   ...........Xo",
  "   .XXXXXXXXXX.o",
  "  .o.o.o.o.o...o",
  " .oXoXoXoXoXo.o ",
  ".XOXXXXXXXXX.o  ",
  "............o   "
};
