/* XPM */
static char * logo_xpm[] = {
"156 49 20 1",
" 	c None",
".	c #FFFFFF",
"+	c #AAAAAA",
"@	c #555555",
"#	c #1D1D1D",
"$	c #000000",
"%	c #8E8E8E",
"&	c #E3E3E3",
"*	c #C7C7C7",
"=	c #727272",
"-	c #CBCDEB",
";	c #6266C2",
">	c #969AD6",
",	c #B0B3E0",
"'	c #131AA3",
")	c #2E34AD",
"!	c #E5E6F5",
"~	c #484DB8",
"{	c #7D80CC",
"]	c #393939",
"............................................................................................................................................................",
"............................................................................................................................................................",
"............................................................................................................................................................",
"............................................................................................................................................................",
"............................................................................................................................................................",
"............................................................................................................................................................",
"............................................................................................................................................................",
"............................................................................................................................................................",
"............................................................................................................................................................",
"............................................................................................................................................................",
"..................................................................................................+@#$$$#@%&...&+++++++&...+++++++*&++++++....++++++........",
"................................................................................................&#$$$$$$$$$$%..*$$$$$$$+...$$$$$$$@+$$$$$$*...$$$$$$........",
"...............................................................................................&#$$$$$$$$$$$$=..$$$$$$$=..*$$$$$$$++$$$$$$=...$$$$$$........",
"...............................................................................................@$$$$$$$$$$$$$$&.#$$$$$$@..+$$$$$$$++$$$$$$#...$$$$$$........",
"....................................................................--.........................$$$$$$$@#$$$$$$+.@$$$$$$@..+$$$$$$$&+$$$$$$$*..$$$$$$........",
".......;;;;;;;;>,..................................................>''>..................;',..*$$$$$$=.&$$$$$$@.@$$$$$$@..+$$$$$$$.+$$$$$$$=..$$$$$$........",
"......-'''''''''')!................................................;'';..................~'-..+$$$$$$+..$$$$$$@.+$$$$$$$..@$$$$$$#.+$$$$$$$#..$$$$$$........",
"......,'~,,,,,,{)')!...............................................-))-..................''...+$$$$$$+..$$$$$$@.+$$$$$$$..@$$$$$$@.+$$$$$$$$*.$$$$$$........",
"......,';........;'{.....................................................................''...+$$$$$$%..$$$$$$@..$$$$$$$..@$$$$$$@.+$$$$$$$$=.$$$$$$........",
"......;',........!')....................................................................,';...+$$$$$$#&..........$$$$$$$&.#$$$$$$%.+$$$$$$$$#.$$$$$$........",
"......;',.........''....................................................................,';....$$$$$$$#%.........@$$$$$$+.$$$$$$$+.+$$$$$$$$$&$$$$$$........",
"......~'-........!''........-{~'''~>...{;!....,;,..,;''');-........{;!.......!>;'''~{!..>'{....]$$$$$$$$#*.......@$$$$$$+.$$$$$$$*.+$$$$$$$$$%$$$$$$........",
"......''.........>';......!;''''''''),.''.....;',!~'''''''';.......''.......>''''''''',.;',....*$$$$$$$$$$@&.....+$$$$$$+.$$$$$$$..+$$$$$$$$$]$$$$$$........",
"......''........,''-.....!)')>-...,~''!''.....;';''~,...-{'';......''......;''{,...-{'',;',.....+$$$$$$$$$$#*....+$$$$$$@+$$$$$$$..+$$$$$$$$$$$$$$$$........",
".....,';......,{'';.....!)';........;''';.....'''),.......!)'{....,';.....;')!.......,''''!......+#$$$$$$$$$$+...&$$$$$$@+$$$$$$]..+$$$$$$$$$$$$$$$$........",
".....,'''''''''''{......~';..........;'';.....'''!.........-''!...,';....{')!.........,'''........&@$$$$$$$$$$&...$$$$$$@+$$$$$$@..+$$$$$$$$$$$$$$$$........",
".....>''''''''~{!......>'~...........-''{....!''>...........~',...>'{...!''!...........~')..........*#$$$$$$$$@...]$$$$$]%$$$$$$=..+$$$$$]$$$$$$$$$$........",
".....;',.!''!..........~'-............'',....,')............>';...;',...>'{............;';............=$$$$$$$$...@$$$$$$@$$$$$$+..+$$$$$@]$$$$$$$$$........",
".....;',..>'~.........!''.............;',....,';............,';...;',...~',............,';.....@@@@@@%.+$$$$$$$&..%$$$$$$@$$$$$$+..+$$$$$@=$$$$$$$$$........",
".....''!...~'>........,';.............~'!....;',............,';...''!...''.............>'>.....$$$$$$@..@$$$$$$+..+$$$$$$@$$$$$$...+$$$$$@*$$$$$$$$$........",
".....''....-''!.......,';.............''.....;',............{'{...''....''.............;',.....$$$$$$@..+$$$$$$+..*$$$$$$#$$$$$$...+$$$$$@.$$$$$$$$$........",
"....!').....{'~.......,';............-').....~',............~',..!')....''.............)'-.....$$$$$$@..+$$$$$$+...$$$$$$$$$$$$#...+$$$$$@.@$$$$$$$$........",
"....,';......)'>......!''............~';.....''{...........-')...,';....~',...........>''......$$$$$$@..+$$$$$$+...#$$$$$$$$$$$@...+$$$$$@.+$$$$$$$$........",
"....,';......-''!......)'>..........,'';.....'')!.........!)'>...,';....{'~..........!)''......@$$$$$]..=$$$$$$*...@$$$$$$$$$$$@...+$$$$$@.&$$$$$$$$........",
"....{'>.......{'~......>')!........,'''>....,''';........!)';....{'>....!'',........!)''~......=$$$$$$]]$$$$$$$....=$$$$$$$$$$$+...+$$$$$@..]$$$$$$$........",
"....;',........)',......;''>.....-;'')',....,';~'~-.....>)';.....;',.....,'';!....!>'')';......*$$$$$$$$$$$$$$]....+$$$$$$$$$$$+...+$$$$$@..%$$$$$$$........",
"....~'-........-')!......;''';;;)''),~'-....>'{!)'');;;''';......~'-......,'''~;;~'''>>'{.......+$$$$$$$$$$$$#&....*$$$$$$$$$$$&...+$$$$$@..*$$$$$$$........",
"....''..........{';.......,~'''''){..''.....;',..{)'''''~-.......''........!;''''''{!.;',........+#$$$$$$$$$]&......$$$$$$$$$$$....+$$$$$@...#$$$$$$........",
"............................!,,,!...........;',....-,,,.......................,,,-.................%@#$$$]=*........+++++++++++....&+++++*...*++++++........",
"............................................)'!.............................................................................................................",
"............................................''..............................................................................................................",
"...........................................!')..............................................................................................................",
"...........................................,';..............................................................................................................",
"...........................................,';..............................................................................................................",
"............................................................................................................................................................",
"............................................................................................................................................................",
"............................................................................................................................................................",
"............................................................................................................................................................",
"............................................................................................................................................................"};
