/* XPM */
static char * nonsvn_open_folder_xpm[] = {
"16 16 7 1",
" 	c None",
".	c #808080",
"+	c #FFFFFF",
"@	c #FFFF00",
"#	c #C0C0C0",
"$	c #0000FF",
"%	c #000000",
"                ",
"   .....        ",
"  .+++++.       ",
" .+@#@#@+...... ",
" .+#@#$$$$++++.%",
" .+@#$$@#$$@#@.%",
".....$$..$$..@.%",
".++++++++$$..#.%",
".+@#@#@#$$@@%..%",
" .+@#@#$$@#@#%.%",
" .+#@#@#@#@#@%.%",
"  .+#@#$$@#@@.%%",
"  .....$$......%",
"   %%%%%%%%%%%%%",
"                ",
"                "};
