/* XPM */
static char *refresh_xpm[] = {
/* columns rows colors chars-per-pixel */
"16 16 32 1",
"  c #1c8ac9",
". c #238ecb",
"X c #2c92cc",
"o c #3696cd",
"O c #3a98ce",
"+ c #409dd2",
"@ c #47a1d4",
"# c #4ca3d5",
"$ c #53a6d5",
"% c #55a8d7",
"& c #59a6d2",
"* c #5fa8d3",
"= c #5babd8",
"- c #65abd3",
"; c #68add3",
": c #6bb3dd",
"> c #75b2d4",
", c #7bbbe0",
"< c #85b8d5",
"1 c #8abad6",
"2 c #82bfe2",
"3 c #84c0e2",
"4 c #8bc4e4",
"5 c #92c7e6",
"6 c #94c9e6",
"7 c #9ecde8",
"8 c #a3c4d6",
"9 c #a9c6d6",
"0 c #b6c3ca",
"q c #c0c0c0",
"w c #c3e1f1",
"e c None",
/* pixels */
"eeeeeeeeeeeeeeee",
"eeeeeeeeeeeeeeee",
"eeee<67642eeeeee",
"eeee&4@@&O$eeeee",
"ee8&0$6=.%#Oeeee",
"e1>6 eee7.$X6eee",
"e-,Xeeeee5.#.eee",
"e9%4eeeee4O# eee",
"e&7Xeee %@##;- X",
"e,$2eeee $&=$  e",
"e454+eeee #$  ee",
"ee5,4,,e&e . eee",
"eee4,$:-w>e eeee",
"eeee3,-1-eeeeeee",
"eeeeeeeeeeeeeeee",
"eeeeeeeeeeeeeeee"
};
