/* XPM */
static char *revert_xpm[] = {
/* columns rows colors chars-per-pixel */
"16 16 102 2",
"   c #0314ab",
".  c #0718b0",
"X  c #0c1db1",
"o  c #1524ab",
"O  c #1927af",
"+  c #1020b3",
"@  c #1f2eb7",
"#  c #2533b3",
"$  c #2c39b5",
"%  c #2c3bbc",
"&  c #303ebc",
"*  c #3d4ac1",
"=  c #404dbf",
"-  c #4c57bd",
";  c #4955c3",
":  c #5762c0",
">  c #5963c5",
",  c #646ec5",
"<  c #616ccc",
"1  c #7079cf",
"2  c #9f8845",
"3  c #98886c",
"4  c #a48e56",
"5  c #a99445",
"6  c #a89771",
"7  c #af9d75",
"8  c #baab69",
"9  c #b4a674",
"0  c #c9ba70",
"q  c #d2c37e",
"w  c #928586",
"e  c #928993",
"r  c #8b88bb",
"t  c #9692b4",
"y  c #9c9bbb",
"u  c #a49ebc",
"i  c #b8ad8f",
"p  c #adaeae",
"a  c #aeb0af",
"s  c #b4b4b4",
"d  c #b6b6bd",
"f  c #b5b8b7",
"g  c #b7b8b9",
"h  c #b8b7b7",
"j  c #bcbab4",
"k  c #bbbcbb",
"l  c #8189d0",
"z  c #8a91d0",
"x  c #9b9ccb",
"c  c #9d9ed4",
"v  c #999fdf",
"b  c #9ca0ca",
"n  c #a0a2cc",
"m  c #a4a9d7",
"M  c #b5b7c6",
"N  c #bdbec2",
"B  c #bcb9ce",
"V  c #b0b4d7",
"C  c #b4b8d9",
"Z  c #b8bcde",
"A  c #a2a8e1",
"S  c #adb2e4",
"D  c #b3b9e7",
"F  c #b7bde8",
"G  c #bfc0c1",
"H  c #bdc2ea",
"J  c #c9bd88",
"K  c #c0b59a",
"L  c #c6bb9b",
"P  c #c0b4ab",
"I  c #cdc281",
"U  c #c7c1a8",
"Y  c #c4c3ba",
"T  c #d4cdab",
"R  c #d7cbb8",
"E  c #c2c3c2",
"W  c #c6c9c9",
"Q  c #c1c4de",
"!  c #cdd1d0",
"~  c #d5cece",
"^  c #dadfde",
"/  c #caceed",
"(  c #ccd0ef",
")  c #d7d9ea",
"_  c #d8dbf3",
"`  c #dfe9e8",
"'  c #e0deea",
"]  c #ebe5da",
"[  c #e1e2e1",
"{  c #e2e4ee",
"}  c #e4e8e8",
"|  c #ece6e0",
" . c #ebeeee",
".. c #e2e4f0",
"X. c #e7e9f6",
"o. c #e6ebfd",
"O. c #eeeef5",
"+. c #f0eeef",
"@. c #f3f0ea",
"#. c #f2f3f4",
"$. c #f6fbfa",
"%. c #fefefe",
/* pixels */
"E Y I T L q U I I K 0 i 9 8 P W ",
"N y e 5 t 3 6 r 2 u w 7 x 4 g G ",
"d c B K o.P ] ' R %.~ +.+.| E g ",
"d b %.%.%.%.%.%.%.%.%.%.%.%.E f ",
"d b %.%.%./ > , > < ( %.%.%.E h ",
"d b $.%.%.m + X # 1 / %.%.%.E f ",
"d b $.%.%.F @ & X z %.%.%.%.E h ",
"d b %.%.%.H ; / : o { %.%.%.E h ",
"d b $.%.%._ D %.Z   C %.%.%.E h ",
"d b $.%.%.%.%.%.l   Q %.%.%.E f ",
"d x $.%.v X.O.m O - #.%.%.%.E h ",
"d b $.%.< * ; . $ ) %.%.$.%.E h ",
"d b $.%.S % = V ..%.%.%.%.%.E f ",
"d b $.%.%.%.%.%.$.$.#. .} [ s g ",
"k M ` } ^ ! W E k g s p p p g Y ",
"E E g p a f f g k k G E E G E E "
};
