/* XPM */
static char *template_xpm[] = {
/* columns rows colors chars-per-pixel */
"16 16 60 1",
"  c #000001",
". c #0d0d0c",
"X c #141414",
"o c #5e5e77",
"O c #5e5e7a",
"+ c #61607f",
"@ c #6b6b75",
"# c #727270",
"$ c #73737f",
"% c #7e7e7f",
"& c #7f8185",
"* c #979249",
"= c #9d927b",
"- c #a39154",
"; c #a49c56",
": c #8a8887",
"> c #948c96",
", c #9d918b",
"< c #969195",
"1 c #99999a",
"2 c #a2a2a1",
"3 c #aaaaaa",
"4 c #b7b7b7",
"5 c #a3a3dd",
"6 c #bfbfc0",
"7 c #b2b9f0",
"8 c #bdc4a5",
"9 c #dec5b2",
"0 c #dfd4bb",
"q c #daddbe",
"w c #efdb9a",
"e c #e8dab8",
"r c #f6d8ad",
"t c #f9e5bf",
"y c #c4c4c5",
"u c #c5c5c8",
"i c #cccccc",
"p c #d1d1cf",
"a c #d5d5d5",
"s c #d4d1d8",
"d c #ddd9d4",
"f c #dcdcdc",
"g c #d4dbe5",
"h c #dedfe0",
"j c #dfdeed",
"k c #dadaf3",
"l c #dcdcfb",
"z c #e0dff5",
"x c #f7e6d1",
"c c #e2e2e2",
"v c #e4e4ee",
"b c #ececec",
"n c #e0e1f7",
"m c #efeff0",
"M c #f0efe7",
"N c #ffffe9",
"B c #f1f1f2",
"V c #fefef4",
"C c #fefefe",
"Z c None",
/* pixels */
"Z Z:CCCCCCCVCB.Z",
"Z Z%Nxttrew9qB.Z",
"Z Z$5-,;:<*>=hXZ",
"Z Z+78s0gvfMdyXZ",
"Z ZOlCCCCCCCBuXZ",
"Z ZonCCCCCCCbuXZ",
"Z.ZonCCCCCCCBuXZ",
"Z ZOlVCCCCCCByXZ",
"Z ZOlCCCCCCCByXZ",
"Z ZOjCCCCCCCByXZ",
"Z ZOkCCCCCCCByXZ",
"Z ZOkCCCCCCCByXZ",
"Z.ZokCCCCCCCBiXZ",
"Z ZOkCCCCCCCh4XZ",
"Z Z@vBbcauy44fXZ",
"Z Z#p12444ifba.Z"
};
