/* XPM */
static char *browse_xpm[] = {
/* columns rows colors chars-per-pixel */
"16 16 6 1",
"  c black",
". c #181818",
"X c #000084",
"o c yellow",
"O c #aaa9aa",
"+ c #c1c0c1",
/* pixels */
"+. .++++++++++++",
".+oO......O+++++",
" o+o+o+o+o.+++++",
" +oXo+o+o+.+++++",
" o+oXo+  o.+..++",
" +o+oXo  +.+..++",
" o o+o+  o.+..++",
" +o o     O....+",
"O.....        ..",
"+++++.+    +    ",
"+++++.+    +    ",
"+++++.  .....   ",
"+++++. .O+++O.  ",
"+++++.+.+++++.+ ",
"+++++...+++++...",
"++++++++++++++++"
};
