/* XPM */
static char * modified_versioned_folder_xpm[] = {
"16 16 6 1",
"  s None c None",
". c #000000",
"# c #ff0000",
"a c #808080",
"b c #ffffff",
"c c #c0c0c0",
"                ",
"   aaaaa        ",
"  a#c#c#a       ",
" a#c#c#c#aaaaaa ",
" abbbbbbbbbbbba.",
" ab#c#c#c#c#c#a.",
" abc#c#c#c#c#ca.",
" ab#c#c#c#c#c#a.",
" abc#c#c#c#c#ca.",
" ab#c#c#c#c#c#a.",
" abc#c#c#c#c#ca.",
" ab#c#c#c#c#c#a.",
" aaaaaaaaaaaaaa.",
"  ..............",
"                ",
"                "};
