/* XPM */
static char * replock_normal_file_xpm[] = {
"16 16 5 1",
" 	c None",
".	c #808080",
"+	c #FFFFFF",
"@	c #000000",
"#	c #C0C0C0",
" ..........     ",
" .++++++++..    ",
" .++++++++.+.   ",
" .++++++++@@@@  ",
" .++++++++++#@  ",
" .++......++#@  ",
" .++++++++++#@  ",
" .++......@@@@  ",
" .+++++++@++#@  ",
" .++.....@++#@  ",
" .+++++++@++#@  ",
" .++....@@@@@@@ ",
" .++++++@+++++@ ",
" .++++++@+++++@ ",
" .######@+++++@ ",
" @@@@@@@@@@@@@@ "};
