/* XPM */
static char * stop_xpm[] = {
"16 16 3 1",
" 	c None",
".	c #FFFFFF",
"+	c #FF0000",
"                ",
"     ......     ",
"    .++++++.    ",
"   .++++++++.   ",
"  .++++++++++.  ",
" .+++++++++++.  ",
" .++++++++++++. ",
" .++++++++++++. ",
" .++++++++++++. ",
" .++++++++++++. ",
" .+++++++++++.  ",
"  .++++++++++.  ",
"   .++++++++.   ",
"    .++++++.    ",
"     ......     ",
"                "};
